%TF.GenerationSoftware,KiCad,Pcbnew,(7.0.0)*%
%TF.CreationDate,2023-07-30T12:50:24+02:00*%
%TF.ProjectId,RealyModul_1Wire_ADC,5265616c-794d-46f6-9475-6c5f31576972,rev?*%
%TF.SameCoordinates,Original*%
%TF.FileFunction,Drillmap*%
%TF.FilePolarity,Positive*%
%FSLAX45Y45*%
G04 Gerber Fmt 4.5, Leading zero omitted, Abs format (unit mm)*
G04 Created by KiCad (PCBNEW (7.0.0)) date 2023-07-30 12:50:24*
%MOMM*%
%LPD*%
G01*
G04 APERTURE LIST*
%ADD10C,0.150000*%
%ADD11C,0.152400*%
%ADD12C,0.200000*%
%ADD13C,0.030000*%
%ADD14C,0.040000*%
%ADD15C,0.090000*%
%ADD16C,0.100000*%
%ADD17C,0.110000*%
%ADD18C,0.130000*%
G04 APERTURE END LIST*
D10*
X16450500Y-9931400D02*
G75*
G03*
X16450500Y-10185400I0J-127000D01*
G01*
D11*
X10990000Y-15240000D02*
X10990730Y-15235370D01*
X15429994Y-15240000D02*
G75*
G03*
X15331520Y-15159760I-85994J-4990D01*
G01*
X15320000Y-4956800D02*
G75*
G03*
X15419510Y-4881190I11950J87560D01*
G01*
D10*
X8890000Y-10299700D02*
G75*
G03*
X9004300Y-10185400I0J114300D01*
G01*
X17415700Y-9931400D02*
X16450500Y-9931400D01*
D11*
X8890000Y-4876800D02*
X8890000Y-9817100D01*
D10*
X9004300Y-9931400D02*
G75*
G03*
X8890000Y-9817100I-114300J0D01*
G01*
D11*
X8890000Y-15240000D02*
X10990000Y-15240000D01*
X11000000Y-4876800D02*
X8890000Y-4876800D01*
D10*
X9004300Y-10185400D02*
X9969500Y-10185400D01*
D11*
X15320000Y-15160000D02*
X15331520Y-15159760D01*
X15430000Y-15240000D02*
X17530000Y-15240000D01*
X11000000Y-4876800D02*
G75*
G03*
X11085610Y-4957290I83050J2560D01*
G01*
X11100000Y-15160000D02*
X15320000Y-15160000D01*
D10*
X17415700Y-10185400D02*
G75*
G03*
X17530000Y-10299700I114300J0D01*
G01*
D11*
X15320000Y-4956800D02*
X11100000Y-4956800D01*
D10*
X9004300Y-9931400D02*
X9969500Y-9931400D01*
X17415700Y-10185400D02*
X16450500Y-10185400D01*
D11*
X8890000Y-10299700D02*
X8890000Y-15240000D01*
D10*
X9969500Y-10185400D02*
G75*
G03*
X9969500Y-9931400I0J127000D01*
G01*
D11*
X11100000Y-15160000D02*
G75*
G03*
X10990730Y-15235370I-16950J-92320D01*
G01*
X17530000Y-4876800D02*
X15420000Y-4876800D01*
X17530000Y-10299700D02*
X17530000Y-15240000D01*
X15420000Y-4876800D02*
X15419510Y-4881190D01*
X11100000Y-4956800D02*
X11085610Y-4957290D01*
X17530000Y-4876800D02*
X17530000Y-9817100D01*
D10*
X17530000Y-9817100D02*
G75*
G03*
X17415700Y-9931400I0J-114300D01*
G01*
D12*
D13*
X14259600Y-13396250D02*
X14289600Y-13426250D01*
X14289600Y-13396250D02*
X14259600Y-13426250D01*
X14259600Y-13548750D02*
X14289600Y-13578750D01*
X14289600Y-13548750D02*
X14259600Y-13578750D01*
X14335850Y-13320000D02*
X14365850Y-13350000D01*
X14365850Y-13320000D02*
X14335850Y-13350000D01*
X14335850Y-13472500D02*
X14365850Y-13502500D01*
X14365850Y-13472500D02*
X14335850Y-13502500D01*
X14335850Y-13625000D02*
X14365850Y-13655000D01*
X14365850Y-13625000D02*
X14335850Y-13655000D01*
X14412100Y-13396250D02*
X14442100Y-13426250D01*
X14442100Y-13396250D02*
X14412100Y-13426250D01*
X14412100Y-13548750D02*
X14442100Y-13578750D01*
X14442100Y-13548750D02*
X14412100Y-13578750D01*
X14488350Y-13320000D02*
X14518350Y-13350000D01*
X14518350Y-13320000D02*
X14488350Y-13350000D01*
X14488350Y-13472500D02*
X14518350Y-13502500D01*
X14518350Y-13472500D02*
X14488350Y-13502500D01*
X14488350Y-13625000D02*
X14518350Y-13655000D01*
X14518350Y-13625000D02*
X14488350Y-13655000D01*
X14564600Y-13396250D02*
X14594600Y-13426250D01*
X14594600Y-13396250D02*
X14564600Y-13426250D01*
X14564600Y-13548750D02*
X14594600Y-13578750D01*
X14594600Y-13548750D02*
X14564600Y-13578750D01*
D14*
X9913300Y-14160500D02*
G75*
G03*
X9913300Y-14160500I-20000J0D01*
G01*
X10395900Y-14566900D02*
G75*
G03*
X10395900Y-14566900I-20000J0D01*
G01*
X10472100Y-14160500D02*
G75*
G03*
X10472100Y-14160500I-20000J0D01*
G01*
X11043600Y-14160500D02*
G75*
G03*
X11043600Y-14160500I-20000J0D01*
G01*
X11087800Y-12192000D02*
G75*
G03*
X11087800Y-12192000I-20000J0D01*
G01*
X11100500Y-10998200D02*
G75*
G03*
X11100500Y-10998200I-20000J0D01*
G01*
X11100500Y-11595100D02*
G75*
G03*
X11100500Y-11595100I-20000J0D01*
G01*
X11100500Y-12776200D02*
G75*
G03*
X11100500Y-12776200I-20000J0D01*
G01*
X11462700Y-14160500D02*
G75*
G03*
X11462700Y-14160500I-20000J0D01*
G01*
X11818300Y-13970000D02*
G75*
G03*
X11818300Y-13970000I-20000J0D01*
G01*
X11996100Y-13792200D02*
G75*
G03*
X11996100Y-13792200I-20000J0D01*
G01*
X12135800Y-11849100D02*
G75*
G03*
X12135800Y-11849100I-20000J0D01*
G01*
X12135800Y-12446000D02*
G75*
G03*
X12135800Y-12446000I-20000J0D01*
G01*
X12135800Y-13030200D02*
G75*
G03*
X12135800Y-13030200I-20000J0D01*
G01*
X12148500Y-11252200D02*
G75*
G03*
X12148500Y-11252200I-20000J0D01*
G01*
X12148500Y-13385800D02*
G75*
G03*
X12148500Y-13385800I-20000J0D01*
G01*
X12237400Y-14579600D02*
G75*
G03*
X12237400Y-14579600I-20000J0D01*
G01*
X12377100Y-10883900D02*
G75*
G03*
X12377100Y-10883900I-20000J0D01*
G01*
X12415200Y-12547600D02*
G75*
G03*
X12415200Y-12547600I-20000J0D01*
G01*
X12415200Y-12661900D02*
G75*
G03*
X12415200Y-12661900I-20000J0D01*
G01*
X12415200Y-12776200D02*
G75*
G03*
X12415200Y-12776200I-20000J0D01*
G01*
X12529500Y-12433300D02*
G75*
G03*
X12529500Y-12433300I-20000J0D01*
G01*
X12732700Y-6565900D02*
G75*
G03*
X12732700Y-6565900I-20000J0D01*
G01*
X12783500Y-10883900D02*
G75*
G03*
X12783500Y-10883900I-20000J0D01*
G01*
X12961300Y-13868400D02*
G75*
G03*
X12961300Y-13868400I-20000J0D01*
G01*
X13164500Y-8145750D02*
G75*
G03*
X13164500Y-8145750I-20000J0D01*
G01*
X13291500Y-10883900D02*
G75*
G03*
X13291500Y-10883900I-20000J0D01*
G01*
X13304200Y-13208000D02*
G75*
G03*
X13304200Y-13208000I-20000J0D01*
G01*
X13304200Y-13335000D02*
G75*
G03*
X13304200Y-13335000I-20000J0D01*
G01*
X13786800Y-12115800D02*
G75*
G03*
X13786800Y-12115800I-20000J0D01*
G01*
X13837600Y-12598400D02*
G75*
G03*
X13837600Y-12598400I-20000J0D01*
G01*
X13850300Y-6515100D02*
G75*
G03*
X13850300Y-6515100I-20000J0D01*
G01*
X13939200Y-8140700D02*
G75*
G03*
X13939200Y-8140700I-20000J0D01*
G01*
X14002700Y-10883900D02*
G75*
G03*
X14002700Y-10883900I-20000J0D01*
G01*
X14091600Y-8712200D02*
G75*
G03*
X14091600Y-8712200I-20000J0D01*
G01*
X14498000Y-12687300D02*
G75*
G03*
X14498000Y-12687300I-20000J0D01*
G01*
X14586900Y-12636500D02*
G75*
G03*
X14586900Y-12636500I-20000J0D01*
G01*
X14663100Y-12725400D02*
G75*
G03*
X14663100Y-12725400I-20000J0D01*
G01*
X14713900Y-10858500D02*
G75*
G03*
X14713900Y-10858500I-20000J0D01*
G01*
X14739300Y-12611100D02*
G75*
G03*
X14739300Y-12611100I-20000J0D01*
G01*
X14879000Y-10287000D02*
G75*
G03*
X14879000Y-10287000I-20000J0D01*
G01*
X14879000Y-10693400D02*
G75*
G03*
X14879000Y-10693400I-20000J0D01*
G01*
X15056800Y-11480800D02*
G75*
G03*
X15056800Y-11480800I-20000J0D01*
G01*
X15069500Y-13042900D02*
G75*
G03*
X15069500Y-13042900I-20000J0D01*
G01*
X15393693Y-11474967D02*
G75*
G03*
X15393693Y-11474967I-20000J0D01*
G01*
X15399700Y-13957300D02*
G75*
G03*
X15399700Y-13957300I-20000J0D01*
G01*
X15450500Y-11633200D02*
G75*
G03*
X15450500Y-11633200I-20000J0D01*
G01*
X15501300Y-12570500D02*
G75*
G03*
X15501300Y-12570500I-20000J0D01*
G01*
X15501300Y-12697500D02*
G75*
G03*
X15501300Y-12697500I-20000J0D01*
G01*
X15501300Y-12824500D02*
G75*
G03*
X15501300Y-12824500I-20000J0D01*
G01*
X15501300Y-12954000D02*
G75*
G03*
X15501300Y-12954000I-20000J0D01*
G01*
X15548000Y-13487400D02*
G75*
G03*
X15548000Y-13487400I-20000J0D01*
G01*
X15552100Y-11595100D02*
G75*
G03*
X15552100Y-11595100I-20000J0D01*
G01*
X15552100Y-12217400D02*
G75*
G03*
X15552100Y-12217400I-20000J0D01*
G01*
X16288700Y-11112500D02*
G75*
G03*
X16288700Y-11112500I-20000J0D01*
G01*
X16288700Y-11468100D02*
G75*
G03*
X16288700Y-11468100I-20000J0D01*
G01*
X16288700Y-11976100D02*
G75*
G03*
X16288700Y-11976100I-20000J0D01*
G01*
X16288700Y-12687300D02*
G75*
G03*
X16288700Y-12687300I-20000J0D01*
G01*
X16288700Y-13182600D02*
G75*
G03*
X16288700Y-13182600I-20000J0D01*
G01*
X16288700Y-13677900D02*
G75*
G03*
X16288700Y-13677900I-20000J0D01*
G01*
X16288700Y-14211300D02*
G75*
G03*
X16288700Y-14211300I-20000J0D01*
G01*
D15*
X13284200Y-11342550D02*
X13284200Y-11432550D01*
X13239200Y-11387550D02*
X13329200Y-11387550D01*
X13284200Y-11596550D02*
X13284200Y-11686550D01*
X13239200Y-11641550D02*
X13329200Y-11641550D01*
X14071600Y-11342550D02*
X14071600Y-11432550D01*
X14026600Y-11387550D02*
X14116600Y-11387550D01*
X14071600Y-11596550D02*
X14071600Y-11686550D01*
X14026600Y-11641550D02*
X14116600Y-11641550D01*
D16*
X12633756Y-13522756D02*
X12633756Y-13452044D01*
X12563044Y-13452044D01*
X12563044Y-13522756D01*
X12633756Y-13522756D01*
X12633756Y-13776756D02*
X12633756Y-13706044D01*
X12563044Y-13706044D01*
X12563044Y-13776756D01*
X12633756Y-13776756D01*
X12633756Y-14030756D02*
X12633756Y-13960044D01*
X12563044Y-13960044D01*
X12563044Y-14030756D01*
X12633756Y-14030756D01*
X12633756Y-14284756D02*
X12633756Y-14214044D01*
X12563044Y-14214044D01*
X12563044Y-14284756D01*
X12633756Y-14284756D01*
X12633756Y-14538756D02*
X12633756Y-14468044D01*
X12563044Y-14468044D01*
X12563044Y-14538756D01*
X12633756Y-14538756D01*
X12633756Y-14792756D02*
X12633756Y-14722044D01*
X12563044Y-14722044D01*
X12563044Y-14792756D01*
X12633756Y-14792756D01*
D17*
X9151065Y-14215500D02*
X9206065Y-14160500D01*
X9151065Y-14105500D01*
X9096065Y-14160500D01*
X9151065Y-14215500D01*
X9151065Y-14596500D02*
X9206065Y-14541500D01*
X9151065Y-14486500D01*
X9096065Y-14541500D01*
X9151065Y-14596500D01*
X9152335Y-14977500D02*
X9207335Y-14922500D01*
X9152335Y-14867500D01*
X9097335Y-14922500D01*
X9152335Y-14977500D01*
X17200800Y-10507100D02*
X17255800Y-10452100D01*
X17200800Y-10397100D01*
X17145800Y-10452100D01*
X17200800Y-10507100D01*
X17200800Y-10888100D02*
X17255800Y-10833100D01*
X17200800Y-10778100D01*
X17145800Y-10833100D01*
X17200800Y-10888100D01*
X17200800Y-11268600D02*
X17255800Y-11213600D01*
X17200800Y-11158600D01*
X17145800Y-11213600D01*
X17200800Y-11268600D01*
X17200800Y-11649600D02*
X17255800Y-11594600D01*
X17200800Y-11539600D01*
X17145800Y-11594600D01*
X17200800Y-11649600D01*
X17200800Y-12208400D02*
X17255800Y-12153400D01*
X17200800Y-12098400D01*
X17145800Y-12153400D01*
X17200800Y-12208400D01*
X17200800Y-12589400D02*
X17255800Y-12534400D01*
X17200800Y-12479400D01*
X17145800Y-12534400D01*
X17200800Y-12589400D01*
X17200800Y-12970400D02*
X17255800Y-12915400D01*
X17200800Y-12860400D01*
X17145800Y-12915400D01*
X17200800Y-12970400D01*
X17200800Y-13351400D02*
X17255800Y-13296400D01*
X17200800Y-13241400D01*
X17145800Y-13296400D01*
X17200800Y-13351400D01*
D18*
X9206000Y-5158100D02*
X9336000Y-5288100D01*
X9336000Y-5158100D02*
X9206000Y-5288100D01*
X9336000Y-5223100D02*
G75*
G03*
X9336000Y-5223100I-65000J0D01*
G01*
X9206000Y-5658100D02*
X9336000Y-5788100D01*
X9336000Y-5658100D02*
X9206000Y-5788100D01*
X9336000Y-5723100D02*
G75*
G03*
X9336000Y-5723100I-65000J0D01*
G01*
X9206000Y-6161400D02*
X9336000Y-6291400D01*
X9336000Y-6161400D02*
X9206000Y-6291400D01*
X9336000Y-6226400D02*
G75*
G03*
X9336000Y-6226400I-65000J0D01*
G01*
X9206000Y-6661400D02*
X9336000Y-6791400D01*
X9336000Y-6661400D02*
X9206000Y-6791400D01*
X9336000Y-6726400D02*
G75*
G03*
X9336000Y-6726400I-65000J0D01*
G01*
X9206000Y-7164700D02*
X9336000Y-7294700D01*
X9336000Y-7164700D02*
X9206000Y-7294700D01*
X9336000Y-7229700D02*
G75*
G03*
X9336000Y-7229700I-65000J0D01*
G01*
X9206000Y-7664700D02*
X9336000Y-7794700D01*
X9336000Y-7664700D02*
X9206000Y-7794700D01*
X9336000Y-7729700D02*
G75*
G03*
X9336000Y-7729700I-65000J0D01*
G01*
X9206000Y-8790300D02*
X9336000Y-8920300D01*
X9336000Y-8790300D02*
X9206000Y-8920300D01*
X9336000Y-8855300D02*
G75*
G03*
X9336000Y-8855300I-65000J0D01*
G01*
X9206000Y-9290300D02*
X9336000Y-9420300D01*
X9336000Y-9290300D02*
X9206000Y-9420300D01*
X9336000Y-9355300D02*
G75*
G03*
X9336000Y-9355300I-65000J0D01*
G01*
X9206000Y-10682600D02*
X9336000Y-10812600D01*
X9336000Y-10682600D02*
X9206000Y-10812600D01*
X9336000Y-10747600D02*
G75*
G03*
X9336000Y-10747600I-65000J0D01*
G01*
X9206000Y-11182600D02*
X9336000Y-11312600D01*
X9336000Y-11182600D02*
X9206000Y-11312600D01*
X9336000Y-11247600D02*
G75*
G03*
X9336000Y-11247600I-65000J0D01*
G01*
X9206000Y-11682500D02*
X9336000Y-11812500D01*
X9336000Y-11682500D02*
X9206000Y-11812500D01*
X9336000Y-11747500D02*
G75*
G03*
X9336000Y-11747500I-65000J0D01*
G01*
X9206000Y-12182500D02*
X9336000Y-12312500D01*
X9336000Y-12182500D02*
X9206000Y-12312500D01*
X9336000Y-12247500D02*
G75*
G03*
X9336000Y-12247500I-65000J0D01*
G01*
X10213300Y-5357700D02*
X10343300Y-5487700D01*
X10343300Y-5357700D02*
X10213300Y-5487700D01*
X10343300Y-5422700D02*
G75*
G03*
X10343300Y-5422700I-65000J0D01*
G01*
X10213300Y-6107700D02*
X10343300Y-6237700D01*
X10343300Y-6107700D02*
X10213300Y-6237700D01*
X10343300Y-6172700D02*
G75*
G03*
X10343300Y-6172700I-65000J0D01*
G01*
X10232500Y-7014900D02*
X10362500Y-7144900D01*
X10362500Y-7014900D02*
X10232500Y-7144900D01*
X10362500Y-7079900D02*
G75*
G03*
X10362500Y-7079900I-65000J0D01*
G01*
X10232500Y-7764900D02*
X10362500Y-7894900D01*
X10362500Y-7764900D02*
X10232500Y-7894900D01*
X10362500Y-7829900D02*
G75*
G03*
X10362500Y-7829900I-65000J0D01*
G01*
X10717300Y-5357700D02*
X10847300Y-5487700D01*
X10847300Y-5357700D02*
X10717300Y-5487700D01*
X10847300Y-5422700D02*
G75*
G03*
X10847300Y-5422700I-65000J0D01*
G01*
X10717300Y-6107700D02*
X10847300Y-6237700D01*
X10847300Y-6107700D02*
X10717300Y-6237700D01*
X10847300Y-6172700D02*
G75*
G03*
X10847300Y-6172700I-65000J0D01*
G01*
X10736500Y-7014900D02*
X10866500Y-7144900D01*
X10866500Y-7014900D02*
X10736500Y-7144900D01*
X10866500Y-7079900D02*
G75*
G03*
X10866500Y-7079900I-65000J0D01*
G01*
X10736500Y-7764900D02*
X10866500Y-7894900D01*
X10866500Y-7764900D02*
X10736500Y-7894900D01*
X10866500Y-7829900D02*
G75*
G03*
X10866500Y-7829900I-65000J0D01*
G01*
X11221300Y-5357700D02*
X11351300Y-5487700D01*
X11351300Y-5357700D02*
X11221300Y-5487700D01*
X11351300Y-5422700D02*
G75*
G03*
X11351300Y-5422700I-65000J0D01*
G01*
X11221300Y-6107700D02*
X11351300Y-6237700D01*
X11351300Y-6107700D02*
X11221300Y-6237700D01*
X11351300Y-6172700D02*
G75*
G03*
X11351300Y-6172700I-65000J0D01*
G01*
X11240500Y-7014900D02*
X11370500Y-7144900D01*
X11370500Y-7014900D02*
X11240500Y-7144900D01*
X11370500Y-7079900D02*
G75*
G03*
X11370500Y-7079900I-65000J0D01*
G01*
X11240500Y-7764900D02*
X11370500Y-7894900D01*
X11370500Y-7764900D02*
X11240500Y-7894900D01*
X11370500Y-7829900D02*
G75*
G03*
X11370500Y-7829900I-65000J0D01*
G01*
X12747300Y-5357700D02*
X12877300Y-5487700D01*
X12877300Y-5357700D02*
X12747300Y-5487700D01*
X12877300Y-5422700D02*
G75*
G03*
X12877300Y-5422700I-65000J0D01*
G01*
X12747300Y-6107700D02*
X12877300Y-6237700D01*
X12877300Y-6107700D02*
X12747300Y-6237700D01*
X12877300Y-6172700D02*
G75*
G03*
X12877300Y-6172700I-65000J0D01*
G01*
X12766500Y-7014900D02*
X12896500Y-7144900D01*
X12896500Y-7014900D02*
X12766500Y-7144900D01*
X12896500Y-7079900D02*
G75*
G03*
X12896500Y-7079900I-65000J0D01*
G01*
X12766500Y-7764900D02*
X12896500Y-7894900D01*
X12896500Y-7764900D02*
X12766500Y-7894900D01*
X12896500Y-7829900D02*
G75*
G03*
X12896500Y-7829900I-65000J0D01*
G01*
X13540900Y-5351200D02*
X13670900Y-5481200D01*
X13670900Y-5351200D02*
X13540900Y-5481200D01*
X13670900Y-5416200D02*
G75*
G03*
X13670900Y-5416200I-65000J0D01*
G01*
X13540900Y-6101200D02*
X13670900Y-6231200D01*
X13670900Y-6101200D02*
X13540900Y-6231200D01*
X13670900Y-6166200D02*
G75*
G03*
X13670900Y-6166200I-65000J0D01*
G01*
X13540900Y-7014900D02*
X13670900Y-7144900D01*
X13670900Y-7014900D02*
X13540900Y-7144900D01*
X13670900Y-7079900D02*
G75*
G03*
X13670900Y-7079900I-65000J0D01*
G01*
X13540900Y-7764900D02*
X13670900Y-7894900D01*
X13670900Y-7764900D02*
X13540900Y-7894900D01*
X13670900Y-7829900D02*
G75*
G03*
X13670900Y-7829900I-65000J0D01*
G01*
X15066900Y-5351200D02*
X15196900Y-5481200D01*
X15196900Y-5351200D02*
X15066900Y-5481200D01*
X15196900Y-5416200D02*
G75*
G03*
X15196900Y-5416200I-65000J0D01*
G01*
X15066900Y-6101200D02*
X15196900Y-6231200D01*
X15196900Y-6101200D02*
X15066900Y-6231200D01*
X15196900Y-6166200D02*
G75*
G03*
X15196900Y-6166200I-65000J0D01*
G01*
X15066900Y-7014900D02*
X15196900Y-7144900D01*
X15196900Y-7014900D02*
X15066900Y-7144900D01*
X15196900Y-7079900D02*
G75*
G03*
X15196900Y-7079900I-65000J0D01*
G01*
X15066900Y-7764900D02*
X15196900Y-7894900D01*
X15196900Y-7764900D02*
X15066900Y-7894900D01*
X15196900Y-7829900D02*
G75*
G03*
X15196900Y-7829900I-65000J0D01*
G01*
X15570900Y-5351200D02*
X15700900Y-5481200D01*
X15700900Y-5351200D02*
X15570900Y-5481200D01*
X15700900Y-5416200D02*
G75*
G03*
X15700900Y-5416200I-65000J0D01*
G01*
X15570900Y-6101200D02*
X15700900Y-6231200D01*
X15700900Y-6101200D02*
X15570900Y-6231200D01*
X15700900Y-6166200D02*
G75*
G03*
X15700900Y-6166200I-65000J0D01*
G01*
X15570900Y-7014900D02*
X15700900Y-7144900D01*
X15700900Y-7014900D02*
X15570900Y-7144900D01*
X15700900Y-7079900D02*
G75*
G03*
X15700900Y-7079900I-65000J0D01*
G01*
X15570900Y-7764900D02*
X15700900Y-7894900D01*
X15700900Y-7764900D02*
X15570900Y-7894900D01*
X15700900Y-7829900D02*
G75*
G03*
X15700900Y-7829900I-65000J0D01*
G01*
X16074900Y-5351200D02*
X16204900Y-5481200D01*
X16204900Y-5351200D02*
X16074900Y-5481200D01*
X16204900Y-5416200D02*
G75*
G03*
X16204900Y-5416200I-65000J0D01*
G01*
X16074900Y-6101200D02*
X16204900Y-6231200D01*
X16204900Y-6101200D02*
X16074900Y-6231200D01*
X16204900Y-6166200D02*
G75*
G03*
X16204900Y-6166200I-65000J0D01*
G01*
X16074900Y-7014900D02*
X16204900Y-7144900D01*
X16204900Y-7014900D02*
X16074900Y-7144900D01*
X16204900Y-7079900D02*
G75*
G03*
X16204900Y-7079900I-65000J0D01*
G01*
X16074900Y-7764900D02*
X16204900Y-7894900D01*
X16204900Y-7764900D02*
X16074900Y-7894900D01*
X16204900Y-7829900D02*
G75*
G03*
X16204900Y-7829900I-65000J0D01*
G01*
X17092700Y-5213500D02*
X17222700Y-5343500D01*
X17222700Y-5213500D02*
X17092700Y-5343500D01*
X17222700Y-5278500D02*
G75*
G03*
X17222700Y-5278500I-65000J0D01*
G01*
X17092700Y-5713500D02*
X17222700Y-5843500D01*
X17222700Y-5713500D02*
X17092700Y-5843500D01*
X17222700Y-5778500D02*
G75*
G03*
X17222700Y-5778500I-65000J0D01*
G01*
X17092700Y-6213400D02*
X17222700Y-6343400D01*
X17222700Y-6213400D02*
X17092700Y-6343400D01*
X17222700Y-6278400D02*
G75*
G03*
X17222700Y-6278400I-65000J0D01*
G01*
X17092700Y-6713400D02*
X17222700Y-6843400D01*
X17222700Y-6713400D02*
X17092700Y-6843400D01*
X17222700Y-6778400D02*
G75*
G03*
X17222700Y-6778400I-65000J0D01*
G01*
X17092700Y-7216700D02*
X17222700Y-7346700D01*
X17222700Y-7216700D02*
X17092700Y-7346700D01*
X17222700Y-7281700D02*
G75*
G03*
X17222700Y-7281700I-65000J0D01*
G01*
X17092700Y-7716700D02*
X17222700Y-7846700D01*
X17222700Y-7716700D02*
X17092700Y-7846700D01*
X17222700Y-7781700D02*
G75*
G03*
X17222700Y-7781700I-65000J0D01*
G01*
D10*
X10467950Y-9274600D02*
X10617950Y-9424600D01*
X10617950Y-9274600D02*
X10467950Y-9424600D01*
X10542950Y-9274600D02*
X10542950Y-9424600D01*
X10467950Y-9349600D02*
X10617950Y-9349600D01*
X10467950Y-10349600D02*
X10617950Y-10499600D01*
X10617950Y-10349600D02*
X10467950Y-10499600D01*
X10542950Y-10349600D02*
X10542950Y-10499600D01*
X10467950Y-10424600D02*
X10617950Y-10424600D01*
X14317950Y-9549600D02*
X14467950Y-9699600D01*
X14467950Y-9549600D02*
X14317950Y-9699600D01*
X14392950Y-9549600D02*
X14392950Y-9699600D01*
X14317950Y-9624600D02*
X14467950Y-9624600D01*
X14317950Y-10349600D02*
X14467950Y-10499600D01*
X14467950Y-10349600D02*
X14317950Y-10499600D01*
X14392950Y-10349600D02*
X14392950Y-10499600D01*
X14317950Y-10424600D02*
X14467950Y-10424600D01*
D12*
X9129999Y-15541096D02*
X9129999Y-15341096D01*
X9129999Y-15341096D02*
X9177618Y-15341096D01*
X9177618Y-15341096D02*
X9206190Y-15350620D01*
X9206190Y-15350620D02*
X9225237Y-15369668D01*
X9225237Y-15369668D02*
X9234761Y-15388715D01*
X9234761Y-15388715D02*
X9244285Y-15426810D01*
X9244285Y-15426810D02*
X9244285Y-15455382D01*
X9244285Y-15455382D02*
X9234761Y-15493477D01*
X9234761Y-15493477D02*
X9225237Y-15512525D01*
X9225237Y-15512525D02*
X9206190Y-15531572D01*
X9206190Y-15531572D02*
X9177618Y-15541096D01*
X9177618Y-15541096D02*
X9129999Y-15541096D01*
X9329999Y-15541096D02*
X9329999Y-15407763D01*
X9329999Y-15445858D02*
X9339523Y-15426810D01*
X9339523Y-15426810D02*
X9349047Y-15417287D01*
X9349047Y-15417287D02*
X9368094Y-15407763D01*
X9368094Y-15407763D02*
X9387142Y-15407763D01*
X9453809Y-15541096D02*
X9453809Y-15407763D01*
X9453809Y-15341096D02*
X9444285Y-15350620D01*
X9444285Y-15350620D02*
X9453809Y-15360144D01*
X9453809Y-15360144D02*
X9463332Y-15350620D01*
X9463332Y-15350620D02*
X9453809Y-15341096D01*
X9453809Y-15341096D02*
X9453809Y-15360144D01*
X9577618Y-15541096D02*
X9558570Y-15531572D01*
X9558570Y-15531572D02*
X9549047Y-15512525D01*
X9549047Y-15512525D02*
X9549047Y-15341096D01*
X9682380Y-15541096D02*
X9663332Y-15531572D01*
X9663332Y-15531572D02*
X9653809Y-15512525D01*
X9653809Y-15512525D02*
X9653809Y-15341096D01*
X9878570Y-15541096D02*
X9878570Y-15341096D01*
X9878570Y-15341096D02*
X9945237Y-15483953D01*
X9945237Y-15483953D02*
X10011904Y-15341096D01*
X10011904Y-15341096D02*
X10011904Y-15541096D01*
X10192856Y-15541096D02*
X10192856Y-15436334D01*
X10192856Y-15436334D02*
X10183332Y-15417287D01*
X10183332Y-15417287D02*
X10164285Y-15407763D01*
X10164285Y-15407763D02*
X10126189Y-15407763D01*
X10126189Y-15407763D02*
X10107142Y-15417287D01*
X10192856Y-15531572D02*
X10173809Y-15541096D01*
X10173809Y-15541096D02*
X10126189Y-15541096D01*
X10126189Y-15541096D02*
X10107142Y-15531572D01*
X10107142Y-15531572D02*
X10097618Y-15512525D01*
X10097618Y-15512525D02*
X10097618Y-15493477D01*
X10097618Y-15493477D02*
X10107142Y-15474429D01*
X10107142Y-15474429D02*
X10126189Y-15464906D01*
X10126189Y-15464906D02*
X10173809Y-15464906D01*
X10173809Y-15464906D02*
X10192856Y-15455382D01*
X10288094Y-15407763D02*
X10288094Y-15607763D01*
X10288094Y-15417287D02*
X10307142Y-15407763D01*
X10307142Y-15407763D02*
X10345237Y-15407763D01*
X10345237Y-15407763D02*
X10364285Y-15417287D01*
X10364285Y-15417287D02*
X10373809Y-15426810D01*
X10373809Y-15426810D02*
X10383332Y-15445858D01*
X10383332Y-15445858D02*
X10383332Y-15503001D01*
X10383332Y-15503001D02*
X10373809Y-15522048D01*
X10373809Y-15522048D02*
X10364285Y-15531572D01*
X10364285Y-15531572D02*
X10345237Y-15541096D01*
X10345237Y-15541096D02*
X10307142Y-15541096D01*
X10307142Y-15541096D02*
X10288094Y-15531572D01*
X10469047Y-15522048D02*
X10478570Y-15531572D01*
X10478570Y-15531572D02*
X10469047Y-15541096D01*
X10469047Y-15541096D02*
X10459523Y-15531572D01*
X10459523Y-15531572D02*
X10469047Y-15522048D01*
X10469047Y-15522048D02*
X10469047Y-15541096D01*
X10469047Y-15417287D02*
X10478570Y-15426810D01*
X10478570Y-15426810D02*
X10469047Y-15436334D01*
X10469047Y-15436334D02*
X10459523Y-15426810D01*
X10459523Y-15426810D02*
X10469047Y-15417287D01*
X10469047Y-15417287D02*
X10469047Y-15436334D01*
D13*
X8852380Y-15872620D02*
X8882380Y-15902620D01*
X8882380Y-15872620D02*
X8852380Y-15902620D01*
D12*
X9168094Y-15761096D02*
X9187142Y-15761096D01*
X9187142Y-15761096D02*
X9206190Y-15770620D01*
X9206190Y-15770620D02*
X9215713Y-15780144D01*
X9215713Y-15780144D02*
X9225237Y-15799191D01*
X9225237Y-15799191D02*
X9234761Y-15837287D01*
X9234761Y-15837287D02*
X9234761Y-15884906D01*
X9234761Y-15884906D02*
X9225237Y-15923001D01*
X9225237Y-15923001D02*
X9215713Y-15942048D01*
X9215713Y-15942048D02*
X9206190Y-15951572D01*
X9206190Y-15951572D02*
X9187142Y-15961096D01*
X9187142Y-15961096D02*
X9168094Y-15961096D01*
X9168094Y-15961096D02*
X9149047Y-15951572D01*
X9149047Y-15951572D02*
X9139523Y-15942048D01*
X9139523Y-15942048D02*
X9129999Y-15923001D01*
X9129999Y-15923001D02*
X9120475Y-15884906D01*
X9120475Y-15884906D02*
X9120475Y-15837287D01*
X9120475Y-15837287D02*
X9129999Y-15799191D01*
X9129999Y-15799191D02*
X9139523Y-15780144D01*
X9139523Y-15780144D02*
X9149047Y-15770620D01*
X9149047Y-15770620D02*
X9168094Y-15761096D01*
X9320475Y-15942048D02*
X9329999Y-15951572D01*
X9329999Y-15951572D02*
X9320475Y-15961096D01*
X9320475Y-15961096D02*
X9310951Y-15951572D01*
X9310951Y-15951572D02*
X9320475Y-15942048D01*
X9320475Y-15942048D02*
X9320475Y-15961096D01*
X9396666Y-15761096D02*
X9520475Y-15761096D01*
X9520475Y-15761096D02*
X9453809Y-15837287D01*
X9453809Y-15837287D02*
X9482380Y-15837287D01*
X9482380Y-15837287D02*
X9501428Y-15846810D01*
X9501428Y-15846810D02*
X9510951Y-15856334D01*
X9510951Y-15856334D02*
X9520475Y-15875382D01*
X9520475Y-15875382D02*
X9520475Y-15923001D01*
X9520475Y-15923001D02*
X9510951Y-15942048D01*
X9510951Y-15942048D02*
X9501428Y-15951572D01*
X9501428Y-15951572D02*
X9482380Y-15961096D01*
X9482380Y-15961096D02*
X9425237Y-15961096D01*
X9425237Y-15961096D02*
X9406190Y-15951572D01*
X9406190Y-15951572D02*
X9396666Y-15942048D01*
X9644285Y-15761096D02*
X9663332Y-15761096D01*
X9663332Y-15761096D02*
X9682380Y-15770620D01*
X9682380Y-15770620D02*
X9691904Y-15780144D01*
X9691904Y-15780144D02*
X9701428Y-15799191D01*
X9701428Y-15799191D02*
X9710951Y-15837287D01*
X9710951Y-15837287D02*
X9710951Y-15884906D01*
X9710951Y-15884906D02*
X9701428Y-15923001D01*
X9701428Y-15923001D02*
X9691904Y-15942048D01*
X9691904Y-15942048D02*
X9682380Y-15951572D01*
X9682380Y-15951572D02*
X9663332Y-15961096D01*
X9663332Y-15961096D02*
X9644285Y-15961096D01*
X9644285Y-15961096D02*
X9625237Y-15951572D01*
X9625237Y-15951572D02*
X9615713Y-15942048D01*
X9615713Y-15942048D02*
X9606190Y-15923001D01*
X9606190Y-15923001D02*
X9596666Y-15884906D01*
X9596666Y-15884906D02*
X9596666Y-15837287D01*
X9596666Y-15837287D02*
X9606190Y-15799191D01*
X9606190Y-15799191D02*
X9615713Y-15780144D01*
X9615713Y-15780144D02*
X9625237Y-15770620D01*
X9625237Y-15770620D02*
X9644285Y-15761096D01*
X9834761Y-15761096D02*
X9853809Y-15761096D01*
X9853809Y-15761096D02*
X9872856Y-15770620D01*
X9872856Y-15770620D02*
X9882380Y-15780144D01*
X9882380Y-15780144D02*
X9891904Y-15799191D01*
X9891904Y-15799191D02*
X9901428Y-15837287D01*
X9901428Y-15837287D02*
X9901428Y-15884906D01*
X9901428Y-15884906D02*
X9891904Y-15923001D01*
X9891904Y-15923001D02*
X9882380Y-15942048D01*
X9882380Y-15942048D02*
X9872856Y-15951572D01*
X9872856Y-15951572D02*
X9853809Y-15961096D01*
X9853809Y-15961096D02*
X9834761Y-15961096D01*
X9834761Y-15961096D02*
X9815713Y-15951572D01*
X9815713Y-15951572D02*
X9806190Y-15942048D01*
X9806190Y-15942048D02*
X9796666Y-15923001D01*
X9796666Y-15923001D02*
X9787142Y-15884906D01*
X9787142Y-15884906D02*
X9787142Y-15837287D01*
X9787142Y-15837287D02*
X9796666Y-15799191D01*
X9796666Y-15799191D02*
X9806190Y-15780144D01*
X9806190Y-15780144D02*
X9815713Y-15770620D01*
X9815713Y-15770620D02*
X9834761Y-15761096D01*
X9987142Y-15961096D02*
X9987142Y-15827763D01*
X9987142Y-15846810D02*
X9996666Y-15837287D01*
X9996666Y-15837287D02*
X10015713Y-15827763D01*
X10015713Y-15827763D02*
X10044285Y-15827763D01*
X10044285Y-15827763D02*
X10063332Y-15837287D01*
X10063332Y-15837287D02*
X10072856Y-15856334D01*
X10072856Y-15856334D02*
X10072856Y-15961096D01*
X10072856Y-15856334D02*
X10082380Y-15837287D01*
X10082380Y-15837287D02*
X10101428Y-15827763D01*
X10101428Y-15827763D02*
X10129999Y-15827763D01*
X10129999Y-15827763D02*
X10149047Y-15837287D01*
X10149047Y-15837287D02*
X10158571Y-15856334D01*
X10158571Y-15856334D02*
X10158571Y-15961096D01*
X10253809Y-15961096D02*
X10253809Y-15827763D01*
X10253809Y-15846810D02*
X10263332Y-15837287D01*
X10263332Y-15837287D02*
X10282380Y-15827763D01*
X10282380Y-15827763D02*
X10310952Y-15827763D01*
X10310952Y-15827763D02*
X10329999Y-15837287D01*
X10329999Y-15837287D02*
X10339523Y-15856334D01*
X10339523Y-15856334D02*
X10339523Y-15961096D01*
X10339523Y-15856334D02*
X10349047Y-15837287D01*
X10349047Y-15837287D02*
X10368094Y-15827763D01*
X10368094Y-15827763D02*
X10396666Y-15827763D01*
X10396666Y-15827763D02*
X10415713Y-15837287D01*
X10415713Y-15837287D02*
X10425237Y-15856334D01*
X10425237Y-15856334D02*
X10425237Y-15961096D01*
X10783332Y-15751572D02*
X10611904Y-16008715D01*
X11008094Y-15761096D02*
X11027142Y-15761096D01*
X11027142Y-15761096D02*
X11046190Y-15770620D01*
X11046190Y-15770620D02*
X11055713Y-15780144D01*
X11055713Y-15780144D02*
X11065237Y-15799191D01*
X11065237Y-15799191D02*
X11074761Y-15837287D01*
X11074761Y-15837287D02*
X11074761Y-15884906D01*
X11074761Y-15884906D02*
X11065237Y-15923001D01*
X11065237Y-15923001D02*
X11055713Y-15942048D01*
X11055713Y-15942048D02*
X11046190Y-15951572D01*
X11046190Y-15951572D02*
X11027142Y-15961096D01*
X11027142Y-15961096D02*
X11008094Y-15961096D01*
X11008094Y-15961096D02*
X10989047Y-15951572D01*
X10989047Y-15951572D02*
X10979523Y-15942048D01*
X10979523Y-15942048D02*
X10969999Y-15923001D01*
X10969999Y-15923001D02*
X10960475Y-15884906D01*
X10960475Y-15884906D02*
X10960475Y-15837287D01*
X10960475Y-15837287D02*
X10969999Y-15799191D01*
X10969999Y-15799191D02*
X10979523Y-15780144D01*
X10979523Y-15780144D02*
X10989047Y-15770620D01*
X10989047Y-15770620D02*
X11008094Y-15761096D01*
X11160475Y-15942048D02*
X11169999Y-15951572D01*
X11169999Y-15951572D02*
X11160475Y-15961096D01*
X11160475Y-15961096D02*
X11150952Y-15951572D01*
X11150952Y-15951572D02*
X11160475Y-15942048D01*
X11160475Y-15942048D02*
X11160475Y-15961096D01*
X11293809Y-15761096D02*
X11312856Y-15761096D01*
X11312856Y-15761096D02*
X11331904Y-15770620D01*
X11331904Y-15770620D02*
X11341428Y-15780144D01*
X11341428Y-15780144D02*
X11350951Y-15799191D01*
X11350951Y-15799191D02*
X11360475Y-15837287D01*
X11360475Y-15837287D02*
X11360475Y-15884906D01*
X11360475Y-15884906D02*
X11350951Y-15923001D01*
X11350951Y-15923001D02*
X11341428Y-15942048D01*
X11341428Y-15942048D02*
X11331904Y-15951572D01*
X11331904Y-15951572D02*
X11312856Y-15961096D01*
X11312856Y-15961096D02*
X11293809Y-15961096D01*
X11293809Y-15961096D02*
X11274761Y-15951572D01*
X11274761Y-15951572D02*
X11265237Y-15942048D01*
X11265237Y-15942048D02*
X11255713Y-15923001D01*
X11255713Y-15923001D02*
X11246190Y-15884906D01*
X11246190Y-15884906D02*
X11246190Y-15837287D01*
X11246190Y-15837287D02*
X11255713Y-15799191D01*
X11255713Y-15799191D02*
X11265237Y-15780144D01*
X11265237Y-15780144D02*
X11274761Y-15770620D01*
X11274761Y-15770620D02*
X11293809Y-15761096D01*
X11550951Y-15961096D02*
X11436666Y-15961096D01*
X11493809Y-15961096D02*
X11493809Y-15761096D01*
X11493809Y-15761096D02*
X11474761Y-15789668D01*
X11474761Y-15789668D02*
X11455713Y-15808715D01*
X11455713Y-15808715D02*
X11436666Y-15818239D01*
X11741428Y-15961096D02*
X11627142Y-15961096D01*
X11684285Y-15961096D02*
X11684285Y-15761096D01*
X11684285Y-15761096D02*
X11665237Y-15789668D01*
X11665237Y-15789668D02*
X11646190Y-15808715D01*
X11646190Y-15808715D02*
X11627142Y-15818239D01*
X11855713Y-15846810D02*
X11836666Y-15837287D01*
X11836666Y-15837287D02*
X11827142Y-15827763D01*
X11827142Y-15827763D02*
X11817618Y-15808715D01*
X11817618Y-15808715D02*
X11817618Y-15799191D01*
X11817618Y-15799191D02*
X11827142Y-15780144D01*
X11827142Y-15780144D02*
X11836666Y-15770620D01*
X11836666Y-15770620D02*
X11855713Y-15761096D01*
X11855713Y-15761096D02*
X11893809Y-15761096D01*
X11893809Y-15761096D02*
X11912856Y-15770620D01*
X11912856Y-15770620D02*
X11922380Y-15780144D01*
X11922380Y-15780144D02*
X11931904Y-15799191D01*
X11931904Y-15799191D02*
X11931904Y-15808715D01*
X11931904Y-15808715D02*
X11922380Y-15827763D01*
X11922380Y-15827763D02*
X11912856Y-15837287D01*
X11912856Y-15837287D02*
X11893809Y-15846810D01*
X11893809Y-15846810D02*
X11855713Y-15846810D01*
X11855713Y-15846810D02*
X11836666Y-15856334D01*
X11836666Y-15856334D02*
X11827142Y-15865858D01*
X11827142Y-15865858D02*
X11817618Y-15884906D01*
X11817618Y-15884906D02*
X11817618Y-15923001D01*
X11817618Y-15923001D02*
X11827142Y-15942048D01*
X11827142Y-15942048D02*
X11836666Y-15951572D01*
X11836666Y-15951572D02*
X11855713Y-15961096D01*
X11855713Y-15961096D02*
X11893809Y-15961096D01*
X11893809Y-15961096D02*
X11912856Y-15951572D01*
X11912856Y-15951572D02*
X11922380Y-15942048D01*
X11922380Y-15942048D02*
X11931904Y-15923001D01*
X11931904Y-15923001D02*
X11931904Y-15884906D01*
X11931904Y-15884906D02*
X11922380Y-15865858D01*
X11922380Y-15865858D02*
X11912856Y-15856334D01*
X11912856Y-15856334D02*
X11893809Y-15846810D01*
X12008094Y-15761096D02*
X12008094Y-15799191D01*
X12084285Y-15761096D02*
X12084285Y-15799191D01*
X12347142Y-16037287D02*
X12337618Y-16027763D01*
X12337618Y-16027763D02*
X12318571Y-15999191D01*
X12318571Y-15999191D02*
X12309047Y-15980144D01*
X12309047Y-15980144D02*
X12299523Y-15951572D01*
X12299523Y-15951572D02*
X12289999Y-15903953D01*
X12289999Y-15903953D02*
X12289999Y-15865858D01*
X12289999Y-15865858D02*
X12299523Y-15818239D01*
X12299523Y-15818239D02*
X12309047Y-15789668D01*
X12309047Y-15789668D02*
X12318571Y-15770620D01*
X12318571Y-15770620D02*
X12337618Y-15742048D01*
X12337618Y-15742048D02*
X12347142Y-15732525D01*
X12528094Y-15961096D02*
X12413809Y-15961096D01*
X12470951Y-15961096D02*
X12470951Y-15761096D01*
X12470951Y-15761096D02*
X12451904Y-15789668D01*
X12451904Y-15789668D02*
X12432856Y-15808715D01*
X12432856Y-15808715D02*
X12413809Y-15818239D01*
X12604285Y-15780144D02*
X12613809Y-15770620D01*
X12613809Y-15770620D02*
X12632856Y-15761096D01*
X12632856Y-15761096D02*
X12680475Y-15761096D01*
X12680475Y-15761096D02*
X12699523Y-15770620D01*
X12699523Y-15770620D02*
X12709047Y-15780144D01*
X12709047Y-15780144D02*
X12718571Y-15799191D01*
X12718571Y-15799191D02*
X12718571Y-15818239D01*
X12718571Y-15818239D02*
X12709047Y-15846810D01*
X12709047Y-15846810D02*
X12594761Y-15961096D01*
X12594761Y-15961096D02*
X12718571Y-15961096D01*
X12924285Y-15961096D02*
X12924285Y-15761096D01*
X13009999Y-15961096D02*
X13009999Y-15856334D01*
X13009999Y-15856334D02*
X13000475Y-15837287D01*
X13000475Y-15837287D02*
X12981428Y-15827763D01*
X12981428Y-15827763D02*
X12952856Y-15827763D01*
X12952856Y-15827763D02*
X12933809Y-15837287D01*
X12933809Y-15837287D02*
X12924285Y-15846810D01*
X13133809Y-15961096D02*
X13114761Y-15951572D01*
X13114761Y-15951572D02*
X13105237Y-15942048D01*
X13105237Y-15942048D02*
X13095713Y-15923001D01*
X13095713Y-15923001D02*
X13095713Y-15865858D01*
X13095713Y-15865858D02*
X13105237Y-15846810D01*
X13105237Y-15846810D02*
X13114761Y-15837287D01*
X13114761Y-15837287D02*
X13133809Y-15827763D01*
X13133809Y-15827763D02*
X13162380Y-15827763D01*
X13162380Y-15827763D02*
X13181428Y-15837287D01*
X13181428Y-15837287D02*
X13190952Y-15846810D01*
X13190952Y-15846810D02*
X13200475Y-15865858D01*
X13200475Y-15865858D02*
X13200475Y-15923001D01*
X13200475Y-15923001D02*
X13190952Y-15942048D01*
X13190952Y-15942048D02*
X13181428Y-15951572D01*
X13181428Y-15951572D02*
X13162380Y-15961096D01*
X13162380Y-15961096D02*
X13133809Y-15961096D01*
X13314761Y-15961096D02*
X13295713Y-15951572D01*
X13295713Y-15951572D02*
X13286190Y-15932525D01*
X13286190Y-15932525D02*
X13286190Y-15761096D01*
X13467142Y-15951572D02*
X13448094Y-15961096D01*
X13448094Y-15961096D02*
X13409999Y-15961096D01*
X13409999Y-15961096D02*
X13390952Y-15951572D01*
X13390952Y-15951572D02*
X13381428Y-15932525D01*
X13381428Y-15932525D02*
X13381428Y-15856334D01*
X13381428Y-15856334D02*
X13390952Y-15837287D01*
X13390952Y-15837287D02*
X13409999Y-15827763D01*
X13409999Y-15827763D02*
X13448094Y-15827763D01*
X13448094Y-15827763D02*
X13467142Y-15837287D01*
X13467142Y-15837287D02*
X13476666Y-15856334D01*
X13476666Y-15856334D02*
X13476666Y-15875382D01*
X13476666Y-15875382D02*
X13381428Y-15894429D01*
X13552856Y-15951572D02*
X13571904Y-15961096D01*
X13571904Y-15961096D02*
X13609999Y-15961096D01*
X13609999Y-15961096D02*
X13629047Y-15951572D01*
X13629047Y-15951572D02*
X13638571Y-15932525D01*
X13638571Y-15932525D02*
X13638571Y-15923001D01*
X13638571Y-15923001D02*
X13629047Y-15903953D01*
X13629047Y-15903953D02*
X13609999Y-15894429D01*
X13609999Y-15894429D02*
X13581428Y-15894429D01*
X13581428Y-15894429D02*
X13562380Y-15884906D01*
X13562380Y-15884906D02*
X13552856Y-15865858D01*
X13552856Y-15865858D02*
X13552856Y-15856334D01*
X13552856Y-15856334D02*
X13562380Y-15837287D01*
X13562380Y-15837287D02*
X13581428Y-15827763D01*
X13581428Y-15827763D02*
X13609999Y-15827763D01*
X13609999Y-15827763D02*
X13629047Y-15837287D01*
X13705237Y-16037287D02*
X13714761Y-16027763D01*
X13714761Y-16027763D02*
X13733809Y-15999191D01*
X13733809Y-15999191D02*
X13743333Y-15980144D01*
X13743333Y-15980144D02*
X13752856Y-15951572D01*
X13752856Y-15951572D02*
X13762380Y-15903953D01*
X13762380Y-15903953D02*
X13762380Y-15865858D01*
X13762380Y-15865858D02*
X13752856Y-15818239D01*
X13752856Y-15818239D02*
X13743333Y-15789668D01*
X13743333Y-15789668D02*
X13733809Y-15770620D01*
X13733809Y-15770620D02*
X13714761Y-15742048D01*
X13714761Y-15742048D02*
X13705237Y-15732525D01*
D14*
X8882380Y-16151620D02*
G75*
G03*
X8882380Y-16151620I-20000J0D01*
G01*
D12*
X9168094Y-16025096D02*
X9187142Y-16025096D01*
X9187142Y-16025096D02*
X9206190Y-16034620D01*
X9206190Y-16034620D02*
X9215713Y-16044144D01*
X9215713Y-16044144D02*
X9225237Y-16063191D01*
X9225237Y-16063191D02*
X9234761Y-16101287D01*
X9234761Y-16101287D02*
X9234761Y-16148906D01*
X9234761Y-16148906D02*
X9225237Y-16187001D01*
X9225237Y-16187001D02*
X9215713Y-16206048D01*
X9215713Y-16206048D02*
X9206190Y-16215572D01*
X9206190Y-16215572D02*
X9187142Y-16225096D01*
X9187142Y-16225096D02*
X9168094Y-16225096D01*
X9168094Y-16225096D02*
X9149047Y-16215572D01*
X9149047Y-16215572D02*
X9139523Y-16206048D01*
X9139523Y-16206048D02*
X9129999Y-16187001D01*
X9129999Y-16187001D02*
X9120475Y-16148906D01*
X9120475Y-16148906D02*
X9120475Y-16101287D01*
X9120475Y-16101287D02*
X9129999Y-16063191D01*
X9129999Y-16063191D02*
X9139523Y-16044144D01*
X9139523Y-16044144D02*
X9149047Y-16034620D01*
X9149047Y-16034620D02*
X9168094Y-16025096D01*
X9320475Y-16206048D02*
X9329999Y-16215572D01*
X9329999Y-16215572D02*
X9320475Y-16225096D01*
X9320475Y-16225096D02*
X9310951Y-16215572D01*
X9310951Y-16215572D02*
X9320475Y-16206048D01*
X9320475Y-16206048D02*
X9320475Y-16225096D01*
X9501428Y-16091763D02*
X9501428Y-16225096D01*
X9453809Y-16015572D02*
X9406190Y-16158429D01*
X9406190Y-16158429D02*
X9529999Y-16158429D01*
X9644285Y-16025096D02*
X9663332Y-16025096D01*
X9663332Y-16025096D02*
X9682380Y-16034620D01*
X9682380Y-16034620D02*
X9691904Y-16044144D01*
X9691904Y-16044144D02*
X9701428Y-16063191D01*
X9701428Y-16063191D02*
X9710951Y-16101287D01*
X9710951Y-16101287D02*
X9710951Y-16148906D01*
X9710951Y-16148906D02*
X9701428Y-16187001D01*
X9701428Y-16187001D02*
X9691904Y-16206048D01*
X9691904Y-16206048D02*
X9682380Y-16215572D01*
X9682380Y-16215572D02*
X9663332Y-16225096D01*
X9663332Y-16225096D02*
X9644285Y-16225096D01*
X9644285Y-16225096D02*
X9625237Y-16215572D01*
X9625237Y-16215572D02*
X9615713Y-16206048D01*
X9615713Y-16206048D02*
X9606190Y-16187001D01*
X9606190Y-16187001D02*
X9596666Y-16148906D01*
X9596666Y-16148906D02*
X9596666Y-16101287D01*
X9596666Y-16101287D02*
X9606190Y-16063191D01*
X9606190Y-16063191D02*
X9615713Y-16044144D01*
X9615713Y-16044144D02*
X9625237Y-16034620D01*
X9625237Y-16034620D02*
X9644285Y-16025096D01*
X9834761Y-16025096D02*
X9853809Y-16025096D01*
X9853809Y-16025096D02*
X9872856Y-16034620D01*
X9872856Y-16034620D02*
X9882380Y-16044144D01*
X9882380Y-16044144D02*
X9891904Y-16063191D01*
X9891904Y-16063191D02*
X9901428Y-16101287D01*
X9901428Y-16101287D02*
X9901428Y-16148906D01*
X9901428Y-16148906D02*
X9891904Y-16187001D01*
X9891904Y-16187001D02*
X9882380Y-16206048D01*
X9882380Y-16206048D02*
X9872856Y-16215572D01*
X9872856Y-16215572D02*
X9853809Y-16225096D01*
X9853809Y-16225096D02*
X9834761Y-16225096D01*
X9834761Y-16225096D02*
X9815713Y-16215572D01*
X9815713Y-16215572D02*
X9806190Y-16206048D01*
X9806190Y-16206048D02*
X9796666Y-16187001D01*
X9796666Y-16187001D02*
X9787142Y-16148906D01*
X9787142Y-16148906D02*
X9787142Y-16101287D01*
X9787142Y-16101287D02*
X9796666Y-16063191D01*
X9796666Y-16063191D02*
X9806190Y-16044144D01*
X9806190Y-16044144D02*
X9815713Y-16034620D01*
X9815713Y-16034620D02*
X9834761Y-16025096D01*
X9987142Y-16225096D02*
X9987142Y-16091763D01*
X9987142Y-16110810D02*
X9996666Y-16101287D01*
X9996666Y-16101287D02*
X10015713Y-16091763D01*
X10015713Y-16091763D02*
X10044285Y-16091763D01*
X10044285Y-16091763D02*
X10063332Y-16101287D01*
X10063332Y-16101287D02*
X10072856Y-16120334D01*
X10072856Y-16120334D02*
X10072856Y-16225096D01*
X10072856Y-16120334D02*
X10082380Y-16101287D01*
X10082380Y-16101287D02*
X10101428Y-16091763D01*
X10101428Y-16091763D02*
X10129999Y-16091763D01*
X10129999Y-16091763D02*
X10149047Y-16101287D01*
X10149047Y-16101287D02*
X10158571Y-16120334D01*
X10158571Y-16120334D02*
X10158571Y-16225096D01*
X10253809Y-16225096D02*
X10253809Y-16091763D01*
X10253809Y-16110810D02*
X10263332Y-16101287D01*
X10263332Y-16101287D02*
X10282380Y-16091763D01*
X10282380Y-16091763D02*
X10310952Y-16091763D01*
X10310952Y-16091763D02*
X10329999Y-16101287D01*
X10329999Y-16101287D02*
X10339523Y-16120334D01*
X10339523Y-16120334D02*
X10339523Y-16225096D01*
X10339523Y-16120334D02*
X10349047Y-16101287D01*
X10349047Y-16101287D02*
X10368094Y-16091763D01*
X10368094Y-16091763D02*
X10396666Y-16091763D01*
X10396666Y-16091763D02*
X10415713Y-16101287D01*
X10415713Y-16101287D02*
X10425237Y-16120334D01*
X10425237Y-16120334D02*
X10425237Y-16225096D01*
X10783332Y-16015572D02*
X10611904Y-16272715D01*
X11008094Y-16025096D02*
X11027142Y-16025096D01*
X11027142Y-16025096D02*
X11046190Y-16034620D01*
X11046190Y-16034620D02*
X11055713Y-16044144D01*
X11055713Y-16044144D02*
X11065237Y-16063191D01*
X11065237Y-16063191D02*
X11074761Y-16101287D01*
X11074761Y-16101287D02*
X11074761Y-16148906D01*
X11074761Y-16148906D02*
X11065237Y-16187001D01*
X11065237Y-16187001D02*
X11055713Y-16206048D01*
X11055713Y-16206048D02*
X11046190Y-16215572D01*
X11046190Y-16215572D02*
X11027142Y-16225096D01*
X11027142Y-16225096D02*
X11008094Y-16225096D01*
X11008094Y-16225096D02*
X10989047Y-16215572D01*
X10989047Y-16215572D02*
X10979523Y-16206048D01*
X10979523Y-16206048D02*
X10969999Y-16187001D01*
X10969999Y-16187001D02*
X10960475Y-16148906D01*
X10960475Y-16148906D02*
X10960475Y-16101287D01*
X10960475Y-16101287D02*
X10969999Y-16063191D01*
X10969999Y-16063191D02*
X10979523Y-16044144D01*
X10979523Y-16044144D02*
X10989047Y-16034620D01*
X10989047Y-16034620D02*
X11008094Y-16025096D01*
X11160475Y-16206048D02*
X11169999Y-16215572D01*
X11169999Y-16215572D02*
X11160475Y-16225096D01*
X11160475Y-16225096D02*
X11150952Y-16215572D01*
X11150952Y-16215572D02*
X11160475Y-16206048D01*
X11160475Y-16206048D02*
X11160475Y-16225096D01*
X11293809Y-16025096D02*
X11312856Y-16025096D01*
X11312856Y-16025096D02*
X11331904Y-16034620D01*
X11331904Y-16034620D02*
X11341428Y-16044144D01*
X11341428Y-16044144D02*
X11350951Y-16063191D01*
X11350951Y-16063191D02*
X11360475Y-16101287D01*
X11360475Y-16101287D02*
X11360475Y-16148906D01*
X11360475Y-16148906D02*
X11350951Y-16187001D01*
X11350951Y-16187001D02*
X11341428Y-16206048D01*
X11341428Y-16206048D02*
X11331904Y-16215572D01*
X11331904Y-16215572D02*
X11312856Y-16225096D01*
X11312856Y-16225096D02*
X11293809Y-16225096D01*
X11293809Y-16225096D02*
X11274761Y-16215572D01*
X11274761Y-16215572D02*
X11265237Y-16206048D01*
X11265237Y-16206048D02*
X11255713Y-16187001D01*
X11255713Y-16187001D02*
X11246190Y-16148906D01*
X11246190Y-16148906D02*
X11246190Y-16101287D01*
X11246190Y-16101287D02*
X11255713Y-16063191D01*
X11255713Y-16063191D02*
X11265237Y-16044144D01*
X11265237Y-16044144D02*
X11274761Y-16034620D01*
X11274761Y-16034620D02*
X11293809Y-16025096D01*
X11550951Y-16225096D02*
X11436666Y-16225096D01*
X11493809Y-16225096D02*
X11493809Y-16025096D01*
X11493809Y-16025096D02*
X11474761Y-16053668D01*
X11474761Y-16053668D02*
X11455713Y-16072715D01*
X11455713Y-16072715D02*
X11436666Y-16082239D01*
X11731904Y-16025096D02*
X11636666Y-16025096D01*
X11636666Y-16025096D02*
X11627142Y-16120334D01*
X11627142Y-16120334D02*
X11636666Y-16110810D01*
X11636666Y-16110810D02*
X11655713Y-16101287D01*
X11655713Y-16101287D02*
X11703332Y-16101287D01*
X11703332Y-16101287D02*
X11722380Y-16110810D01*
X11722380Y-16110810D02*
X11731904Y-16120334D01*
X11731904Y-16120334D02*
X11741428Y-16139382D01*
X11741428Y-16139382D02*
X11741428Y-16187001D01*
X11741428Y-16187001D02*
X11731904Y-16206048D01*
X11731904Y-16206048D02*
X11722380Y-16215572D01*
X11722380Y-16215572D02*
X11703332Y-16225096D01*
X11703332Y-16225096D02*
X11655713Y-16225096D01*
X11655713Y-16225096D02*
X11636666Y-16215572D01*
X11636666Y-16215572D02*
X11627142Y-16206048D01*
X11808094Y-16025096D02*
X11941428Y-16025096D01*
X11941428Y-16025096D02*
X11855713Y-16225096D01*
X12008094Y-16025096D02*
X12008094Y-16063191D01*
X12084285Y-16025096D02*
X12084285Y-16063191D01*
X12347142Y-16301287D02*
X12337618Y-16291763D01*
X12337618Y-16291763D02*
X12318571Y-16263191D01*
X12318571Y-16263191D02*
X12309047Y-16244144D01*
X12309047Y-16244144D02*
X12299523Y-16215572D01*
X12299523Y-16215572D02*
X12289999Y-16167953D01*
X12289999Y-16167953D02*
X12289999Y-16129858D01*
X12289999Y-16129858D02*
X12299523Y-16082239D01*
X12299523Y-16082239D02*
X12309047Y-16053668D01*
X12309047Y-16053668D02*
X12318571Y-16034620D01*
X12318571Y-16034620D02*
X12337618Y-16006048D01*
X12337618Y-16006048D02*
X12347142Y-15996525D01*
X12509047Y-16025096D02*
X12470951Y-16025096D01*
X12470951Y-16025096D02*
X12451904Y-16034620D01*
X12451904Y-16034620D02*
X12442380Y-16044144D01*
X12442380Y-16044144D02*
X12423332Y-16072715D01*
X12423332Y-16072715D02*
X12413809Y-16110810D01*
X12413809Y-16110810D02*
X12413809Y-16187001D01*
X12413809Y-16187001D02*
X12423332Y-16206048D01*
X12423332Y-16206048D02*
X12432856Y-16215572D01*
X12432856Y-16215572D02*
X12451904Y-16225096D01*
X12451904Y-16225096D02*
X12489999Y-16225096D01*
X12489999Y-16225096D02*
X12509047Y-16215572D01*
X12509047Y-16215572D02*
X12518571Y-16206048D01*
X12518571Y-16206048D02*
X12528094Y-16187001D01*
X12528094Y-16187001D02*
X12528094Y-16139382D01*
X12528094Y-16139382D02*
X12518571Y-16120334D01*
X12518571Y-16120334D02*
X12509047Y-16110810D01*
X12509047Y-16110810D02*
X12489999Y-16101287D01*
X12489999Y-16101287D02*
X12451904Y-16101287D01*
X12451904Y-16101287D02*
X12432856Y-16110810D01*
X12432856Y-16110810D02*
X12423332Y-16120334D01*
X12423332Y-16120334D02*
X12413809Y-16139382D01*
X12718571Y-16225096D02*
X12604285Y-16225096D01*
X12661428Y-16225096D02*
X12661428Y-16025096D01*
X12661428Y-16025096D02*
X12642380Y-16053668D01*
X12642380Y-16053668D02*
X12623332Y-16072715D01*
X12623332Y-16072715D02*
X12604285Y-16082239D01*
X12924285Y-16225096D02*
X12924285Y-16025096D01*
X13009999Y-16225096D02*
X13009999Y-16120334D01*
X13009999Y-16120334D02*
X13000475Y-16101287D01*
X13000475Y-16101287D02*
X12981428Y-16091763D01*
X12981428Y-16091763D02*
X12952856Y-16091763D01*
X12952856Y-16091763D02*
X12933809Y-16101287D01*
X12933809Y-16101287D02*
X12924285Y-16110810D01*
X13133809Y-16225096D02*
X13114761Y-16215572D01*
X13114761Y-16215572D02*
X13105237Y-16206048D01*
X13105237Y-16206048D02*
X13095713Y-16187001D01*
X13095713Y-16187001D02*
X13095713Y-16129858D01*
X13095713Y-16129858D02*
X13105237Y-16110810D01*
X13105237Y-16110810D02*
X13114761Y-16101287D01*
X13114761Y-16101287D02*
X13133809Y-16091763D01*
X13133809Y-16091763D02*
X13162380Y-16091763D01*
X13162380Y-16091763D02*
X13181428Y-16101287D01*
X13181428Y-16101287D02*
X13190952Y-16110810D01*
X13190952Y-16110810D02*
X13200475Y-16129858D01*
X13200475Y-16129858D02*
X13200475Y-16187001D01*
X13200475Y-16187001D02*
X13190952Y-16206048D01*
X13190952Y-16206048D02*
X13181428Y-16215572D01*
X13181428Y-16215572D02*
X13162380Y-16225096D01*
X13162380Y-16225096D02*
X13133809Y-16225096D01*
X13314761Y-16225096D02*
X13295713Y-16215572D01*
X13295713Y-16215572D02*
X13286190Y-16196525D01*
X13286190Y-16196525D02*
X13286190Y-16025096D01*
X13467142Y-16215572D02*
X13448094Y-16225096D01*
X13448094Y-16225096D02*
X13409999Y-16225096D01*
X13409999Y-16225096D02*
X13390952Y-16215572D01*
X13390952Y-16215572D02*
X13381428Y-16196525D01*
X13381428Y-16196525D02*
X13381428Y-16120334D01*
X13381428Y-16120334D02*
X13390952Y-16101287D01*
X13390952Y-16101287D02*
X13409999Y-16091763D01*
X13409999Y-16091763D02*
X13448094Y-16091763D01*
X13448094Y-16091763D02*
X13467142Y-16101287D01*
X13467142Y-16101287D02*
X13476666Y-16120334D01*
X13476666Y-16120334D02*
X13476666Y-16139382D01*
X13476666Y-16139382D02*
X13381428Y-16158429D01*
X13552856Y-16215572D02*
X13571904Y-16225096D01*
X13571904Y-16225096D02*
X13609999Y-16225096D01*
X13609999Y-16225096D02*
X13629047Y-16215572D01*
X13629047Y-16215572D02*
X13638571Y-16196525D01*
X13638571Y-16196525D02*
X13638571Y-16187001D01*
X13638571Y-16187001D02*
X13629047Y-16167953D01*
X13629047Y-16167953D02*
X13609999Y-16158429D01*
X13609999Y-16158429D02*
X13581428Y-16158429D01*
X13581428Y-16158429D02*
X13562380Y-16148906D01*
X13562380Y-16148906D02*
X13552856Y-16129858D01*
X13552856Y-16129858D02*
X13552856Y-16120334D01*
X13552856Y-16120334D02*
X13562380Y-16101287D01*
X13562380Y-16101287D02*
X13581428Y-16091763D01*
X13581428Y-16091763D02*
X13609999Y-16091763D01*
X13609999Y-16091763D02*
X13629047Y-16101287D01*
X13705237Y-16301287D02*
X13714761Y-16291763D01*
X13714761Y-16291763D02*
X13733809Y-16263191D01*
X13733809Y-16263191D02*
X13743333Y-16244144D01*
X13743333Y-16244144D02*
X13752856Y-16215572D01*
X13752856Y-16215572D02*
X13762380Y-16167953D01*
X13762380Y-16167953D02*
X13762380Y-16129858D01*
X13762380Y-16129858D02*
X13752856Y-16082239D01*
X13752856Y-16082239D02*
X13743333Y-16053668D01*
X13743333Y-16053668D02*
X13733809Y-16034620D01*
X13733809Y-16034620D02*
X13714761Y-16006048D01*
X13714761Y-16006048D02*
X13705237Y-15996525D01*
D15*
X8837380Y-16370620D02*
X8837380Y-16460620D01*
X8792380Y-16415620D02*
X8882380Y-16415620D01*
D12*
X9168094Y-16289096D02*
X9187142Y-16289096D01*
X9187142Y-16289096D02*
X9206190Y-16298620D01*
X9206190Y-16298620D02*
X9215713Y-16308144D01*
X9215713Y-16308144D02*
X9225237Y-16327191D01*
X9225237Y-16327191D02*
X9234761Y-16365287D01*
X9234761Y-16365287D02*
X9234761Y-16412906D01*
X9234761Y-16412906D02*
X9225237Y-16451001D01*
X9225237Y-16451001D02*
X9215713Y-16470048D01*
X9215713Y-16470048D02*
X9206190Y-16479572D01*
X9206190Y-16479572D02*
X9187142Y-16489096D01*
X9187142Y-16489096D02*
X9168094Y-16489096D01*
X9168094Y-16489096D02*
X9149047Y-16479572D01*
X9149047Y-16479572D02*
X9139523Y-16470048D01*
X9139523Y-16470048D02*
X9129999Y-16451001D01*
X9129999Y-16451001D02*
X9120475Y-16412906D01*
X9120475Y-16412906D02*
X9120475Y-16365287D01*
X9120475Y-16365287D02*
X9129999Y-16327191D01*
X9129999Y-16327191D02*
X9139523Y-16308144D01*
X9139523Y-16308144D02*
X9149047Y-16298620D01*
X9149047Y-16298620D02*
X9168094Y-16289096D01*
X9320475Y-16470048D02*
X9329999Y-16479572D01*
X9329999Y-16479572D02*
X9320475Y-16489096D01*
X9320475Y-16489096D02*
X9310951Y-16479572D01*
X9310951Y-16479572D02*
X9320475Y-16470048D01*
X9320475Y-16470048D02*
X9320475Y-16489096D01*
X9425237Y-16489096D02*
X9463332Y-16489096D01*
X9463332Y-16489096D02*
X9482380Y-16479572D01*
X9482380Y-16479572D02*
X9491904Y-16470048D01*
X9491904Y-16470048D02*
X9510951Y-16441477D01*
X9510951Y-16441477D02*
X9520475Y-16403382D01*
X9520475Y-16403382D02*
X9520475Y-16327191D01*
X9520475Y-16327191D02*
X9510951Y-16308144D01*
X9510951Y-16308144D02*
X9501428Y-16298620D01*
X9501428Y-16298620D02*
X9482380Y-16289096D01*
X9482380Y-16289096D02*
X9444285Y-16289096D01*
X9444285Y-16289096D02*
X9425237Y-16298620D01*
X9425237Y-16298620D02*
X9415713Y-16308144D01*
X9415713Y-16308144D02*
X9406190Y-16327191D01*
X9406190Y-16327191D02*
X9406190Y-16374810D01*
X9406190Y-16374810D02*
X9415713Y-16393858D01*
X9415713Y-16393858D02*
X9425237Y-16403382D01*
X9425237Y-16403382D02*
X9444285Y-16412906D01*
X9444285Y-16412906D02*
X9482380Y-16412906D01*
X9482380Y-16412906D02*
X9501428Y-16403382D01*
X9501428Y-16403382D02*
X9510951Y-16393858D01*
X9510951Y-16393858D02*
X9520475Y-16374810D01*
X9644285Y-16289096D02*
X9663332Y-16289096D01*
X9663332Y-16289096D02*
X9682380Y-16298620D01*
X9682380Y-16298620D02*
X9691904Y-16308144D01*
X9691904Y-16308144D02*
X9701428Y-16327191D01*
X9701428Y-16327191D02*
X9710951Y-16365287D01*
X9710951Y-16365287D02*
X9710951Y-16412906D01*
X9710951Y-16412906D02*
X9701428Y-16451001D01*
X9701428Y-16451001D02*
X9691904Y-16470048D01*
X9691904Y-16470048D02*
X9682380Y-16479572D01*
X9682380Y-16479572D02*
X9663332Y-16489096D01*
X9663332Y-16489096D02*
X9644285Y-16489096D01*
X9644285Y-16489096D02*
X9625237Y-16479572D01*
X9625237Y-16479572D02*
X9615713Y-16470048D01*
X9615713Y-16470048D02*
X9606190Y-16451001D01*
X9606190Y-16451001D02*
X9596666Y-16412906D01*
X9596666Y-16412906D02*
X9596666Y-16365287D01*
X9596666Y-16365287D02*
X9606190Y-16327191D01*
X9606190Y-16327191D02*
X9615713Y-16308144D01*
X9615713Y-16308144D02*
X9625237Y-16298620D01*
X9625237Y-16298620D02*
X9644285Y-16289096D01*
X9834761Y-16289096D02*
X9853809Y-16289096D01*
X9853809Y-16289096D02*
X9872856Y-16298620D01*
X9872856Y-16298620D02*
X9882380Y-16308144D01*
X9882380Y-16308144D02*
X9891904Y-16327191D01*
X9891904Y-16327191D02*
X9901428Y-16365287D01*
X9901428Y-16365287D02*
X9901428Y-16412906D01*
X9901428Y-16412906D02*
X9891904Y-16451001D01*
X9891904Y-16451001D02*
X9882380Y-16470048D01*
X9882380Y-16470048D02*
X9872856Y-16479572D01*
X9872856Y-16479572D02*
X9853809Y-16489096D01*
X9853809Y-16489096D02*
X9834761Y-16489096D01*
X9834761Y-16489096D02*
X9815713Y-16479572D01*
X9815713Y-16479572D02*
X9806190Y-16470048D01*
X9806190Y-16470048D02*
X9796666Y-16451001D01*
X9796666Y-16451001D02*
X9787142Y-16412906D01*
X9787142Y-16412906D02*
X9787142Y-16365287D01*
X9787142Y-16365287D02*
X9796666Y-16327191D01*
X9796666Y-16327191D02*
X9806190Y-16308144D01*
X9806190Y-16308144D02*
X9815713Y-16298620D01*
X9815713Y-16298620D02*
X9834761Y-16289096D01*
X9987142Y-16489096D02*
X9987142Y-16355763D01*
X9987142Y-16374810D02*
X9996666Y-16365287D01*
X9996666Y-16365287D02*
X10015713Y-16355763D01*
X10015713Y-16355763D02*
X10044285Y-16355763D01*
X10044285Y-16355763D02*
X10063332Y-16365287D01*
X10063332Y-16365287D02*
X10072856Y-16384334D01*
X10072856Y-16384334D02*
X10072856Y-16489096D01*
X10072856Y-16384334D02*
X10082380Y-16365287D01*
X10082380Y-16365287D02*
X10101428Y-16355763D01*
X10101428Y-16355763D02*
X10129999Y-16355763D01*
X10129999Y-16355763D02*
X10149047Y-16365287D01*
X10149047Y-16365287D02*
X10158571Y-16384334D01*
X10158571Y-16384334D02*
X10158571Y-16489096D01*
X10253809Y-16489096D02*
X10253809Y-16355763D01*
X10253809Y-16374810D02*
X10263332Y-16365287D01*
X10263332Y-16365287D02*
X10282380Y-16355763D01*
X10282380Y-16355763D02*
X10310952Y-16355763D01*
X10310952Y-16355763D02*
X10329999Y-16365287D01*
X10329999Y-16365287D02*
X10339523Y-16384334D01*
X10339523Y-16384334D02*
X10339523Y-16489096D01*
X10339523Y-16384334D02*
X10349047Y-16365287D01*
X10349047Y-16365287D02*
X10368094Y-16355763D01*
X10368094Y-16355763D02*
X10396666Y-16355763D01*
X10396666Y-16355763D02*
X10415713Y-16365287D01*
X10415713Y-16365287D02*
X10425237Y-16384334D01*
X10425237Y-16384334D02*
X10425237Y-16489096D01*
X10783332Y-16279572D02*
X10611904Y-16536715D01*
X11008094Y-16289096D02*
X11027142Y-16289096D01*
X11027142Y-16289096D02*
X11046190Y-16298620D01*
X11046190Y-16298620D02*
X11055713Y-16308144D01*
X11055713Y-16308144D02*
X11065237Y-16327191D01*
X11065237Y-16327191D02*
X11074761Y-16365287D01*
X11074761Y-16365287D02*
X11074761Y-16412906D01*
X11074761Y-16412906D02*
X11065237Y-16451001D01*
X11065237Y-16451001D02*
X11055713Y-16470048D01*
X11055713Y-16470048D02*
X11046190Y-16479572D01*
X11046190Y-16479572D02*
X11027142Y-16489096D01*
X11027142Y-16489096D02*
X11008094Y-16489096D01*
X11008094Y-16489096D02*
X10989047Y-16479572D01*
X10989047Y-16479572D02*
X10979523Y-16470048D01*
X10979523Y-16470048D02*
X10969999Y-16451001D01*
X10969999Y-16451001D02*
X10960475Y-16412906D01*
X10960475Y-16412906D02*
X10960475Y-16365287D01*
X10960475Y-16365287D02*
X10969999Y-16327191D01*
X10969999Y-16327191D02*
X10979523Y-16308144D01*
X10979523Y-16308144D02*
X10989047Y-16298620D01*
X10989047Y-16298620D02*
X11008094Y-16289096D01*
X11160475Y-16470048D02*
X11169999Y-16479572D01*
X11169999Y-16479572D02*
X11160475Y-16489096D01*
X11160475Y-16489096D02*
X11150952Y-16479572D01*
X11150952Y-16479572D02*
X11160475Y-16470048D01*
X11160475Y-16470048D02*
X11160475Y-16489096D01*
X11293809Y-16289096D02*
X11312856Y-16289096D01*
X11312856Y-16289096D02*
X11331904Y-16298620D01*
X11331904Y-16298620D02*
X11341428Y-16308144D01*
X11341428Y-16308144D02*
X11350951Y-16327191D01*
X11350951Y-16327191D02*
X11360475Y-16365287D01*
X11360475Y-16365287D02*
X11360475Y-16412906D01*
X11360475Y-16412906D02*
X11350951Y-16451001D01*
X11350951Y-16451001D02*
X11341428Y-16470048D01*
X11341428Y-16470048D02*
X11331904Y-16479572D01*
X11331904Y-16479572D02*
X11312856Y-16489096D01*
X11312856Y-16489096D02*
X11293809Y-16489096D01*
X11293809Y-16489096D02*
X11274761Y-16479572D01*
X11274761Y-16479572D02*
X11265237Y-16470048D01*
X11265237Y-16470048D02*
X11255713Y-16451001D01*
X11255713Y-16451001D02*
X11246190Y-16412906D01*
X11246190Y-16412906D02*
X11246190Y-16365287D01*
X11246190Y-16365287D02*
X11255713Y-16327191D01*
X11255713Y-16327191D02*
X11265237Y-16308144D01*
X11265237Y-16308144D02*
X11274761Y-16298620D01*
X11274761Y-16298620D02*
X11293809Y-16289096D01*
X11427142Y-16289096D02*
X11550951Y-16289096D01*
X11550951Y-16289096D02*
X11484285Y-16365287D01*
X11484285Y-16365287D02*
X11512856Y-16365287D01*
X11512856Y-16365287D02*
X11531904Y-16374810D01*
X11531904Y-16374810D02*
X11541428Y-16384334D01*
X11541428Y-16384334D02*
X11550951Y-16403382D01*
X11550951Y-16403382D02*
X11550951Y-16451001D01*
X11550951Y-16451001D02*
X11541428Y-16470048D01*
X11541428Y-16470048D02*
X11531904Y-16479572D01*
X11531904Y-16479572D02*
X11512856Y-16489096D01*
X11512856Y-16489096D02*
X11455713Y-16489096D01*
X11455713Y-16489096D02*
X11436666Y-16479572D01*
X11436666Y-16479572D02*
X11427142Y-16470048D01*
X11731904Y-16289096D02*
X11636666Y-16289096D01*
X11636666Y-16289096D02*
X11627142Y-16384334D01*
X11627142Y-16384334D02*
X11636666Y-16374810D01*
X11636666Y-16374810D02*
X11655713Y-16365287D01*
X11655713Y-16365287D02*
X11703332Y-16365287D01*
X11703332Y-16365287D02*
X11722380Y-16374810D01*
X11722380Y-16374810D02*
X11731904Y-16384334D01*
X11731904Y-16384334D02*
X11741428Y-16403382D01*
X11741428Y-16403382D02*
X11741428Y-16451001D01*
X11741428Y-16451001D02*
X11731904Y-16470048D01*
X11731904Y-16470048D02*
X11722380Y-16479572D01*
X11722380Y-16479572D02*
X11703332Y-16489096D01*
X11703332Y-16489096D02*
X11655713Y-16489096D01*
X11655713Y-16489096D02*
X11636666Y-16479572D01*
X11636666Y-16479572D02*
X11627142Y-16470048D01*
X11912856Y-16355763D02*
X11912856Y-16489096D01*
X11865237Y-16279572D02*
X11817618Y-16422429D01*
X11817618Y-16422429D02*
X11941428Y-16422429D01*
X12008094Y-16289096D02*
X12008094Y-16327191D01*
X12084285Y-16289096D02*
X12084285Y-16327191D01*
X12347142Y-16565287D02*
X12337618Y-16555763D01*
X12337618Y-16555763D02*
X12318571Y-16527191D01*
X12318571Y-16527191D02*
X12309047Y-16508144D01*
X12309047Y-16508144D02*
X12299523Y-16479572D01*
X12299523Y-16479572D02*
X12289999Y-16431953D01*
X12289999Y-16431953D02*
X12289999Y-16393858D01*
X12289999Y-16393858D02*
X12299523Y-16346239D01*
X12299523Y-16346239D02*
X12309047Y-16317668D01*
X12309047Y-16317668D02*
X12318571Y-16298620D01*
X12318571Y-16298620D02*
X12337618Y-16270048D01*
X12337618Y-16270048D02*
X12347142Y-16260525D01*
X12509047Y-16355763D02*
X12509047Y-16489096D01*
X12461428Y-16279572D02*
X12413809Y-16422429D01*
X12413809Y-16422429D02*
X12537618Y-16422429D01*
X12733809Y-16489096D02*
X12733809Y-16289096D01*
X12819523Y-16489096D02*
X12819523Y-16384334D01*
X12819523Y-16384334D02*
X12809999Y-16365287D01*
X12809999Y-16365287D02*
X12790952Y-16355763D01*
X12790952Y-16355763D02*
X12762380Y-16355763D01*
X12762380Y-16355763D02*
X12743332Y-16365287D01*
X12743332Y-16365287D02*
X12733809Y-16374810D01*
X12943332Y-16489096D02*
X12924285Y-16479572D01*
X12924285Y-16479572D02*
X12914761Y-16470048D01*
X12914761Y-16470048D02*
X12905237Y-16451001D01*
X12905237Y-16451001D02*
X12905237Y-16393858D01*
X12905237Y-16393858D02*
X12914761Y-16374810D01*
X12914761Y-16374810D02*
X12924285Y-16365287D01*
X12924285Y-16365287D02*
X12943332Y-16355763D01*
X12943332Y-16355763D02*
X12971904Y-16355763D01*
X12971904Y-16355763D02*
X12990952Y-16365287D01*
X12990952Y-16365287D02*
X13000475Y-16374810D01*
X13000475Y-16374810D02*
X13009999Y-16393858D01*
X13009999Y-16393858D02*
X13009999Y-16451001D01*
X13009999Y-16451001D02*
X13000475Y-16470048D01*
X13000475Y-16470048D02*
X12990952Y-16479572D01*
X12990952Y-16479572D02*
X12971904Y-16489096D01*
X12971904Y-16489096D02*
X12943332Y-16489096D01*
X13124285Y-16489096D02*
X13105237Y-16479572D01*
X13105237Y-16479572D02*
X13095713Y-16460525D01*
X13095713Y-16460525D02*
X13095713Y-16289096D01*
X13276666Y-16479572D02*
X13257618Y-16489096D01*
X13257618Y-16489096D02*
X13219523Y-16489096D01*
X13219523Y-16489096D02*
X13200475Y-16479572D01*
X13200475Y-16479572D02*
X13190952Y-16460525D01*
X13190952Y-16460525D02*
X13190952Y-16384334D01*
X13190952Y-16384334D02*
X13200475Y-16365287D01*
X13200475Y-16365287D02*
X13219523Y-16355763D01*
X13219523Y-16355763D02*
X13257618Y-16355763D01*
X13257618Y-16355763D02*
X13276666Y-16365287D01*
X13276666Y-16365287D02*
X13286190Y-16384334D01*
X13286190Y-16384334D02*
X13286190Y-16403382D01*
X13286190Y-16403382D02*
X13190952Y-16422429D01*
X13362380Y-16479572D02*
X13381428Y-16489096D01*
X13381428Y-16489096D02*
X13419523Y-16489096D01*
X13419523Y-16489096D02*
X13438571Y-16479572D01*
X13438571Y-16479572D02*
X13448094Y-16460525D01*
X13448094Y-16460525D02*
X13448094Y-16451001D01*
X13448094Y-16451001D02*
X13438571Y-16431953D01*
X13438571Y-16431953D02*
X13419523Y-16422429D01*
X13419523Y-16422429D02*
X13390952Y-16422429D01*
X13390952Y-16422429D02*
X13371904Y-16412906D01*
X13371904Y-16412906D02*
X13362380Y-16393858D01*
X13362380Y-16393858D02*
X13362380Y-16384334D01*
X13362380Y-16384334D02*
X13371904Y-16365287D01*
X13371904Y-16365287D02*
X13390952Y-16355763D01*
X13390952Y-16355763D02*
X13419523Y-16355763D01*
X13419523Y-16355763D02*
X13438571Y-16365287D01*
X13514761Y-16565287D02*
X13524285Y-16555763D01*
X13524285Y-16555763D02*
X13543333Y-16527191D01*
X13543333Y-16527191D02*
X13552856Y-16508144D01*
X13552856Y-16508144D02*
X13562380Y-16479572D01*
X13562380Y-16479572D02*
X13571904Y-16431953D01*
X13571904Y-16431953D02*
X13571904Y-16393858D01*
X13571904Y-16393858D02*
X13562380Y-16346239D01*
X13562380Y-16346239D02*
X13552856Y-16317668D01*
X13552856Y-16317668D02*
X13543333Y-16298620D01*
X13543333Y-16298620D02*
X13524285Y-16270048D01*
X13524285Y-16270048D02*
X13514761Y-16260525D01*
D16*
X8867736Y-16714976D02*
X8867736Y-16644264D01*
X8797024Y-16644264D01*
X8797024Y-16714976D01*
X8867736Y-16714976D01*
D12*
X9234761Y-16753096D02*
X9120475Y-16753096D01*
X9177618Y-16753096D02*
X9177618Y-16553096D01*
X9177618Y-16553096D02*
X9158570Y-16581668D01*
X9158570Y-16581668D02*
X9139523Y-16600715D01*
X9139523Y-16600715D02*
X9120475Y-16610239D01*
X9320475Y-16734048D02*
X9329999Y-16743572D01*
X9329999Y-16743572D02*
X9320475Y-16753096D01*
X9320475Y-16753096D02*
X9310951Y-16743572D01*
X9310951Y-16743572D02*
X9320475Y-16734048D01*
X9320475Y-16734048D02*
X9320475Y-16753096D01*
X9453809Y-16553096D02*
X9472856Y-16553096D01*
X9472856Y-16553096D02*
X9491904Y-16562620D01*
X9491904Y-16562620D02*
X9501428Y-16572144D01*
X9501428Y-16572144D02*
X9510951Y-16591191D01*
X9510951Y-16591191D02*
X9520475Y-16629287D01*
X9520475Y-16629287D02*
X9520475Y-16676906D01*
X9520475Y-16676906D02*
X9510951Y-16715001D01*
X9510951Y-16715001D02*
X9501428Y-16734048D01*
X9501428Y-16734048D02*
X9491904Y-16743572D01*
X9491904Y-16743572D02*
X9472856Y-16753096D01*
X9472856Y-16753096D02*
X9453809Y-16753096D01*
X9453809Y-16753096D02*
X9434761Y-16743572D01*
X9434761Y-16743572D02*
X9425237Y-16734048D01*
X9425237Y-16734048D02*
X9415713Y-16715001D01*
X9415713Y-16715001D02*
X9406190Y-16676906D01*
X9406190Y-16676906D02*
X9406190Y-16629287D01*
X9406190Y-16629287D02*
X9415713Y-16591191D01*
X9415713Y-16591191D02*
X9425237Y-16572144D01*
X9425237Y-16572144D02*
X9434761Y-16562620D01*
X9434761Y-16562620D02*
X9453809Y-16553096D01*
X9644285Y-16553096D02*
X9663332Y-16553096D01*
X9663332Y-16553096D02*
X9682380Y-16562620D01*
X9682380Y-16562620D02*
X9691904Y-16572144D01*
X9691904Y-16572144D02*
X9701428Y-16591191D01*
X9701428Y-16591191D02*
X9710951Y-16629287D01*
X9710951Y-16629287D02*
X9710951Y-16676906D01*
X9710951Y-16676906D02*
X9701428Y-16715001D01*
X9701428Y-16715001D02*
X9691904Y-16734048D01*
X9691904Y-16734048D02*
X9682380Y-16743572D01*
X9682380Y-16743572D02*
X9663332Y-16753096D01*
X9663332Y-16753096D02*
X9644285Y-16753096D01*
X9644285Y-16753096D02*
X9625237Y-16743572D01*
X9625237Y-16743572D02*
X9615713Y-16734048D01*
X9615713Y-16734048D02*
X9606190Y-16715001D01*
X9606190Y-16715001D02*
X9596666Y-16676906D01*
X9596666Y-16676906D02*
X9596666Y-16629287D01*
X9596666Y-16629287D02*
X9606190Y-16591191D01*
X9606190Y-16591191D02*
X9615713Y-16572144D01*
X9615713Y-16572144D02*
X9625237Y-16562620D01*
X9625237Y-16562620D02*
X9644285Y-16553096D01*
X9834761Y-16553096D02*
X9853809Y-16553096D01*
X9853809Y-16553096D02*
X9872856Y-16562620D01*
X9872856Y-16562620D02*
X9882380Y-16572144D01*
X9882380Y-16572144D02*
X9891904Y-16591191D01*
X9891904Y-16591191D02*
X9901428Y-16629287D01*
X9901428Y-16629287D02*
X9901428Y-16676906D01*
X9901428Y-16676906D02*
X9891904Y-16715001D01*
X9891904Y-16715001D02*
X9882380Y-16734048D01*
X9882380Y-16734048D02*
X9872856Y-16743572D01*
X9872856Y-16743572D02*
X9853809Y-16753096D01*
X9853809Y-16753096D02*
X9834761Y-16753096D01*
X9834761Y-16753096D02*
X9815713Y-16743572D01*
X9815713Y-16743572D02*
X9806190Y-16734048D01*
X9806190Y-16734048D02*
X9796666Y-16715001D01*
X9796666Y-16715001D02*
X9787142Y-16676906D01*
X9787142Y-16676906D02*
X9787142Y-16629287D01*
X9787142Y-16629287D02*
X9796666Y-16591191D01*
X9796666Y-16591191D02*
X9806190Y-16572144D01*
X9806190Y-16572144D02*
X9815713Y-16562620D01*
X9815713Y-16562620D02*
X9834761Y-16553096D01*
X9987142Y-16753096D02*
X9987142Y-16619763D01*
X9987142Y-16638810D02*
X9996666Y-16629287D01*
X9996666Y-16629287D02*
X10015713Y-16619763D01*
X10015713Y-16619763D02*
X10044285Y-16619763D01*
X10044285Y-16619763D02*
X10063332Y-16629287D01*
X10063332Y-16629287D02*
X10072856Y-16648334D01*
X10072856Y-16648334D02*
X10072856Y-16753096D01*
X10072856Y-16648334D02*
X10082380Y-16629287D01*
X10082380Y-16629287D02*
X10101428Y-16619763D01*
X10101428Y-16619763D02*
X10129999Y-16619763D01*
X10129999Y-16619763D02*
X10149047Y-16629287D01*
X10149047Y-16629287D02*
X10158571Y-16648334D01*
X10158571Y-16648334D02*
X10158571Y-16753096D01*
X10253809Y-16753096D02*
X10253809Y-16619763D01*
X10253809Y-16638810D02*
X10263332Y-16629287D01*
X10263332Y-16629287D02*
X10282380Y-16619763D01*
X10282380Y-16619763D02*
X10310952Y-16619763D01*
X10310952Y-16619763D02*
X10329999Y-16629287D01*
X10329999Y-16629287D02*
X10339523Y-16648334D01*
X10339523Y-16648334D02*
X10339523Y-16753096D01*
X10339523Y-16648334D02*
X10349047Y-16629287D01*
X10349047Y-16629287D02*
X10368094Y-16619763D01*
X10368094Y-16619763D02*
X10396666Y-16619763D01*
X10396666Y-16619763D02*
X10415713Y-16629287D01*
X10415713Y-16629287D02*
X10425237Y-16648334D01*
X10425237Y-16648334D02*
X10425237Y-16753096D01*
X10783332Y-16543572D02*
X10611904Y-16800715D01*
X11008094Y-16553096D02*
X11027142Y-16553096D01*
X11027142Y-16553096D02*
X11046190Y-16562620D01*
X11046190Y-16562620D02*
X11055713Y-16572144D01*
X11055713Y-16572144D02*
X11065237Y-16591191D01*
X11065237Y-16591191D02*
X11074761Y-16629287D01*
X11074761Y-16629287D02*
X11074761Y-16676906D01*
X11074761Y-16676906D02*
X11065237Y-16715001D01*
X11065237Y-16715001D02*
X11055713Y-16734048D01*
X11055713Y-16734048D02*
X11046190Y-16743572D01*
X11046190Y-16743572D02*
X11027142Y-16753096D01*
X11027142Y-16753096D02*
X11008094Y-16753096D01*
X11008094Y-16753096D02*
X10989047Y-16743572D01*
X10989047Y-16743572D02*
X10979523Y-16734048D01*
X10979523Y-16734048D02*
X10969999Y-16715001D01*
X10969999Y-16715001D02*
X10960475Y-16676906D01*
X10960475Y-16676906D02*
X10960475Y-16629287D01*
X10960475Y-16629287D02*
X10969999Y-16591191D01*
X10969999Y-16591191D02*
X10979523Y-16572144D01*
X10979523Y-16572144D02*
X10989047Y-16562620D01*
X10989047Y-16562620D02*
X11008094Y-16553096D01*
X11160475Y-16734048D02*
X11169999Y-16743572D01*
X11169999Y-16743572D02*
X11160475Y-16753096D01*
X11160475Y-16753096D02*
X11150952Y-16743572D01*
X11150952Y-16743572D02*
X11160475Y-16734048D01*
X11160475Y-16734048D02*
X11160475Y-16753096D01*
X11293809Y-16553096D02*
X11312856Y-16553096D01*
X11312856Y-16553096D02*
X11331904Y-16562620D01*
X11331904Y-16562620D02*
X11341428Y-16572144D01*
X11341428Y-16572144D02*
X11350951Y-16591191D01*
X11350951Y-16591191D02*
X11360475Y-16629287D01*
X11360475Y-16629287D02*
X11360475Y-16676906D01*
X11360475Y-16676906D02*
X11350951Y-16715001D01*
X11350951Y-16715001D02*
X11341428Y-16734048D01*
X11341428Y-16734048D02*
X11331904Y-16743572D01*
X11331904Y-16743572D02*
X11312856Y-16753096D01*
X11312856Y-16753096D02*
X11293809Y-16753096D01*
X11293809Y-16753096D02*
X11274761Y-16743572D01*
X11274761Y-16743572D02*
X11265237Y-16734048D01*
X11265237Y-16734048D02*
X11255713Y-16715001D01*
X11255713Y-16715001D02*
X11246190Y-16676906D01*
X11246190Y-16676906D02*
X11246190Y-16629287D01*
X11246190Y-16629287D02*
X11255713Y-16591191D01*
X11255713Y-16591191D02*
X11265237Y-16572144D01*
X11265237Y-16572144D02*
X11274761Y-16562620D01*
X11274761Y-16562620D02*
X11293809Y-16553096D01*
X11427142Y-16553096D02*
X11550951Y-16553096D01*
X11550951Y-16553096D02*
X11484285Y-16629287D01*
X11484285Y-16629287D02*
X11512856Y-16629287D01*
X11512856Y-16629287D02*
X11531904Y-16638810D01*
X11531904Y-16638810D02*
X11541428Y-16648334D01*
X11541428Y-16648334D02*
X11550951Y-16667382D01*
X11550951Y-16667382D02*
X11550951Y-16715001D01*
X11550951Y-16715001D02*
X11541428Y-16734048D01*
X11541428Y-16734048D02*
X11531904Y-16743572D01*
X11531904Y-16743572D02*
X11512856Y-16753096D01*
X11512856Y-16753096D02*
X11455713Y-16753096D01*
X11455713Y-16753096D02*
X11436666Y-16743572D01*
X11436666Y-16743572D02*
X11427142Y-16734048D01*
X11646190Y-16753096D02*
X11684285Y-16753096D01*
X11684285Y-16753096D02*
X11703332Y-16743572D01*
X11703332Y-16743572D02*
X11712856Y-16734048D01*
X11712856Y-16734048D02*
X11731904Y-16705477D01*
X11731904Y-16705477D02*
X11741428Y-16667382D01*
X11741428Y-16667382D02*
X11741428Y-16591191D01*
X11741428Y-16591191D02*
X11731904Y-16572144D01*
X11731904Y-16572144D02*
X11722380Y-16562620D01*
X11722380Y-16562620D02*
X11703332Y-16553096D01*
X11703332Y-16553096D02*
X11665237Y-16553096D01*
X11665237Y-16553096D02*
X11646190Y-16562620D01*
X11646190Y-16562620D02*
X11636666Y-16572144D01*
X11636666Y-16572144D02*
X11627142Y-16591191D01*
X11627142Y-16591191D02*
X11627142Y-16638810D01*
X11627142Y-16638810D02*
X11636666Y-16657858D01*
X11636666Y-16657858D02*
X11646190Y-16667382D01*
X11646190Y-16667382D02*
X11665237Y-16676906D01*
X11665237Y-16676906D02*
X11703332Y-16676906D01*
X11703332Y-16676906D02*
X11722380Y-16667382D01*
X11722380Y-16667382D02*
X11731904Y-16657858D01*
X11731904Y-16657858D02*
X11741428Y-16638810D01*
X11912856Y-16619763D02*
X11912856Y-16753096D01*
X11865237Y-16543572D02*
X11817618Y-16686429D01*
X11817618Y-16686429D02*
X11941428Y-16686429D01*
X12008094Y-16553096D02*
X12008094Y-16591191D01*
X12084285Y-16553096D02*
X12084285Y-16591191D01*
X12347142Y-16829287D02*
X12337618Y-16819763D01*
X12337618Y-16819763D02*
X12318571Y-16791191D01*
X12318571Y-16791191D02*
X12309047Y-16772144D01*
X12309047Y-16772144D02*
X12299523Y-16743572D01*
X12299523Y-16743572D02*
X12289999Y-16695953D01*
X12289999Y-16695953D02*
X12289999Y-16657858D01*
X12289999Y-16657858D02*
X12299523Y-16610239D01*
X12299523Y-16610239D02*
X12309047Y-16581668D01*
X12309047Y-16581668D02*
X12318571Y-16562620D01*
X12318571Y-16562620D02*
X12337618Y-16534048D01*
X12337618Y-16534048D02*
X12347142Y-16524525D01*
X12509047Y-16553096D02*
X12470951Y-16553096D01*
X12470951Y-16553096D02*
X12451904Y-16562620D01*
X12451904Y-16562620D02*
X12442380Y-16572144D01*
X12442380Y-16572144D02*
X12423332Y-16600715D01*
X12423332Y-16600715D02*
X12413809Y-16638810D01*
X12413809Y-16638810D02*
X12413809Y-16715001D01*
X12413809Y-16715001D02*
X12423332Y-16734048D01*
X12423332Y-16734048D02*
X12432856Y-16743572D01*
X12432856Y-16743572D02*
X12451904Y-16753096D01*
X12451904Y-16753096D02*
X12489999Y-16753096D01*
X12489999Y-16753096D02*
X12509047Y-16743572D01*
X12509047Y-16743572D02*
X12518571Y-16734048D01*
X12518571Y-16734048D02*
X12528094Y-16715001D01*
X12528094Y-16715001D02*
X12528094Y-16667382D01*
X12528094Y-16667382D02*
X12518571Y-16648334D01*
X12518571Y-16648334D02*
X12509047Y-16638810D01*
X12509047Y-16638810D02*
X12489999Y-16629287D01*
X12489999Y-16629287D02*
X12451904Y-16629287D01*
X12451904Y-16629287D02*
X12432856Y-16638810D01*
X12432856Y-16638810D02*
X12423332Y-16648334D01*
X12423332Y-16648334D02*
X12413809Y-16667382D01*
X12733809Y-16753096D02*
X12733809Y-16553096D01*
X12819523Y-16753096D02*
X12819523Y-16648334D01*
X12819523Y-16648334D02*
X12809999Y-16629287D01*
X12809999Y-16629287D02*
X12790952Y-16619763D01*
X12790952Y-16619763D02*
X12762380Y-16619763D01*
X12762380Y-16619763D02*
X12743332Y-16629287D01*
X12743332Y-16629287D02*
X12733809Y-16638810D01*
X12943332Y-16753096D02*
X12924285Y-16743572D01*
X12924285Y-16743572D02*
X12914761Y-16734048D01*
X12914761Y-16734048D02*
X12905237Y-16715001D01*
X12905237Y-16715001D02*
X12905237Y-16657858D01*
X12905237Y-16657858D02*
X12914761Y-16638810D01*
X12914761Y-16638810D02*
X12924285Y-16629287D01*
X12924285Y-16629287D02*
X12943332Y-16619763D01*
X12943332Y-16619763D02*
X12971904Y-16619763D01*
X12971904Y-16619763D02*
X12990952Y-16629287D01*
X12990952Y-16629287D02*
X13000475Y-16638810D01*
X13000475Y-16638810D02*
X13009999Y-16657858D01*
X13009999Y-16657858D02*
X13009999Y-16715001D01*
X13009999Y-16715001D02*
X13000475Y-16734048D01*
X13000475Y-16734048D02*
X12990952Y-16743572D01*
X12990952Y-16743572D02*
X12971904Y-16753096D01*
X12971904Y-16753096D02*
X12943332Y-16753096D01*
X13124285Y-16753096D02*
X13105237Y-16743572D01*
X13105237Y-16743572D02*
X13095713Y-16724525D01*
X13095713Y-16724525D02*
X13095713Y-16553096D01*
X13276666Y-16743572D02*
X13257618Y-16753096D01*
X13257618Y-16753096D02*
X13219523Y-16753096D01*
X13219523Y-16753096D02*
X13200475Y-16743572D01*
X13200475Y-16743572D02*
X13190952Y-16724525D01*
X13190952Y-16724525D02*
X13190952Y-16648334D01*
X13190952Y-16648334D02*
X13200475Y-16629287D01*
X13200475Y-16629287D02*
X13219523Y-16619763D01*
X13219523Y-16619763D02*
X13257618Y-16619763D01*
X13257618Y-16619763D02*
X13276666Y-16629287D01*
X13276666Y-16629287D02*
X13286190Y-16648334D01*
X13286190Y-16648334D02*
X13286190Y-16667382D01*
X13286190Y-16667382D02*
X13190952Y-16686429D01*
X13362380Y-16743572D02*
X13381428Y-16753096D01*
X13381428Y-16753096D02*
X13419523Y-16753096D01*
X13419523Y-16753096D02*
X13438571Y-16743572D01*
X13438571Y-16743572D02*
X13448094Y-16724525D01*
X13448094Y-16724525D02*
X13448094Y-16715001D01*
X13448094Y-16715001D02*
X13438571Y-16695953D01*
X13438571Y-16695953D02*
X13419523Y-16686429D01*
X13419523Y-16686429D02*
X13390952Y-16686429D01*
X13390952Y-16686429D02*
X13371904Y-16676906D01*
X13371904Y-16676906D02*
X13362380Y-16657858D01*
X13362380Y-16657858D02*
X13362380Y-16648334D01*
X13362380Y-16648334D02*
X13371904Y-16629287D01*
X13371904Y-16629287D02*
X13390952Y-16619763D01*
X13390952Y-16619763D02*
X13419523Y-16619763D01*
X13419523Y-16619763D02*
X13438571Y-16629287D01*
X13514761Y-16829287D02*
X13524285Y-16819763D01*
X13524285Y-16819763D02*
X13543333Y-16791191D01*
X13543333Y-16791191D02*
X13552856Y-16772144D01*
X13552856Y-16772144D02*
X13562380Y-16743572D01*
X13562380Y-16743572D02*
X13571904Y-16695953D01*
X13571904Y-16695953D02*
X13571904Y-16657858D01*
X13571904Y-16657858D02*
X13562380Y-16610239D01*
X13562380Y-16610239D02*
X13552856Y-16581668D01*
X13552856Y-16581668D02*
X13543333Y-16562620D01*
X13543333Y-16562620D02*
X13524285Y-16534048D01*
X13524285Y-16534048D02*
X13514761Y-16524525D01*
D17*
X8827380Y-16998620D02*
X8882380Y-16943620D01*
X8827380Y-16888620D01*
X8772380Y-16943620D01*
X8827380Y-16998620D01*
D12*
X9234761Y-17017096D02*
X9120475Y-17017096D01*
X9177618Y-17017096D02*
X9177618Y-16817096D01*
X9177618Y-16817096D02*
X9158570Y-16845668D01*
X9158570Y-16845668D02*
X9139523Y-16864715D01*
X9139523Y-16864715D02*
X9120475Y-16874239D01*
X9320475Y-16998049D02*
X9329999Y-17007572D01*
X9329999Y-17007572D02*
X9320475Y-17017096D01*
X9320475Y-17017096D02*
X9310951Y-17007572D01*
X9310951Y-17007572D02*
X9320475Y-16998049D01*
X9320475Y-16998049D02*
X9320475Y-17017096D01*
X9520475Y-17017096D02*
X9406190Y-17017096D01*
X9463332Y-17017096D02*
X9463332Y-16817096D01*
X9463332Y-16817096D02*
X9444285Y-16845668D01*
X9444285Y-16845668D02*
X9425237Y-16864715D01*
X9425237Y-16864715D02*
X9406190Y-16874239D01*
X9644285Y-16817096D02*
X9663332Y-16817096D01*
X9663332Y-16817096D02*
X9682380Y-16826620D01*
X9682380Y-16826620D02*
X9691904Y-16836144D01*
X9691904Y-16836144D02*
X9701428Y-16855191D01*
X9701428Y-16855191D02*
X9710951Y-16893287D01*
X9710951Y-16893287D02*
X9710951Y-16940906D01*
X9710951Y-16940906D02*
X9701428Y-16979001D01*
X9701428Y-16979001D02*
X9691904Y-16998049D01*
X9691904Y-16998049D02*
X9682380Y-17007572D01*
X9682380Y-17007572D02*
X9663332Y-17017096D01*
X9663332Y-17017096D02*
X9644285Y-17017096D01*
X9644285Y-17017096D02*
X9625237Y-17007572D01*
X9625237Y-17007572D02*
X9615713Y-16998049D01*
X9615713Y-16998049D02*
X9606190Y-16979001D01*
X9606190Y-16979001D02*
X9596666Y-16940906D01*
X9596666Y-16940906D02*
X9596666Y-16893287D01*
X9596666Y-16893287D02*
X9606190Y-16855191D01*
X9606190Y-16855191D02*
X9615713Y-16836144D01*
X9615713Y-16836144D02*
X9625237Y-16826620D01*
X9625237Y-16826620D02*
X9644285Y-16817096D01*
X9834761Y-16817096D02*
X9853809Y-16817096D01*
X9853809Y-16817096D02*
X9872856Y-16826620D01*
X9872856Y-16826620D02*
X9882380Y-16836144D01*
X9882380Y-16836144D02*
X9891904Y-16855191D01*
X9891904Y-16855191D02*
X9901428Y-16893287D01*
X9901428Y-16893287D02*
X9901428Y-16940906D01*
X9901428Y-16940906D02*
X9891904Y-16979001D01*
X9891904Y-16979001D02*
X9882380Y-16998049D01*
X9882380Y-16998049D02*
X9872856Y-17007572D01*
X9872856Y-17007572D02*
X9853809Y-17017096D01*
X9853809Y-17017096D02*
X9834761Y-17017096D01*
X9834761Y-17017096D02*
X9815713Y-17007572D01*
X9815713Y-17007572D02*
X9806190Y-16998049D01*
X9806190Y-16998049D02*
X9796666Y-16979001D01*
X9796666Y-16979001D02*
X9787142Y-16940906D01*
X9787142Y-16940906D02*
X9787142Y-16893287D01*
X9787142Y-16893287D02*
X9796666Y-16855191D01*
X9796666Y-16855191D02*
X9806190Y-16836144D01*
X9806190Y-16836144D02*
X9815713Y-16826620D01*
X9815713Y-16826620D02*
X9834761Y-16817096D01*
X9987142Y-17017096D02*
X9987142Y-16883763D01*
X9987142Y-16902810D02*
X9996666Y-16893287D01*
X9996666Y-16893287D02*
X10015713Y-16883763D01*
X10015713Y-16883763D02*
X10044285Y-16883763D01*
X10044285Y-16883763D02*
X10063332Y-16893287D01*
X10063332Y-16893287D02*
X10072856Y-16912334D01*
X10072856Y-16912334D02*
X10072856Y-17017096D01*
X10072856Y-16912334D02*
X10082380Y-16893287D01*
X10082380Y-16893287D02*
X10101428Y-16883763D01*
X10101428Y-16883763D02*
X10129999Y-16883763D01*
X10129999Y-16883763D02*
X10149047Y-16893287D01*
X10149047Y-16893287D02*
X10158571Y-16912334D01*
X10158571Y-16912334D02*
X10158571Y-17017096D01*
X10253809Y-17017096D02*
X10253809Y-16883763D01*
X10253809Y-16902810D02*
X10263332Y-16893287D01*
X10263332Y-16893287D02*
X10282380Y-16883763D01*
X10282380Y-16883763D02*
X10310952Y-16883763D01*
X10310952Y-16883763D02*
X10329999Y-16893287D01*
X10329999Y-16893287D02*
X10339523Y-16912334D01*
X10339523Y-16912334D02*
X10339523Y-17017096D01*
X10339523Y-16912334D02*
X10349047Y-16893287D01*
X10349047Y-16893287D02*
X10368094Y-16883763D01*
X10368094Y-16883763D02*
X10396666Y-16883763D01*
X10396666Y-16883763D02*
X10415713Y-16893287D01*
X10415713Y-16893287D02*
X10425237Y-16912334D01*
X10425237Y-16912334D02*
X10425237Y-17017096D01*
X10783332Y-16807572D02*
X10611904Y-17064715D01*
X11008094Y-16817096D02*
X11027142Y-16817096D01*
X11027142Y-16817096D02*
X11046190Y-16826620D01*
X11046190Y-16826620D02*
X11055713Y-16836144D01*
X11055713Y-16836144D02*
X11065237Y-16855191D01*
X11065237Y-16855191D02*
X11074761Y-16893287D01*
X11074761Y-16893287D02*
X11074761Y-16940906D01*
X11074761Y-16940906D02*
X11065237Y-16979001D01*
X11065237Y-16979001D02*
X11055713Y-16998049D01*
X11055713Y-16998049D02*
X11046190Y-17007572D01*
X11046190Y-17007572D02*
X11027142Y-17017096D01*
X11027142Y-17017096D02*
X11008094Y-17017096D01*
X11008094Y-17017096D02*
X10989047Y-17007572D01*
X10989047Y-17007572D02*
X10979523Y-16998049D01*
X10979523Y-16998049D02*
X10969999Y-16979001D01*
X10969999Y-16979001D02*
X10960475Y-16940906D01*
X10960475Y-16940906D02*
X10960475Y-16893287D01*
X10960475Y-16893287D02*
X10969999Y-16855191D01*
X10969999Y-16855191D02*
X10979523Y-16836144D01*
X10979523Y-16836144D02*
X10989047Y-16826620D01*
X10989047Y-16826620D02*
X11008094Y-16817096D01*
X11160475Y-16998049D02*
X11169999Y-17007572D01*
X11169999Y-17007572D02*
X11160475Y-17017096D01*
X11160475Y-17017096D02*
X11150952Y-17007572D01*
X11150952Y-17007572D02*
X11160475Y-16998049D01*
X11160475Y-16998049D02*
X11160475Y-17017096D01*
X11293809Y-16817096D02*
X11312856Y-16817096D01*
X11312856Y-16817096D02*
X11331904Y-16826620D01*
X11331904Y-16826620D02*
X11341428Y-16836144D01*
X11341428Y-16836144D02*
X11350951Y-16855191D01*
X11350951Y-16855191D02*
X11360475Y-16893287D01*
X11360475Y-16893287D02*
X11360475Y-16940906D01*
X11360475Y-16940906D02*
X11350951Y-16979001D01*
X11350951Y-16979001D02*
X11341428Y-16998049D01*
X11341428Y-16998049D02*
X11331904Y-17007572D01*
X11331904Y-17007572D02*
X11312856Y-17017096D01*
X11312856Y-17017096D02*
X11293809Y-17017096D01*
X11293809Y-17017096D02*
X11274761Y-17007572D01*
X11274761Y-17007572D02*
X11265237Y-16998049D01*
X11265237Y-16998049D02*
X11255713Y-16979001D01*
X11255713Y-16979001D02*
X11246190Y-16940906D01*
X11246190Y-16940906D02*
X11246190Y-16893287D01*
X11246190Y-16893287D02*
X11255713Y-16855191D01*
X11255713Y-16855191D02*
X11265237Y-16836144D01*
X11265237Y-16836144D02*
X11274761Y-16826620D01*
X11274761Y-16826620D02*
X11293809Y-16817096D01*
X11531904Y-16883763D02*
X11531904Y-17017096D01*
X11484285Y-16807572D02*
X11436666Y-16950430D01*
X11436666Y-16950430D02*
X11560475Y-16950430D01*
X11617618Y-16817096D02*
X11741428Y-16817096D01*
X11741428Y-16817096D02*
X11674761Y-16893287D01*
X11674761Y-16893287D02*
X11703332Y-16893287D01*
X11703332Y-16893287D02*
X11722380Y-16902810D01*
X11722380Y-16902810D02*
X11731904Y-16912334D01*
X11731904Y-16912334D02*
X11741428Y-16931382D01*
X11741428Y-16931382D02*
X11741428Y-16979001D01*
X11741428Y-16979001D02*
X11731904Y-16998049D01*
X11731904Y-16998049D02*
X11722380Y-17007572D01*
X11722380Y-17007572D02*
X11703332Y-17017096D01*
X11703332Y-17017096D02*
X11646190Y-17017096D01*
X11646190Y-17017096D02*
X11627142Y-17007572D01*
X11627142Y-17007572D02*
X11617618Y-16998049D01*
X11808094Y-16817096D02*
X11931904Y-16817096D01*
X11931904Y-16817096D02*
X11865237Y-16893287D01*
X11865237Y-16893287D02*
X11893809Y-16893287D01*
X11893809Y-16893287D02*
X11912856Y-16902810D01*
X11912856Y-16902810D02*
X11922380Y-16912334D01*
X11922380Y-16912334D02*
X11931904Y-16931382D01*
X11931904Y-16931382D02*
X11931904Y-16979001D01*
X11931904Y-16979001D02*
X11922380Y-16998049D01*
X11922380Y-16998049D02*
X11912856Y-17007572D01*
X11912856Y-17007572D02*
X11893809Y-17017096D01*
X11893809Y-17017096D02*
X11836666Y-17017096D01*
X11836666Y-17017096D02*
X11817618Y-17007572D01*
X11817618Y-17007572D02*
X11808094Y-16998049D01*
X12008094Y-16817096D02*
X12008094Y-16855191D01*
X12084285Y-16817096D02*
X12084285Y-16855191D01*
X12347142Y-17093287D02*
X12337618Y-17083763D01*
X12337618Y-17083763D02*
X12318571Y-17055191D01*
X12318571Y-17055191D02*
X12309047Y-17036144D01*
X12309047Y-17036144D02*
X12299523Y-17007572D01*
X12299523Y-17007572D02*
X12289999Y-16959953D01*
X12289999Y-16959953D02*
X12289999Y-16921858D01*
X12289999Y-16921858D02*
X12299523Y-16874239D01*
X12299523Y-16874239D02*
X12309047Y-16845668D01*
X12309047Y-16845668D02*
X12318571Y-16826620D01*
X12318571Y-16826620D02*
X12337618Y-16798049D01*
X12337618Y-16798049D02*
X12347142Y-16788525D01*
X12528094Y-17017096D02*
X12413809Y-17017096D01*
X12470951Y-17017096D02*
X12470951Y-16817096D01*
X12470951Y-16817096D02*
X12451904Y-16845668D01*
X12451904Y-16845668D02*
X12432856Y-16864715D01*
X12432856Y-16864715D02*
X12413809Y-16874239D01*
X12718571Y-17017096D02*
X12604285Y-17017096D01*
X12661428Y-17017096D02*
X12661428Y-16817096D01*
X12661428Y-16817096D02*
X12642380Y-16845668D01*
X12642380Y-16845668D02*
X12623332Y-16864715D01*
X12623332Y-16864715D02*
X12604285Y-16874239D01*
X12924285Y-17017096D02*
X12924285Y-16817096D01*
X13009999Y-17017096D02*
X13009999Y-16912334D01*
X13009999Y-16912334D02*
X13000475Y-16893287D01*
X13000475Y-16893287D02*
X12981428Y-16883763D01*
X12981428Y-16883763D02*
X12952856Y-16883763D01*
X12952856Y-16883763D02*
X12933809Y-16893287D01*
X12933809Y-16893287D02*
X12924285Y-16902810D01*
X13133809Y-17017096D02*
X13114761Y-17007572D01*
X13114761Y-17007572D02*
X13105237Y-16998049D01*
X13105237Y-16998049D02*
X13095713Y-16979001D01*
X13095713Y-16979001D02*
X13095713Y-16921858D01*
X13095713Y-16921858D02*
X13105237Y-16902810D01*
X13105237Y-16902810D02*
X13114761Y-16893287D01*
X13114761Y-16893287D02*
X13133809Y-16883763D01*
X13133809Y-16883763D02*
X13162380Y-16883763D01*
X13162380Y-16883763D02*
X13181428Y-16893287D01*
X13181428Y-16893287D02*
X13190952Y-16902810D01*
X13190952Y-16902810D02*
X13200475Y-16921858D01*
X13200475Y-16921858D02*
X13200475Y-16979001D01*
X13200475Y-16979001D02*
X13190952Y-16998049D01*
X13190952Y-16998049D02*
X13181428Y-17007572D01*
X13181428Y-17007572D02*
X13162380Y-17017096D01*
X13162380Y-17017096D02*
X13133809Y-17017096D01*
X13314761Y-17017096D02*
X13295713Y-17007572D01*
X13295713Y-17007572D02*
X13286190Y-16988525D01*
X13286190Y-16988525D02*
X13286190Y-16817096D01*
X13467142Y-17007572D02*
X13448094Y-17017096D01*
X13448094Y-17017096D02*
X13409999Y-17017096D01*
X13409999Y-17017096D02*
X13390952Y-17007572D01*
X13390952Y-17007572D02*
X13381428Y-16988525D01*
X13381428Y-16988525D02*
X13381428Y-16912334D01*
X13381428Y-16912334D02*
X13390952Y-16893287D01*
X13390952Y-16893287D02*
X13409999Y-16883763D01*
X13409999Y-16883763D02*
X13448094Y-16883763D01*
X13448094Y-16883763D02*
X13467142Y-16893287D01*
X13467142Y-16893287D02*
X13476666Y-16912334D01*
X13476666Y-16912334D02*
X13476666Y-16931382D01*
X13476666Y-16931382D02*
X13381428Y-16950430D01*
X13552856Y-17007572D02*
X13571904Y-17017096D01*
X13571904Y-17017096D02*
X13609999Y-17017096D01*
X13609999Y-17017096D02*
X13629047Y-17007572D01*
X13629047Y-17007572D02*
X13638571Y-16988525D01*
X13638571Y-16988525D02*
X13638571Y-16979001D01*
X13638571Y-16979001D02*
X13629047Y-16959953D01*
X13629047Y-16959953D02*
X13609999Y-16950430D01*
X13609999Y-16950430D02*
X13581428Y-16950430D01*
X13581428Y-16950430D02*
X13562380Y-16940906D01*
X13562380Y-16940906D02*
X13552856Y-16921858D01*
X13552856Y-16921858D02*
X13552856Y-16912334D01*
X13552856Y-16912334D02*
X13562380Y-16893287D01*
X13562380Y-16893287D02*
X13581428Y-16883763D01*
X13581428Y-16883763D02*
X13609999Y-16883763D01*
X13609999Y-16883763D02*
X13629047Y-16893287D01*
X13705237Y-17093287D02*
X13714761Y-17083763D01*
X13714761Y-17083763D02*
X13733809Y-17055191D01*
X13733809Y-17055191D02*
X13743333Y-17036144D01*
X13743333Y-17036144D02*
X13752856Y-17007572D01*
X13752856Y-17007572D02*
X13762380Y-16959953D01*
X13762380Y-16959953D02*
X13762380Y-16921858D01*
X13762380Y-16921858D02*
X13752856Y-16874239D01*
X13752856Y-16874239D02*
X13743333Y-16845668D01*
X13743333Y-16845668D02*
X13733809Y-16826620D01*
X13733809Y-16826620D02*
X13714761Y-16798049D01*
X13714761Y-16798049D02*
X13705237Y-16788525D01*
D18*
X8752380Y-17142620D02*
X8882380Y-17272620D01*
X8882380Y-17142620D02*
X8752380Y-17272620D01*
X8882380Y-17207620D02*
G75*
G03*
X8882380Y-17207620I-65000J0D01*
G01*
D12*
X9234761Y-17281096D02*
X9120475Y-17281096D01*
X9177618Y-17281096D02*
X9177618Y-17081096D01*
X9177618Y-17081096D02*
X9158570Y-17109668D01*
X9158570Y-17109668D02*
X9139523Y-17128715D01*
X9139523Y-17128715D02*
X9120475Y-17138239D01*
X9320475Y-17262049D02*
X9329999Y-17271572D01*
X9329999Y-17271572D02*
X9320475Y-17281096D01*
X9320475Y-17281096D02*
X9310951Y-17271572D01*
X9310951Y-17271572D02*
X9320475Y-17262049D01*
X9320475Y-17262049D02*
X9320475Y-17281096D01*
X9396666Y-17081096D02*
X9520475Y-17081096D01*
X9520475Y-17081096D02*
X9453809Y-17157287D01*
X9453809Y-17157287D02*
X9482380Y-17157287D01*
X9482380Y-17157287D02*
X9501428Y-17166810D01*
X9501428Y-17166810D02*
X9510951Y-17176334D01*
X9510951Y-17176334D02*
X9520475Y-17195382D01*
X9520475Y-17195382D02*
X9520475Y-17243001D01*
X9520475Y-17243001D02*
X9510951Y-17262049D01*
X9510951Y-17262049D02*
X9501428Y-17271572D01*
X9501428Y-17271572D02*
X9482380Y-17281096D01*
X9482380Y-17281096D02*
X9425237Y-17281096D01*
X9425237Y-17281096D02*
X9406190Y-17271572D01*
X9406190Y-17271572D02*
X9396666Y-17262049D01*
X9644285Y-17081096D02*
X9663332Y-17081096D01*
X9663332Y-17081096D02*
X9682380Y-17090620D01*
X9682380Y-17090620D02*
X9691904Y-17100144D01*
X9691904Y-17100144D02*
X9701428Y-17119191D01*
X9701428Y-17119191D02*
X9710951Y-17157287D01*
X9710951Y-17157287D02*
X9710951Y-17204906D01*
X9710951Y-17204906D02*
X9701428Y-17243001D01*
X9701428Y-17243001D02*
X9691904Y-17262049D01*
X9691904Y-17262049D02*
X9682380Y-17271572D01*
X9682380Y-17271572D02*
X9663332Y-17281096D01*
X9663332Y-17281096D02*
X9644285Y-17281096D01*
X9644285Y-17281096D02*
X9625237Y-17271572D01*
X9625237Y-17271572D02*
X9615713Y-17262049D01*
X9615713Y-17262049D02*
X9606190Y-17243001D01*
X9606190Y-17243001D02*
X9596666Y-17204906D01*
X9596666Y-17204906D02*
X9596666Y-17157287D01*
X9596666Y-17157287D02*
X9606190Y-17119191D01*
X9606190Y-17119191D02*
X9615713Y-17100144D01*
X9615713Y-17100144D02*
X9625237Y-17090620D01*
X9625237Y-17090620D02*
X9644285Y-17081096D01*
X9834761Y-17081096D02*
X9853809Y-17081096D01*
X9853809Y-17081096D02*
X9872856Y-17090620D01*
X9872856Y-17090620D02*
X9882380Y-17100144D01*
X9882380Y-17100144D02*
X9891904Y-17119191D01*
X9891904Y-17119191D02*
X9901428Y-17157287D01*
X9901428Y-17157287D02*
X9901428Y-17204906D01*
X9901428Y-17204906D02*
X9891904Y-17243001D01*
X9891904Y-17243001D02*
X9882380Y-17262049D01*
X9882380Y-17262049D02*
X9872856Y-17271572D01*
X9872856Y-17271572D02*
X9853809Y-17281096D01*
X9853809Y-17281096D02*
X9834761Y-17281096D01*
X9834761Y-17281096D02*
X9815713Y-17271572D01*
X9815713Y-17271572D02*
X9806190Y-17262049D01*
X9806190Y-17262049D02*
X9796666Y-17243001D01*
X9796666Y-17243001D02*
X9787142Y-17204906D01*
X9787142Y-17204906D02*
X9787142Y-17157287D01*
X9787142Y-17157287D02*
X9796666Y-17119191D01*
X9796666Y-17119191D02*
X9806190Y-17100144D01*
X9806190Y-17100144D02*
X9815713Y-17090620D01*
X9815713Y-17090620D02*
X9834761Y-17081096D01*
X9987142Y-17281096D02*
X9987142Y-17147763D01*
X9987142Y-17166810D02*
X9996666Y-17157287D01*
X9996666Y-17157287D02*
X10015713Y-17147763D01*
X10015713Y-17147763D02*
X10044285Y-17147763D01*
X10044285Y-17147763D02*
X10063332Y-17157287D01*
X10063332Y-17157287D02*
X10072856Y-17176334D01*
X10072856Y-17176334D02*
X10072856Y-17281096D01*
X10072856Y-17176334D02*
X10082380Y-17157287D01*
X10082380Y-17157287D02*
X10101428Y-17147763D01*
X10101428Y-17147763D02*
X10129999Y-17147763D01*
X10129999Y-17147763D02*
X10149047Y-17157287D01*
X10149047Y-17157287D02*
X10158571Y-17176334D01*
X10158571Y-17176334D02*
X10158571Y-17281096D01*
X10253809Y-17281096D02*
X10253809Y-17147763D01*
X10253809Y-17166810D02*
X10263332Y-17157287D01*
X10263332Y-17157287D02*
X10282380Y-17147763D01*
X10282380Y-17147763D02*
X10310952Y-17147763D01*
X10310952Y-17147763D02*
X10329999Y-17157287D01*
X10329999Y-17157287D02*
X10339523Y-17176334D01*
X10339523Y-17176334D02*
X10339523Y-17281096D01*
X10339523Y-17176334D02*
X10349047Y-17157287D01*
X10349047Y-17157287D02*
X10368094Y-17147763D01*
X10368094Y-17147763D02*
X10396666Y-17147763D01*
X10396666Y-17147763D02*
X10415713Y-17157287D01*
X10415713Y-17157287D02*
X10425237Y-17176334D01*
X10425237Y-17176334D02*
X10425237Y-17281096D01*
X10783332Y-17071572D02*
X10611904Y-17328715D01*
X11008094Y-17081096D02*
X11027142Y-17081096D01*
X11027142Y-17081096D02*
X11046190Y-17090620D01*
X11046190Y-17090620D02*
X11055713Y-17100144D01*
X11055713Y-17100144D02*
X11065237Y-17119191D01*
X11065237Y-17119191D02*
X11074761Y-17157287D01*
X11074761Y-17157287D02*
X11074761Y-17204906D01*
X11074761Y-17204906D02*
X11065237Y-17243001D01*
X11065237Y-17243001D02*
X11055713Y-17262049D01*
X11055713Y-17262049D02*
X11046190Y-17271572D01*
X11046190Y-17271572D02*
X11027142Y-17281096D01*
X11027142Y-17281096D02*
X11008094Y-17281096D01*
X11008094Y-17281096D02*
X10989047Y-17271572D01*
X10989047Y-17271572D02*
X10979523Y-17262049D01*
X10979523Y-17262049D02*
X10969999Y-17243001D01*
X10969999Y-17243001D02*
X10960475Y-17204906D01*
X10960475Y-17204906D02*
X10960475Y-17157287D01*
X10960475Y-17157287D02*
X10969999Y-17119191D01*
X10969999Y-17119191D02*
X10979523Y-17100144D01*
X10979523Y-17100144D02*
X10989047Y-17090620D01*
X10989047Y-17090620D02*
X11008094Y-17081096D01*
X11160475Y-17262049D02*
X11169999Y-17271572D01*
X11169999Y-17271572D02*
X11160475Y-17281096D01*
X11160475Y-17281096D02*
X11150952Y-17271572D01*
X11150952Y-17271572D02*
X11160475Y-17262049D01*
X11160475Y-17262049D02*
X11160475Y-17281096D01*
X11293809Y-17081096D02*
X11312856Y-17081096D01*
X11312856Y-17081096D02*
X11331904Y-17090620D01*
X11331904Y-17090620D02*
X11341428Y-17100144D01*
X11341428Y-17100144D02*
X11350951Y-17119191D01*
X11350951Y-17119191D02*
X11360475Y-17157287D01*
X11360475Y-17157287D02*
X11360475Y-17204906D01*
X11360475Y-17204906D02*
X11350951Y-17243001D01*
X11350951Y-17243001D02*
X11341428Y-17262049D01*
X11341428Y-17262049D02*
X11331904Y-17271572D01*
X11331904Y-17271572D02*
X11312856Y-17281096D01*
X11312856Y-17281096D02*
X11293809Y-17281096D01*
X11293809Y-17281096D02*
X11274761Y-17271572D01*
X11274761Y-17271572D02*
X11265237Y-17262049D01*
X11265237Y-17262049D02*
X11255713Y-17243001D01*
X11255713Y-17243001D02*
X11246190Y-17204906D01*
X11246190Y-17204906D02*
X11246190Y-17157287D01*
X11246190Y-17157287D02*
X11255713Y-17119191D01*
X11255713Y-17119191D02*
X11265237Y-17100144D01*
X11265237Y-17100144D02*
X11274761Y-17090620D01*
X11274761Y-17090620D02*
X11293809Y-17081096D01*
X11541428Y-17081096D02*
X11446190Y-17081096D01*
X11446190Y-17081096D02*
X11436666Y-17176334D01*
X11436666Y-17176334D02*
X11446190Y-17166810D01*
X11446190Y-17166810D02*
X11465237Y-17157287D01*
X11465237Y-17157287D02*
X11512856Y-17157287D01*
X11512856Y-17157287D02*
X11531904Y-17166810D01*
X11531904Y-17166810D02*
X11541428Y-17176334D01*
X11541428Y-17176334D02*
X11550951Y-17195382D01*
X11550951Y-17195382D02*
X11550951Y-17243001D01*
X11550951Y-17243001D02*
X11541428Y-17262049D01*
X11541428Y-17262049D02*
X11531904Y-17271572D01*
X11531904Y-17271572D02*
X11512856Y-17281096D01*
X11512856Y-17281096D02*
X11465237Y-17281096D01*
X11465237Y-17281096D02*
X11446190Y-17271572D01*
X11446190Y-17271572D02*
X11436666Y-17262049D01*
X11741428Y-17281096D02*
X11627142Y-17281096D01*
X11684285Y-17281096D02*
X11684285Y-17081096D01*
X11684285Y-17081096D02*
X11665237Y-17109668D01*
X11665237Y-17109668D02*
X11646190Y-17128715D01*
X11646190Y-17128715D02*
X11627142Y-17138239D01*
X11817618Y-17100144D02*
X11827142Y-17090620D01*
X11827142Y-17090620D02*
X11846190Y-17081096D01*
X11846190Y-17081096D02*
X11893809Y-17081096D01*
X11893809Y-17081096D02*
X11912856Y-17090620D01*
X11912856Y-17090620D02*
X11922380Y-17100144D01*
X11922380Y-17100144D02*
X11931904Y-17119191D01*
X11931904Y-17119191D02*
X11931904Y-17138239D01*
X11931904Y-17138239D02*
X11922380Y-17166810D01*
X11922380Y-17166810D02*
X11808094Y-17281096D01*
X11808094Y-17281096D02*
X11931904Y-17281096D01*
X12008094Y-17081096D02*
X12008094Y-17119191D01*
X12084285Y-17081096D02*
X12084285Y-17119191D01*
X12347142Y-17357287D02*
X12337618Y-17347763D01*
X12337618Y-17347763D02*
X12318571Y-17319191D01*
X12318571Y-17319191D02*
X12309047Y-17300144D01*
X12309047Y-17300144D02*
X12299523Y-17271572D01*
X12299523Y-17271572D02*
X12289999Y-17223953D01*
X12289999Y-17223953D02*
X12289999Y-17185858D01*
X12289999Y-17185858D02*
X12299523Y-17138239D01*
X12299523Y-17138239D02*
X12309047Y-17109668D01*
X12309047Y-17109668D02*
X12318571Y-17090620D01*
X12318571Y-17090620D02*
X12337618Y-17062049D01*
X12337618Y-17062049D02*
X12347142Y-17052525D01*
X12518571Y-17081096D02*
X12423332Y-17081096D01*
X12423332Y-17081096D02*
X12413809Y-17176334D01*
X12413809Y-17176334D02*
X12423332Y-17166810D01*
X12423332Y-17166810D02*
X12442380Y-17157287D01*
X12442380Y-17157287D02*
X12489999Y-17157287D01*
X12489999Y-17157287D02*
X12509047Y-17166810D01*
X12509047Y-17166810D02*
X12518571Y-17176334D01*
X12518571Y-17176334D02*
X12528094Y-17195382D01*
X12528094Y-17195382D02*
X12528094Y-17243001D01*
X12528094Y-17243001D02*
X12518571Y-17262049D01*
X12518571Y-17262049D02*
X12509047Y-17271572D01*
X12509047Y-17271572D02*
X12489999Y-17281096D01*
X12489999Y-17281096D02*
X12442380Y-17281096D01*
X12442380Y-17281096D02*
X12423332Y-17271572D01*
X12423332Y-17271572D02*
X12413809Y-17262049D01*
X12651904Y-17081096D02*
X12670952Y-17081096D01*
X12670952Y-17081096D02*
X12689999Y-17090620D01*
X12689999Y-17090620D02*
X12699523Y-17100144D01*
X12699523Y-17100144D02*
X12709047Y-17119191D01*
X12709047Y-17119191D02*
X12718571Y-17157287D01*
X12718571Y-17157287D02*
X12718571Y-17204906D01*
X12718571Y-17204906D02*
X12709047Y-17243001D01*
X12709047Y-17243001D02*
X12699523Y-17262049D01*
X12699523Y-17262049D02*
X12689999Y-17271572D01*
X12689999Y-17271572D02*
X12670952Y-17281096D01*
X12670952Y-17281096D02*
X12651904Y-17281096D01*
X12651904Y-17281096D02*
X12632856Y-17271572D01*
X12632856Y-17271572D02*
X12623332Y-17262049D01*
X12623332Y-17262049D02*
X12613809Y-17243001D01*
X12613809Y-17243001D02*
X12604285Y-17204906D01*
X12604285Y-17204906D02*
X12604285Y-17157287D01*
X12604285Y-17157287D02*
X12613809Y-17119191D01*
X12613809Y-17119191D02*
X12623332Y-17100144D01*
X12623332Y-17100144D02*
X12632856Y-17090620D01*
X12632856Y-17090620D02*
X12651904Y-17081096D01*
X12924285Y-17281096D02*
X12924285Y-17081096D01*
X13009999Y-17281096D02*
X13009999Y-17176334D01*
X13009999Y-17176334D02*
X13000475Y-17157287D01*
X13000475Y-17157287D02*
X12981428Y-17147763D01*
X12981428Y-17147763D02*
X12952856Y-17147763D01*
X12952856Y-17147763D02*
X12933809Y-17157287D01*
X12933809Y-17157287D02*
X12924285Y-17166810D01*
X13133809Y-17281096D02*
X13114761Y-17271572D01*
X13114761Y-17271572D02*
X13105237Y-17262049D01*
X13105237Y-17262049D02*
X13095713Y-17243001D01*
X13095713Y-17243001D02*
X13095713Y-17185858D01*
X13095713Y-17185858D02*
X13105237Y-17166810D01*
X13105237Y-17166810D02*
X13114761Y-17157287D01*
X13114761Y-17157287D02*
X13133809Y-17147763D01*
X13133809Y-17147763D02*
X13162380Y-17147763D01*
X13162380Y-17147763D02*
X13181428Y-17157287D01*
X13181428Y-17157287D02*
X13190952Y-17166810D01*
X13190952Y-17166810D02*
X13200475Y-17185858D01*
X13200475Y-17185858D02*
X13200475Y-17243001D01*
X13200475Y-17243001D02*
X13190952Y-17262049D01*
X13190952Y-17262049D02*
X13181428Y-17271572D01*
X13181428Y-17271572D02*
X13162380Y-17281096D01*
X13162380Y-17281096D02*
X13133809Y-17281096D01*
X13314761Y-17281096D02*
X13295713Y-17271572D01*
X13295713Y-17271572D02*
X13286190Y-17252525D01*
X13286190Y-17252525D02*
X13286190Y-17081096D01*
X13467142Y-17271572D02*
X13448094Y-17281096D01*
X13448094Y-17281096D02*
X13409999Y-17281096D01*
X13409999Y-17281096D02*
X13390952Y-17271572D01*
X13390952Y-17271572D02*
X13381428Y-17252525D01*
X13381428Y-17252525D02*
X13381428Y-17176334D01*
X13381428Y-17176334D02*
X13390952Y-17157287D01*
X13390952Y-17157287D02*
X13409999Y-17147763D01*
X13409999Y-17147763D02*
X13448094Y-17147763D01*
X13448094Y-17147763D02*
X13467142Y-17157287D01*
X13467142Y-17157287D02*
X13476666Y-17176334D01*
X13476666Y-17176334D02*
X13476666Y-17195382D01*
X13476666Y-17195382D02*
X13381428Y-17214430D01*
X13552856Y-17271572D02*
X13571904Y-17281096D01*
X13571904Y-17281096D02*
X13609999Y-17281096D01*
X13609999Y-17281096D02*
X13629047Y-17271572D01*
X13629047Y-17271572D02*
X13638571Y-17252525D01*
X13638571Y-17252525D02*
X13638571Y-17243001D01*
X13638571Y-17243001D02*
X13629047Y-17223953D01*
X13629047Y-17223953D02*
X13609999Y-17214430D01*
X13609999Y-17214430D02*
X13581428Y-17214430D01*
X13581428Y-17214430D02*
X13562380Y-17204906D01*
X13562380Y-17204906D02*
X13552856Y-17185858D01*
X13552856Y-17185858D02*
X13552856Y-17176334D01*
X13552856Y-17176334D02*
X13562380Y-17157287D01*
X13562380Y-17157287D02*
X13581428Y-17147763D01*
X13581428Y-17147763D02*
X13609999Y-17147763D01*
X13609999Y-17147763D02*
X13629047Y-17157287D01*
X13705237Y-17357287D02*
X13714761Y-17347763D01*
X13714761Y-17347763D02*
X13733809Y-17319191D01*
X13733809Y-17319191D02*
X13743333Y-17300144D01*
X13743333Y-17300144D02*
X13752856Y-17271572D01*
X13752856Y-17271572D02*
X13762380Y-17223953D01*
X13762380Y-17223953D02*
X13762380Y-17185858D01*
X13762380Y-17185858D02*
X13752856Y-17138239D01*
X13752856Y-17138239D02*
X13743333Y-17109668D01*
X13743333Y-17109668D02*
X13733809Y-17090620D01*
X13733809Y-17090620D02*
X13714761Y-17062049D01*
X13714761Y-17062049D02*
X13705237Y-17052525D01*
D10*
X8732380Y-17396620D02*
X8882380Y-17546620D01*
X8882380Y-17396620D02*
X8732380Y-17546620D01*
X8807380Y-17396620D02*
X8807380Y-17546620D01*
X8732380Y-17471620D02*
X8882380Y-17471620D01*
D12*
X9234761Y-17545096D02*
X9120475Y-17545096D01*
X9177618Y-17545096D02*
X9177618Y-17345096D01*
X9177618Y-17345096D02*
X9158570Y-17373668D01*
X9158570Y-17373668D02*
X9139523Y-17392715D01*
X9139523Y-17392715D02*
X9120475Y-17402239D01*
X9320475Y-17526049D02*
X9329999Y-17535572D01*
X9329999Y-17535572D02*
X9320475Y-17545096D01*
X9320475Y-17545096D02*
X9310951Y-17535572D01*
X9310951Y-17535572D02*
X9320475Y-17526049D01*
X9320475Y-17526049D02*
X9320475Y-17545096D01*
X9510951Y-17345096D02*
X9415713Y-17345096D01*
X9415713Y-17345096D02*
X9406190Y-17440334D01*
X9406190Y-17440334D02*
X9415713Y-17430810D01*
X9415713Y-17430810D02*
X9434761Y-17421287D01*
X9434761Y-17421287D02*
X9482380Y-17421287D01*
X9482380Y-17421287D02*
X9501428Y-17430810D01*
X9501428Y-17430810D02*
X9510951Y-17440334D01*
X9510951Y-17440334D02*
X9520475Y-17459382D01*
X9520475Y-17459382D02*
X9520475Y-17507001D01*
X9520475Y-17507001D02*
X9510951Y-17526049D01*
X9510951Y-17526049D02*
X9501428Y-17535572D01*
X9501428Y-17535572D02*
X9482380Y-17545096D01*
X9482380Y-17545096D02*
X9434761Y-17545096D01*
X9434761Y-17545096D02*
X9415713Y-17535572D01*
X9415713Y-17535572D02*
X9406190Y-17526049D01*
X9644285Y-17345096D02*
X9663332Y-17345096D01*
X9663332Y-17345096D02*
X9682380Y-17354620D01*
X9682380Y-17354620D02*
X9691904Y-17364144D01*
X9691904Y-17364144D02*
X9701428Y-17383191D01*
X9701428Y-17383191D02*
X9710951Y-17421287D01*
X9710951Y-17421287D02*
X9710951Y-17468906D01*
X9710951Y-17468906D02*
X9701428Y-17507001D01*
X9701428Y-17507001D02*
X9691904Y-17526049D01*
X9691904Y-17526049D02*
X9682380Y-17535572D01*
X9682380Y-17535572D02*
X9663332Y-17545096D01*
X9663332Y-17545096D02*
X9644285Y-17545096D01*
X9644285Y-17545096D02*
X9625237Y-17535572D01*
X9625237Y-17535572D02*
X9615713Y-17526049D01*
X9615713Y-17526049D02*
X9606190Y-17507001D01*
X9606190Y-17507001D02*
X9596666Y-17468906D01*
X9596666Y-17468906D02*
X9596666Y-17421287D01*
X9596666Y-17421287D02*
X9606190Y-17383191D01*
X9606190Y-17383191D02*
X9615713Y-17364144D01*
X9615713Y-17364144D02*
X9625237Y-17354620D01*
X9625237Y-17354620D02*
X9644285Y-17345096D01*
X9834761Y-17345096D02*
X9853809Y-17345096D01*
X9853809Y-17345096D02*
X9872856Y-17354620D01*
X9872856Y-17354620D02*
X9882380Y-17364144D01*
X9882380Y-17364144D02*
X9891904Y-17383191D01*
X9891904Y-17383191D02*
X9901428Y-17421287D01*
X9901428Y-17421287D02*
X9901428Y-17468906D01*
X9901428Y-17468906D02*
X9891904Y-17507001D01*
X9891904Y-17507001D02*
X9882380Y-17526049D01*
X9882380Y-17526049D02*
X9872856Y-17535572D01*
X9872856Y-17535572D02*
X9853809Y-17545096D01*
X9853809Y-17545096D02*
X9834761Y-17545096D01*
X9834761Y-17545096D02*
X9815713Y-17535572D01*
X9815713Y-17535572D02*
X9806190Y-17526049D01*
X9806190Y-17526049D02*
X9796666Y-17507001D01*
X9796666Y-17507001D02*
X9787142Y-17468906D01*
X9787142Y-17468906D02*
X9787142Y-17421287D01*
X9787142Y-17421287D02*
X9796666Y-17383191D01*
X9796666Y-17383191D02*
X9806190Y-17364144D01*
X9806190Y-17364144D02*
X9815713Y-17354620D01*
X9815713Y-17354620D02*
X9834761Y-17345096D01*
X9987142Y-17545096D02*
X9987142Y-17411763D01*
X9987142Y-17430810D02*
X9996666Y-17421287D01*
X9996666Y-17421287D02*
X10015713Y-17411763D01*
X10015713Y-17411763D02*
X10044285Y-17411763D01*
X10044285Y-17411763D02*
X10063332Y-17421287D01*
X10063332Y-17421287D02*
X10072856Y-17440334D01*
X10072856Y-17440334D02*
X10072856Y-17545096D01*
X10072856Y-17440334D02*
X10082380Y-17421287D01*
X10082380Y-17421287D02*
X10101428Y-17411763D01*
X10101428Y-17411763D02*
X10129999Y-17411763D01*
X10129999Y-17411763D02*
X10149047Y-17421287D01*
X10149047Y-17421287D02*
X10158571Y-17440334D01*
X10158571Y-17440334D02*
X10158571Y-17545096D01*
X10253809Y-17545096D02*
X10253809Y-17411763D01*
X10253809Y-17430810D02*
X10263332Y-17421287D01*
X10263332Y-17421287D02*
X10282380Y-17411763D01*
X10282380Y-17411763D02*
X10310952Y-17411763D01*
X10310952Y-17411763D02*
X10329999Y-17421287D01*
X10329999Y-17421287D02*
X10339523Y-17440334D01*
X10339523Y-17440334D02*
X10339523Y-17545096D01*
X10339523Y-17440334D02*
X10349047Y-17421287D01*
X10349047Y-17421287D02*
X10368094Y-17411763D01*
X10368094Y-17411763D02*
X10396666Y-17411763D01*
X10396666Y-17411763D02*
X10415713Y-17421287D01*
X10415713Y-17421287D02*
X10425237Y-17440334D01*
X10425237Y-17440334D02*
X10425237Y-17545096D01*
X10783332Y-17335572D02*
X10611904Y-17592715D01*
X11008094Y-17345096D02*
X11027142Y-17345096D01*
X11027142Y-17345096D02*
X11046190Y-17354620D01*
X11046190Y-17354620D02*
X11055713Y-17364144D01*
X11055713Y-17364144D02*
X11065237Y-17383191D01*
X11065237Y-17383191D02*
X11074761Y-17421287D01*
X11074761Y-17421287D02*
X11074761Y-17468906D01*
X11074761Y-17468906D02*
X11065237Y-17507001D01*
X11065237Y-17507001D02*
X11055713Y-17526049D01*
X11055713Y-17526049D02*
X11046190Y-17535572D01*
X11046190Y-17535572D02*
X11027142Y-17545096D01*
X11027142Y-17545096D02*
X11008094Y-17545096D01*
X11008094Y-17545096D02*
X10989047Y-17535572D01*
X10989047Y-17535572D02*
X10979523Y-17526049D01*
X10979523Y-17526049D02*
X10969999Y-17507001D01*
X10969999Y-17507001D02*
X10960475Y-17468906D01*
X10960475Y-17468906D02*
X10960475Y-17421287D01*
X10960475Y-17421287D02*
X10969999Y-17383191D01*
X10969999Y-17383191D02*
X10979523Y-17364144D01*
X10979523Y-17364144D02*
X10989047Y-17354620D01*
X10989047Y-17354620D02*
X11008094Y-17345096D01*
X11160475Y-17526049D02*
X11169999Y-17535572D01*
X11169999Y-17535572D02*
X11160475Y-17545096D01*
X11160475Y-17545096D02*
X11150952Y-17535572D01*
X11150952Y-17535572D02*
X11160475Y-17526049D01*
X11160475Y-17526049D02*
X11160475Y-17545096D01*
X11293809Y-17345096D02*
X11312856Y-17345096D01*
X11312856Y-17345096D02*
X11331904Y-17354620D01*
X11331904Y-17354620D02*
X11341428Y-17364144D01*
X11341428Y-17364144D02*
X11350951Y-17383191D01*
X11350951Y-17383191D02*
X11360475Y-17421287D01*
X11360475Y-17421287D02*
X11360475Y-17468906D01*
X11360475Y-17468906D02*
X11350951Y-17507001D01*
X11350951Y-17507001D02*
X11341428Y-17526049D01*
X11341428Y-17526049D02*
X11331904Y-17535572D01*
X11331904Y-17535572D02*
X11312856Y-17545096D01*
X11312856Y-17545096D02*
X11293809Y-17545096D01*
X11293809Y-17545096D02*
X11274761Y-17535572D01*
X11274761Y-17535572D02*
X11265237Y-17526049D01*
X11265237Y-17526049D02*
X11255713Y-17507001D01*
X11255713Y-17507001D02*
X11246190Y-17468906D01*
X11246190Y-17468906D02*
X11246190Y-17421287D01*
X11246190Y-17421287D02*
X11255713Y-17383191D01*
X11255713Y-17383191D02*
X11265237Y-17364144D01*
X11265237Y-17364144D02*
X11274761Y-17354620D01*
X11274761Y-17354620D02*
X11293809Y-17345096D01*
X11541428Y-17345096D02*
X11446190Y-17345096D01*
X11446190Y-17345096D02*
X11436666Y-17440334D01*
X11436666Y-17440334D02*
X11446190Y-17430810D01*
X11446190Y-17430810D02*
X11465237Y-17421287D01*
X11465237Y-17421287D02*
X11512856Y-17421287D01*
X11512856Y-17421287D02*
X11531904Y-17430810D01*
X11531904Y-17430810D02*
X11541428Y-17440334D01*
X11541428Y-17440334D02*
X11550951Y-17459382D01*
X11550951Y-17459382D02*
X11550951Y-17507001D01*
X11550951Y-17507001D02*
X11541428Y-17526049D01*
X11541428Y-17526049D02*
X11531904Y-17535572D01*
X11531904Y-17535572D02*
X11512856Y-17545096D01*
X11512856Y-17545096D02*
X11465237Y-17545096D01*
X11465237Y-17545096D02*
X11446190Y-17535572D01*
X11446190Y-17535572D02*
X11436666Y-17526049D01*
X11646190Y-17545096D02*
X11684285Y-17545096D01*
X11684285Y-17545096D02*
X11703332Y-17535572D01*
X11703332Y-17535572D02*
X11712856Y-17526049D01*
X11712856Y-17526049D02*
X11731904Y-17497477D01*
X11731904Y-17497477D02*
X11741428Y-17459382D01*
X11741428Y-17459382D02*
X11741428Y-17383191D01*
X11741428Y-17383191D02*
X11731904Y-17364144D01*
X11731904Y-17364144D02*
X11722380Y-17354620D01*
X11722380Y-17354620D02*
X11703332Y-17345096D01*
X11703332Y-17345096D02*
X11665237Y-17345096D01*
X11665237Y-17345096D02*
X11646190Y-17354620D01*
X11646190Y-17354620D02*
X11636666Y-17364144D01*
X11636666Y-17364144D02*
X11627142Y-17383191D01*
X11627142Y-17383191D02*
X11627142Y-17430810D01*
X11627142Y-17430810D02*
X11636666Y-17449858D01*
X11636666Y-17449858D02*
X11646190Y-17459382D01*
X11646190Y-17459382D02*
X11665237Y-17468906D01*
X11665237Y-17468906D02*
X11703332Y-17468906D01*
X11703332Y-17468906D02*
X11722380Y-17459382D01*
X11722380Y-17459382D02*
X11731904Y-17449858D01*
X11731904Y-17449858D02*
X11741428Y-17430810D01*
X11931904Y-17545096D02*
X11817618Y-17545096D01*
X11874761Y-17545096D02*
X11874761Y-17345096D01*
X11874761Y-17345096D02*
X11855713Y-17373668D01*
X11855713Y-17373668D02*
X11836666Y-17392715D01*
X11836666Y-17392715D02*
X11817618Y-17402239D01*
X12008094Y-17345096D02*
X12008094Y-17383191D01*
X12084285Y-17345096D02*
X12084285Y-17383191D01*
X12347142Y-17621287D02*
X12337618Y-17611763D01*
X12337618Y-17611763D02*
X12318571Y-17583191D01*
X12318571Y-17583191D02*
X12309047Y-17564144D01*
X12309047Y-17564144D02*
X12299523Y-17535572D01*
X12299523Y-17535572D02*
X12289999Y-17487953D01*
X12289999Y-17487953D02*
X12289999Y-17449858D01*
X12289999Y-17449858D02*
X12299523Y-17402239D01*
X12299523Y-17402239D02*
X12309047Y-17373668D01*
X12309047Y-17373668D02*
X12318571Y-17354620D01*
X12318571Y-17354620D02*
X12337618Y-17326049D01*
X12337618Y-17326049D02*
X12347142Y-17316525D01*
X12509047Y-17411763D02*
X12509047Y-17545096D01*
X12461428Y-17335572D02*
X12413809Y-17478430D01*
X12413809Y-17478430D02*
X12537618Y-17478430D01*
X12733809Y-17545096D02*
X12733809Y-17345096D01*
X12819523Y-17545096D02*
X12819523Y-17440334D01*
X12819523Y-17440334D02*
X12809999Y-17421287D01*
X12809999Y-17421287D02*
X12790952Y-17411763D01*
X12790952Y-17411763D02*
X12762380Y-17411763D01*
X12762380Y-17411763D02*
X12743332Y-17421287D01*
X12743332Y-17421287D02*
X12733809Y-17430810D01*
X12943332Y-17545096D02*
X12924285Y-17535572D01*
X12924285Y-17535572D02*
X12914761Y-17526049D01*
X12914761Y-17526049D02*
X12905237Y-17507001D01*
X12905237Y-17507001D02*
X12905237Y-17449858D01*
X12905237Y-17449858D02*
X12914761Y-17430810D01*
X12914761Y-17430810D02*
X12924285Y-17421287D01*
X12924285Y-17421287D02*
X12943332Y-17411763D01*
X12943332Y-17411763D02*
X12971904Y-17411763D01*
X12971904Y-17411763D02*
X12990952Y-17421287D01*
X12990952Y-17421287D02*
X13000475Y-17430810D01*
X13000475Y-17430810D02*
X13009999Y-17449858D01*
X13009999Y-17449858D02*
X13009999Y-17507001D01*
X13009999Y-17507001D02*
X13000475Y-17526049D01*
X13000475Y-17526049D02*
X12990952Y-17535572D01*
X12990952Y-17535572D02*
X12971904Y-17545096D01*
X12971904Y-17545096D02*
X12943332Y-17545096D01*
X13124285Y-17545096D02*
X13105237Y-17535572D01*
X13105237Y-17535572D02*
X13095713Y-17516525D01*
X13095713Y-17516525D02*
X13095713Y-17345096D01*
X13276666Y-17535572D02*
X13257618Y-17545096D01*
X13257618Y-17545096D02*
X13219523Y-17545096D01*
X13219523Y-17545096D02*
X13200475Y-17535572D01*
X13200475Y-17535572D02*
X13190952Y-17516525D01*
X13190952Y-17516525D02*
X13190952Y-17440334D01*
X13190952Y-17440334D02*
X13200475Y-17421287D01*
X13200475Y-17421287D02*
X13219523Y-17411763D01*
X13219523Y-17411763D02*
X13257618Y-17411763D01*
X13257618Y-17411763D02*
X13276666Y-17421287D01*
X13276666Y-17421287D02*
X13286190Y-17440334D01*
X13286190Y-17440334D02*
X13286190Y-17459382D01*
X13286190Y-17459382D02*
X13190952Y-17478430D01*
X13362380Y-17535572D02*
X13381428Y-17545096D01*
X13381428Y-17545096D02*
X13419523Y-17545096D01*
X13419523Y-17545096D02*
X13438571Y-17535572D01*
X13438571Y-17535572D02*
X13448094Y-17516525D01*
X13448094Y-17516525D02*
X13448094Y-17507001D01*
X13448094Y-17507001D02*
X13438571Y-17487953D01*
X13438571Y-17487953D02*
X13419523Y-17478430D01*
X13419523Y-17478430D02*
X13390952Y-17478430D01*
X13390952Y-17478430D02*
X13371904Y-17468906D01*
X13371904Y-17468906D02*
X13362380Y-17449858D01*
X13362380Y-17449858D02*
X13362380Y-17440334D01*
X13362380Y-17440334D02*
X13371904Y-17421287D01*
X13371904Y-17421287D02*
X13390952Y-17411763D01*
X13390952Y-17411763D02*
X13419523Y-17411763D01*
X13419523Y-17411763D02*
X13438571Y-17421287D01*
X13514761Y-17621287D02*
X13524285Y-17611763D01*
X13524285Y-17611763D02*
X13543333Y-17583191D01*
X13543333Y-17583191D02*
X13552856Y-17564144D01*
X13552856Y-17564144D02*
X13562380Y-17535572D01*
X13562380Y-17535572D02*
X13571904Y-17487953D01*
X13571904Y-17487953D02*
X13571904Y-17449858D01*
X13571904Y-17449858D02*
X13562380Y-17402239D01*
X13562380Y-17402239D02*
X13552856Y-17373668D01*
X13552856Y-17373668D02*
X13543333Y-17354620D01*
X13543333Y-17354620D02*
X13524285Y-17326049D01*
X13524285Y-17326049D02*
X13514761Y-17316525D01*
M02*
