G04 #@! TF.GenerationSoftware,KiCad,Pcbnew,(7.0.0)*
G04 #@! TF.CreationDate,2023-07-30T12:49:27+02:00*
G04 #@! TF.ProjectId,RealyModul_1Wire_ADC,5265616c-794d-46f6-9475-6c5f31576972,rev?*
G04 #@! TF.SameCoordinates,Original*
G04 #@! TF.FileFunction,Legend,Bot*
G04 #@! TF.FilePolarity,Positive*
%FSLAX46Y46*%
G04 Gerber Fmt 4.6, Leading zero omitted, Abs format (unit mm)*
G04 Created by KiCad (PCBNEW (7.0.0)) date 2023-07-30 12:49:27*
%MOMM*%
%LPD*%
G01*
G04 APERTURE LIST*
G04 Aperture macros list*
%AMRoundRect*
0 Rectangle with rounded corners*
0 $1 Rounding radius*
0 $2 $3 $4 $5 $6 $7 $8 $9 X,Y pos of 4 corners*
0 Add a 4 corners polygon primitive as box body*
4,1,4,$2,$3,$4,$5,$6,$7,$8,$9,$2,$3,0*
0 Add four circle primitives for the rounded corners*
1,1,$1+$1,$2,$3*
1,1,$1+$1,$4,$5*
1,1,$1+$1,$6,$7*
1,1,$1+$1,$8,$9*
0 Add four rect primitives between the rounded corners*
20,1,$1+$1,$2,$3,$4,$5,0*
20,1,$1+$1,$4,$5,$6,$7,0*
20,1,$1+$1,$6,$7,$8,$9,0*
20,1,$1+$1,$8,$9,$2,$3,0*%
G04 Aperture macros list end*
%ADD10C,0.150000*%
%ADD11C,0.120000*%
%ADD12O,3.300000X1.650000*%
%ADD13R,1.950000X1.950000*%
%ADD14C,1.950000*%
%ADD15O,2.000000X3.000000*%
%ADD16R,3.000000X2.000000*%
%ADD17O,3.000000X2.000000*%
%ADD18R,1.800000X1.800000*%
%ADD19C,1.800000*%
%ADD20R,1.700000X1.700000*%
%ADD21O,1.700000X1.700000*%
%ADD22R,3.000000X3.000000*%
%ADD23C,3.000000*%
%ADD24RoundRect,0.150000X-0.150000X0.587500X-0.150000X-0.587500X0.150000X-0.587500X0.150000X0.587500X0*%
%ADD25RoundRect,0.200000X-0.275000X0.200000X-0.275000X-0.200000X0.275000X-0.200000X0.275000X0.200000X0*%
%ADD26RoundRect,0.249999X-0.450001X-1.075001X0.450001X-1.075001X0.450001X1.075001X-0.450001X1.075001X0*%
%ADD27RoundRect,0.200000X0.200000X0.275000X-0.200000X0.275000X-0.200000X-0.275000X0.200000X-0.275000X0*%
%ADD28RoundRect,0.150000X0.150000X-0.587500X0.150000X0.587500X-0.150000X0.587500X-0.150000X-0.587500X0*%
%ADD29RoundRect,0.200000X0.275000X-0.200000X0.275000X0.200000X-0.275000X0.200000X-0.275000X-0.200000X0*%
G04 #@! TA.AperFunction,Profile*
%ADD30C,0.150000*%
G04 #@! TD*
G04 #@! TA.AperFunction,Profile*
%ADD31C,0.152400*%
G04 #@! TD*
G04 APERTURE END LIST*
D10*
X131238380Y-73840905D02*
X130238380Y-73840905D01*
X130238380Y-73840905D02*
X130238380Y-74079000D01*
X130238380Y-74079000D02*
X130286000Y-74221857D01*
X130286000Y-74221857D02*
X130381238Y-74317095D01*
X130381238Y-74317095D02*
X130476476Y-74364714D01*
X130476476Y-74364714D02*
X130666952Y-74412333D01*
X130666952Y-74412333D02*
X130809809Y-74412333D01*
X130809809Y-74412333D02*
X131000285Y-74364714D01*
X131000285Y-74364714D02*
X131095523Y-74317095D01*
X131095523Y-74317095D02*
X131190761Y-74221857D01*
X131190761Y-74221857D02*
X131238380Y-74079000D01*
X131238380Y-74079000D02*
X131238380Y-73840905D01*
X130333619Y-74793286D02*
X130286000Y-74840905D01*
X130286000Y-74840905D02*
X130238380Y-74936143D01*
X130238380Y-74936143D02*
X130238380Y-75174238D01*
X130238380Y-75174238D02*
X130286000Y-75269476D01*
X130286000Y-75269476D02*
X130333619Y-75317095D01*
X130333619Y-75317095D02*
X130428857Y-75364714D01*
X130428857Y-75364714D02*
X130524095Y-75364714D01*
X130524095Y-75364714D02*
X130666952Y-75317095D01*
X130666952Y-75317095D02*
X131238380Y-74745667D01*
X131238380Y-74745667D02*
X131238380Y-75364714D01*
X142988380Y-78986142D02*
X142512190Y-78652809D01*
X142988380Y-78414714D02*
X141988380Y-78414714D01*
X141988380Y-78414714D02*
X141988380Y-78795666D01*
X141988380Y-78795666D02*
X142036000Y-78890904D01*
X142036000Y-78890904D02*
X142083619Y-78938523D01*
X142083619Y-78938523D02*
X142178857Y-78986142D01*
X142178857Y-78986142D02*
X142321714Y-78986142D01*
X142321714Y-78986142D02*
X142416952Y-78938523D01*
X142416952Y-78938523D02*
X142464571Y-78890904D01*
X142464571Y-78890904D02*
X142512190Y-78795666D01*
X142512190Y-78795666D02*
X142512190Y-78414714D01*
X142083619Y-79367095D02*
X142036000Y-79414714D01*
X142036000Y-79414714D02*
X141988380Y-79509952D01*
X141988380Y-79509952D02*
X141988380Y-79748047D01*
X141988380Y-79748047D02*
X142036000Y-79843285D01*
X142036000Y-79843285D02*
X142083619Y-79890904D01*
X142083619Y-79890904D02*
X142178857Y-79938523D01*
X142178857Y-79938523D02*
X142274095Y-79938523D01*
X142274095Y-79938523D02*
X142416952Y-79890904D01*
X142416952Y-79890904D02*
X142988380Y-79319476D01*
X142988380Y-79319476D02*
X142988380Y-79938523D01*
X141988380Y-80271857D02*
X141988380Y-80890904D01*
X141988380Y-80890904D02*
X142369333Y-80557571D01*
X142369333Y-80557571D02*
X142369333Y-80700428D01*
X142369333Y-80700428D02*
X142416952Y-80795666D01*
X142416952Y-80795666D02*
X142464571Y-80843285D01*
X142464571Y-80843285D02*
X142559809Y-80890904D01*
X142559809Y-80890904D02*
X142797904Y-80890904D01*
X142797904Y-80890904D02*
X142893142Y-80843285D01*
X142893142Y-80843285D02*
X142940761Y-80795666D01*
X142940761Y-80795666D02*
X142988380Y-80700428D01*
X142988380Y-80700428D02*
X142988380Y-80414714D01*
X142988380Y-80414714D02*
X142940761Y-80319476D01*
X142940761Y-80319476D02*
X142893142Y-80271857D01*
X98909047Y-115169380D02*
X99242380Y-114693190D01*
X99480475Y-115169380D02*
X99480475Y-114169380D01*
X99480475Y-114169380D02*
X99099523Y-114169380D01*
X99099523Y-114169380D02*
X99004285Y-114217000D01*
X99004285Y-114217000D02*
X98956666Y-114264619D01*
X98956666Y-114264619D02*
X98909047Y-114359857D01*
X98909047Y-114359857D02*
X98909047Y-114502714D01*
X98909047Y-114502714D02*
X98956666Y-114597952D01*
X98956666Y-114597952D02*
X99004285Y-114645571D01*
X99004285Y-114645571D02*
X99099523Y-114693190D01*
X99099523Y-114693190D02*
X99480475Y-114693190D01*
X98528094Y-114264619D02*
X98480475Y-114217000D01*
X98480475Y-114217000D02*
X98385237Y-114169380D01*
X98385237Y-114169380D02*
X98147142Y-114169380D01*
X98147142Y-114169380D02*
X98051904Y-114217000D01*
X98051904Y-114217000D02*
X98004285Y-114264619D01*
X98004285Y-114264619D02*
X97956666Y-114359857D01*
X97956666Y-114359857D02*
X97956666Y-114455095D01*
X97956666Y-114455095D02*
X98004285Y-114597952D01*
X98004285Y-114597952D02*
X98575713Y-115169380D01*
X98575713Y-115169380D02*
X97956666Y-115169380D01*
X97337618Y-114169380D02*
X97242380Y-114169380D01*
X97242380Y-114169380D02*
X97147142Y-114217000D01*
X97147142Y-114217000D02*
X97099523Y-114264619D01*
X97099523Y-114264619D02*
X97051904Y-114359857D01*
X97051904Y-114359857D02*
X97004285Y-114550333D01*
X97004285Y-114550333D02*
X97004285Y-114788428D01*
X97004285Y-114788428D02*
X97051904Y-114978904D01*
X97051904Y-114978904D02*
X97099523Y-115074142D01*
X97099523Y-115074142D02*
X97147142Y-115121761D01*
X97147142Y-115121761D02*
X97242380Y-115169380D01*
X97242380Y-115169380D02*
X97337618Y-115169380D01*
X97337618Y-115169380D02*
X97432856Y-115121761D01*
X97432856Y-115121761D02*
X97480475Y-115074142D01*
X97480475Y-115074142D02*
X97528094Y-114978904D01*
X97528094Y-114978904D02*
X97575713Y-114788428D01*
X97575713Y-114788428D02*
X97575713Y-114550333D01*
X97575713Y-114550333D02*
X97528094Y-114359857D01*
X97528094Y-114359857D02*
X97480475Y-114264619D01*
X97480475Y-114264619D02*
X97432856Y-114217000D01*
X97432856Y-114217000D02*
X97337618Y-114169380D01*
X96623332Y-114264619D02*
X96575713Y-114217000D01*
X96575713Y-114217000D02*
X96480475Y-114169380D01*
X96480475Y-114169380D02*
X96242380Y-114169380D01*
X96242380Y-114169380D02*
X96147142Y-114217000D01*
X96147142Y-114217000D02*
X96099523Y-114264619D01*
X96099523Y-114264619D02*
X96051904Y-114359857D01*
X96051904Y-114359857D02*
X96051904Y-114455095D01*
X96051904Y-114455095D02*
X96099523Y-114597952D01*
X96099523Y-114597952D02*
X96670951Y-115169380D01*
X96670951Y-115169380D02*
X96051904Y-115169380D01*
X122277666Y-77837380D02*
X122610999Y-77361190D01*
X122849094Y-77837380D02*
X122849094Y-76837380D01*
X122849094Y-76837380D02*
X122468142Y-76837380D01*
X122468142Y-76837380D02*
X122372904Y-76885000D01*
X122372904Y-76885000D02*
X122325285Y-76932619D01*
X122325285Y-76932619D02*
X122277666Y-77027857D01*
X122277666Y-77027857D02*
X122277666Y-77170714D01*
X122277666Y-77170714D02*
X122325285Y-77265952D01*
X122325285Y-77265952D02*
X122372904Y-77313571D01*
X122372904Y-77313571D02*
X122468142Y-77361190D01*
X122468142Y-77361190D02*
X122849094Y-77361190D01*
X121944332Y-76837380D02*
X121325285Y-76837380D01*
X121325285Y-76837380D02*
X121658618Y-77218333D01*
X121658618Y-77218333D02*
X121515761Y-77218333D01*
X121515761Y-77218333D02*
X121420523Y-77265952D01*
X121420523Y-77265952D02*
X121372904Y-77313571D01*
X121372904Y-77313571D02*
X121325285Y-77408809D01*
X121325285Y-77408809D02*
X121325285Y-77646904D01*
X121325285Y-77646904D02*
X121372904Y-77742142D01*
X121372904Y-77742142D02*
X121420523Y-77789761D01*
X121420523Y-77789761D02*
X121515761Y-77837380D01*
X121515761Y-77837380D02*
X121801475Y-77837380D01*
X121801475Y-77837380D02*
X121896713Y-77789761D01*
X121896713Y-77789761D02*
X121944332Y-77742142D01*
X140575380Y-65365333D02*
X140099190Y-65032000D01*
X140575380Y-64793905D02*
X139575380Y-64793905D01*
X139575380Y-64793905D02*
X139575380Y-65174857D01*
X139575380Y-65174857D02*
X139623000Y-65270095D01*
X139623000Y-65270095D02*
X139670619Y-65317714D01*
X139670619Y-65317714D02*
X139765857Y-65365333D01*
X139765857Y-65365333D02*
X139908714Y-65365333D01*
X139908714Y-65365333D02*
X140003952Y-65317714D01*
X140003952Y-65317714D02*
X140051571Y-65270095D01*
X140051571Y-65270095D02*
X140099190Y-65174857D01*
X140099190Y-65174857D02*
X140099190Y-64793905D01*
X139575380Y-66270095D02*
X139575380Y-65793905D01*
X139575380Y-65793905D02*
X140051571Y-65746286D01*
X140051571Y-65746286D02*
X140003952Y-65793905D01*
X140003952Y-65793905D02*
X139956333Y-65889143D01*
X139956333Y-65889143D02*
X139956333Y-66127238D01*
X139956333Y-66127238D02*
X140003952Y-66222476D01*
X140003952Y-66222476D02*
X140051571Y-66270095D01*
X140051571Y-66270095D02*
X140146809Y-66317714D01*
X140146809Y-66317714D02*
X140384904Y-66317714D01*
X140384904Y-66317714D02*
X140480142Y-66270095D01*
X140480142Y-66270095D02*
X140527761Y-66222476D01*
X140527761Y-66222476D02*
X140575380Y-66127238D01*
X140575380Y-66127238D02*
X140575380Y-65889143D01*
X140575380Y-65889143D02*
X140527761Y-65793905D01*
X140527761Y-65793905D02*
X140480142Y-65746286D01*
X125970380Y-65238333D02*
X125494190Y-64905000D01*
X125970380Y-64666905D02*
X124970380Y-64666905D01*
X124970380Y-64666905D02*
X124970380Y-65047857D01*
X124970380Y-65047857D02*
X125018000Y-65143095D01*
X125018000Y-65143095D02*
X125065619Y-65190714D01*
X125065619Y-65190714D02*
X125160857Y-65238333D01*
X125160857Y-65238333D02*
X125303714Y-65238333D01*
X125303714Y-65238333D02*
X125398952Y-65190714D01*
X125398952Y-65190714D02*
X125446571Y-65143095D01*
X125446571Y-65143095D02*
X125494190Y-65047857D01*
X125494190Y-65047857D02*
X125494190Y-64666905D01*
X124970380Y-65571667D02*
X124970380Y-66238333D01*
X124970380Y-66238333D02*
X125970380Y-65809762D01*
X142702619Y-74580761D02*
X142655000Y-74485523D01*
X142655000Y-74485523D02*
X142559761Y-74390285D01*
X142559761Y-74390285D02*
X142416904Y-74247428D01*
X142416904Y-74247428D02*
X142369285Y-74152190D01*
X142369285Y-74152190D02*
X142369285Y-74056952D01*
X142607380Y-74104571D02*
X142559761Y-74009333D01*
X142559761Y-74009333D02*
X142464523Y-73914095D01*
X142464523Y-73914095D02*
X142274047Y-73866476D01*
X142274047Y-73866476D02*
X141940714Y-73866476D01*
X141940714Y-73866476D02*
X141750238Y-73914095D01*
X141750238Y-73914095D02*
X141655000Y-74009333D01*
X141655000Y-74009333D02*
X141607380Y-74104571D01*
X141607380Y-74104571D02*
X141607380Y-74295047D01*
X141607380Y-74295047D02*
X141655000Y-74390285D01*
X141655000Y-74390285D02*
X141750238Y-74485523D01*
X141750238Y-74485523D02*
X141940714Y-74533142D01*
X141940714Y-74533142D02*
X142274047Y-74533142D01*
X142274047Y-74533142D02*
X142464523Y-74485523D01*
X142464523Y-74485523D02*
X142559761Y-74390285D01*
X142559761Y-74390285D02*
X142607380Y-74295047D01*
X142607380Y-74295047D02*
X142607380Y-74104571D01*
X141940714Y-75390285D02*
X142607380Y-75390285D01*
X141559761Y-75152190D02*
X142274047Y-74914095D01*
X142274047Y-74914095D02*
X142274047Y-75533142D01*
X133717380Y-73683905D02*
X132717380Y-73683905D01*
X132717380Y-73683905D02*
X132717380Y-73922000D01*
X132717380Y-73922000D02*
X132765000Y-74064857D01*
X132765000Y-74064857D02*
X132860238Y-74160095D01*
X132860238Y-74160095D02*
X132955476Y-74207714D01*
X132955476Y-74207714D02*
X133145952Y-74255333D01*
X133145952Y-74255333D02*
X133288809Y-74255333D01*
X133288809Y-74255333D02*
X133479285Y-74207714D01*
X133479285Y-74207714D02*
X133574523Y-74160095D01*
X133574523Y-74160095D02*
X133669761Y-74064857D01*
X133669761Y-74064857D02*
X133717380Y-73922000D01*
X133717380Y-73922000D02*
X133717380Y-73683905D01*
X132717380Y-74588667D02*
X132717380Y-75255333D01*
X132717380Y-75255333D02*
X133717380Y-74826762D01*
X98909047Y-120122380D02*
X99242380Y-119646190D01*
X99480475Y-120122380D02*
X99480475Y-119122380D01*
X99480475Y-119122380D02*
X99099523Y-119122380D01*
X99099523Y-119122380D02*
X99004285Y-119170000D01*
X99004285Y-119170000D02*
X98956666Y-119217619D01*
X98956666Y-119217619D02*
X98909047Y-119312857D01*
X98909047Y-119312857D02*
X98909047Y-119455714D01*
X98909047Y-119455714D02*
X98956666Y-119550952D01*
X98956666Y-119550952D02*
X99004285Y-119598571D01*
X99004285Y-119598571D02*
X99099523Y-119646190D01*
X99099523Y-119646190D02*
X99480475Y-119646190D01*
X98528094Y-119217619D02*
X98480475Y-119170000D01*
X98480475Y-119170000D02*
X98385237Y-119122380D01*
X98385237Y-119122380D02*
X98147142Y-119122380D01*
X98147142Y-119122380D02*
X98051904Y-119170000D01*
X98051904Y-119170000D02*
X98004285Y-119217619D01*
X98004285Y-119217619D02*
X97956666Y-119312857D01*
X97956666Y-119312857D02*
X97956666Y-119408095D01*
X97956666Y-119408095D02*
X98004285Y-119550952D01*
X98004285Y-119550952D02*
X98575713Y-120122380D01*
X98575713Y-120122380D02*
X97956666Y-120122380D01*
X97337618Y-119122380D02*
X97242380Y-119122380D01*
X97242380Y-119122380D02*
X97147142Y-119170000D01*
X97147142Y-119170000D02*
X97099523Y-119217619D01*
X97099523Y-119217619D02*
X97051904Y-119312857D01*
X97051904Y-119312857D02*
X97004285Y-119503333D01*
X97004285Y-119503333D02*
X97004285Y-119741428D01*
X97004285Y-119741428D02*
X97051904Y-119931904D01*
X97051904Y-119931904D02*
X97099523Y-120027142D01*
X97099523Y-120027142D02*
X97147142Y-120074761D01*
X97147142Y-120074761D02*
X97242380Y-120122380D01*
X97242380Y-120122380D02*
X97337618Y-120122380D01*
X97337618Y-120122380D02*
X97432856Y-120074761D01*
X97432856Y-120074761D02*
X97480475Y-120027142D01*
X97480475Y-120027142D02*
X97528094Y-119931904D01*
X97528094Y-119931904D02*
X97575713Y-119741428D01*
X97575713Y-119741428D02*
X97575713Y-119503333D01*
X97575713Y-119503333D02*
X97528094Y-119312857D01*
X97528094Y-119312857D02*
X97480475Y-119217619D01*
X97480475Y-119217619D02*
X97432856Y-119170000D01*
X97432856Y-119170000D02*
X97337618Y-119122380D01*
X96147142Y-119455714D02*
X96147142Y-120122380D01*
X96385237Y-119074761D02*
X96623332Y-119789047D01*
X96623332Y-119789047D02*
X96004285Y-119789047D01*
X122418619Y-57562761D02*
X122371000Y-57467523D01*
X122371000Y-57467523D02*
X122275761Y-57372285D01*
X122275761Y-57372285D02*
X122132904Y-57229428D01*
X122132904Y-57229428D02*
X122085285Y-57134190D01*
X122085285Y-57134190D02*
X122085285Y-57038952D01*
X122323380Y-57086571D02*
X122275761Y-56991333D01*
X122275761Y-56991333D02*
X122180523Y-56896095D01*
X122180523Y-56896095D02*
X121990047Y-56848476D01*
X121990047Y-56848476D02*
X121656714Y-56848476D01*
X121656714Y-56848476D02*
X121466238Y-56896095D01*
X121466238Y-56896095D02*
X121371000Y-56991333D01*
X121371000Y-56991333D02*
X121323380Y-57086571D01*
X121323380Y-57086571D02*
X121323380Y-57277047D01*
X121323380Y-57277047D02*
X121371000Y-57372285D01*
X121371000Y-57372285D02*
X121466238Y-57467523D01*
X121466238Y-57467523D02*
X121656714Y-57515142D01*
X121656714Y-57515142D02*
X121990047Y-57515142D01*
X121990047Y-57515142D02*
X122180523Y-57467523D01*
X122180523Y-57467523D02*
X122275761Y-57372285D01*
X122275761Y-57372285D02*
X122323380Y-57277047D01*
X122323380Y-57277047D02*
X122323380Y-57086571D01*
X122323380Y-58467523D02*
X122323380Y-57896095D01*
X122323380Y-58181809D02*
X121323380Y-58181809D01*
X121323380Y-58181809D02*
X121466238Y-58086571D01*
X121466238Y-58086571D02*
X121561476Y-57991333D01*
X121561476Y-57991333D02*
X121609095Y-57896095D01*
X98909047Y-110089380D02*
X99242380Y-109613190D01*
X99480475Y-110089380D02*
X99480475Y-109089380D01*
X99480475Y-109089380D02*
X99099523Y-109089380D01*
X99099523Y-109089380D02*
X99004285Y-109137000D01*
X99004285Y-109137000D02*
X98956666Y-109184619D01*
X98956666Y-109184619D02*
X98909047Y-109279857D01*
X98909047Y-109279857D02*
X98909047Y-109422714D01*
X98909047Y-109422714D02*
X98956666Y-109517952D01*
X98956666Y-109517952D02*
X99004285Y-109565571D01*
X99004285Y-109565571D02*
X99099523Y-109613190D01*
X99099523Y-109613190D02*
X99480475Y-109613190D01*
X98528094Y-109184619D02*
X98480475Y-109137000D01*
X98480475Y-109137000D02*
X98385237Y-109089380D01*
X98385237Y-109089380D02*
X98147142Y-109089380D01*
X98147142Y-109089380D02*
X98051904Y-109137000D01*
X98051904Y-109137000D02*
X98004285Y-109184619D01*
X98004285Y-109184619D02*
X97956666Y-109279857D01*
X97956666Y-109279857D02*
X97956666Y-109375095D01*
X97956666Y-109375095D02*
X98004285Y-109517952D01*
X98004285Y-109517952D02*
X98575713Y-110089380D01*
X98575713Y-110089380D02*
X97956666Y-110089380D01*
X97337618Y-109089380D02*
X97242380Y-109089380D01*
X97242380Y-109089380D02*
X97147142Y-109137000D01*
X97147142Y-109137000D02*
X97099523Y-109184619D01*
X97099523Y-109184619D02*
X97051904Y-109279857D01*
X97051904Y-109279857D02*
X97004285Y-109470333D01*
X97004285Y-109470333D02*
X97004285Y-109708428D01*
X97004285Y-109708428D02*
X97051904Y-109898904D01*
X97051904Y-109898904D02*
X97099523Y-109994142D01*
X97099523Y-109994142D02*
X97147142Y-110041761D01*
X97147142Y-110041761D02*
X97242380Y-110089380D01*
X97242380Y-110089380D02*
X97337618Y-110089380D01*
X97337618Y-110089380D02*
X97432856Y-110041761D01*
X97432856Y-110041761D02*
X97480475Y-109994142D01*
X97480475Y-109994142D02*
X97528094Y-109898904D01*
X97528094Y-109898904D02*
X97575713Y-109708428D01*
X97575713Y-109708428D02*
X97575713Y-109470333D01*
X97575713Y-109470333D02*
X97528094Y-109279857D01*
X97528094Y-109279857D02*
X97480475Y-109184619D01*
X97480475Y-109184619D02*
X97432856Y-109137000D01*
X97432856Y-109137000D02*
X97337618Y-109089380D01*
X96385237Y-109089380D02*
X96289999Y-109089380D01*
X96289999Y-109089380D02*
X96194761Y-109137000D01*
X96194761Y-109137000D02*
X96147142Y-109184619D01*
X96147142Y-109184619D02*
X96099523Y-109279857D01*
X96099523Y-109279857D02*
X96051904Y-109470333D01*
X96051904Y-109470333D02*
X96051904Y-109708428D01*
X96051904Y-109708428D02*
X96099523Y-109898904D01*
X96099523Y-109898904D02*
X96147142Y-109994142D01*
X96147142Y-109994142D02*
X96194761Y-110041761D01*
X96194761Y-110041761D02*
X96289999Y-110089380D01*
X96289999Y-110089380D02*
X96385237Y-110089380D01*
X96385237Y-110089380D02*
X96480475Y-110041761D01*
X96480475Y-110041761D02*
X96528094Y-109994142D01*
X96528094Y-109994142D02*
X96575713Y-109898904D01*
X96575713Y-109898904D02*
X96623332Y-109708428D01*
X96623332Y-109708428D02*
X96623332Y-109470333D01*
X96623332Y-109470333D02*
X96575713Y-109279857D01*
X96575713Y-109279857D02*
X96528094Y-109184619D01*
X96528094Y-109184619D02*
X96480475Y-109137000D01*
X96480475Y-109137000D02*
X96385237Y-109089380D01*
X131370380Y-56919905D02*
X130370380Y-56919905D01*
X130370380Y-56919905D02*
X130370380Y-57158000D01*
X130370380Y-57158000D02*
X130418000Y-57300857D01*
X130418000Y-57300857D02*
X130513238Y-57396095D01*
X130513238Y-57396095D02*
X130608476Y-57443714D01*
X130608476Y-57443714D02*
X130798952Y-57491333D01*
X130798952Y-57491333D02*
X130941809Y-57491333D01*
X130941809Y-57491333D02*
X131132285Y-57443714D01*
X131132285Y-57443714D02*
X131227523Y-57396095D01*
X131227523Y-57396095D02*
X131322761Y-57300857D01*
X131322761Y-57300857D02*
X131370380Y-57158000D01*
X131370380Y-57158000D02*
X131370380Y-56919905D01*
X131370380Y-58443714D02*
X131370380Y-57872286D01*
X131370380Y-58158000D02*
X130370380Y-58158000D01*
X130370380Y-58158000D02*
X130513238Y-58062762D01*
X130513238Y-58062762D02*
X130608476Y-57967524D01*
X130608476Y-57967524D02*
X130656095Y-57872286D01*
X122340666Y-60946380D02*
X122673999Y-60470190D01*
X122912094Y-60946380D02*
X122912094Y-59946380D01*
X122912094Y-59946380D02*
X122531142Y-59946380D01*
X122531142Y-59946380D02*
X122435904Y-59994000D01*
X122435904Y-59994000D02*
X122388285Y-60041619D01*
X122388285Y-60041619D02*
X122340666Y-60136857D01*
X122340666Y-60136857D02*
X122340666Y-60279714D01*
X122340666Y-60279714D02*
X122388285Y-60374952D01*
X122388285Y-60374952D02*
X122435904Y-60422571D01*
X122435904Y-60422571D02*
X122531142Y-60470190D01*
X122531142Y-60470190D02*
X122912094Y-60470190D01*
X121483523Y-60279714D02*
X121483523Y-60946380D01*
X121721618Y-59898761D02*
X121959713Y-60613047D01*
X121959713Y-60613047D02*
X121340666Y-60613047D01*
X122927619Y-74470261D02*
X122880000Y-74375023D01*
X122880000Y-74375023D02*
X122784761Y-74279785D01*
X122784761Y-74279785D02*
X122641904Y-74136928D01*
X122641904Y-74136928D02*
X122594285Y-74041690D01*
X122594285Y-74041690D02*
X122594285Y-73946452D01*
X122832380Y-73994071D02*
X122784761Y-73898833D01*
X122784761Y-73898833D02*
X122689523Y-73803595D01*
X122689523Y-73803595D02*
X122499047Y-73755976D01*
X122499047Y-73755976D02*
X122165714Y-73755976D01*
X122165714Y-73755976D02*
X121975238Y-73803595D01*
X121975238Y-73803595D02*
X121880000Y-73898833D01*
X121880000Y-73898833D02*
X121832380Y-73994071D01*
X121832380Y-73994071D02*
X121832380Y-74184547D01*
X121832380Y-74184547D02*
X121880000Y-74279785D01*
X121880000Y-74279785D02*
X121975238Y-74375023D01*
X121975238Y-74375023D02*
X122165714Y-74422642D01*
X122165714Y-74422642D02*
X122499047Y-74422642D01*
X122499047Y-74422642D02*
X122689523Y-74375023D01*
X122689523Y-74375023D02*
X122784761Y-74279785D01*
X122784761Y-74279785D02*
X122832380Y-74184547D01*
X122832380Y-74184547D02*
X122832380Y-73994071D01*
X121927619Y-74803595D02*
X121880000Y-74851214D01*
X121880000Y-74851214D02*
X121832380Y-74946452D01*
X121832380Y-74946452D02*
X121832380Y-75184547D01*
X121832380Y-75184547D02*
X121880000Y-75279785D01*
X121880000Y-75279785D02*
X121927619Y-75327404D01*
X121927619Y-75327404D02*
X122022857Y-75375023D01*
X122022857Y-75375023D02*
X122118095Y-75375023D01*
X122118095Y-75375023D02*
X122260952Y-75327404D01*
X122260952Y-75327404D02*
X122832380Y-74755976D01*
X122832380Y-74755976D02*
X122832380Y-75375023D01*
X98909047Y-125075380D02*
X99242380Y-124599190D01*
X99480475Y-125075380D02*
X99480475Y-124075380D01*
X99480475Y-124075380D02*
X99099523Y-124075380D01*
X99099523Y-124075380D02*
X99004285Y-124123000D01*
X99004285Y-124123000D02*
X98956666Y-124170619D01*
X98956666Y-124170619D02*
X98909047Y-124265857D01*
X98909047Y-124265857D02*
X98909047Y-124408714D01*
X98909047Y-124408714D02*
X98956666Y-124503952D01*
X98956666Y-124503952D02*
X99004285Y-124551571D01*
X99004285Y-124551571D02*
X99099523Y-124599190D01*
X99099523Y-124599190D02*
X99480475Y-124599190D01*
X98528094Y-124170619D02*
X98480475Y-124123000D01*
X98480475Y-124123000D02*
X98385237Y-124075380D01*
X98385237Y-124075380D02*
X98147142Y-124075380D01*
X98147142Y-124075380D02*
X98051904Y-124123000D01*
X98051904Y-124123000D02*
X98004285Y-124170619D01*
X98004285Y-124170619D02*
X97956666Y-124265857D01*
X97956666Y-124265857D02*
X97956666Y-124361095D01*
X97956666Y-124361095D02*
X98004285Y-124503952D01*
X98004285Y-124503952D02*
X98575713Y-125075380D01*
X98575713Y-125075380D02*
X97956666Y-125075380D01*
X97337618Y-124075380D02*
X97242380Y-124075380D01*
X97242380Y-124075380D02*
X97147142Y-124123000D01*
X97147142Y-124123000D02*
X97099523Y-124170619D01*
X97099523Y-124170619D02*
X97051904Y-124265857D01*
X97051904Y-124265857D02*
X97004285Y-124456333D01*
X97004285Y-124456333D02*
X97004285Y-124694428D01*
X97004285Y-124694428D02*
X97051904Y-124884904D01*
X97051904Y-124884904D02*
X97099523Y-124980142D01*
X97099523Y-124980142D02*
X97147142Y-125027761D01*
X97147142Y-125027761D02*
X97242380Y-125075380D01*
X97242380Y-125075380D02*
X97337618Y-125075380D01*
X97337618Y-125075380D02*
X97432856Y-125027761D01*
X97432856Y-125027761D02*
X97480475Y-124980142D01*
X97480475Y-124980142D02*
X97528094Y-124884904D01*
X97528094Y-124884904D02*
X97575713Y-124694428D01*
X97575713Y-124694428D02*
X97575713Y-124456333D01*
X97575713Y-124456333D02*
X97528094Y-124265857D01*
X97528094Y-124265857D02*
X97480475Y-124170619D01*
X97480475Y-124170619D02*
X97432856Y-124123000D01*
X97432856Y-124123000D02*
X97337618Y-124075380D01*
X96147142Y-124075380D02*
X96337618Y-124075380D01*
X96337618Y-124075380D02*
X96432856Y-124123000D01*
X96432856Y-124123000D02*
X96480475Y-124170619D01*
X96480475Y-124170619D02*
X96575713Y-124313476D01*
X96575713Y-124313476D02*
X96623332Y-124503952D01*
X96623332Y-124503952D02*
X96623332Y-124884904D01*
X96623332Y-124884904D02*
X96575713Y-124980142D01*
X96575713Y-124980142D02*
X96528094Y-125027761D01*
X96528094Y-125027761D02*
X96432856Y-125075380D01*
X96432856Y-125075380D02*
X96242380Y-125075380D01*
X96242380Y-125075380D02*
X96147142Y-125027761D01*
X96147142Y-125027761D02*
X96099523Y-124980142D01*
X96099523Y-124980142D02*
X96051904Y-124884904D01*
X96051904Y-124884904D02*
X96051904Y-124646809D01*
X96051904Y-124646809D02*
X96099523Y-124551571D01*
X96099523Y-124551571D02*
X96147142Y-124503952D01*
X96147142Y-124503952D02*
X96242380Y-124456333D01*
X96242380Y-124456333D02*
X96432856Y-124456333D01*
X96432856Y-124456333D02*
X96528094Y-124503952D01*
X96528094Y-124503952D02*
X96575713Y-124551571D01*
X96575713Y-124551571D02*
X96623332Y-124646809D01*
X142152666Y-61327380D02*
X142485999Y-60851190D01*
X142724094Y-61327380D02*
X142724094Y-60327380D01*
X142724094Y-60327380D02*
X142343142Y-60327380D01*
X142343142Y-60327380D02*
X142247904Y-60375000D01*
X142247904Y-60375000D02*
X142200285Y-60422619D01*
X142200285Y-60422619D02*
X142152666Y-60517857D01*
X142152666Y-60517857D02*
X142152666Y-60660714D01*
X142152666Y-60660714D02*
X142200285Y-60755952D01*
X142200285Y-60755952D02*
X142247904Y-60803571D01*
X142247904Y-60803571D02*
X142343142Y-60851190D01*
X142343142Y-60851190D02*
X142724094Y-60851190D01*
X141771713Y-60422619D02*
X141724094Y-60375000D01*
X141724094Y-60375000D02*
X141628856Y-60327380D01*
X141628856Y-60327380D02*
X141390761Y-60327380D01*
X141390761Y-60327380D02*
X141295523Y-60375000D01*
X141295523Y-60375000D02*
X141247904Y-60422619D01*
X141247904Y-60422619D02*
X141200285Y-60517857D01*
X141200285Y-60517857D02*
X141200285Y-60613095D01*
X141200285Y-60613095D02*
X141247904Y-60755952D01*
X141247904Y-60755952D02*
X141819332Y-61327380D01*
X141819332Y-61327380D02*
X141200285Y-61327380D01*
X124446380Y-79716333D02*
X123970190Y-79383000D01*
X124446380Y-79144905D02*
X123446380Y-79144905D01*
X123446380Y-79144905D02*
X123446380Y-79525857D01*
X123446380Y-79525857D02*
X123494000Y-79621095D01*
X123494000Y-79621095D02*
X123541619Y-79668714D01*
X123541619Y-79668714D02*
X123636857Y-79716333D01*
X123636857Y-79716333D02*
X123779714Y-79716333D01*
X123779714Y-79716333D02*
X123874952Y-79668714D01*
X123874952Y-79668714D02*
X123922571Y-79621095D01*
X123922571Y-79621095D02*
X123970190Y-79525857D01*
X123970190Y-79525857D02*
X123970190Y-79144905D01*
X123446380Y-80573476D02*
X123446380Y-80383000D01*
X123446380Y-80383000D02*
X123494000Y-80287762D01*
X123494000Y-80287762D02*
X123541619Y-80240143D01*
X123541619Y-80240143D02*
X123684476Y-80144905D01*
X123684476Y-80144905D02*
X123874952Y-80097286D01*
X123874952Y-80097286D02*
X124255904Y-80097286D01*
X124255904Y-80097286D02*
X124351142Y-80144905D01*
X124351142Y-80144905D02*
X124398761Y-80192524D01*
X124398761Y-80192524D02*
X124446380Y-80287762D01*
X124446380Y-80287762D02*
X124446380Y-80478238D01*
X124446380Y-80478238D02*
X124398761Y-80573476D01*
X124398761Y-80573476D02*
X124351142Y-80621095D01*
X124351142Y-80621095D02*
X124255904Y-80668714D01*
X124255904Y-80668714D02*
X124017809Y-80668714D01*
X124017809Y-80668714D02*
X123922571Y-80621095D01*
X123922571Y-80621095D02*
X123874952Y-80573476D01*
X123874952Y-80573476D02*
X123827333Y-80478238D01*
X123827333Y-80478238D02*
X123827333Y-80287762D01*
X123827333Y-80287762D02*
X123874952Y-80192524D01*
X123874952Y-80192524D02*
X123922571Y-80144905D01*
X123922571Y-80144905D02*
X124017809Y-80097286D01*
X142575619Y-57689761D02*
X142528000Y-57594523D01*
X142528000Y-57594523D02*
X142432761Y-57499285D01*
X142432761Y-57499285D02*
X142289904Y-57356428D01*
X142289904Y-57356428D02*
X142242285Y-57261190D01*
X142242285Y-57261190D02*
X142242285Y-57165952D01*
X142480380Y-57213571D02*
X142432761Y-57118333D01*
X142432761Y-57118333D02*
X142337523Y-57023095D01*
X142337523Y-57023095D02*
X142147047Y-56975476D01*
X142147047Y-56975476D02*
X141813714Y-56975476D01*
X141813714Y-56975476D02*
X141623238Y-57023095D01*
X141623238Y-57023095D02*
X141528000Y-57118333D01*
X141528000Y-57118333D02*
X141480380Y-57213571D01*
X141480380Y-57213571D02*
X141480380Y-57404047D01*
X141480380Y-57404047D02*
X141528000Y-57499285D01*
X141528000Y-57499285D02*
X141623238Y-57594523D01*
X141623238Y-57594523D02*
X141813714Y-57642142D01*
X141813714Y-57642142D02*
X142147047Y-57642142D01*
X142147047Y-57642142D02*
X142337523Y-57594523D01*
X142337523Y-57594523D02*
X142432761Y-57499285D01*
X142432761Y-57499285D02*
X142480380Y-57404047D01*
X142480380Y-57404047D02*
X142480380Y-57213571D01*
X141480380Y-57975476D02*
X141480380Y-58594523D01*
X141480380Y-58594523D02*
X141861333Y-58261190D01*
X141861333Y-58261190D02*
X141861333Y-58404047D01*
X141861333Y-58404047D02*
X141908952Y-58499285D01*
X141908952Y-58499285D02*
X141956571Y-58546904D01*
X141956571Y-58546904D02*
X142051809Y-58594523D01*
X142051809Y-58594523D02*
X142289904Y-58594523D01*
X142289904Y-58594523D02*
X142385142Y-58546904D01*
X142385142Y-58546904D02*
X142432761Y-58499285D01*
X142432761Y-58499285D02*
X142480380Y-58404047D01*
X142480380Y-58404047D02*
X142480380Y-58118333D01*
X142480380Y-58118333D02*
X142432761Y-58023095D01*
X142432761Y-58023095D02*
X142385142Y-57975476D01*
X142861380Y-91178142D02*
X142385190Y-90844809D01*
X142861380Y-90606714D02*
X141861380Y-90606714D01*
X141861380Y-90606714D02*
X141861380Y-90987666D01*
X141861380Y-90987666D02*
X141909000Y-91082904D01*
X141909000Y-91082904D02*
X141956619Y-91130523D01*
X141956619Y-91130523D02*
X142051857Y-91178142D01*
X142051857Y-91178142D02*
X142194714Y-91178142D01*
X142194714Y-91178142D02*
X142289952Y-91130523D01*
X142289952Y-91130523D02*
X142337571Y-91082904D01*
X142337571Y-91082904D02*
X142385190Y-90987666D01*
X142385190Y-90987666D02*
X142385190Y-90606714D01*
X142861380Y-92130523D02*
X142861380Y-91559095D01*
X142861380Y-91844809D02*
X141861380Y-91844809D01*
X141861380Y-91844809D02*
X142004238Y-91749571D01*
X142004238Y-91749571D02*
X142099476Y-91654333D01*
X142099476Y-91654333D02*
X142147095Y-91559095D01*
X141956619Y-92511476D02*
X141909000Y-92559095D01*
X141909000Y-92559095D02*
X141861380Y-92654333D01*
X141861380Y-92654333D02*
X141861380Y-92892428D01*
X141861380Y-92892428D02*
X141909000Y-92987666D01*
X141909000Y-92987666D02*
X141956619Y-93035285D01*
X141956619Y-93035285D02*
X142051857Y-93082904D01*
X142051857Y-93082904D02*
X142147095Y-93082904D01*
X142147095Y-93082904D02*
X142289952Y-93035285D01*
X142289952Y-93035285D02*
X142861380Y-92463857D01*
X142861380Y-92463857D02*
X142861380Y-93082904D01*
X133651380Y-57095405D02*
X132651380Y-57095405D01*
X132651380Y-57095405D02*
X132651380Y-57333500D01*
X132651380Y-57333500D02*
X132699000Y-57476357D01*
X132699000Y-57476357D02*
X132794238Y-57571595D01*
X132794238Y-57571595D02*
X132889476Y-57619214D01*
X132889476Y-57619214D02*
X133079952Y-57666833D01*
X133079952Y-57666833D02*
X133222809Y-57666833D01*
X133222809Y-57666833D02*
X133413285Y-57619214D01*
X133413285Y-57619214D02*
X133508523Y-57571595D01*
X133508523Y-57571595D02*
X133603761Y-57476357D01*
X133603761Y-57476357D02*
X133651380Y-57333500D01*
X133651380Y-57333500D02*
X133651380Y-57095405D01*
X132651380Y-58000167D02*
X132651380Y-58619214D01*
X132651380Y-58619214D02*
X133032333Y-58285881D01*
X133032333Y-58285881D02*
X133032333Y-58428738D01*
X133032333Y-58428738D02*
X133079952Y-58523976D01*
X133079952Y-58523976D02*
X133127571Y-58571595D01*
X133127571Y-58571595D02*
X133222809Y-58619214D01*
X133222809Y-58619214D02*
X133460904Y-58619214D01*
X133460904Y-58619214D02*
X133556142Y-58571595D01*
X133556142Y-58571595D02*
X133603761Y-58523976D01*
X133603761Y-58523976D02*
X133651380Y-58428738D01*
X133651380Y-58428738D02*
X133651380Y-58143024D01*
X133651380Y-58143024D02*
X133603761Y-58047786D01*
X133603761Y-58047786D02*
X133556142Y-58000167D01*
X143390857Y-77456380D02*
X143724190Y-76980190D01*
X143962285Y-77456380D02*
X143962285Y-76456380D01*
X143962285Y-76456380D02*
X143581333Y-76456380D01*
X143581333Y-76456380D02*
X143486095Y-76504000D01*
X143486095Y-76504000D02*
X143438476Y-76551619D01*
X143438476Y-76551619D02*
X143390857Y-76646857D01*
X143390857Y-76646857D02*
X143390857Y-76789714D01*
X143390857Y-76789714D02*
X143438476Y-76884952D01*
X143438476Y-76884952D02*
X143486095Y-76932571D01*
X143486095Y-76932571D02*
X143581333Y-76980190D01*
X143581333Y-76980190D02*
X143962285Y-76980190D01*
X143009904Y-76551619D02*
X142962285Y-76504000D01*
X142962285Y-76504000D02*
X142867047Y-76456380D01*
X142867047Y-76456380D02*
X142628952Y-76456380D01*
X142628952Y-76456380D02*
X142533714Y-76504000D01*
X142533714Y-76504000D02*
X142486095Y-76551619D01*
X142486095Y-76551619D02*
X142438476Y-76646857D01*
X142438476Y-76646857D02*
X142438476Y-76742095D01*
X142438476Y-76742095D02*
X142486095Y-76884952D01*
X142486095Y-76884952D02*
X143057523Y-77456380D01*
X143057523Y-77456380D02*
X142438476Y-77456380D01*
X141486095Y-77456380D02*
X142057523Y-77456380D01*
X141771809Y-77456380D02*
X141771809Y-76456380D01*
X141771809Y-76456380D02*
X141867047Y-76599238D01*
X141867047Y-76599238D02*
X141962285Y-76694476D01*
X141962285Y-76694476D02*
X142057523Y-76742095D01*
D11*
X129957000Y-74500500D02*
X129957000Y-73850500D01*
X129957000Y-74500500D02*
X129957000Y-75150500D01*
X126837000Y-74500500D02*
X126837000Y-72825500D01*
X126837000Y-74500500D02*
X126837000Y-75150500D01*
X141238500Y-79518742D02*
X141238500Y-79993258D01*
X140193500Y-79518742D02*
X140193500Y-79993258D01*
X96262936Y-111162000D02*
X99317064Y-111162000D01*
X96262936Y-113882000D02*
X99317064Y-113882000D01*
X124951258Y-77865500D02*
X124476742Y-77865500D01*
X124951258Y-76820500D02*
X124476742Y-76820500D01*
X140603500Y-62881742D02*
X140603500Y-63356258D01*
X139558500Y-62881742D02*
X139558500Y-63356258D01*
X125998500Y-62754742D02*
X125998500Y-63229258D01*
X124953500Y-62754742D02*
X124953500Y-63229258D01*
X137947000Y-74373500D02*
X137947000Y-75023500D01*
X137947000Y-74373500D02*
X137947000Y-73723500D01*
X141067000Y-74373500D02*
X141067000Y-76048500D01*
X141067000Y-74373500D02*
X141067000Y-73723500D01*
X134457000Y-74422000D02*
X134457000Y-75072000D01*
X134457000Y-74422000D02*
X134457000Y-73772000D01*
X137577000Y-74422000D02*
X137577000Y-76097000D01*
X137577000Y-74422000D02*
X137577000Y-73772000D01*
X96262936Y-116115000D02*
X99317064Y-116115000D01*
X96262936Y-118835000D02*
X99317064Y-118835000D01*
X123154000Y-57785000D02*
X123154000Y-58435000D01*
X123154000Y-57785000D02*
X123154000Y-57135000D01*
X126274000Y-57785000D02*
X126274000Y-59460000D01*
X126274000Y-57785000D02*
X126274000Y-57135000D01*
X96262936Y-106082000D02*
X99317064Y-106082000D01*
X96262936Y-108802000D02*
X99317064Y-108802000D01*
X129769000Y-57785000D02*
X129769000Y-57135000D01*
X129769000Y-57785000D02*
X129769000Y-58435000D01*
X126649000Y-57785000D02*
X126649000Y-56110000D01*
X126649000Y-57785000D02*
X126649000Y-58435000D01*
X124951258Y-61101500D02*
X124476742Y-61101500D01*
X124951258Y-60056500D02*
X124476742Y-60056500D01*
X123347000Y-74500500D02*
X123347000Y-75150500D01*
X123347000Y-74500500D02*
X123347000Y-73850500D01*
X126467000Y-74500500D02*
X126467000Y-76175500D01*
X126467000Y-74500500D02*
X126467000Y-73850500D01*
X96262936Y-121068000D02*
X99317064Y-121068000D01*
X96262936Y-123788000D02*
X99317064Y-123788000D01*
X139556258Y-61228500D02*
X139081742Y-61228500D01*
X139556258Y-60183500D02*
X139081742Y-60183500D01*
X126125500Y-79645742D02*
X126125500Y-80120258D01*
X125080500Y-79645742D02*
X125080500Y-80120258D01*
X137886000Y-57912000D02*
X137886000Y-58562000D01*
X137886000Y-57912000D02*
X137886000Y-57262000D01*
X141006000Y-57912000D02*
X141006000Y-59587000D01*
X141006000Y-57912000D02*
X141006000Y-57262000D01*
X143368500Y-91931258D02*
X143368500Y-91456742D01*
X144413500Y-91931258D02*
X144413500Y-91456742D01*
X134330000Y-57912000D02*
X134330000Y-58562000D01*
X134330000Y-57912000D02*
X134330000Y-57262000D01*
X137450000Y-57912000D02*
X137450000Y-59587000D01*
X137450000Y-57912000D02*
X137450000Y-57262000D01*
X140064258Y-77865500D02*
X139589742Y-77865500D01*
X140064258Y-76820500D02*
X139589742Y-76820500D01*
%LPC*%
D12*
X172007999Y-132963999D03*
X172007999Y-129153999D03*
D13*
X92709999Y-62263999D03*
D14*
X92710000Y-67264000D03*
D15*
X107822999Y-61726999D03*
X107822999Y-54226999D03*
X112862999Y-61726999D03*
X112862999Y-54226999D03*
X102782999Y-61726999D03*
X102782999Y-54226999D03*
D16*
X128122999Y-54226999D03*
D17*
X128122999Y-61726999D03*
D13*
X171576999Y-57784999D03*
D14*
X171577000Y-52785000D03*
D13*
X92709999Y-107475999D03*
D14*
X92710000Y-112476000D03*
D15*
X156358999Y-54161999D03*
X156358999Y-61661999D03*
X151318999Y-54161999D03*
X151318999Y-61661999D03*
X161398999Y-54161999D03*
X161398999Y-61661999D03*
D16*
X136058999Y-61661999D03*
D17*
X136058999Y-54161999D03*
D18*
X140715999Y-113875499D03*
D19*
X140716000Y-116415500D03*
D15*
X156358999Y-70798999D03*
X156358999Y-78298999D03*
X151318999Y-70798999D03*
X151318999Y-78298999D03*
X161398999Y-70798999D03*
X161398999Y-78298999D03*
D16*
X136058999Y-78298999D03*
D17*
X136058999Y-70798999D03*
D13*
X92709999Y-117474999D03*
D14*
X92710000Y-122475000D03*
D12*
X172007999Y-125343999D03*
X172007999Y-121533999D03*
X172007999Y-108330999D03*
X172007999Y-104520999D03*
X172007999Y-115945999D03*
X172007999Y-112135999D03*
D13*
X92709999Y-88552999D03*
D14*
X92710000Y-93553000D03*
D13*
X171576999Y-67783999D03*
D14*
X171577000Y-62784000D03*
D13*
X92709999Y-72296999D03*
D14*
X92710000Y-77297000D03*
D12*
X91510649Y-141604999D03*
X91510649Y-145414999D03*
X91523349Y-149224999D03*
D20*
X125983999Y-147573999D03*
D21*
X125983999Y-145033999D03*
X125983999Y-142493999D03*
X125983999Y-139953999D03*
X125983999Y-137413999D03*
X125983999Y-134873999D03*
D22*
X105429499Y-93495999D03*
D23*
X105429500Y-104246000D03*
X143929500Y-104246000D03*
X143929500Y-96246000D03*
D13*
X171576999Y-77816999D03*
D14*
X171577000Y-72817000D03*
D15*
X108014999Y-78298999D03*
X108014999Y-70798999D03*
X113054999Y-78298999D03*
X113054999Y-70798999D03*
X102974999Y-78298999D03*
X102974999Y-70798999D03*
D16*
X128314999Y-70798999D03*
D17*
X128314999Y-78298999D03*
D18*
X132841999Y-113875499D03*
D19*
X132842000Y-116415500D03*
D13*
X92709999Y-52230999D03*
D14*
X92710000Y-57231000D03*
D24*
X127447000Y-73563000D03*
X129347000Y-73563000D03*
X128397000Y-75438000D03*
D25*
X140716000Y-78931000D03*
X140716000Y-80581000D03*
D26*
X95390000Y-112522000D03*
X100190000Y-112522000D03*
D27*
X125539000Y-77343000D03*
X123889000Y-77343000D03*
D25*
X140081000Y-62294000D03*
X140081000Y-63944000D03*
X125476000Y-62167000D03*
X125476000Y-63817000D03*
D28*
X140457000Y-75311000D03*
X138557000Y-75311000D03*
X139507000Y-73436000D03*
X136967000Y-75359500D03*
X135067000Y-75359500D03*
X136017000Y-73484500D03*
D26*
X95390000Y-117475000D03*
X100190000Y-117475000D03*
D28*
X125664000Y-58722500D03*
X123764000Y-58722500D03*
X124714000Y-56847500D03*
D26*
X95390000Y-107442000D03*
X100190000Y-107442000D03*
D24*
X127259000Y-56847500D03*
X129159000Y-56847500D03*
X128209000Y-58722500D03*
D27*
X125539000Y-60579000D03*
X123889000Y-60579000D03*
D28*
X125857000Y-75438000D03*
X123957000Y-75438000D03*
X124907000Y-73563000D03*
D26*
X95390000Y-122428000D03*
X100190000Y-122428000D03*
D27*
X140144000Y-60706000D03*
X138494000Y-60706000D03*
D25*
X125603000Y-79058000D03*
X125603000Y-80708000D03*
D28*
X140396000Y-58849500D03*
X138496000Y-58849500D03*
X139446000Y-56974500D03*
D29*
X143891000Y-92519000D03*
X143891000Y-90869000D03*
D28*
X136840000Y-58849500D03*
X134940000Y-58849500D03*
X135890000Y-56974500D03*
D27*
X140652000Y-77343000D03*
X139002000Y-77343000D03*
D30*
X164505000Y-99314000D02*
G75*
G03*
X164505000Y-101854000I0J-1270000D01*
G01*
D31*
X109900000Y-152400000D02*
X109907300Y-152353700D01*
X154299943Y-152400003D02*
G75*
G03*
X153315200Y-151597600I-859943J-49897D01*
G01*
X153200000Y-49567999D02*
G75*
G03*
X154195099Y-48811901I119500J875599D01*
G01*
D30*
X88900000Y-102997000D02*
G75*
G03*
X90043000Y-101854000I0J1143000D01*
G01*
X174157000Y-99314000D02*
X164505000Y-99314000D01*
D31*
X88900000Y-48768000D02*
X88900000Y-98171000D01*
D30*
X90043000Y-99314000D02*
G75*
G03*
X88900000Y-98171000I-1143000J0D01*
G01*
D31*
X88900000Y-152400000D02*
X109900000Y-152400000D01*
X110000000Y-48768000D02*
X88900000Y-48768000D01*
D30*
X90043000Y-101854000D02*
X99695000Y-101854000D01*
D31*
X153200000Y-151600000D02*
X153315200Y-151597600D01*
X154300000Y-152400000D02*
X175300000Y-152400000D01*
X110000000Y-48768000D02*
G75*
G03*
X110856099Y-49572900I830500J25600D01*
G01*
X111000000Y-151600000D02*
X153200000Y-151600000D01*
D30*
X174157000Y-101854000D02*
G75*
G03*
X175300000Y-102997000I1143000J0D01*
G01*
D31*
X153200000Y-49568000D02*
X111000000Y-49568000D01*
D30*
X90043000Y-99314000D02*
X99695000Y-99314000D01*
X174157000Y-101854000D02*
X164505000Y-101854000D01*
D31*
X88900000Y-102997000D02*
X88900000Y-152400000D01*
D30*
X99695000Y-101854000D02*
G75*
G03*
X99695000Y-99314000I0J1270000D01*
G01*
D31*
X111000000Y-151600000D02*
G75*
G03*
X109907301Y-152353698I-169500J-923200D01*
G01*
X175300000Y-48768000D02*
X154200000Y-48768000D01*
X175300000Y-102997000D02*
X175300000Y-152400000D01*
X154200000Y-48768000D02*
X154195100Y-48811900D01*
X111000000Y-49568000D02*
X110856100Y-49572900D01*
X175300000Y-48768000D02*
X175300000Y-98171000D01*
D30*
X175300000Y-98171000D02*
G75*
G03*
X174157000Y-99314000I0J-1143000D01*
G01*
M02*
