G04 #@! TF.GenerationSoftware,KiCad,Pcbnew,(7.0.0)*
G04 #@! TF.CreationDate,2023-07-30T12:49:27+02:00*
G04 #@! TF.ProjectId,RealyModul_1Wire_ADC,5265616c-794d-46f6-9475-6c5f31576972,rev?*
G04 #@! TF.SameCoordinates,Original*
G04 #@! TF.FileFunction,Profile,NP*
%FSLAX46Y46*%
G04 Gerber Fmt 4.6, Leading zero omitted, Abs format (unit mm)*
G04 Created by KiCad (PCBNEW (7.0.0)) date 2023-07-30 12:49:27*
%MOMM*%
%LPD*%
G01*
G04 APERTURE LIST*
G04 #@! TA.AperFunction,Profile*
%ADD10C,0.150000*%
G04 #@! TD*
G04 #@! TA.AperFunction,Profile*
%ADD11C,0.152400*%
G04 #@! TD*
G04 APERTURE END LIST*
D10*
X164505000Y-99314000D02*
G75*
G03*
X164505000Y-101854000I0J-1270000D01*
G01*
D11*
X109900000Y-152400000D02*
X109907300Y-152353700D01*
X154299943Y-152400003D02*
G75*
G03*
X153315200Y-151597600I-859943J-49897D01*
G01*
X153200000Y-49567999D02*
G75*
G03*
X154195099Y-48811901I119500J875599D01*
G01*
D10*
X88900000Y-102997000D02*
G75*
G03*
X90043000Y-101854000I0J1143000D01*
G01*
X174157000Y-99314000D02*
X164505000Y-99314000D01*
D11*
X88900000Y-48768000D02*
X88900000Y-98171000D01*
D10*
X90043000Y-99314000D02*
G75*
G03*
X88900000Y-98171000I-1143000J0D01*
G01*
D11*
X88900000Y-152400000D02*
X109900000Y-152400000D01*
X110000000Y-48768000D02*
X88900000Y-48768000D01*
D10*
X90043000Y-101854000D02*
X99695000Y-101854000D01*
D11*
X153200000Y-151600000D02*
X153315200Y-151597600D01*
X154300000Y-152400000D02*
X175300000Y-152400000D01*
X110000000Y-48768000D02*
G75*
G03*
X110856099Y-49572900I830500J25600D01*
G01*
X111000000Y-151600000D02*
X153200000Y-151600000D01*
D10*
X174157000Y-101854000D02*
G75*
G03*
X175300000Y-102997000I1143000J0D01*
G01*
D11*
X153200000Y-49568000D02*
X111000000Y-49568000D01*
D10*
X90043000Y-99314000D02*
X99695000Y-99314000D01*
X174157000Y-101854000D02*
X164505000Y-101854000D01*
D11*
X88900000Y-102997000D02*
X88900000Y-152400000D01*
D10*
X99695000Y-101854000D02*
G75*
G03*
X99695000Y-99314000I0J1270000D01*
G01*
D11*
X111000000Y-151600000D02*
G75*
G03*
X109907301Y-152353698I-169500J-923200D01*
G01*
X175300000Y-48768000D02*
X154200000Y-48768000D01*
X175300000Y-102997000D02*
X175300000Y-152400000D01*
X154200000Y-48768000D02*
X154195100Y-48811900D01*
X111000000Y-49568000D02*
X110856100Y-49572900D01*
X175300000Y-48768000D02*
X175300000Y-98171000D01*
D10*
X175300000Y-98171000D02*
G75*
G03*
X174157000Y-99314000I0J-1143000D01*
G01*
M02*
