G04 #@! TF.GenerationSoftware,KiCad,Pcbnew,(7.0.0)*
G04 #@! TF.CreationDate,2023-07-30T12:49:27+02:00*
G04 #@! TF.ProjectId,RealyModul_1Wire_ADC,5265616c-794d-46f6-9475-6c5f31576972,rev?*
G04 #@! TF.SameCoordinates,Original*
G04 #@! TF.FileFunction,Soldermask,Bot*
G04 #@! TF.FilePolarity,Negative*
%FSLAX46Y46*%
G04 Gerber Fmt 4.6, Leading zero omitted, Abs format (unit mm)*
G04 Created by KiCad (PCBNEW (7.0.0)) date 2023-07-30 12:49:27*
%MOMM*%
%LPD*%
G01*
G04 APERTURE LIST*
G04 Aperture macros list*
%AMRoundRect*
0 Rectangle with rounded corners*
0 $1 Rounding radius*
0 $2 $3 $4 $5 $6 $7 $8 $9 X,Y pos of 4 corners*
0 Add a 4 corners polygon primitive as box body*
4,1,4,$2,$3,$4,$5,$6,$7,$8,$9,$2,$3,0*
0 Add four circle primitives for the rounded corners*
1,1,$1+$1,$2,$3*
1,1,$1+$1,$4,$5*
1,1,$1+$1,$6,$7*
1,1,$1+$1,$8,$9*
0 Add four rect primitives between the rounded corners*
20,1,$1+$1,$2,$3,$4,$5,0*
20,1,$1+$1,$4,$5,$6,$7,0*
20,1,$1+$1,$6,$7,$8,$9,0*
20,1,$1+$1,$8,$9,$2,$3,0*%
G04 Aperture macros list end*
%ADD10O,3.300000X1.650000*%
%ADD11R,1.950000X1.950000*%
%ADD12C,1.950000*%
%ADD13O,2.000000X3.000000*%
%ADD14R,3.000000X2.000000*%
%ADD15O,3.000000X2.000000*%
%ADD16R,1.800000X1.800000*%
%ADD17C,1.800000*%
%ADD18R,1.700000X1.700000*%
%ADD19O,1.700000X1.700000*%
%ADD20R,3.000000X3.000000*%
%ADD21C,3.000000*%
%ADD22RoundRect,0.150000X-0.150000X0.587500X-0.150000X-0.587500X0.150000X-0.587500X0.150000X0.587500X0*%
%ADD23RoundRect,0.200000X-0.275000X0.200000X-0.275000X-0.200000X0.275000X-0.200000X0.275000X0.200000X0*%
%ADD24RoundRect,0.249999X-0.450001X-1.075001X0.450001X-1.075001X0.450001X1.075001X-0.450001X1.075001X0*%
%ADD25RoundRect,0.200000X0.200000X0.275000X-0.200000X0.275000X-0.200000X-0.275000X0.200000X-0.275000X0*%
%ADD26RoundRect,0.150000X0.150000X-0.587500X0.150000X0.587500X-0.150000X0.587500X-0.150000X-0.587500X0*%
%ADD27RoundRect,0.200000X0.275000X-0.200000X0.275000X0.200000X-0.275000X0.200000X-0.275000X-0.200000X0*%
G04 #@! TA.AperFunction,Profile*
%ADD28C,0.150000*%
G04 #@! TD*
G04 #@! TA.AperFunction,Profile*
%ADD29C,0.152400*%
G04 #@! TD*
G04 APERTURE END LIST*
D10*
X172007999Y-132963999D03*
X172007999Y-129153999D03*
D11*
X92709999Y-62263999D03*
D12*
X92710000Y-67264000D03*
D13*
X107822999Y-61726999D03*
X107822999Y-54226999D03*
X112862999Y-61726999D03*
X112862999Y-54226999D03*
X102782999Y-61726999D03*
X102782999Y-54226999D03*
D14*
X128122999Y-54226999D03*
D15*
X128122999Y-61726999D03*
D11*
X171576999Y-57784999D03*
D12*
X171577000Y-52785000D03*
D11*
X92709999Y-107475999D03*
D12*
X92710000Y-112476000D03*
D13*
X156358999Y-54161999D03*
X156358999Y-61661999D03*
X151318999Y-54161999D03*
X151318999Y-61661999D03*
X161398999Y-54161999D03*
X161398999Y-61661999D03*
D14*
X136058999Y-61661999D03*
D15*
X136058999Y-54161999D03*
D16*
X140715999Y-113875499D03*
D17*
X140716000Y-116415500D03*
D13*
X156358999Y-70798999D03*
X156358999Y-78298999D03*
X151318999Y-70798999D03*
X151318999Y-78298999D03*
X161398999Y-70798999D03*
X161398999Y-78298999D03*
D14*
X136058999Y-78298999D03*
D15*
X136058999Y-70798999D03*
D11*
X92709999Y-117474999D03*
D12*
X92710000Y-122475000D03*
D10*
X172007999Y-125343999D03*
X172007999Y-121533999D03*
X172007999Y-108330999D03*
X172007999Y-104520999D03*
X172007999Y-115945999D03*
X172007999Y-112135999D03*
D11*
X92709999Y-88552999D03*
D12*
X92710000Y-93553000D03*
D11*
X171576999Y-67783999D03*
D12*
X171577000Y-62784000D03*
D11*
X92709999Y-72296999D03*
D12*
X92710000Y-77297000D03*
D10*
X91510649Y-141604999D03*
X91510649Y-145414999D03*
X91523349Y-149224999D03*
D18*
X125983999Y-147573999D03*
D19*
X125983999Y-145033999D03*
X125983999Y-142493999D03*
X125983999Y-139953999D03*
X125983999Y-137413999D03*
X125983999Y-134873999D03*
D20*
X105429499Y-93495999D03*
D21*
X105429500Y-104246000D03*
X143929500Y-104246000D03*
X143929500Y-96246000D03*
D11*
X171576999Y-77816999D03*
D12*
X171577000Y-72817000D03*
D13*
X108014999Y-78298999D03*
X108014999Y-70798999D03*
X113054999Y-78298999D03*
X113054999Y-70798999D03*
X102974999Y-78298999D03*
X102974999Y-70798999D03*
D14*
X128314999Y-70798999D03*
D15*
X128314999Y-78298999D03*
D16*
X132841999Y-113875499D03*
D17*
X132842000Y-116415500D03*
D11*
X92709999Y-52230999D03*
D12*
X92710000Y-57231000D03*
D22*
X127447000Y-73563000D03*
X129347000Y-73563000D03*
X128397000Y-75438000D03*
D23*
X140716000Y-78931000D03*
X140716000Y-80581000D03*
D24*
X95390000Y-112522000D03*
X100190000Y-112522000D03*
D25*
X125539000Y-77343000D03*
X123889000Y-77343000D03*
D23*
X140081000Y-62294000D03*
X140081000Y-63944000D03*
X125476000Y-62167000D03*
X125476000Y-63817000D03*
D26*
X140457000Y-75311000D03*
X138557000Y-75311000D03*
X139507000Y-73436000D03*
X136967000Y-75359500D03*
X135067000Y-75359500D03*
X136017000Y-73484500D03*
D24*
X95390000Y-117475000D03*
X100190000Y-117475000D03*
D26*
X125664000Y-58722500D03*
X123764000Y-58722500D03*
X124714000Y-56847500D03*
D24*
X95390000Y-107442000D03*
X100190000Y-107442000D03*
D22*
X127259000Y-56847500D03*
X129159000Y-56847500D03*
X128209000Y-58722500D03*
D25*
X125539000Y-60579000D03*
X123889000Y-60579000D03*
D26*
X125857000Y-75438000D03*
X123957000Y-75438000D03*
X124907000Y-73563000D03*
D24*
X95390000Y-122428000D03*
X100190000Y-122428000D03*
D25*
X140144000Y-60706000D03*
X138494000Y-60706000D03*
D23*
X125603000Y-79058000D03*
X125603000Y-80708000D03*
D26*
X140396000Y-58849500D03*
X138496000Y-58849500D03*
X139446000Y-56974500D03*
D27*
X143891000Y-92519000D03*
X143891000Y-90869000D03*
D26*
X136840000Y-58849500D03*
X134940000Y-58849500D03*
X135890000Y-56974500D03*
D25*
X140652000Y-77343000D03*
X139002000Y-77343000D03*
D28*
X164505000Y-99314000D02*
G75*
G03*
X164505000Y-101854000I0J-1270000D01*
G01*
D29*
X109900000Y-152400000D02*
X109907300Y-152353700D01*
X154299943Y-152400003D02*
G75*
G03*
X153315200Y-151597600I-859943J-49897D01*
G01*
X153200000Y-49567999D02*
G75*
G03*
X154195099Y-48811901I119500J875599D01*
G01*
D28*
X88900000Y-102997000D02*
G75*
G03*
X90043000Y-101854000I0J1143000D01*
G01*
X174157000Y-99314000D02*
X164505000Y-99314000D01*
D29*
X88900000Y-48768000D02*
X88900000Y-98171000D01*
D28*
X90043000Y-99314000D02*
G75*
G03*
X88900000Y-98171000I-1143000J0D01*
G01*
D29*
X88900000Y-152400000D02*
X109900000Y-152400000D01*
X110000000Y-48768000D02*
X88900000Y-48768000D01*
D28*
X90043000Y-101854000D02*
X99695000Y-101854000D01*
D29*
X153200000Y-151600000D02*
X153315200Y-151597600D01*
X154300000Y-152400000D02*
X175300000Y-152400000D01*
X110000000Y-48768000D02*
G75*
G03*
X110856099Y-49572900I830500J25600D01*
G01*
X111000000Y-151600000D02*
X153200000Y-151600000D01*
D28*
X174157000Y-101854000D02*
G75*
G03*
X175300000Y-102997000I1143000J0D01*
G01*
D29*
X153200000Y-49568000D02*
X111000000Y-49568000D01*
D28*
X90043000Y-99314000D02*
X99695000Y-99314000D01*
X174157000Y-101854000D02*
X164505000Y-101854000D01*
D29*
X88900000Y-102997000D02*
X88900000Y-152400000D01*
D28*
X99695000Y-101854000D02*
G75*
G03*
X99695000Y-99314000I0J1270000D01*
G01*
D29*
X111000000Y-151600000D02*
G75*
G03*
X109907301Y-152353698I-169500J-923200D01*
G01*
X175300000Y-48768000D02*
X154200000Y-48768000D01*
X175300000Y-102997000D02*
X175300000Y-152400000D01*
X154200000Y-48768000D02*
X154195100Y-48811900D01*
X111000000Y-49568000D02*
X110856100Y-49572900D01*
X175300000Y-48768000D02*
X175300000Y-98171000D01*
D28*
X175300000Y-98171000D02*
G75*
G03*
X174157000Y-99314000I0J-1143000D01*
G01*
M02*
