M48
; DRILL file {KiCad (7.0.0)} date Sun Jul 30 12:50:22 2023
; FORMAT={-:-/ absolute / metric / decimal}
; #@! TF.CreationDate,2023-07-30T12:50:22+02:00
; #@! TF.GenerationSoftware,Kicad,Pcbnew,(7.0.0)
; #@! TF.FileFunction,Plated,1,2,PTH
FMAT,2
METRIC
; #@! TA.AperFunction,Plated,PTH,ComponentDrill
T1C0.300
; #@! TA.AperFunction,Plated,PTH,ViaDrill
T2C0.400
; #@! TA.AperFunction,Plated,PTH,ComponentDrill
T3C0.900
; #@! TA.AperFunction,Plated,PTH,ComponentDrill
T4C1.000
; #@! TA.AperFunction,Plated,PTH,ComponentDrill
T5C1.100
; #@! TA.AperFunction,Plated,PTH,ComponentDrill
T6C1.300
; #@! TA.AperFunction,Plated,PTH,ComponentDrill
T7C1.500
%
G90
G05
T1
X142.746Y-134.112
X142.746Y-135.637
X143.508Y-133.35
X143.508Y-134.875
X143.508Y-136.4
X144.271Y-134.112
X144.271Y-135.637
X145.034Y-133.35
X145.034Y-134.875
X145.034Y-136.4
X145.796Y-134.112
X145.796Y-135.637
T2
X98.933Y-141.605
X103.759Y-145.669
X104.521Y-141.605
X110.236Y-141.605
X110.678Y-121.92
X110.805Y-109.982
X110.805Y-115.951
X110.805Y-127.762
X114.427Y-141.605
X117.983Y-139.7
X119.761Y-137.922
X121.158Y-118.491
X121.158Y-124.46
X121.158Y-130.302
X121.285Y-112.522
X121.285Y-133.858
X122.174Y-145.796
X123.571Y-108.839
X123.952Y-125.476
X123.952Y-126.619
X123.952Y-127.762
X125.095Y-124.333
X127.127Y-65.659
X127.635Y-108.839
X129.413Y-138.684
X131.445Y-81.457
X132.715Y-108.839
X132.842Y-132.08
X132.842Y-133.35
X137.668Y-121.158
X138.176Y-125.984
X138.303Y-65.151
X139.192Y-81.407
X139.827Y-108.839
X140.716Y-87.122
X144.78Y-126.873
X145.669Y-126.365
X146.431Y-127.254
X146.939Y-108.585
X147.193Y-126.111
X148.59Y-102.87
X148.59Y-106.934
X150.368Y-114.808
X150.495Y-130.429
X153.737Y-114.75
X153.797Y-139.573
X154.305Y-116.332
X154.813Y-125.705
X154.813Y-126.975
X154.813Y-128.245
X154.813Y-129.54
X155.28Y-134.874
X155.321Y-115.951
X155.321Y-122.174
X162.687Y-111.125
X162.687Y-114.681
X162.687Y-119.761
X162.687Y-126.873
X162.687Y-131.826
X162.687Y-136.779
X162.687Y-142.113
T3
X132.842Y-113.875
X132.842Y-116.415
X140.716Y-113.875
X140.716Y-116.415
T4
X125.984Y-134.874
X125.984Y-137.414
X125.984Y-139.954
X125.984Y-142.494
X125.984Y-145.034
X125.984Y-147.574
T5
X91.511Y-141.605
X91.511Y-145.415
X91.523Y-149.225
X172.008Y-104.521
X172.008Y-108.331
X172.008Y-112.136
X172.008Y-115.946
X172.008Y-121.534
X172.008Y-125.344
X172.008Y-129.154
X172.008Y-132.964
T6
X92.71Y-52.231
X92.71Y-57.231
X92.71Y-62.264
X92.71Y-67.264
X92.71Y-72.297
X92.71Y-77.297
X92.71Y-88.553
X92.71Y-93.553
X92.71Y-107.476
X92.71Y-112.476
X92.71Y-117.475
X92.71Y-122.475
X102.783Y-54.227
X102.783Y-61.727
X102.975Y-70.799
X102.975Y-78.299
X107.823Y-54.227
X107.823Y-61.727
X108.015Y-70.799
X108.015Y-78.299
X112.863Y-54.227
X112.863Y-61.727
X113.055Y-70.799
X113.055Y-78.299
X128.123Y-54.227
X128.123Y-61.727
X128.315Y-70.799
X128.315Y-78.299
X136.059Y-54.162
X136.059Y-61.662
X136.059Y-70.799
X136.059Y-78.299
X151.319Y-54.162
X151.319Y-61.662
X151.319Y-70.799
X151.319Y-78.299
X156.359Y-54.162
X156.359Y-61.662
X156.359Y-70.799
X156.359Y-78.299
X161.399Y-54.162
X161.399Y-61.662
X161.399Y-70.799
X161.399Y-78.299
X171.577Y-52.785
X171.577Y-57.785
X171.577Y-62.784
X171.577Y-67.784
X171.577Y-72.817
X171.577Y-77.817
T7
X105.429Y-93.496
X105.429Y-104.246
X143.929Y-96.246
X143.929Y-104.246
T0
M30
