G04 #@! TF.GenerationSoftware,KiCad,Pcbnew,(7.0.0)*
G04 #@! TF.CreationDate,2023-07-30T12:49:27+02:00*
G04 #@! TF.ProjectId,RealyModul_1Wire_ADC,5265616c-794d-46f6-9475-6c5f31576972,rev?*
G04 #@! TF.SameCoordinates,Original*
G04 #@! TF.FileFunction,Soldermask,Top*
G04 #@! TF.FilePolarity,Negative*
%FSLAX46Y46*%
G04 Gerber Fmt 4.6, Leading zero omitted, Abs format (unit mm)*
G04 Created by KiCad (PCBNEW (7.0.0)) date 2023-07-30 12:49:27*
%MOMM*%
%LPD*%
G01*
G04 APERTURE LIST*
G04 Aperture macros list*
%AMRoundRect*
0 Rectangle with rounded corners*
0 $1 Rounding radius*
0 $2 $3 $4 $5 $6 $7 $8 $9 X,Y pos of 4 corners*
0 Add a 4 corners polygon primitive as box body*
4,1,4,$2,$3,$4,$5,$6,$7,$8,$9,$2,$3,0*
0 Add four circle primitives for the rounded corners*
1,1,$1+$1,$2,$3*
1,1,$1+$1,$4,$5*
1,1,$1+$1,$6,$7*
1,1,$1+$1,$8,$9*
0 Add four rect primitives between the rounded corners*
20,1,$1+$1,$2,$3,$4,$5,0*
20,1,$1+$1,$4,$5,$6,$7,0*
20,1,$1+$1,$6,$7,$8,$9,0*
20,1,$1+$1,$8,$9,$2,$3,0*%
G04 Aperture macros list end*
%ADD10O,3.300000X1.650000*%
%ADD11R,1.950000X1.950000*%
%ADD12C,1.950000*%
%ADD13RoundRect,0.249999X-0.450001X-1.075001X0.450001X-1.075001X0.450001X1.075001X-0.450001X1.075001X0*%
%ADD14RoundRect,0.200000X-0.200000X-0.275000X0.200000X-0.275000X0.200000X0.275000X-0.200000X0.275000X0*%
%ADD15RoundRect,0.225000X-0.225000X-0.250000X0.225000X-0.250000X0.225000X0.250000X-0.225000X0.250000X0*%
%ADD16O,2.000000X3.000000*%
%ADD17R,3.000000X2.000000*%
%ADD18O,3.000000X2.000000*%
%ADD19RoundRect,0.200000X0.200000X0.275000X-0.200000X0.275000X-0.200000X-0.275000X0.200000X-0.275000X0*%
%ADD20RoundRect,0.200000X0.275000X-0.200000X0.275000X0.200000X-0.275000X0.200000X-0.275000X-0.200000X0*%
%ADD21RoundRect,0.218750X-0.256250X0.218750X-0.256250X-0.218750X0.256250X-0.218750X0.256250X0.218750X0*%
%ADD22R,1.500000X1.780000*%
%ADD23R,1.800000X1.800000*%
%ADD24C,1.800000*%
%ADD25RoundRect,0.200000X-0.275000X0.200000X-0.275000X-0.200000X0.275000X-0.200000X0.275000X0.200000X0*%
%ADD26R,0.250000X1.100000*%
%ADD27RoundRect,0.225000X0.250000X-0.225000X0.250000X0.225000X-0.250000X0.225000X-0.250000X-0.225000X0*%
%ADD28R,1.700000X1.700000*%
%ADD29O,1.700000X1.700000*%
%ADD30R,3.000000X3.000000*%
%ADD31C,3.000000*%
%ADD32RoundRect,0.225000X-0.250000X0.225000X-0.250000X-0.225000X0.250000X-0.225000X0.250000X0.225000X0*%
%ADD33R,2.000000X1.500000*%
%ADD34R,2.000000X3.800000*%
%ADD35R,1.500000X0.900000*%
%ADD36R,0.900000X1.500000*%
%ADD37C,0.475000*%
%ADD38R,4.200000X4.200000*%
G04 #@! TA.AperFunction,Profile*
%ADD39C,0.150000*%
G04 #@! TD*
G04 #@! TA.AperFunction,Profile*
%ADD40C,0.152400*%
G04 #@! TD*
G04 APERTURE END LIST*
D10*
X172007999Y-132963999D03*
X172007999Y-129153999D03*
D11*
X92709999Y-62263999D03*
D12*
X92710000Y-67264000D03*
D13*
X102629000Y-130302000D03*
X107429000Y-130302000D03*
D14*
X149670000Y-110871000D03*
X151320000Y-110871000D03*
D15*
X156959000Y-109982000D03*
X158509000Y-109982000D03*
D16*
X107822999Y-61726999D03*
X107822999Y-54226999D03*
X112862999Y-61726999D03*
X112862999Y-54226999D03*
X102782999Y-61726999D03*
X102782999Y-54226999D03*
D17*
X128122999Y-54226999D03*
D18*
X128122999Y-61726999D03*
D19*
X158559000Y-108458000D03*
X156909000Y-108458000D03*
D15*
X156959000Y-116095000D03*
X158509000Y-116095000D03*
D20*
X137668000Y-120293500D03*
X137668000Y-118643500D03*
D15*
X156959000Y-114554000D03*
X158509000Y-114554000D03*
D20*
X153289000Y-120967000D03*
X153289000Y-119317000D03*
D11*
X171576999Y-57784999D03*
D12*
X171577000Y-52785000D03*
D11*
X92709999Y-107475999D03*
D12*
X92710000Y-112476000D03*
D16*
X156358999Y-54161999D03*
X156358999Y-61661999D03*
X151318999Y-54161999D03*
X151318999Y-61661999D03*
X161398999Y-54161999D03*
X161398999Y-61661999D03*
D17*
X136058999Y-61661999D03*
D18*
X136058999Y-54161999D03*
D21*
X137668000Y-115316000D03*
X137668000Y-116891000D03*
D22*
X110804999Y-109981999D03*
X110804999Y-112521999D03*
X120334999Y-112521999D03*
X120334999Y-109981999D03*
D19*
X158559000Y-129794000D03*
X156909000Y-129794000D03*
X158559000Y-122301000D03*
X156909000Y-122301000D03*
D14*
X149670000Y-112395000D03*
X151320000Y-112395000D03*
D23*
X140715999Y-113875499D03*
D24*
X140716000Y-116415500D03*
D16*
X156358999Y-70798999D03*
X156358999Y-78298999D03*
X151318999Y-70798999D03*
X151318999Y-78298999D03*
X161398999Y-70798999D03*
X161398999Y-78298999D03*
D17*
X136058999Y-78298999D03*
D18*
X136058999Y-70798999D03*
D11*
X92709999Y-117474999D03*
D12*
X92710000Y-122475000D03*
D19*
X158559000Y-126746000D03*
X156909000Y-126746000D03*
X158559000Y-117729000D03*
X156909000Y-117729000D03*
D10*
X172007999Y-125343999D03*
X172007999Y-121533999D03*
D19*
X158559000Y-113030000D03*
X156909000Y-113030000D03*
D15*
X155267000Y-140843000D03*
X156817000Y-140843000D03*
X155280000Y-136271000D03*
X156830000Y-136271000D03*
D25*
X102489000Y-144019000D03*
X102489000Y-145669000D03*
D10*
X172007999Y-108330999D03*
X172007999Y-104520999D03*
X172007999Y-115945999D03*
X172007999Y-112135999D03*
D13*
X102629000Y-124587000D03*
X107429000Y-124587000D03*
D15*
X155267000Y-139319000D03*
X156817000Y-139319000D03*
D20*
X122174000Y-137667000D03*
X122174000Y-136017000D03*
D11*
X92709999Y-88552999D03*
D12*
X92710000Y-93553000D03*
D11*
X171576999Y-67783999D03*
D12*
X171577000Y-62784000D03*
D15*
X156959000Y-111506000D03*
X158509000Y-111506000D03*
D22*
X110804999Y-115950999D03*
X110804999Y-118490999D03*
X120334999Y-118490999D03*
X120334999Y-115950999D03*
D15*
X156959000Y-119253000D03*
X158509000Y-119253000D03*
D19*
X158559000Y-128270000D03*
X156909000Y-128270000D03*
D26*
X153304999Y-117592999D03*
X153804999Y-117592999D03*
X154304999Y-117592999D03*
X154804999Y-117592999D03*
X155304999Y-117592999D03*
X155304999Y-113292999D03*
X154804999Y-113292999D03*
X154304999Y-113292999D03*
X153804999Y-113292999D03*
X153304999Y-113292999D03*
D13*
X102502000Y-112522000D03*
X107302000Y-112522000D03*
D11*
X92709999Y-72296999D03*
D12*
X92710000Y-77297000D03*
D27*
X151003000Y-103772000D03*
X151003000Y-102222000D03*
D21*
X135890000Y-115316000D03*
X135890000Y-116891000D03*
D10*
X91510649Y-141604999D03*
X91510649Y-145414999D03*
X91523349Y-149224999D03*
D22*
X110804999Y-127761999D03*
X110804999Y-130301999D03*
X120334999Y-130301999D03*
X120334999Y-127761999D03*
D13*
X102502000Y-118618000D03*
X107302000Y-118618000D03*
D28*
X125983999Y-147573999D03*
D29*
X125983999Y-145033999D03*
X125983999Y-142493999D03*
X125983999Y-139953999D03*
X125983999Y-137413999D03*
X125983999Y-134873999D03*
D19*
X158559000Y-125222000D03*
X156909000Y-125222000D03*
D30*
X105429499Y-93495999D03*
D31*
X105429500Y-104246000D03*
X143929500Y-104246000D03*
X143929500Y-96246000D03*
D32*
X122174000Y-142671000D03*
X122174000Y-144221000D03*
D22*
X110677999Y-121919999D03*
X110677999Y-124459999D03*
X120207999Y-124459999D03*
X120207999Y-121919999D03*
D11*
X171576999Y-77816999D03*
D12*
X171577000Y-72817000D03*
D33*
X153440999Y-99045999D03*
X153440999Y-101345999D03*
D34*
X159740999Y-101345999D03*
D33*
X153440999Y-103645999D03*
D20*
X135890000Y-120293500D03*
X135890000Y-118643500D03*
D15*
X155267000Y-137795000D03*
X156817000Y-137795000D03*
D35*
X152340999Y-142214999D03*
X152340999Y-140944999D03*
X152340999Y-139674999D03*
X152340999Y-138404999D03*
X152340999Y-137134999D03*
X152340999Y-135864999D03*
X152340999Y-134594999D03*
X152340999Y-133324999D03*
X152340999Y-132054999D03*
X152340999Y-130784999D03*
X152340999Y-129514999D03*
X152340999Y-128244999D03*
X152340999Y-126974999D03*
X152340999Y-125704999D03*
D36*
X149300999Y-124454999D03*
X148030999Y-124454999D03*
X146760999Y-124454999D03*
X145490999Y-124454999D03*
X144220999Y-124454999D03*
X142950999Y-124454999D03*
X141680999Y-124454999D03*
X140410999Y-124454999D03*
X139140999Y-124454999D03*
X137870999Y-124454999D03*
D35*
X134840999Y-125704999D03*
X134840999Y-126974999D03*
X134840999Y-128244999D03*
X134840999Y-129514999D03*
X134840999Y-130784999D03*
X134840999Y-132054999D03*
X134840999Y-133324999D03*
X134840999Y-134594999D03*
X134840999Y-135864999D03*
X134840999Y-137134999D03*
X134840999Y-138404999D03*
X134840999Y-139674999D03*
X134840999Y-140944999D03*
X134840999Y-142214999D03*
D37*
X145796000Y-135637500D03*
X145796000Y-134112500D03*
X145033500Y-136400000D03*
X145033500Y-134875000D03*
X145033500Y-133350000D03*
X144271000Y-135637500D03*
D38*
X144270999Y-134874999D03*
D37*
X144271000Y-134112500D03*
X143508500Y-136400000D03*
X143508500Y-134875000D03*
X143508500Y-133350000D03*
X142746000Y-135637500D03*
X142746000Y-134112500D03*
D16*
X108014999Y-78298999D03*
X108014999Y-70798999D03*
X113054999Y-78298999D03*
X113054999Y-70798999D03*
X102974999Y-78298999D03*
X102974999Y-70798999D03*
D17*
X128314999Y-70798999D03*
D18*
X128314999Y-78298999D03*
D25*
X122174000Y-139319000D03*
X122174000Y-140969000D03*
D23*
X132841999Y-113875499D03*
D24*
X132842000Y-116415500D03*
D32*
X151003000Y-98920000D03*
X151003000Y-100470000D03*
D11*
X92709999Y-52230999D03*
D12*
X92710000Y-57231000D03*
D15*
X156959000Y-120777000D03*
X158509000Y-120777000D03*
D39*
X164505000Y-99314000D02*
G75*
G03*
X164505000Y-101854000I0J-1270000D01*
G01*
D40*
X109900000Y-152400000D02*
X109907300Y-152353700D01*
X154299943Y-152400003D02*
G75*
G03*
X153315200Y-151597600I-859943J-49897D01*
G01*
X153200000Y-49567999D02*
G75*
G03*
X154195099Y-48811901I119500J875599D01*
G01*
D39*
X88900000Y-102997000D02*
G75*
G03*
X90043000Y-101854000I0J1143000D01*
G01*
X174157000Y-99314000D02*
X164505000Y-99314000D01*
D40*
X88900000Y-48768000D02*
X88900000Y-98171000D01*
D39*
X90043000Y-99314000D02*
G75*
G03*
X88900000Y-98171000I-1143000J0D01*
G01*
D40*
X88900000Y-152400000D02*
X109900000Y-152400000D01*
X110000000Y-48768000D02*
X88900000Y-48768000D01*
D39*
X90043000Y-101854000D02*
X99695000Y-101854000D01*
D40*
X153200000Y-151600000D02*
X153315200Y-151597600D01*
X154300000Y-152400000D02*
X175300000Y-152400000D01*
X110000000Y-48768000D02*
G75*
G03*
X110856099Y-49572900I830500J25600D01*
G01*
X111000000Y-151600000D02*
X153200000Y-151600000D01*
D39*
X174157000Y-101854000D02*
G75*
G03*
X175300000Y-102997000I1143000J0D01*
G01*
D40*
X153200000Y-49568000D02*
X111000000Y-49568000D01*
D39*
X90043000Y-99314000D02*
X99695000Y-99314000D01*
X174157000Y-101854000D02*
X164505000Y-101854000D01*
D40*
X88900000Y-102997000D02*
X88900000Y-152400000D01*
D39*
X99695000Y-101854000D02*
G75*
G03*
X99695000Y-99314000I0J1270000D01*
G01*
D40*
X111000000Y-151600000D02*
G75*
G03*
X109907301Y-152353698I-169500J-923200D01*
G01*
X175300000Y-48768000D02*
X154200000Y-48768000D01*
X175300000Y-102997000D02*
X175300000Y-152400000D01*
X154200000Y-48768000D02*
X154195100Y-48811900D01*
X111000000Y-49568000D02*
X110856100Y-49572900D01*
X175300000Y-48768000D02*
X175300000Y-98171000D01*
D39*
X175300000Y-98171000D02*
G75*
G03*
X174157000Y-99314000I0J-1143000D01*
G01*
M02*
