G04 #@! TF.GenerationSoftware,KiCad,Pcbnew,(7.0.0)*
G04 #@! TF.CreationDate,2023-07-30T12:49:27+02:00*
G04 #@! TF.ProjectId,RealyModul_1Wire_ADC,5265616c-794d-46f6-9475-6c5f31576972,rev?*
G04 #@! TF.SameCoordinates,Original*
G04 #@! TF.FileFunction,Legend,Top*
G04 #@! TF.FilePolarity,Positive*
%FSLAX46Y46*%
G04 Gerber Fmt 4.6, Leading zero omitted, Abs format (unit mm)*
G04 Created by KiCad (PCBNEW (7.0.0)) date 2023-07-30 12:49:27*
%MOMM*%
%LPD*%
G01*
G04 APERTURE LIST*
G04 Aperture macros list*
%AMRoundRect*
0 Rectangle with rounded corners*
0 $1 Rounding radius*
0 $2 $3 $4 $5 $6 $7 $8 $9 X,Y pos of 4 corners*
0 Add a 4 corners polygon primitive as box body*
4,1,4,$2,$3,$4,$5,$6,$7,$8,$9,$2,$3,0*
0 Add four circle primitives for the rounded corners*
1,1,$1+$1,$2,$3*
1,1,$1+$1,$4,$5*
1,1,$1+$1,$6,$7*
1,1,$1+$1,$8,$9*
0 Add four rect primitives between the rounded corners*
20,1,$1+$1,$2,$3,$4,$5,0*
20,1,$1+$1,$4,$5,$6,$7,0*
20,1,$1+$1,$6,$7,$8,$9,0*
20,1,$1+$1,$8,$9,$2,$3,0*%
G04 Aperture macros list end*
%ADD10C,0.200000*%
%ADD11C,0.150000*%
%ADD12C,0.254000*%
%ADD13C,0.127000*%
%ADD14C,0.100000*%
%ADD15C,0.120000*%
%ADD16O,3.300000X1.650000*%
%ADD17R,1.950000X1.950000*%
%ADD18C,1.950000*%
%ADD19RoundRect,0.249999X-0.450001X-1.075001X0.450001X-1.075001X0.450001X1.075001X-0.450001X1.075001X0*%
%ADD20RoundRect,0.200000X-0.200000X-0.275000X0.200000X-0.275000X0.200000X0.275000X-0.200000X0.275000X0*%
%ADD21RoundRect,0.225000X-0.225000X-0.250000X0.225000X-0.250000X0.225000X0.250000X-0.225000X0.250000X0*%
%ADD22O,2.000000X3.000000*%
%ADD23R,3.000000X2.000000*%
%ADD24O,3.000000X2.000000*%
%ADD25RoundRect,0.200000X0.200000X0.275000X-0.200000X0.275000X-0.200000X-0.275000X0.200000X-0.275000X0*%
%ADD26RoundRect,0.200000X0.275000X-0.200000X0.275000X0.200000X-0.275000X0.200000X-0.275000X-0.200000X0*%
%ADD27RoundRect,0.218750X-0.256250X0.218750X-0.256250X-0.218750X0.256250X-0.218750X0.256250X0.218750X0*%
%ADD28R,1.500000X1.780000*%
%ADD29R,1.800000X1.800000*%
%ADD30C,1.800000*%
%ADD31RoundRect,0.200000X-0.275000X0.200000X-0.275000X-0.200000X0.275000X-0.200000X0.275000X0.200000X0*%
%ADD32R,0.250000X1.100000*%
%ADD33RoundRect,0.225000X0.250000X-0.225000X0.250000X0.225000X-0.250000X0.225000X-0.250000X-0.225000X0*%
%ADD34R,1.700000X1.700000*%
%ADD35O,1.700000X1.700000*%
%ADD36R,3.000000X3.000000*%
%ADD37C,3.000000*%
%ADD38RoundRect,0.225000X-0.250000X0.225000X-0.250000X-0.225000X0.250000X-0.225000X0.250000X0.225000X0*%
%ADD39R,2.000000X1.500000*%
%ADD40R,2.000000X3.800000*%
%ADD41R,1.500000X0.900000*%
%ADD42R,0.900000X1.500000*%
%ADD43C,0.475000*%
%ADD44R,4.200000X4.200000*%
G04 #@! TA.AperFunction,Profile*
%ADD45C,0.150000*%
G04 #@! TD*
G04 #@! TA.AperFunction,Profile*
%ADD46C,0.152400*%
G04 #@! TD*
G04 APERTURE END LIST*
D10*
X89294619Y-84661285D02*
X89294619Y-84185095D01*
X89294619Y-84185095D02*
X90294619Y-84185095D01*
X120269095Y-148208619D02*
X120840523Y-148208619D01*
X120554809Y-148208619D02*
X120554809Y-149208619D01*
X120554809Y-149208619D02*
X120650047Y-149065761D01*
X120650047Y-149065761D02*
X120745285Y-148970523D01*
X120745285Y-148970523D02*
X120840523Y-148922904D01*
X119240523Y-148589571D02*
X118478619Y-148589571D01*
X117497666Y-149208619D02*
X116878619Y-149208619D01*
X116878619Y-149208619D02*
X117211952Y-148827666D01*
X117211952Y-148827666D02*
X117069095Y-148827666D01*
X117069095Y-148827666D02*
X116973857Y-148780047D01*
X116973857Y-148780047D02*
X116926238Y-148732428D01*
X116926238Y-148732428D02*
X116878619Y-148637190D01*
X116878619Y-148637190D02*
X116878619Y-148399095D01*
X116878619Y-148399095D02*
X116926238Y-148303857D01*
X116926238Y-148303857D02*
X116973857Y-148256238D01*
X116973857Y-148256238D02*
X117069095Y-148208619D01*
X117069095Y-148208619D02*
X117354809Y-148208619D01*
X117354809Y-148208619D02*
X117450047Y-148256238D01*
X117450047Y-148256238D02*
X117497666Y-148303857D01*
X116592904Y-149208619D02*
X116259571Y-148208619D01*
X116259571Y-148208619D02*
X115926238Y-149208619D01*
X115688142Y-149208619D02*
X115069095Y-149208619D01*
X115069095Y-149208619D02*
X115402428Y-148827666D01*
X115402428Y-148827666D02*
X115259571Y-148827666D01*
X115259571Y-148827666D02*
X115164333Y-148780047D01*
X115164333Y-148780047D02*
X115116714Y-148732428D01*
X115116714Y-148732428D02*
X115069095Y-148637190D01*
X115069095Y-148637190D02*
X115069095Y-148399095D01*
X115069095Y-148399095D02*
X115116714Y-148303857D01*
X115116714Y-148303857D02*
X115164333Y-148256238D01*
X115164333Y-148256238D02*
X115259571Y-148208619D01*
X115259571Y-148208619D02*
X115545285Y-148208619D01*
X115545285Y-148208619D02*
X115640523Y-148256238D01*
X115640523Y-148256238D02*
X115688142Y-148303857D01*
X120840523Y-147493380D02*
X120792904Y-147541000D01*
X120792904Y-147541000D02*
X120697666Y-147588619D01*
X120697666Y-147588619D02*
X120459571Y-147588619D01*
X120459571Y-147588619D02*
X120364333Y-147541000D01*
X120364333Y-147541000D02*
X120316714Y-147493380D01*
X120316714Y-147493380D02*
X120269095Y-147398142D01*
X120269095Y-147398142D02*
X120269095Y-147302904D01*
X120269095Y-147302904D02*
X120316714Y-147160047D01*
X120316714Y-147160047D02*
X120888142Y-146588619D01*
X120888142Y-146588619D02*
X120269095Y-146588619D01*
X119240523Y-146969571D02*
X118478619Y-146969571D01*
X116831000Y-146588619D02*
X117164333Y-147064809D01*
X117402428Y-146588619D02*
X117402428Y-147588619D01*
X117402428Y-147588619D02*
X117021476Y-147588619D01*
X117021476Y-147588619D02*
X116926238Y-147541000D01*
X116926238Y-147541000D02*
X116878619Y-147493380D01*
X116878619Y-147493380D02*
X116831000Y-147398142D01*
X116831000Y-147398142D02*
X116831000Y-147255285D01*
X116831000Y-147255285D02*
X116878619Y-147160047D01*
X116878619Y-147160047D02*
X116926238Y-147112428D01*
X116926238Y-147112428D02*
X117021476Y-147064809D01*
X117021476Y-147064809D02*
X117402428Y-147064809D01*
X116497666Y-146588619D02*
X115973857Y-147255285D01*
X116497666Y-147255285D02*
X115973857Y-146588619D01*
X115592904Y-146588619D02*
X115592904Y-147588619D01*
X115592904Y-147588619D02*
X115354809Y-147588619D01*
X115354809Y-147588619D02*
X115211952Y-147541000D01*
X115211952Y-147541000D02*
X115116714Y-147445761D01*
X115116714Y-147445761D02*
X115069095Y-147350523D01*
X115069095Y-147350523D02*
X115021476Y-147160047D01*
X115021476Y-147160047D02*
X115021476Y-147017190D01*
X115021476Y-147017190D02*
X115069095Y-146826714D01*
X115069095Y-146826714D02*
X115116714Y-146731476D01*
X115116714Y-146731476D02*
X115211952Y-146636238D01*
X115211952Y-146636238D02*
X115354809Y-146588619D01*
X115354809Y-146588619D02*
X115592904Y-146588619D01*
X120888142Y-145968619D02*
X120269095Y-145968619D01*
X120269095Y-145968619D02*
X120602428Y-145587666D01*
X120602428Y-145587666D02*
X120459571Y-145587666D01*
X120459571Y-145587666D02*
X120364333Y-145540047D01*
X120364333Y-145540047D02*
X120316714Y-145492428D01*
X120316714Y-145492428D02*
X120269095Y-145397190D01*
X120269095Y-145397190D02*
X120269095Y-145159095D01*
X120269095Y-145159095D02*
X120316714Y-145063857D01*
X120316714Y-145063857D02*
X120364333Y-145016238D01*
X120364333Y-145016238D02*
X120459571Y-144968619D01*
X120459571Y-144968619D02*
X120745285Y-144968619D01*
X120745285Y-144968619D02*
X120840523Y-145016238D01*
X120840523Y-145016238D02*
X120888142Y-145063857D01*
X119240523Y-145349571D02*
X118478619Y-145349571D01*
X117545285Y-145968619D02*
X116973857Y-145968619D01*
X117259571Y-144968619D02*
X117259571Y-145968619D01*
X116735761Y-144968619D02*
X116211952Y-145635285D01*
X116735761Y-145635285D02*
X116211952Y-144968619D01*
X115830999Y-144968619D02*
X115830999Y-145968619D01*
X115830999Y-145968619D02*
X115592904Y-145968619D01*
X115592904Y-145968619D02*
X115450047Y-145921000D01*
X115450047Y-145921000D02*
X115354809Y-145825761D01*
X115354809Y-145825761D02*
X115307190Y-145730523D01*
X115307190Y-145730523D02*
X115259571Y-145540047D01*
X115259571Y-145540047D02*
X115259571Y-145397190D01*
X115259571Y-145397190D02*
X115307190Y-145206714D01*
X115307190Y-145206714D02*
X115354809Y-145111476D01*
X115354809Y-145111476D02*
X115450047Y-145016238D01*
X115450047Y-145016238D02*
X115592904Y-144968619D01*
X115592904Y-144968619D02*
X115830999Y-144968619D01*
X120364333Y-144015285D02*
X120364333Y-143348619D01*
X120602428Y-144396238D02*
X120840523Y-143681952D01*
X120840523Y-143681952D02*
X120221476Y-143681952D01*
X119240523Y-143729571D02*
X118478619Y-143729571D01*
X116878619Y-144301000D02*
X116973857Y-144348619D01*
X116973857Y-144348619D02*
X117116714Y-144348619D01*
X117116714Y-144348619D02*
X117259571Y-144301000D01*
X117259571Y-144301000D02*
X117354809Y-144205761D01*
X117354809Y-144205761D02*
X117402428Y-144110523D01*
X117402428Y-144110523D02*
X117450047Y-143920047D01*
X117450047Y-143920047D02*
X117450047Y-143777190D01*
X117450047Y-143777190D02*
X117402428Y-143586714D01*
X117402428Y-143586714D02*
X117354809Y-143491476D01*
X117354809Y-143491476D02*
X117259571Y-143396238D01*
X117259571Y-143396238D02*
X117116714Y-143348619D01*
X117116714Y-143348619D02*
X117021476Y-143348619D01*
X117021476Y-143348619D02*
X116878619Y-143396238D01*
X116878619Y-143396238D02*
X116831000Y-143443857D01*
X116831000Y-143443857D02*
X116831000Y-143777190D01*
X116831000Y-143777190D02*
X117021476Y-143777190D01*
X116402428Y-143348619D02*
X116402428Y-144348619D01*
X116402428Y-144348619D02*
X115831000Y-143348619D01*
X115831000Y-143348619D02*
X115831000Y-144348619D01*
X115354809Y-143348619D02*
X115354809Y-144348619D01*
X115354809Y-144348619D02*
X115116714Y-144348619D01*
X115116714Y-144348619D02*
X114973857Y-144301000D01*
X114973857Y-144301000D02*
X114878619Y-144205761D01*
X114878619Y-144205761D02*
X114831000Y-144110523D01*
X114831000Y-144110523D02*
X114783381Y-143920047D01*
X114783381Y-143920047D02*
X114783381Y-143777190D01*
X114783381Y-143777190D02*
X114831000Y-143586714D01*
X114831000Y-143586714D02*
X114878619Y-143491476D01*
X114878619Y-143491476D02*
X114973857Y-143396238D01*
X114973857Y-143396238D02*
X115116714Y-143348619D01*
X115116714Y-143348619D02*
X115354809Y-143348619D01*
X120316714Y-142728619D02*
X120792904Y-142728619D01*
X120792904Y-142728619D02*
X120840523Y-142252428D01*
X120840523Y-142252428D02*
X120792904Y-142300047D01*
X120792904Y-142300047D02*
X120697666Y-142347666D01*
X120697666Y-142347666D02*
X120459571Y-142347666D01*
X120459571Y-142347666D02*
X120364333Y-142300047D01*
X120364333Y-142300047D02*
X120316714Y-142252428D01*
X120316714Y-142252428D02*
X120269095Y-142157190D01*
X120269095Y-142157190D02*
X120269095Y-141919095D01*
X120269095Y-141919095D02*
X120316714Y-141823857D01*
X120316714Y-141823857D02*
X120364333Y-141776238D01*
X120364333Y-141776238D02*
X120459571Y-141728619D01*
X120459571Y-141728619D02*
X120697666Y-141728619D01*
X120697666Y-141728619D02*
X120792904Y-141776238D01*
X120792904Y-141776238D02*
X120840523Y-141823857D01*
X119240523Y-142109571D02*
X118478619Y-142109571D01*
X116831000Y-141728619D02*
X117164333Y-142204809D01*
X117402428Y-141728619D02*
X117402428Y-142728619D01*
X117402428Y-142728619D02*
X117021476Y-142728619D01*
X117021476Y-142728619D02*
X116926238Y-142681000D01*
X116926238Y-142681000D02*
X116878619Y-142633380D01*
X116878619Y-142633380D02*
X116831000Y-142538142D01*
X116831000Y-142538142D02*
X116831000Y-142395285D01*
X116831000Y-142395285D02*
X116878619Y-142300047D01*
X116878619Y-142300047D02*
X116926238Y-142252428D01*
X116926238Y-142252428D02*
X117021476Y-142204809D01*
X117021476Y-142204809D02*
X117402428Y-142204809D01*
X116450047Y-141776238D02*
X116307190Y-141728619D01*
X116307190Y-141728619D02*
X116069095Y-141728619D01*
X116069095Y-141728619D02*
X115973857Y-141776238D01*
X115973857Y-141776238D02*
X115926238Y-141823857D01*
X115926238Y-141823857D02*
X115878619Y-141919095D01*
X115878619Y-141919095D02*
X115878619Y-142014333D01*
X115878619Y-142014333D02*
X115926238Y-142109571D01*
X115926238Y-142109571D02*
X115973857Y-142157190D01*
X115973857Y-142157190D02*
X116069095Y-142204809D01*
X116069095Y-142204809D02*
X116259571Y-142252428D01*
X116259571Y-142252428D02*
X116354809Y-142300047D01*
X116354809Y-142300047D02*
X116402428Y-142347666D01*
X116402428Y-142347666D02*
X116450047Y-142442904D01*
X116450047Y-142442904D02*
X116450047Y-142538142D01*
X116450047Y-142538142D02*
X116402428Y-142633380D01*
X116402428Y-142633380D02*
X116354809Y-142681000D01*
X116354809Y-142681000D02*
X116259571Y-142728619D01*
X116259571Y-142728619D02*
X116021476Y-142728619D01*
X116021476Y-142728619D02*
X115878619Y-142681000D01*
X115592904Y-142728619D02*
X115021476Y-142728619D01*
X115307190Y-141728619D02*
X115307190Y-142728619D01*
X120364333Y-141108619D02*
X120554809Y-141108619D01*
X120554809Y-141108619D02*
X120650047Y-141061000D01*
X120650047Y-141061000D02*
X120697666Y-141013380D01*
X120697666Y-141013380D02*
X120792904Y-140870523D01*
X120792904Y-140870523D02*
X120840523Y-140680047D01*
X120840523Y-140680047D02*
X120840523Y-140299095D01*
X120840523Y-140299095D02*
X120792904Y-140203857D01*
X120792904Y-140203857D02*
X120745285Y-140156238D01*
X120745285Y-140156238D02*
X120650047Y-140108619D01*
X120650047Y-140108619D02*
X120459571Y-140108619D01*
X120459571Y-140108619D02*
X120364333Y-140156238D01*
X120364333Y-140156238D02*
X120316714Y-140203857D01*
X120316714Y-140203857D02*
X120269095Y-140299095D01*
X120269095Y-140299095D02*
X120269095Y-140537190D01*
X120269095Y-140537190D02*
X120316714Y-140632428D01*
X120316714Y-140632428D02*
X120364333Y-140680047D01*
X120364333Y-140680047D02*
X120459571Y-140727666D01*
X120459571Y-140727666D02*
X120650047Y-140727666D01*
X120650047Y-140727666D02*
X120745285Y-140680047D01*
X120745285Y-140680047D02*
X120792904Y-140632428D01*
X120792904Y-140632428D02*
X120840523Y-140537190D01*
X119240523Y-140489571D02*
X118478619Y-140489571D01*
X117069095Y-140632428D02*
X117402428Y-140632428D01*
X117402428Y-140108619D02*
X117402428Y-141108619D01*
X117402428Y-141108619D02*
X116926238Y-141108619D01*
X116069095Y-140108619D02*
X116545285Y-140108619D01*
X116545285Y-140108619D02*
X116545285Y-141108619D01*
X167721666Y-133667523D02*
X167721666Y-133191333D01*
X168007380Y-133762761D02*
X167007380Y-133429428D01*
X167007380Y-133429428D02*
X168007380Y-133096095D01*
X168007380Y-132762761D02*
X167007380Y-132762761D01*
X168007380Y-131762762D02*
X168007380Y-132334190D01*
X168007380Y-132048476D02*
X167007380Y-132048476D01*
X167007380Y-132048476D02*
X167150238Y-132143714D01*
X167150238Y-132143714D02*
X167245476Y-132238952D01*
X167245476Y-132238952D02*
X167293095Y-132334190D01*
X167721666Y-130181809D02*
X167721666Y-129705619D01*
X168007380Y-130277047D02*
X167007380Y-129943714D01*
X167007380Y-129943714D02*
X168007380Y-129610381D01*
X168007380Y-129277047D02*
X167007380Y-129277047D01*
X167007380Y-128610381D02*
X167007380Y-128515143D01*
X167007380Y-128515143D02*
X167055000Y-128419905D01*
X167055000Y-128419905D02*
X167102619Y-128372286D01*
X167102619Y-128372286D02*
X167197857Y-128324667D01*
X167197857Y-128324667D02*
X167388333Y-128277048D01*
X167388333Y-128277048D02*
X167626428Y-128277048D01*
X167626428Y-128277048D02*
X167816904Y-128324667D01*
X167816904Y-128324667D02*
X167912142Y-128372286D01*
X167912142Y-128372286D02*
X167959761Y-128419905D01*
X167959761Y-128419905D02*
X168007380Y-128515143D01*
X168007380Y-128515143D02*
X168007380Y-128610381D01*
X168007380Y-128610381D02*
X167959761Y-128705619D01*
X167959761Y-128705619D02*
X167912142Y-128753238D01*
X167912142Y-128753238D02*
X167816904Y-128800857D01*
X167816904Y-128800857D02*
X167626428Y-128848476D01*
X167626428Y-128848476D02*
X167388333Y-128848476D01*
X167388333Y-128848476D02*
X167197857Y-128800857D01*
X167197857Y-128800857D02*
X167102619Y-128753238D01*
X167102619Y-128753238D02*
X167055000Y-128705619D01*
X167055000Y-128705619D02*
X167007380Y-128610381D01*
X167055000Y-126124667D02*
X167007380Y-126219905D01*
X167007380Y-126219905D02*
X167007380Y-126362762D01*
X167007380Y-126362762D02*
X167055000Y-126505619D01*
X167055000Y-126505619D02*
X167150238Y-126600857D01*
X167150238Y-126600857D02*
X167245476Y-126648476D01*
X167245476Y-126648476D02*
X167435952Y-126696095D01*
X167435952Y-126696095D02*
X167578809Y-126696095D01*
X167578809Y-126696095D02*
X167769285Y-126648476D01*
X167769285Y-126648476D02*
X167864523Y-126600857D01*
X167864523Y-126600857D02*
X167959761Y-126505619D01*
X167959761Y-126505619D02*
X168007380Y-126362762D01*
X168007380Y-126362762D02*
X168007380Y-126267524D01*
X168007380Y-126267524D02*
X167959761Y-126124667D01*
X167959761Y-126124667D02*
X167912142Y-126077048D01*
X167912142Y-126077048D02*
X167578809Y-126077048D01*
X167578809Y-126077048D02*
X167578809Y-126267524D01*
X168007380Y-125648476D02*
X167007380Y-125648476D01*
X167007380Y-125648476D02*
X168007380Y-125077048D01*
X168007380Y-125077048D02*
X167007380Y-125077048D01*
X168007380Y-124600857D02*
X167007380Y-124600857D01*
X167007380Y-124600857D02*
X167007380Y-124362762D01*
X167007380Y-124362762D02*
X167055000Y-124219905D01*
X167055000Y-124219905D02*
X167150238Y-124124667D01*
X167150238Y-124124667D02*
X167245476Y-124077048D01*
X167245476Y-124077048D02*
X167435952Y-124029429D01*
X167435952Y-124029429D02*
X167578809Y-124029429D01*
X167578809Y-124029429D02*
X167769285Y-124077048D01*
X167769285Y-124077048D02*
X167864523Y-124124667D01*
X167864523Y-124124667D02*
X167959761Y-124219905D01*
X167959761Y-124219905D02*
X168007380Y-124362762D01*
X168007380Y-124362762D02*
X168007380Y-124600857D01*
X167007380Y-123143714D02*
X168007380Y-122810381D01*
X168007380Y-122810381D02*
X167007380Y-122477048D01*
X167912142Y-121572286D02*
X167959761Y-121619905D01*
X167959761Y-121619905D02*
X168007380Y-121762762D01*
X168007380Y-121762762D02*
X168007380Y-121858000D01*
X168007380Y-121858000D02*
X167959761Y-122000857D01*
X167959761Y-122000857D02*
X167864523Y-122096095D01*
X167864523Y-122096095D02*
X167769285Y-122143714D01*
X167769285Y-122143714D02*
X167578809Y-122191333D01*
X167578809Y-122191333D02*
X167435952Y-122191333D01*
X167435952Y-122191333D02*
X167245476Y-122143714D01*
X167245476Y-122143714D02*
X167150238Y-122096095D01*
X167150238Y-122096095D02*
X167055000Y-122000857D01*
X167055000Y-122000857D02*
X167007380Y-121858000D01*
X167007380Y-121858000D02*
X167007380Y-121762762D01*
X167007380Y-121762762D02*
X167055000Y-121619905D01*
X167055000Y-121619905D02*
X167102619Y-121572286D01*
X167912142Y-120572286D02*
X167959761Y-120619905D01*
X167959761Y-120619905D02*
X168007380Y-120762762D01*
X168007380Y-120762762D02*
X168007380Y-120858000D01*
X168007380Y-120858000D02*
X167959761Y-121000857D01*
X167959761Y-121000857D02*
X167864523Y-121096095D01*
X167864523Y-121096095D02*
X167769285Y-121143714D01*
X167769285Y-121143714D02*
X167578809Y-121191333D01*
X167578809Y-121191333D02*
X167435952Y-121191333D01*
X167435952Y-121191333D02*
X167245476Y-121143714D01*
X167245476Y-121143714D02*
X167150238Y-121096095D01*
X167150238Y-121096095D02*
X167055000Y-121000857D01*
X167055000Y-121000857D02*
X167007380Y-120858000D01*
X167007380Y-120858000D02*
X167007380Y-120762762D01*
X167007380Y-120762762D02*
X167055000Y-120619905D01*
X167055000Y-120619905D02*
X167102619Y-120572286D01*
X167594666Y-116776523D02*
X167594666Y-116300333D01*
X167880380Y-116871761D02*
X166880380Y-116538428D01*
X166880380Y-116538428D02*
X167880380Y-116205095D01*
X167880380Y-115871761D02*
X166880380Y-115871761D01*
X166880380Y-115490809D02*
X166880380Y-114871762D01*
X166880380Y-114871762D02*
X167261333Y-115205095D01*
X167261333Y-115205095D02*
X167261333Y-115062238D01*
X167261333Y-115062238D02*
X167308952Y-114967000D01*
X167308952Y-114967000D02*
X167356571Y-114919381D01*
X167356571Y-114919381D02*
X167451809Y-114871762D01*
X167451809Y-114871762D02*
X167689904Y-114871762D01*
X167689904Y-114871762D02*
X167785142Y-114919381D01*
X167785142Y-114919381D02*
X167832761Y-114967000D01*
X167832761Y-114967000D02*
X167880380Y-115062238D01*
X167880380Y-115062238D02*
X167880380Y-115347952D01*
X167880380Y-115347952D02*
X167832761Y-115443190D01*
X167832761Y-115443190D02*
X167785142Y-115490809D01*
X167594666Y-113290809D02*
X167594666Y-112814619D01*
X167880380Y-113386047D02*
X166880380Y-113052714D01*
X166880380Y-113052714D02*
X167880380Y-112719381D01*
X167880380Y-112386047D02*
X166880380Y-112386047D01*
X166975619Y-111957476D02*
X166928000Y-111909857D01*
X166928000Y-111909857D02*
X166880380Y-111814619D01*
X166880380Y-111814619D02*
X166880380Y-111576524D01*
X166880380Y-111576524D02*
X166928000Y-111481286D01*
X166928000Y-111481286D02*
X166975619Y-111433667D01*
X166975619Y-111433667D02*
X167070857Y-111386048D01*
X167070857Y-111386048D02*
X167166095Y-111386048D01*
X167166095Y-111386048D02*
X167308952Y-111433667D01*
X167308952Y-111433667D02*
X167880380Y-112005095D01*
X167880380Y-112005095D02*
X167880380Y-111386048D01*
X166928000Y-109233667D02*
X166880380Y-109328905D01*
X166880380Y-109328905D02*
X166880380Y-109471762D01*
X166880380Y-109471762D02*
X166928000Y-109614619D01*
X166928000Y-109614619D02*
X167023238Y-109709857D01*
X167023238Y-109709857D02*
X167118476Y-109757476D01*
X167118476Y-109757476D02*
X167308952Y-109805095D01*
X167308952Y-109805095D02*
X167451809Y-109805095D01*
X167451809Y-109805095D02*
X167642285Y-109757476D01*
X167642285Y-109757476D02*
X167737523Y-109709857D01*
X167737523Y-109709857D02*
X167832761Y-109614619D01*
X167832761Y-109614619D02*
X167880380Y-109471762D01*
X167880380Y-109471762D02*
X167880380Y-109376524D01*
X167880380Y-109376524D02*
X167832761Y-109233667D01*
X167832761Y-109233667D02*
X167785142Y-109186048D01*
X167785142Y-109186048D02*
X167451809Y-109186048D01*
X167451809Y-109186048D02*
X167451809Y-109376524D01*
X167880380Y-108757476D02*
X166880380Y-108757476D01*
X166880380Y-108757476D02*
X167880380Y-108186048D01*
X167880380Y-108186048D02*
X166880380Y-108186048D01*
X167880380Y-107709857D02*
X166880380Y-107709857D01*
X166880380Y-107709857D02*
X166880380Y-107471762D01*
X166880380Y-107471762D02*
X166928000Y-107328905D01*
X166928000Y-107328905D02*
X167023238Y-107233667D01*
X167023238Y-107233667D02*
X167118476Y-107186048D01*
X167118476Y-107186048D02*
X167308952Y-107138429D01*
X167308952Y-107138429D02*
X167451809Y-107138429D01*
X167451809Y-107138429D02*
X167642285Y-107186048D01*
X167642285Y-107186048D02*
X167737523Y-107233667D01*
X167737523Y-107233667D02*
X167832761Y-107328905D01*
X167832761Y-107328905D02*
X167880380Y-107471762D01*
X167880380Y-107471762D02*
X167880380Y-107709857D01*
X166880380Y-106252714D02*
X167880380Y-105919381D01*
X167880380Y-105919381D02*
X166880380Y-105586048D01*
X167785142Y-104681286D02*
X167832761Y-104728905D01*
X167832761Y-104728905D02*
X167880380Y-104871762D01*
X167880380Y-104871762D02*
X167880380Y-104967000D01*
X167880380Y-104967000D02*
X167832761Y-105109857D01*
X167832761Y-105109857D02*
X167737523Y-105205095D01*
X167737523Y-105205095D02*
X167642285Y-105252714D01*
X167642285Y-105252714D02*
X167451809Y-105300333D01*
X167451809Y-105300333D02*
X167308952Y-105300333D01*
X167308952Y-105300333D02*
X167118476Y-105252714D01*
X167118476Y-105252714D02*
X167023238Y-105205095D01*
X167023238Y-105205095D02*
X166928000Y-105109857D01*
X166928000Y-105109857D02*
X166880380Y-104967000D01*
X166880380Y-104967000D02*
X166880380Y-104871762D01*
X166880380Y-104871762D02*
X166928000Y-104728905D01*
X166928000Y-104728905D02*
X166975619Y-104681286D01*
X167785142Y-103681286D02*
X167832761Y-103728905D01*
X167832761Y-103728905D02*
X167880380Y-103871762D01*
X167880380Y-103871762D02*
X167880380Y-103967000D01*
X167880380Y-103967000D02*
X167832761Y-104109857D01*
X167832761Y-104109857D02*
X167737523Y-104205095D01*
X167737523Y-104205095D02*
X167642285Y-104252714D01*
X167642285Y-104252714D02*
X167451809Y-104300333D01*
X167451809Y-104300333D02*
X167308952Y-104300333D01*
X167308952Y-104300333D02*
X167118476Y-104252714D01*
X167118476Y-104252714D02*
X167023238Y-104205095D01*
X167023238Y-104205095D02*
X166928000Y-104109857D01*
X166928000Y-104109857D02*
X166880380Y-103967000D01*
X166880380Y-103967000D02*
X166880380Y-103871762D01*
X166880380Y-103871762D02*
X166928000Y-103728905D01*
X166928000Y-103728905D02*
X166975619Y-103681286D01*
X94899619Y-131571904D02*
X94899619Y-131000476D01*
X94899619Y-131286190D02*
X95899619Y-131286190D01*
X95899619Y-131286190D02*
X95756761Y-131190952D01*
X95756761Y-131190952D02*
X95661523Y-131095714D01*
X95661523Y-131095714D02*
X95613904Y-131000476D01*
X95899619Y-131905238D02*
X94899619Y-132143333D01*
X94899619Y-132143333D02*
X95613904Y-132333809D01*
X95613904Y-132333809D02*
X94899619Y-132524285D01*
X94899619Y-132524285D02*
X95899619Y-132762381D01*
X94899619Y-133143333D02*
X95566285Y-133143333D01*
X95899619Y-133143333D02*
X95852000Y-133095714D01*
X95852000Y-133095714D02*
X95804380Y-133143333D01*
X95804380Y-133143333D02*
X95852000Y-133190952D01*
X95852000Y-133190952D02*
X95899619Y-133143333D01*
X95899619Y-133143333D02*
X95804380Y-133143333D01*
X94899619Y-133619523D02*
X95566285Y-133619523D01*
X95375809Y-133619523D02*
X95471047Y-133667142D01*
X95471047Y-133667142D02*
X95518666Y-133714761D01*
X95518666Y-133714761D02*
X95566285Y-133809999D01*
X95566285Y-133809999D02*
X95566285Y-133905237D01*
X94947238Y-134619523D02*
X94899619Y-134524285D01*
X94899619Y-134524285D02*
X94899619Y-134333809D01*
X94899619Y-134333809D02*
X94947238Y-134238571D01*
X94947238Y-134238571D02*
X95042476Y-134190952D01*
X95042476Y-134190952D02*
X95423428Y-134190952D01*
X95423428Y-134190952D02*
X95518666Y-134238571D01*
X95518666Y-134238571D02*
X95566285Y-134333809D01*
X95566285Y-134333809D02*
X95566285Y-134524285D01*
X95566285Y-134524285D02*
X95518666Y-134619523D01*
X95518666Y-134619523D02*
X95423428Y-134667142D01*
X95423428Y-134667142D02*
X95328190Y-134667142D01*
X95328190Y-134667142D02*
X95232952Y-134190952D01*
X93279619Y-131571904D02*
X93279619Y-131000476D01*
X93279619Y-131286190D02*
X94279619Y-131286190D01*
X94279619Y-131286190D02*
X94136761Y-131190952D01*
X94136761Y-131190952D02*
X94041523Y-131095714D01*
X94041523Y-131095714D02*
X93993904Y-131000476D01*
X93803428Y-132600476D02*
X93803428Y-133362381D01*
X93517714Y-133362381D02*
X93517714Y-132600476D01*
X93660571Y-134438571D02*
X93660571Y-135200476D01*
X93279619Y-134819523D02*
X94041523Y-134819523D01*
X94279619Y-135581428D02*
X94279619Y-136200475D01*
X94279619Y-136200475D02*
X93898666Y-135867142D01*
X93898666Y-135867142D02*
X93898666Y-136009999D01*
X93898666Y-136009999D02*
X93851047Y-136105237D01*
X93851047Y-136105237D02*
X93803428Y-136152856D01*
X93803428Y-136152856D02*
X93708190Y-136200475D01*
X93708190Y-136200475D02*
X93470095Y-136200475D01*
X93470095Y-136200475D02*
X93374857Y-136152856D01*
X93374857Y-136152856D02*
X93327238Y-136105237D01*
X93327238Y-136105237D02*
X93279619Y-136009999D01*
X93279619Y-136009999D02*
X93279619Y-135724285D01*
X93279619Y-135724285D02*
X93327238Y-135629047D01*
X93327238Y-135629047D02*
X93374857Y-135581428D01*
X94279619Y-136486190D02*
X93279619Y-136819523D01*
X93279619Y-136819523D02*
X94279619Y-137152856D01*
X94279619Y-137390952D02*
X94279619Y-138009999D01*
X94279619Y-138009999D02*
X93898666Y-137676666D01*
X93898666Y-137676666D02*
X93898666Y-137819523D01*
X93898666Y-137819523D02*
X93851047Y-137914761D01*
X93851047Y-137914761D02*
X93803428Y-137962380D01*
X93803428Y-137962380D02*
X93708190Y-138009999D01*
X93708190Y-138009999D02*
X93470095Y-138009999D01*
X93470095Y-138009999D02*
X93374857Y-137962380D01*
X93374857Y-137962380D02*
X93327238Y-137914761D01*
X93327238Y-137914761D02*
X93279619Y-137819523D01*
X93279619Y-137819523D02*
X93279619Y-137533809D01*
X93279619Y-137533809D02*
X93327238Y-137438571D01*
X93327238Y-137438571D02*
X93374857Y-137390952D01*
X92564380Y-131000476D02*
X92612000Y-131048095D01*
X92612000Y-131048095D02*
X92659619Y-131143333D01*
X92659619Y-131143333D02*
X92659619Y-131381428D01*
X92659619Y-131381428D02*
X92612000Y-131476666D01*
X92612000Y-131476666D02*
X92564380Y-131524285D01*
X92564380Y-131524285D02*
X92469142Y-131571904D01*
X92469142Y-131571904D02*
X92373904Y-131571904D01*
X92373904Y-131571904D02*
X92231047Y-131524285D01*
X92231047Y-131524285D02*
X91659619Y-130952857D01*
X91659619Y-130952857D02*
X91659619Y-131571904D01*
X92183428Y-132600476D02*
X92183428Y-133362381D01*
X91897714Y-133362381D02*
X91897714Y-132600476D01*
X92612000Y-134962380D02*
X92659619Y-134867142D01*
X92659619Y-134867142D02*
X92659619Y-134724285D01*
X92659619Y-134724285D02*
X92612000Y-134581428D01*
X92612000Y-134581428D02*
X92516761Y-134486190D01*
X92516761Y-134486190D02*
X92421523Y-134438571D01*
X92421523Y-134438571D02*
X92231047Y-134390952D01*
X92231047Y-134390952D02*
X92088190Y-134390952D01*
X92088190Y-134390952D02*
X91897714Y-134438571D01*
X91897714Y-134438571D02*
X91802476Y-134486190D01*
X91802476Y-134486190D02*
X91707238Y-134581428D01*
X91707238Y-134581428D02*
X91659619Y-134724285D01*
X91659619Y-134724285D02*
X91659619Y-134819523D01*
X91659619Y-134819523D02*
X91707238Y-134962380D01*
X91707238Y-134962380D02*
X91754857Y-135009999D01*
X91754857Y-135009999D02*
X92088190Y-135009999D01*
X92088190Y-135009999D02*
X92088190Y-134819523D01*
X91659619Y-135438571D02*
X92659619Y-135438571D01*
X92659619Y-135438571D02*
X91659619Y-136009999D01*
X91659619Y-136009999D02*
X92659619Y-136009999D01*
X91659619Y-136486190D02*
X92659619Y-136486190D01*
X92659619Y-136486190D02*
X92659619Y-136724285D01*
X92659619Y-136724285D02*
X92612000Y-136867142D01*
X92612000Y-136867142D02*
X92516761Y-136962380D01*
X92516761Y-136962380D02*
X92421523Y-137009999D01*
X92421523Y-137009999D02*
X92231047Y-137057618D01*
X92231047Y-137057618D02*
X92088190Y-137057618D01*
X92088190Y-137057618D02*
X91897714Y-137009999D01*
X91897714Y-137009999D02*
X91802476Y-136962380D01*
X91802476Y-136962380D02*
X91707238Y-136867142D01*
X91707238Y-136867142D02*
X91659619Y-136724285D01*
X91659619Y-136724285D02*
X91659619Y-136486190D01*
X91039619Y-130952857D02*
X91039619Y-131571904D01*
X91039619Y-131571904D02*
X90658666Y-131238571D01*
X90658666Y-131238571D02*
X90658666Y-131381428D01*
X90658666Y-131381428D02*
X90611047Y-131476666D01*
X90611047Y-131476666D02*
X90563428Y-131524285D01*
X90563428Y-131524285D02*
X90468190Y-131571904D01*
X90468190Y-131571904D02*
X90230095Y-131571904D01*
X90230095Y-131571904D02*
X90134857Y-131524285D01*
X90134857Y-131524285D02*
X90087238Y-131476666D01*
X90087238Y-131476666D02*
X90039619Y-131381428D01*
X90039619Y-131381428D02*
X90039619Y-131095714D01*
X90039619Y-131095714D02*
X90087238Y-131000476D01*
X90087238Y-131000476D02*
X90134857Y-130952857D01*
X90563428Y-132600476D02*
X90563428Y-133362381D01*
X90277714Y-133362381D02*
X90277714Y-132600476D01*
X90039619Y-134438571D02*
X91039619Y-134438571D01*
X91039619Y-134438571D02*
X91039619Y-134676666D01*
X91039619Y-134676666D02*
X90992000Y-134819523D01*
X90992000Y-134819523D02*
X90896761Y-134914761D01*
X90896761Y-134914761D02*
X90801523Y-134962380D01*
X90801523Y-134962380D02*
X90611047Y-135009999D01*
X90611047Y-135009999D02*
X90468190Y-135009999D01*
X90468190Y-135009999D02*
X90277714Y-134962380D01*
X90277714Y-134962380D02*
X90182476Y-134914761D01*
X90182476Y-134914761D02*
X90087238Y-134819523D01*
X90087238Y-134819523D02*
X90039619Y-134676666D01*
X90039619Y-134676666D02*
X90039619Y-134438571D01*
X90325333Y-135390952D02*
X90325333Y-135867142D01*
X90039619Y-135295714D02*
X91039619Y-135629047D01*
X91039619Y-135629047D02*
X90039619Y-135962380D01*
X91039619Y-136152857D02*
X91039619Y-136724285D01*
X90039619Y-136438571D02*
X91039619Y-136438571D01*
X90325333Y-137010000D02*
X90325333Y-137486190D01*
X90039619Y-136914762D02*
X91039619Y-137248095D01*
X91039619Y-137248095D02*
X90039619Y-137581428D01*
X89294619Y-97012095D02*
X90294619Y-97012095D01*
X90294619Y-97012095D02*
X89294619Y-97583523D01*
X89294619Y-97583523D02*
X90294619Y-97583523D01*
X97152619Y-140557238D02*
X96152619Y-140890571D01*
X96152619Y-140890571D02*
X97152619Y-141223904D01*
X96247857Y-142128666D02*
X96200238Y-142081047D01*
X96200238Y-142081047D02*
X96152619Y-141938190D01*
X96152619Y-141938190D02*
X96152619Y-141842952D01*
X96152619Y-141842952D02*
X96200238Y-141700095D01*
X96200238Y-141700095D02*
X96295476Y-141604857D01*
X96295476Y-141604857D02*
X96390714Y-141557238D01*
X96390714Y-141557238D02*
X96581190Y-141509619D01*
X96581190Y-141509619D02*
X96724047Y-141509619D01*
X96724047Y-141509619D02*
X96914523Y-141557238D01*
X96914523Y-141557238D02*
X97009761Y-141604857D01*
X97009761Y-141604857D02*
X97105000Y-141700095D01*
X97105000Y-141700095D02*
X97152619Y-141842952D01*
X97152619Y-141842952D02*
X97152619Y-141938190D01*
X97152619Y-141938190D02*
X97105000Y-142081047D01*
X97105000Y-142081047D02*
X97057380Y-142128666D01*
X96247857Y-143128666D02*
X96200238Y-143081047D01*
X96200238Y-143081047D02*
X96152619Y-142938190D01*
X96152619Y-142938190D02*
X96152619Y-142842952D01*
X96152619Y-142842952D02*
X96200238Y-142700095D01*
X96200238Y-142700095D02*
X96295476Y-142604857D01*
X96295476Y-142604857D02*
X96390714Y-142557238D01*
X96390714Y-142557238D02*
X96581190Y-142509619D01*
X96581190Y-142509619D02*
X96724047Y-142509619D01*
X96724047Y-142509619D02*
X96914523Y-142557238D01*
X96914523Y-142557238D02*
X97009761Y-142604857D01*
X97009761Y-142604857D02*
X97105000Y-142700095D01*
X97105000Y-142700095D02*
X97152619Y-142842952D01*
X97152619Y-142842952D02*
X97152619Y-142938190D01*
X97152619Y-142938190D02*
X97105000Y-143081047D01*
X97105000Y-143081047D02*
X97057380Y-143128666D01*
X97105000Y-145281047D02*
X97152619Y-145185809D01*
X97152619Y-145185809D02*
X97152619Y-145042952D01*
X97152619Y-145042952D02*
X97105000Y-144900095D01*
X97105000Y-144900095D02*
X97009761Y-144804857D01*
X97009761Y-144804857D02*
X96914523Y-144757238D01*
X96914523Y-144757238D02*
X96724047Y-144709619D01*
X96724047Y-144709619D02*
X96581190Y-144709619D01*
X96581190Y-144709619D02*
X96390714Y-144757238D01*
X96390714Y-144757238D02*
X96295476Y-144804857D01*
X96295476Y-144804857D02*
X96200238Y-144900095D01*
X96200238Y-144900095D02*
X96152619Y-145042952D01*
X96152619Y-145042952D02*
X96152619Y-145138190D01*
X96152619Y-145138190D02*
X96200238Y-145281047D01*
X96200238Y-145281047D02*
X96247857Y-145328666D01*
X96247857Y-145328666D02*
X96581190Y-145328666D01*
X96581190Y-145328666D02*
X96581190Y-145138190D01*
X96819285Y-145757238D02*
X96152619Y-145757238D01*
X96724047Y-145757238D02*
X96771666Y-145804857D01*
X96771666Y-145804857D02*
X96819285Y-145900095D01*
X96819285Y-145900095D02*
X96819285Y-146042952D01*
X96819285Y-146042952D02*
X96771666Y-146138190D01*
X96771666Y-146138190D02*
X96676428Y-146185809D01*
X96676428Y-146185809D02*
X96152619Y-146185809D01*
X96152619Y-147090571D02*
X97152619Y-147090571D01*
X96200238Y-147090571D02*
X96152619Y-146995333D01*
X96152619Y-146995333D02*
X96152619Y-146804857D01*
X96152619Y-146804857D02*
X96200238Y-146709619D01*
X96200238Y-146709619D02*
X96247857Y-146662000D01*
X96247857Y-146662000D02*
X96343095Y-146614381D01*
X96343095Y-146614381D02*
X96628809Y-146614381D01*
X96628809Y-146614381D02*
X96724047Y-146662000D01*
X96724047Y-146662000D02*
X96771666Y-146709619D01*
X96771666Y-146709619D02*
X96819285Y-146804857D01*
X96819285Y-146804857D02*
X96819285Y-146995333D01*
X96819285Y-146995333D02*
X96771666Y-147090571D01*
X96152619Y-148690571D02*
X96152619Y-148119143D01*
X96152619Y-148404857D02*
X97152619Y-148404857D01*
X97152619Y-148404857D02*
X97009761Y-148309619D01*
X97009761Y-148309619D02*
X96914523Y-148214381D01*
X96914523Y-148214381D02*
X96866904Y-148119143D01*
X97152619Y-149023905D02*
X96152619Y-149262000D01*
X96152619Y-149262000D02*
X96866904Y-149452476D01*
X96866904Y-149452476D02*
X96152619Y-149642952D01*
X96152619Y-149642952D02*
X97152619Y-149881048D01*
D11*
X168785380Y-131397333D02*
X169499666Y-131397333D01*
X169499666Y-131397333D02*
X169642523Y-131444952D01*
X169642523Y-131444952D02*
X169737761Y-131540190D01*
X169737761Y-131540190D02*
X169785380Y-131683047D01*
X169785380Y-131683047D02*
X169785380Y-131778285D01*
X169785380Y-130873523D02*
X169785380Y-130683047D01*
X169785380Y-130683047D02*
X169737761Y-130587809D01*
X169737761Y-130587809D02*
X169690142Y-130540190D01*
X169690142Y-130540190D02*
X169547285Y-130444952D01*
X169547285Y-130444952D02*
X169356809Y-130397333D01*
X169356809Y-130397333D02*
X168975857Y-130397333D01*
X168975857Y-130397333D02*
X168880619Y-130444952D01*
X168880619Y-130444952D02*
X168833000Y-130492571D01*
X168833000Y-130492571D02*
X168785380Y-130587809D01*
X168785380Y-130587809D02*
X168785380Y-130778285D01*
X168785380Y-130778285D02*
X168833000Y-130873523D01*
X168833000Y-130873523D02*
X168880619Y-130921142D01*
X168880619Y-130921142D02*
X168975857Y-130968761D01*
X168975857Y-130968761D02*
X169213952Y-130968761D01*
X169213952Y-130968761D02*
X169309190Y-130921142D01*
X169309190Y-130921142D02*
X169356809Y-130873523D01*
X169356809Y-130873523D02*
X169404428Y-130778285D01*
X169404428Y-130778285D02*
X169404428Y-130587809D01*
X169404428Y-130587809D02*
X169356809Y-130492571D01*
X169356809Y-130492571D02*
X169309190Y-130444952D01*
X169309190Y-130444952D02*
X169213952Y-130397333D01*
D12*
X99018573Y-65193332D02*
X99925716Y-65193332D01*
X99925716Y-65193332D02*
X100107145Y-65253809D01*
X100107145Y-65253809D02*
X100228097Y-65374761D01*
X100228097Y-65374761D02*
X100288573Y-65556190D01*
X100288573Y-65556190D02*
X100288573Y-65677142D01*
X99139526Y-64649047D02*
X99079050Y-64588571D01*
X99079050Y-64588571D02*
X99018573Y-64467618D01*
X99018573Y-64467618D02*
X99018573Y-64165237D01*
X99018573Y-64165237D02*
X99079050Y-64044285D01*
X99079050Y-64044285D02*
X99139526Y-63983809D01*
X99139526Y-63983809D02*
X99260478Y-63923332D01*
X99260478Y-63923332D02*
X99381430Y-63923332D01*
X99381430Y-63923332D02*
X99562859Y-63983809D01*
X99562859Y-63983809D02*
X100288573Y-64709523D01*
X100288573Y-64709523D02*
X100288573Y-63923332D01*
D11*
X103909952Y-128389380D02*
X103576619Y-127913190D01*
X103338524Y-128389380D02*
X103338524Y-127389380D01*
X103338524Y-127389380D02*
X103719476Y-127389380D01*
X103719476Y-127389380D02*
X103814714Y-127437000D01*
X103814714Y-127437000D02*
X103862333Y-127484619D01*
X103862333Y-127484619D02*
X103909952Y-127579857D01*
X103909952Y-127579857D02*
X103909952Y-127722714D01*
X103909952Y-127722714D02*
X103862333Y-127817952D01*
X103862333Y-127817952D02*
X103814714Y-127865571D01*
X103814714Y-127865571D02*
X103719476Y-127913190D01*
X103719476Y-127913190D02*
X103338524Y-127913190D01*
X104290905Y-127484619D02*
X104338524Y-127437000D01*
X104338524Y-127437000D02*
X104433762Y-127389380D01*
X104433762Y-127389380D02*
X104671857Y-127389380D01*
X104671857Y-127389380D02*
X104767095Y-127437000D01*
X104767095Y-127437000D02*
X104814714Y-127484619D01*
X104814714Y-127484619D02*
X104862333Y-127579857D01*
X104862333Y-127579857D02*
X104862333Y-127675095D01*
X104862333Y-127675095D02*
X104814714Y-127817952D01*
X104814714Y-127817952D02*
X104243286Y-128389380D01*
X104243286Y-128389380D02*
X104862333Y-128389380D01*
X105481381Y-127389380D02*
X105576619Y-127389380D01*
X105576619Y-127389380D02*
X105671857Y-127437000D01*
X105671857Y-127437000D02*
X105719476Y-127484619D01*
X105719476Y-127484619D02*
X105767095Y-127579857D01*
X105767095Y-127579857D02*
X105814714Y-127770333D01*
X105814714Y-127770333D02*
X105814714Y-128008428D01*
X105814714Y-128008428D02*
X105767095Y-128198904D01*
X105767095Y-128198904D02*
X105719476Y-128294142D01*
X105719476Y-128294142D02*
X105671857Y-128341761D01*
X105671857Y-128341761D02*
X105576619Y-128389380D01*
X105576619Y-128389380D02*
X105481381Y-128389380D01*
X105481381Y-128389380D02*
X105386143Y-128341761D01*
X105386143Y-128341761D02*
X105338524Y-128294142D01*
X105338524Y-128294142D02*
X105290905Y-128198904D01*
X105290905Y-128198904D02*
X105243286Y-128008428D01*
X105243286Y-128008428D02*
X105243286Y-127770333D01*
X105243286Y-127770333D02*
X105290905Y-127579857D01*
X105290905Y-127579857D02*
X105338524Y-127484619D01*
X105338524Y-127484619D02*
X105386143Y-127437000D01*
X105386143Y-127437000D02*
X105481381Y-127389380D01*
X106148048Y-127389380D02*
X106814714Y-127389380D01*
X106814714Y-127389380D02*
X106386143Y-128389380D01*
X149725142Y-109841380D02*
X149391809Y-109365190D01*
X149153714Y-109841380D02*
X149153714Y-108841380D01*
X149153714Y-108841380D02*
X149534666Y-108841380D01*
X149534666Y-108841380D02*
X149629904Y-108889000D01*
X149629904Y-108889000D02*
X149677523Y-108936619D01*
X149677523Y-108936619D02*
X149725142Y-109031857D01*
X149725142Y-109031857D02*
X149725142Y-109174714D01*
X149725142Y-109174714D02*
X149677523Y-109269952D01*
X149677523Y-109269952D02*
X149629904Y-109317571D01*
X149629904Y-109317571D02*
X149534666Y-109365190D01*
X149534666Y-109365190D02*
X149153714Y-109365190D01*
X150677523Y-109841380D02*
X150106095Y-109841380D01*
X150391809Y-109841380D02*
X150391809Y-108841380D01*
X150391809Y-108841380D02*
X150296571Y-108984238D01*
X150296571Y-108984238D02*
X150201333Y-109079476D01*
X150201333Y-109079476D02*
X150106095Y-109127095D01*
X151248952Y-109269952D02*
X151153714Y-109222333D01*
X151153714Y-109222333D02*
X151106095Y-109174714D01*
X151106095Y-109174714D02*
X151058476Y-109079476D01*
X151058476Y-109079476D02*
X151058476Y-109031857D01*
X151058476Y-109031857D02*
X151106095Y-108936619D01*
X151106095Y-108936619D02*
X151153714Y-108889000D01*
X151153714Y-108889000D02*
X151248952Y-108841380D01*
X151248952Y-108841380D02*
X151439428Y-108841380D01*
X151439428Y-108841380D02*
X151534666Y-108889000D01*
X151534666Y-108889000D02*
X151582285Y-108936619D01*
X151582285Y-108936619D02*
X151629904Y-109031857D01*
X151629904Y-109031857D02*
X151629904Y-109079476D01*
X151629904Y-109079476D02*
X151582285Y-109174714D01*
X151582285Y-109174714D02*
X151534666Y-109222333D01*
X151534666Y-109222333D02*
X151439428Y-109269952D01*
X151439428Y-109269952D02*
X151248952Y-109269952D01*
X151248952Y-109269952D02*
X151153714Y-109317571D01*
X151153714Y-109317571D02*
X151106095Y-109365190D01*
X151106095Y-109365190D02*
X151058476Y-109460428D01*
X151058476Y-109460428D02*
X151058476Y-109650904D01*
X151058476Y-109650904D02*
X151106095Y-109746142D01*
X151106095Y-109746142D02*
X151153714Y-109793761D01*
X151153714Y-109793761D02*
X151248952Y-109841380D01*
X151248952Y-109841380D02*
X151439428Y-109841380D01*
X151439428Y-109841380D02*
X151534666Y-109793761D01*
X151534666Y-109793761D02*
X151582285Y-109746142D01*
X151582285Y-109746142D02*
X151629904Y-109650904D01*
X151629904Y-109650904D02*
X151629904Y-109460428D01*
X151629904Y-109460428D02*
X151582285Y-109365190D01*
X151582285Y-109365190D02*
X151534666Y-109317571D01*
X151534666Y-109317571D02*
X151439428Y-109269952D01*
X160152142Y-110127142D02*
X160104523Y-110174761D01*
X160104523Y-110174761D02*
X159961666Y-110222380D01*
X159961666Y-110222380D02*
X159866428Y-110222380D01*
X159866428Y-110222380D02*
X159723571Y-110174761D01*
X159723571Y-110174761D02*
X159628333Y-110079523D01*
X159628333Y-110079523D02*
X159580714Y-109984285D01*
X159580714Y-109984285D02*
X159533095Y-109793809D01*
X159533095Y-109793809D02*
X159533095Y-109650952D01*
X159533095Y-109650952D02*
X159580714Y-109460476D01*
X159580714Y-109460476D02*
X159628333Y-109365238D01*
X159628333Y-109365238D02*
X159723571Y-109270000D01*
X159723571Y-109270000D02*
X159866428Y-109222380D01*
X159866428Y-109222380D02*
X159961666Y-109222380D01*
X159961666Y-109222380D02*
X160104523Y-109270000D01*
X160104523Y-109270000D02*
X160152142Y-109317619D01*
X161104523Y-110222380D02*
X160533095Y-110222380D01*
X160818809Y-110222380D02*
X160818809Y-109222380D01*
X160818809Y-109222380D02*
X160723571Y-109365238D01*
X160723571Y-109365238D02*
X160628333Y-109460476D01*
X160628333Y-109460476D02*
X160533095Y-109508095D01*
X161485476Y-109317619D02*
X161533095Y-109270000D01*
X161533095Y-109270000D02*
X161628333Y-109222380D01*
X161628333Y-109222380D02*
X161866428Y-109222380D01*
X161866428Y-109222380D02*
X161961666Y-109270000D01*
X161961666Y-109270000D02*
X162009285Y-109317619D01*
X162009285Y-109317619D02*
X162056904Y-109412857D01*
X162056904Y-109412857D02*
X162056904Y-109508095D01*
X162056904Y-109508095D02*
X162009285Y-109650952D01*
X162009285Y-109650952D02*
X161437857Y-110222380D01*
X161437857Y-110222380D02*
X162056904Y-110222380D01*
X116355905Y-58660380D02*
X116355905Y-57660380D01*
X116927333Y-58660380D02*
X116498762Y-58088952D01*
X116927333Y-57660380D02*
X116355905Y-58231809D01*
X117879714Y-58660380D02*
X117308286Y-58660380D01*
X117594000Y-58660380D02*
X117594000Y-57660380D01*
X117594000Y-57660380D02*
X117498762Y-57803238D01*
X117498762Y-57803238D02*
X117403524Y-57898476D01*
X117403524Y-57898476D02*
X117308286Y-57946095D01*
X160139142Y-108698380D02*
X159805809Y-108222190D01*
X159567714Y-108698380D02*
X159567714Y-107698380D01*
X159567714Y-107698380D02*
X159948666Y-107698380D01*
X159948666Y-107698380D02*
X160043904Y-107746000D01*
X160043904Y-107746000D02*
X160091523Y-107793619D01*
X160091523Y-107793619D02*
X160139142Y-107888857D01*
X160139142Y-107888857D02*
X160139142Y-108031714D01*
X160139142Y-108031714D02*
X160091523Y-108126952D01*
X160091523Y-108126952D02*
X160043904Y-108174571D01*
X160043904Y-108174571D02*
X159948666Y-108222190D01*
X159948666Y-108222190D02*
X159567714Y-108222190D01*
X161091523Y-108698380D02*
X160520095Y-108698380D01*
X160805809Y-108698380D02*
X160805809Y-107698380D01*
X160805809Y-107698380D02*
X160710571Y-107841238D01*
X160710571Y-107841238D02*
X160615333Y-107936476D01*
X160615333Y-107936476D02*
X160520095Y-107984095D01*
X161424857Y-107698380D02*
X162091523Y-107698380D01*
X162091523Y-107698380D02*
X161662952Y-108698380D01*
X159881142Y-116240142D02*
X159833523Y-116287761D01*
X159833523Y-116287761D02*
X159690666Y-116335380D01*
X159690666Y-116335380D02*
X159595428Y-116335380D01*
X159595428Y-116335380D02*
X159452571Y-116287761D01*
X159452571Y-116287761D02*
X159357333Y-116192523D01*
X159357333Y-116192523D02*
X159309714Y-116097285D01*
X159309714Y-116097285D02*
X159262095Y-115906809D01*
X159262095Y-115906809D02*
X159262095Y-115763952D01*
X159262095Y-115763952D02*
X159309714Y-115573476D01*
X159309714Y-115573476D02*
X159357333Y-115478238D01*
X159357333Y-115478238D02*
X159452571Y-115383000D01*
X159452571Y-115383000D02*
X159595428Y-115335380D01*
X159595428Y-115335380D02*
X159690666Y-115335380D01*
X159690666Y-115335380D02*
X159833523Y-115383000D01*
X159833523Y-115383000D02*
X159881142Y-115430619D01*
X160833523Y-116335380D02*
X160262095Y-116335380D01*
X160547809Y-116335380D02*
X160547809Y-115335380D01*
X160547809Y-115335380D02*
X160452571Y-115478238D01*
X160452571Y-115478238D02*
X160357333Y-115573476D01*
X160357333Y-115573476D02*
X160262095Y-115621095D01*
X161166857Y-115335380D02*
X161785904Y-115335380D01*
X161785904Y-115335380D02*
X161452571Y-115716333D01*
X161452571Y-115716333D02*
X161595428Y-115716333D01*
X161595428Y-115716333D02*
X161690666Y-115763952D01*
X161690666Y-115763952D02*
X161738285Y-115811571D01*
X161738285Y-115811571D02*
X161785904Y-115906809D01*
X161785904Y-115906809D02*
X161785904Y-116144904D01*
X161785904Y-116144904D02*
X161738285Y-116240142D01*
X161738285Y-116240142D02*
X161690666Y-116287761D01*
X161690666Y-116287761D02*
X161595428Y-116335380D01*
X161595428Y-116335380D02*
X161309714Y-116335380D01*
X161309714Y-116335380D02*
X161214476Y-116287761D01*
X161214476Y-116287761D02*
X161166857Y-116240142D01*
X139559380Y-119635166D02*
X139083190Y-119968499D01*
X139559380Y-120206594D02*
X138559380Y-120206594D01*
X138559380Y-120206594D02*
X138559380Y-119825642D01*
X138559380Y-119825642D02*
X138607000Y-119730404D01*
X138607000Y-119730404D02*
X138654619Y-119682785D01*
X138654619Y-119682785D02*
X138749857Y-119635166D01*
X138749857Y-119635166D02*
X138892714Y-119635166D01*
X138892714Y-119635166D02*
X138987952Y-119682785D01*
X138987952Y-119682785D02*
X139035571Y-119730404D01*
X139035571Y-119730404D02*
X139083190Y-119825642D01*
X139083190Y-119825642D02*
X139083190Y-120206594D01*
X139559380Y-119158975D02*
X139559380Y-118968499D01*
X139559380Y-118968499D02*
X139511761Y-118873261D01*
X139511761Y-118873261D02*
X139464142Y-118825642D01*
X139464142Y-118825642D02*
X139321285Y-118730404D01*
X139321285Y-118730404D02*
X139130809Y-118682785D01*
X139130809Y-118682785D02*
X138749857Y-118682785D01*
X138749857Y-118682785D02*
X138654619Y-118730404D01*
X138654619Y-118730404D02*
X138607000Y-118778023D01*
X138607000Y-118778023D02*
X138559380Y-118873261D01*
X138559380Y-118873261D02*
X138559380Y-119063737D01*
X138559380Y-119063737D02*
X138607000Y-119158975D01*
X138607000Y-119158975D02*
X138654619Y-119206594D01*
X138654619Y-119206594D02*
X138749857Y-119254213D01*
X138749857Y-119254213D02*
X138987952Y-119254213D01*
X138987952Y-119254213D02*
X139083190Y-119206594D01*
X139083190Y-119206594D02*
X139130809Y-119158975D01*
X139130809Y-119158975D02*
X139178428Y-119063737D01*
X139178428Y-119063737D02*
X139178428Y-118873261D01*
X139178428Y-118873261D02*
X139130809Y-118778023D01*
X139130809Y-118778023D02*
X139083190Y-118730404D01*
X139083190Y-118730404D02*
X138987952Y-118682785D01*
X159885142Y-114699142D02*
X159837523Y-114746761D01*
X159837523Y-114746761D02*
X159694666Y-114794380D01*
X159694666Y-114794380D02*
X159599428Y-114794380D01*
X159599428Y-114794380D02*
X159456571Y-114746761D01*
X159456571Y-114746761D02*
X159361333Y-114651523D01*
X159361333Y-114651523D02*
X159313714Y-114556285D01*
X159313714Y-114556285D02*
X159266095Y-114365809D01*
X159266095Y-114365809D02*
X159266095Y-114222952D01*
X159266095Y-114222952D02*
X159313714Y-114032476D01*
X159313714Y-114032476D02*
X159361333Y-113937238D01*
X159361333Y-113937238D02*
X159456571Y-113842000D01*
X159456571Y-113842000D02*
X159599428Y-113794380D01*
X159599428Y-113794380D02*
X159694666Y-113794380D01*
X159694666Y-113794380D02*
X159837523Y-113842000D01*
X159837523Y-113842000D02*
X159885142Y-113889619D01*
X160837523Y-114794380D02*
X160266095Y-114794380D01*
X160551809Y-114794380D02*
X160551809Y-113794380D01*
X160551809Y-113794380D02*
X160456571Y-113937238D01*
X160456571Y-113937238D02*
X160361333Y-114032476D01*
X160361333Y-114032476D02*
X160266095Y-114080095D01*
X161694666Y-114127714D02*
X161694666Y-114794380D01*
X161456571Y-113746761D02*
X161218476Y-114461047D01*
X161218476Y-114461047D02*
X161837523Y-114461047D01*
X155053380Y-120657857D02*
X154577190Y-120991190D01*
X155053380Y-121229285D02*
X154053380Y-121229285D01*
X154053380Y-121229285D02*
X154053380Y-120848333D01*
X154053380Y-120848333D02*
X154101000Y-120753095D01*
X154101000Y-120753095D02*
X154148619Y-120705476D01*
X154148619Y-120705476D02*
X154243857Y-120657857D01*
X154243857Y-120657857D02*
X154386714Y-120657857D01*
X154386714Y-120657857D02*
X154481952Y-120705476D01*
X154481952Y-120705476D02*
X154529571Y-120753095D01*
X154529571Y-120753095D02*
X154577190Y-120848333D01*
X154577190Y-120848333D02*
X154577190Y-121229285D01*
X154148619Y-120276904D02*
X154101000Y-120229285D01*
X154101000Y-120229285D02*
X154053380Y-120134047D01*
X154053380Y-120134047D02*
X154053380Y-119895952D01*
X154053380Y-119895952D02*
X154101000Y-119800714D01*
X154101000Y-119800714D02*
X154148619Y-119753095D01*
X154148619Y-119753095D02*
X154243857Y-119705476D01*
X154243857Y-119705476D02*
X154339095Y-119705476D01*
X154339095Y-119705476D02*
X154481952Y-119753095D01*
X154481952Y-119753095D02*
X155053380Y-120324523D01*
X155053380Y-120324523D02*
X155053380Y-119705476D01*
X154053380Y-119086428D02*
X154053380Y-118991190D01*
X154053380Y-118991190D02*
X154101000Y-118895952D01*
X154101000Y-118895952D02*
X154148619Y-118848333D01*
X154148619Y-118848333D02*
X154243857Y-118800714D01*
X154243857Y-118800714D02*
X154434333Y-118753095D01*
X154434333Y-118753095D02*
X154672428Y-118753095D01*
X154672428Y-118753095D02*
X154862904Y-118800714D01*
X154862904Y-118800714D02*
X154958142Y-118848333D01*
X154958142Y-118848333D02*
X155005761Y-118895952D01*
X155005761Y-118895952D02*
X155053380Y-118991190D01*
X155053380Y-118991190D02*
X155053380Y-119086428D01*
X155053380Y-119086428D02*
X155005761Y-119181666D01*
X155005761Y-119181666D02*
X154958142Y-119229285D01*
X154958142Y-119229285D02*
X154862904Y-119276904D01*
X154862904Y-119276904D02*
X154672428Y-119324523D01*
X154672428Y-119324523D02*
X154434333Y-119324523D01*
X154434333Y-119324523D02*
X154243857Y-119276904D01*
X154243857Y-119276904D02*
X154148619Y-119229285D01*
X154148619Y-119229285D02*
X154101000Y-119181666D01*
X154101000Y-119181666D02*
X154053380Y-119086428D01*
D12*
X164042573Y-56303332D02*
X164949716Y-56303332D01*
X164949716Y-56303332D02*
X165131145Y-56363809D01*
X165131145Y-56363809D02*
X165252097Y-56484761D01*
X165252097Y-56484761D02*
X165312573Y-56666190D01*
X165312573Y-56666190D02*
X165312573Y-56787142D01*
X164465907Y-55154285D02*
X165312573Y-55154285D01*
X163982097Y-55456666D02*
X164889240Y-55759047D01*
X164889240Y-55759047D02*
X164889240Y-54972856D01*
X99145573Y-110405332D02*
X100052716Y-110405332D01*
X100052716Y-110405332D02*
X100234145Y-110465809D01*
X100234145Y-110465809D02*
X100355097Y-110586761D01*
X100355097Y-110586761D02*
X100415573Y-110768190D01*
X100415573Y-110768190D02*
X100415573Y-110889142D01*
X99145573Y-109921523D02*
X99145573Y-109074856D01*
X99145573Y-109074856D02*
X100415573Y-109619142D01*
D11*
X145184905Y-58406380D02*
X145184905Y-57406380D01*
X145756333Y-58406380D02*
X145327762Y-57834952D01*
X145756333Y-57406380D02*
X145184905Y-57977809D01*
X146089667Y-57406380D02*
X146708714Y-57406380D01*
X146708714Y-57406380D02*
X146375381Y-57787333D01*
X146375381Y-57787333D02*
X146518238Y-57787333D01*
X146518238Y-57787333D02*
X146613476Y-57834952D01*
X146613476Y-57834952D02*
X146661095Y-57882571D01*
X146661095Y-57882571D02*
X146708714Y-57977809D01*
X146708714Y-57977809D02*
X146708714Y-58215904D01*
X146708714Y-58215904D02*
X146661095Y-58311142D01*
X146661095Y-58311142D02*
X146613476Y-58358761D01*
X146613476Y-58358761D02*
X146518238Y-58406380D01*
X146518238Y-58406380D02*
X146232524Y-58406380D01*
X146232524Y-58406380D02*
X146137286Y-58358761D01*
X146137286Y-58358761D02*
X146089667Y-58311142D01*
X141988380Y-117430475D02*
X142797904Y-117430475D01*
X142797904Y-117430475D02*
X142893142Y-117382856D01*
X142893142Y-117382856D02*
X142940761Y-117335237D01*
X142940761Y-117335237D02*
X142988380Y-117239999D01*
X142988380Y-117239999D02*
X142988380Y-117049523D01*
X142988380Y-117049523D02*
X142940761Y-116954285D01*
X142940761Y-116954285D02*
X142893142Y-116906666D01*
X142893142Y-116906666D02*
X142797904Y-116859047D01*
X142797904Y-116859047D02*
X141988380Y-116859047D01*
X142940761Y-116430475D02*
X142988380Y-116287618D01*
X142988380Y-116287618D02*
X142988380Y-116049523D01*
X142988380Y-116049523D02*
X142940761Y-115954285D01*
X142940761Y-115954285D02*
X142893142Y-115906666D01*
X142893142Y-115906666D02*
X142797904Y-115859047D01*
X142797904Y-115859047D02*
X142702666Y-115859047D01*
X142702666Y-115859047D02*
X142607428Y-115906666D01*
X142607428Y-115906666D02*
X142559809Y-115954285D01*
X142559809Y-115954285D02*
X142512190Y-116049523D01*
X142512190Y-116049523D02*
X142464571Y-116239999D01*
X142464571Y-116239999D02*
X142416952Y-116335237D01*
X142416952Y-116335237D02*
X142369333Y-116382856D01*
X142369333Y-116382856D02*
X142274095Y-116430475D01*
X142274095Y-116430475D02*
X142178857Y-116430475D01*
X142178857Y-116430475D02*
X142083619Y-116382856D01*
X142083619Y-116382856D02*
X142036000Y-116335237D01*
X142036000Y-116335237D02*
X141988380Y-116239999D01*
X141988380Y-116239999D02*
X141988380Y-116001904D01*
X141988380Y-116001904D02*
X142036000Y-115859047D01*
X142464571Y-115430475D02*
X142464571Y-115097142D01*
X142988380Y-114954285D02*
X142988380Y-115430475D01*
X142988380Y-115430475D02*
X141988380Y-115430475D01*
X141988380Y-115430475D02*
X141988380Y-114954285D01*
X142988380Y-113954285D02*
X142512190Y-114287618D01*
X142988380Y-114525713D02*
X141988380Y-114525713D01*
X141988380Y-114525713D02*
X141988380Y-114144761D01*
X141988380Y-114144761D02*
X142036000Y-114049523D01*
X142036000Y-114049523D02*
X142083619Y-114001904D01*
X142083619Y-114001904D02*
X142178857Y-113954285D01*
X142178857Y-113954285D02*
X142321714Y-113954285D01*
X142321714Y-113954285D02*
X142416952Y-114001904D01*
X142416952Y-114001904D02*
X142464571Y-114049523D01*
X142464571Y-114049523D02*
X142512190Y-114144761D01*
X142512190Y-114144761D02*
X142512190Y-114525713D01*
X142988380Y-113001904D02*
X142988380Y-113573332D01*
X142988380Y-113287618D02*
X141988380Y-113287618D01*
X141988380Y-113287618D02*
X142131238Y-113382856D01*
X142131238Y-113382856D02*
X142226476Y-113478094D01*
X142226476Y-113478094D02*
X142274095Y-113573332D01*
X121793095Y-112651380D02*
X121793095Y-113460904D01*
X121793095Y-113460904D02*
X121840714Y-113556142D01*
X121840714Y-113556142D02*
X121888333Y-113603761D01*
X121888333Y-113603761D02*
X121983571Y-113651380D01*
X121983571Y-113651380D02*
X122174047Y-113651380D01*
X122174047Y-113651380D02*
X122269285Y-113603761D01*
X122269285Y-113603761D02*
X122316904Y-113556142D01*
X122316904Y-113556142D02*
X122364523Y-113460904D01*
X122364523Y-113460904D02*
X122364523Y-112651380D01*
X123316904Y-112651380D02*
X122840714Y-112651380D01*
X122840714Y-112651380D02*
X122793095Y-113127571D01*
X122793095Y-113127571D02*
X122840714Y-113079952D01*
X122840714Y-113079952D02*
X122935952Y-113032333D01*
X122935952Y-113032333D02*
X123174047Y-113032333D01*
X123174047Y-113032333D02*
X123269285Y-113079952D01*
X123269285Y-113079952D02*
X123316904Y-113127571D01*
X123316904Y-113127571D02*
X123364523Y-113222809D01*
X123364523Y-113222809D02*
X123364523Y-113460904D01*
X123364523Y-113460904D02*
X123316904Y-113556142D01*
X123316904Y-113556142D02*
X123269285Y-113603761D01*
X123269285Y-113603761D02*
X123174047Y-113651380D01*
X123174047Y-113651380D02*
X122935952Y-113651380D01*
X122935952Y-113651380D02*
X122840714Y-113603761D01*
X122840714Y-113603761D02*
X122793095Y-113556142D01*
X160139142Y-130288380D02*
X159805809Y-129812190D01*
X159567714Y-130288380D02*
X159567714Y-129288380D01*
X159567714Y-129288380D02*
X159948666Y-129288380D01*
X159948666Y-129288380D02*
X160043904Y-129336000D01*
X160043904Y-129336000D02*
X160091523Y-129383619D01*
X160091523Y-129383619D02*
X160139142Y-129478857D01*
X160139142Y-129478857D02*
X160139142Y-129621714D01*
X160139142Y-129621714D02*
X160091523Y-129716952D01*
X160091523Y-129716952D02*
X160043904Y-129764571D01*
X160043904Y-129764571D02*
X159948666Y-129812190D01*
X159948666Y-129812190D02*
X159567714Y-129812190D01*
X160520095Y-129383619D02*
X160567714Y-129336000D01*
X160567714Y-129336000D02*
X160662952Y-129288380D01*
X160662952Y-129288380D02*
X160901047Y-129288380D01*
X160901047Y-129288380D02*
X160996285Y-129336000D01*
X160996285Y-129336000D02*
X161043904Y-129383619D01*
X161043904Y-129383619D02*
X161091523Y-129478857D01*
X161091523Y-129478857D02*
X161091523Y-129574095D01*
X161091523Y-129574095D02*
X161043904Y-129716952D01*
X161043904Y-129716952D02*
X160472476Y-130288380D01*
X160472476Y-130288380D02*
X161091523Y-130288380D01*
X161996285Y-129288380D02*
X161520095Y-129288380D01*
X161520095Y-129288380D02*
X161472476Y-129764571D01*
X161472476Y-129764571D02*
X161520095Y-129716952D01*
X161520095Y-129716952D02*
X161615333Y-129669333D01*
X161615333Y-129669333D02*
X161853428Y-129669333D01*
X161853428Y-129669333D02*
X161948666Y-129716952D01*
X161948666Y-129716952D02*
X161996285Y-129764571D01*
X161996285Y-129764571D02*
X162043904Y-129859809D01*
X162043904Y-129859809D02*
X162043904Y-130097904D01*
X162043904Y-130097904D02*
X161996285Y-130193142D01*
X161996285Y-130193142D02*
X161948666Y-130240761D01*
X161948666Y-130240761D02*
X161853428Y-130288380D01*
X161853428Y-130288380D02*
X161615333Y-130288380D01*
X161615333Y-130288380D02*
X161520095Y-130240761D01*
X161520095Y-130240761D02*
X161472476Y-130193142D01*
X160139142Y-122668380D02*
X159805809Y-122192190D01*
X159567714Y-122668380D02*
X159567714Y-121668380D01*
X159567714Y-121668380D02*
X159948666Y-121668380D01*
X159948666Y-121668380D02*
X160043904Y-121716000D01*
X160043904Y-121716000D02*
X160091523Y-121763619D01*
X160091523Y-121763619D02*
X160139142Y-121858857D01*
X160139142Y-121858857D02*
X160139142Y-122001714D01*
X160139142Y-122001714D02*
X160091523Y-122096952D01*
X160091523Y-122096952D02*
X160043904Y-122144571D01*
X160043904Y-122144571D02*
X159948666Y-122192190D01*
X159948666Y-122192190D02*
X159567714Y-122192190D01*
X161091523Y-122668380D02*
X160520095Y-122668380D01*
X160805809Y-122668380D02*
X160805809Y-121668380D01*
X160805809Y-121668380D02*
X160710571Y-121811238D01*
X160710571Y-121811238D02*
X160615333Y-121906476D01*
X160615333Y-121906476D02*
X160520095Y-121954095D01*
X161948666Y-122001714D02*
X161948666Y-122668380D01*
X161710571Y-121620761D02*
X161472476Y-122335047D01*
X161472476Y-122335047D02*
X162091523Y-122335047D01*
X149598142Y-114032380D02*
X149264809Y-113556190D01*
X149026714Y-114032380D02*
X149026714Y-113032380D01*
X149026714Y-113032380D02*
X149407666Y-113032380D01*
X149407666Y-113032380D02*
X149502904Y-113080000D01*
X149502904Y-113080000D02*
X149550523Y-113127619D01*
X149550523Y-113127619D02*
X149598142Y-113222857D01*
X149598142Y-113222857D02*
X149598142Y-113365714D01*
X149598142Y-113365714D02*
X149550523Y-113460952D01*
X149550523Y-113460952D02*
X149502904Y-113508571D01*
X149502904Y-113508571D02*
X149407666Y-113556190D01*
X149407666Y-113556190D02*
X149026714Y-113556190D01*
X150550523Y-114032380D02*
X149979095Y-114032380D01*
X150264809Y-114032380D02*
X150264809Y-113032380D01*
X150264809Y-113032380D02*
X150169571Y-113175238D01*
X150169571Y-113175238D02*
X150074333Y-113270476D01*
X150074333Y-113270476D02*
X149979095Y-113318095D01*
X151026714Y-114032380D02*
X151217190Y-114032380D01*
X151217190Y-114032380D02*
X151312428Y-113984761D01*
X151312428Y-113984761D02*
X151360047Y-113937142D01*
X151360047Y-113937142D02*
X151455285Y-113794285D01*
X151455285Y-113794285D02*
X151502904Y-113603809D01*
X151502904Y-113603809D02*
X151502904Y-113222857D01*
X151502904Y-113222857D02*
X151455285Y-113127619D01*
X151455285Y-113127619D02*
X151407666Y-113080000D01*
X151407666Y-113080000D02*
X151312428Y-113032380D01*
X151312428Y-113032380D02*
X151121952Y-113032380D01*
X151121952Y-113032380D02*
X151026714Y-113080000D01*
X151026714Y-113080000D02*
X150979095Y-113127619D01*
X150979095Y-113127619D02*
X150931476Y-113222857D01*
X150931476Y-113222857D02*
X150931476Y-113460952D01*
X150931476Y-113460952D02*
X150979095Y-113556190D01*
X150979095Y-113556190D02*
X151026714Y-113603809D01*
X151026714Y-113603809D02*
X151121952Y-113651428D01*
X151121952Y-113651428D02*
X151312428Y-113651428D01*
X151312428Y-113651428D02*
X151407666Y-113603809D01*
X151407666Y-113603809D02*
X151455285Y-113556190D01*
X151455285Y-113556190D02*
X151502904Y-113460952D01*
X145057905Y-73646380D02*
X145057905Y-72646380D01*
X145629333Y-73646380D02*
X145200762Y-73074952D01*
X145629333Y-72646380D02*
X145057905Y-73217809D01*
X146486476Y-72979714D02*
X146486476Y-73646380D01*
X146248381Y-72598761D02*
X146010286Y-73313047D01*
X146010286Y-73313047D02*
X146629333Y-73313047D01*
D12*
X99018573Y-118376094D02*
X99925716Y-118376094D01*
X99925716Y-118376094D02*
X100107145Y-118436571D01*
X100107145Y-118436571D02*
X100228097Y-118557523D01*
X100228097Y-118557523D02*
X100288573Y-118738952D01*
X100288573Y-118738952D02*
X100288573Y-118859904D01*
X100288573Y-117106094D02*
X100288573Y-117831809D01*
X100288573Y-117468952D02*
X99018573Y-117468952D01*
X99018573Y-117468952D02*
X99200002Y-117589904D01*
X99200002Y-117589904D02*
X99320954Y-117710856D01*
X99320954Y-117710856D02*
X99381430Y-117831809D01*
X99139526Y-116622285D02*
X99079050Y-116561809D01*
X99079050Y-116561809D02*
X99018573Y-116440856D01*
X99018573Y-116440856D02*
X99018573Y-116138475D01*
X99018573Y-116138475D02*
X99079050Y-116017523D01*
X99079050Y-116017523D02*
X99139526Y-115957047D01*
X99139526Y-115957047D02*
X99260478Y-115896570D01*
X99260478Y-115896570D02*
X99381430Y-115896570D01*
X99381430Y-115896570D02*
X99562859Y-115957047D01*
X99562859Y-115957047D02*
X100288573Y-116682761D01*
X100288573Y-116682761D02*
X100288573Y-115896570D01*
D11*
X160266142Y-126986380D02*
X159932809Y-126510190D01*
X159694714Y-126986380D02*
X159694714Y-125986380D01*
X159694714Y-125986380D02*
X160075666Y-125986380D01*
X160075666Y-125986380D02*
X160170904Y-126034000D01*
X160170904Y-126034000D02*
X160218523Y-126081619D01*
X160218523Y-126081619D02*
X160266142Y-126176857D01*
X160266142Y-126176857D02*
X160266142Y-126319714D01*
X160266142Y-126319714D02*
X160218523Y-126414952D01*
X160218523Y-126414952D02*
X160170904Y-126462571D01*
X160170904Y-126462571D02*
X160075666Y-126510190D01*
X160075666Y-126510190D02*
X159694714Y-126510190D01*
X160647095Y-126081619D02*
X160694714Y-126034000D01*
X160694714Y-126034000D02*
X160789952Y-125986380D01*
X160789952Y-125986380D02*
X161028047Y-125986380D01*
X161028047Y-125986380D02*
X161123285Y-126034000D01*
X161123285Y-126034000D02*
X161170904Y-126081619D01*
X161170904Y-126081619D02*
X161218523Y-126176857D01*
X161218523Y-126176857D02*
X161218523Y-126272095D01*
X161218523Y-126272095D02*
X161170904Y-126414952D01*
X161170904Y-126414952D02*
X160599476Y-126986380D01*
X160599476Y-126986380D02*
X161218523Y-126986380D01*
X161551857Y-125986380D02*
X162218523Y-125986380D01*
X162218523Y-125986380D02*
X161789952Y-126986380D01*
X159885142Y-117969380D02*
X159551809Y-117493190D01*
X159313714Y-117969380D02*
X159313714Y-116969380D01*
X159313714Y-116969380D02*
X159694666Y-116969380D01*
X159694666Y-116969380D02*
X159789904Y-117017000D01*
X159789904Y-117017000D02*
X159837523Y-117064619D01*
X159837523Y-117064619D02*
X159885142Y-117159857D01*
X159885142Y-117159857D02*
X159885142Y-117302714D01*
X159885142Y-117302714D02*
X159837523Y-117397952D01*
X159837523Y-117397952D02*
X159789904Y-117445571D01*
X159789904Y-117445571D02*
X159694666Y-117493190D01*
X159694666Y-117493190D02*
X159313714Y-117493190D01*
X160837523Y-117969380D02*
X160266095Y-117969380D01*
X160551809Y-117969380D02*
X160551809Y-116969380D01*
X160551809Y-116969380D02*
X160456571Y-117112238D01*
X160456571Y-117112238D02*
X160361333Y-117207476D01*
X160361333Y-117207476D02*
X160266095Y-117255095D01*
X161742285Y-116969380D02*
X161266095Y-116969380D01*
X161266095Y-116969380D02*
X161218476Y-117445571D01*
X161218476Y-117445571D02*
X161266095Y-117397952D01*
X161266095Y-117397952D02*
X161361333Y-117350333D01*
X161361333Y-117350333D02*
X161599428Y-117350333D01*
X161599428Y-117350333D02*
X161694666Y-117397952D01*
X161694666Y-117397952D02*
X161742285Y-117445571D01*
X161742285Y-117445571D02*
X161789904Y-117540809D01*
X161789904Y-117540809D02*
X161789904Y-117778904D01*
X161789904Y-117778904D02*
X161742285Y-117874142D01*
X161742285Y-117874142D02*
X161694666Y-117921761D01*
X161694666Y-117921761D02*
X161599428Y-117969380D01*
X161599428Y-117969380D02*
X161361333Y-117969380D01*
X161361333Y-117969380D02*
X161266095Y-117921761D01*
X161266095Y-117921761D02*
X161218476Y-117874142D01*
X168785380Y-123904333D02*
X169499666Y-123904333D01*
X169499666Y-123904333D02*
X169642523Y-123951952D01*
X169642523Y-123951952D02*
X169737761Y-124047190D01*
X169737761Y-124047190D02*
X169785380Y-124190047D01*
X169785380Y-124190047D02*
X169785380Y-124285285D01*
X169213952Y-123285285D02*
X169166333Y-123380523D01*
X169166333Y-123380523D02*
X169118714Y-123428142D01*
X169118714Y-123428142D02*
X169023476Y-123475761D01*
X169023476Y-123475761D02*
X168975857Y-123475761D01*
X168975857Y-123475761D02*
X168880619Y-123428142D01*
X168880619Y-123428142D02*
X168833000Y-123380523D01*
X168833000Y-123380523D02*
X168785380Y-123285285D01*
X168785380Y-123285285D02*
X168785380Y-123094809D01*
X168785380Y-123094809D02*
X168833000Y-122999571D01*
X168833000Y-122999571D02*
X168880619Y-122951952D01*
X168880619Y-122951952D02*
X168975857Y-122904333D01*
X168975857Y-122904333D02*
X169023476Y-122904333D01*
X169023476Y-122904333D02*
X169118714Y-122951952D01*
X169118714Y-122951952D02*
X169166333Y-122999571D01*
X169166333Y-122999571D02*
X169213952Y-123094809D01*
X169213952Y-123094809D02*
X169213952Y-123285285D01*
X169213952Y-123285285D02*
X169261571Y-123380523D01*
X169261571Y-123380523D02*
X169309190Y-123428142D01*
X169309190Y-123428142D02*
X169404428Y-123475761D01*
X169404428Y-123475761D02*
X169594904Y-123475761D01*
X169594904Y-123475761D02*
X169690142Y-123428142D01*
X169690142Y-123428142D02*
X169737761Y-123380523D01*
X169737761Y-123380523D02*
X169785380Y-123285285D01*
X169785380Y-123285285D02*
X169785380Y-123094809D01*
X169785380Y-123094809D02*
X169737761Y-122999571D01*
X169737761Y-122999571D02*
X169690142Y-122951952D01*
X169690142Y-122951952D02*
X169594904Y-122904333D01*
X169594904Y-122904333D02*
X169404428Y-122904333D01*
X169404428Y-122904333D02*
X169309190Y-122951952D01*
X169309190Y-122951952D02*
X169261571Y-122999571D01*
X169261571Y-122999571D02*
X169213952Y-123094809D01*
X160139142Y-113270380D02*
X159805809Y-112794190D01*
X159567714Y-113270380D02*
X159567714Y-112270380D01*
X159567714Y-112270380D02*
X159948666Y-112270380D01*
X159948666Y-112270380D02*
X160043904Y-112318000D01*
X160043904Y-112318000D02*
X160091523Y-112365619D01*
X160091523Y-112365619D02*
X160139142Y-112460857D01*
X160139142Y-112460857D02*
X160139142Y-112603714D01*
X160139142Y-112603714D02*
X160091523Y-112698952D01*
X160091523Y-112698952D02*
X160043904Y-112746571D01*
X160043904Y-112746571D02*
X159948666Y-112794190D01*
X159948666Y-112794190D02*
X159567714Y-112794190D01*
X161091523Y-113270380D02*
X160520095Y-113270380D01*
X160805809Y-113270380D02*
X160805809Y-112270380D01*
X160805809Y-112270380D02*
X160710571Y-112413238D01*
X160710571Y-112413238D02*
X160615333Y-112508476D01*
X160615333Y-112508476D02*
X160520095Y-112556095D01*
X161948666Y-112270380D02*
X161758190Y-112270380D01*
X161758190Y-112270380D02*
X161662952Y-112318000D01*
X161662952Y-112318000D02*
X161615333Y-112365619D01*
X161615333Y-112365619D02*
X161520095Y-112508476D01*
X161520095Y-112508476D02*
X161472476Y-112698952D01*
X161472476Y-112698952D02*
X161472476Y-113079904D01*
X161472476Y-113079904D02*
X161520095Y-113175142D01*
X161520095Y-113175142D02*
X161567714Y-113222761D01*
X161567714Y-113222761D02*
X161662952Y-113270380D01*
X161662952Y-113270380D02*
X161853428Y-113270380D01*
X161853428Y-113270380D02*
X161948666Y-113222761D01*
X161948666Y-113222761D02*
X161996285Y-113175142D01*
X161996285Y-113175142D02*
X162043904Y-113079904D01*
X162043904Y-113079904D02*
X162043904Y-112841809D01*
X162043904Y-112841809D02*
X161996285Y-112746571D01*
X161996285Y-112746571D02*
X161948666Y-112698952D01*
X161948666Y-112698952D02*
X161853428Y-112651333D01*
X161853428Y-112651333D02*
X161662952Y-112651333D01*
X161662952Y-112651333D02*
X161567714Y-112698952D01*
X161567714Y-112698952D02*
X161520095Y-112746571D01*
X161520095Y-112746571D02*
X161472476Y-112841809D01*
X158415333Y-141115142D02*
X158367714Y-141162761D01*
X158367714Y-141162761D02*
X158224857Y-141210380D01*
X158224857Y-141210380D02*
X158129619Y-141210380D01*
X158129619Y-141210380D02*
X157986762Y-141162761D01*
X157986762Y-141162761D02*
X157891524Y-141067523D01*
X157891524Y-141067523D02*
X157843905Y-140972285D01*
X157843905Y-140972285D02*
X157796286Y-140781809D01*
X157796286Y-140781809D02*
X157796286Y-140638952D01*
X157796286Y-140638952D02*
X157843905Y-140448476D01*
X157843905Y-140448476D02*
X157891524Y-140353238D01*
X157891524Y-140353238D02*
X157986762Y-140258000D01*
X157986762Y-140258000D02*
X158129619Y-140210380D01*
X158129619Y-140210380D02*
X158224857Y-140210380D01*
X158224857Y-140210380D02*
X158367714Y-140258000D01*
X158367714Y-140258000D02*
X158415333Y-140305619D01*
X158748667Y-140210380D02*
X159415333Y-140210380D01*
X159415333Y-140210380D02*
X158986762Y-141210380D01*
X158447142Y-136543142D02*
X158399523Y-136590761D01*
X158399523Y-136590761D02*
X158256666Y-136638380D01*
X158256666Y-136638380D02*
X158161428Y-136638380D01*
X158161428Y-136638380D02*
X158018571Y-136590761D01*
X158018571Y-136590761D02*
X157923333Y-136495523D01*
X157923333Y-136495523D02*
X157875714Y-136400285D01*
X157875714Y-136400285D02*
X157828095Y-136209809D01*
X157828095Y-136209809D02*
X157828095Y-136066952D01*
X157828095Y-136066952D02*
X157875714Y-135876476D01*
X157875714Y-135876476D02*
X157923333Y-135781238D01*
X157923333Y-135781238D02*
X158018571Y-135686000D01*
X158018571Y-135686000D02*
X158161428Y-135638380D01*
X158161428Y-135638380D02*
X158256666Y-135638380D01*
X158256666Y-135638380D02*
X158399523Y-135686000D01*
X158399523Y-135686000D02*
X158447142Y-135733619D01*
X159399523Y-136638380D02*
X158828095Y-136638380D01*
X159113809Y-136638380D02*
X159113809Y-135638380D01*
X159113809Y-135638380D02*
X159018571Y-135781238D01*
X159018571Y-135781238D02*
X158923333Y-135876476D01*
X158923333Y-135876476D02*
X158828095Y-135924095D01*
X160018571Y-135638380D02*
X160113809Y-135638380D01*
X160113809Y-135638380D02*
X160209047Y-135686000D01*
X160209047Y-135686000D02*
X160256666Y-135733619D01*
X160256666Y-135733619D02*
X160304285Y-135828857D01*
X160304285Y-135828857D02*
X160351904Y-136019333D01*
X160351904Y-136019333D02*
X160351904Y-136257428D01*
X160351904Y-136257428D02*
X160304285Y-136447904D01*
X160304285Y-136447904D02*
X160256666Y-136543142D01*
X160256666Y-136543142D02*
X160209047Y-136590761D01*
X160209047Y-136590761D02*
X160113809Y-136638380D01*
X160113809Y-136638380D02*
X160018571Y-136638380D01*
X160018571Y-136638380D02*
X159923333Y-136590761D01*
X159923333Y-136590761D02*
X159875714Y-136543142D01*
X159875714Y-136543142D02*
X159828095Y-136447904D01*
X159828095Y-136447904D02*
X159780476Y-136257428D01*
X159780476Y-136257428D02*
X159780476Y-136019333D01*
X159780476Y-136019333D02*
X159828095Y-135828857D01*
X159828095Y-135828857D02*
X159875714Y-135733619D01*
X159875714Y-135733619D02*
X159923333Y-135686000D01*
X159923333Y-135686000D02*
X160018571Y-135638380D01*
X102983380Y-142660666D02*
X102507190Y-142993999D01*
X102983380Y-143232094D02*
X101983380Y-143232094D01*
X101983380Y-143232094D02*
X101983380Y-142851142D01*
X101983380Y-142851142D02*
X102031000Y-142755904D01*
X102031000Y-142755904D02*
X102078619Y-142708285D01*
X102078619Y-142708285D02*
X102173857Y-142660666D01*
X102173857Y-142660666D02*
X102316714Y-142660666D01*
X102316714Y-142660666D02*
X102411952Y-142708285D01*
X102411952Y-142708285D02*
X102459571Y-142755904D01*
X102459571Y-142755904D02*
X102507190Y-142851142D01*
X102507190Y-142851142D02*
X102507190Y-143232094D01*
X102983380Y-141708285D02*
X102983380Y-142279713D01*
X102983380Y-141993999D02*
X101983380Y-141993999D01*
X101983380Y-141993999D02*
X102126238Y-142089237D01*
X102126238Y-142089237D02*
X102221476Y-142184475D01*
X102221476Y-142184475D02*
X102269095Y-142279713D01*
X168785380Y-107553023D02*
X169499666Y-107553023D01*
X169499666Y-107553023D02*
X169642523Y-107600642D01*
X169642523Y-107600642D02*
X169737761Y-107695880D01*
X169737761Y-107695880D02*
X169785380Y-107838737D01*
X169785380Y-107838737D02*
X169785380Y-107933975D01*
X169785380Y-106553023D02*
X169785380Y-107124451D01*
X169785380Y-106838737D02*
X168785380Y-106838737D01*
X168785380Y-106838737D02*
X168928238Y-106933975D01*
X168928238Y-106933975D02*
X169023476Y-107029213D01*
X169023476Y-107029213D02*
X169071095Y-107124451D01*
X169785380Y-105600642D02*
X169785380Y-106172070D01*
X169785380Y-105886356D02*
X168785380Y-105886356D01*
X168785380Y-105886356D02*
X168928238Y-105981594D01*
X168928238Y-105981594D02*
X169023476Y-106076832D01*
X169023476Y-106076832D02*
X169071095Y-106172070D01*
X168658380Y-114982523D02*
X169372666Y-114982523D01*
X169372666Y-114982523D02*
X169515523Y-115030142D01*
X169515523Y-115030142D02*
X169610761Y-115125380D01*
X169610761Y-115125380D02*
X169658380Y-115268237D01*
X169658380Y-115268237D02*
X169658380Y-115363475D01*
X169658380Y-113982523D02*
X169658380Y-114553951D01*
X169658380Y-114268237D02*
X168658380Y-114268237D01*
X168658380Y-114268237D02*
X168801238Y-114363475D01*
X168801238Y-114363475D02*
X168896476Y-114458713D01*
X168896476Y-114458713D02*
X168944095Y-114553951D01*
X168658380Y-113649189D02*
X168658380Y-113030142D01*
X168658380Y-113030142D02*
X169039333Y-113363475D01*
X169039333Y-113363475D02*
X169039333Y-113220618D01*
X169039333Y-113220618D02*
X169086952Y-113125380D01*
X169086952Y-113125380D02*
X169134571Y-113077761D01*
X169134571Y-113077761D02*
X169229809Y-113030142D01*
X169229809Y-113030142D02*
X169467904Y-113030142D01*
X169467904Y-113030142D02*
X169563142Y-113077761D01*
X169563142Y-113077761D02*
X169610761Y-113125380D01*
X169610761Y-113125380D02*
X169658380Y-113220618D01*
X169658380Y-113220618D02*
X169658380Y-113506332D01*
X169658380Y-113506332D02*
X169610761Y-113601570D01*
X169610761Y-113601570D02*
X169563142Y-113649189D01*
X103909952Y-122674380D02*
X103576619Y-122198190D01*
X103338524Y-122674380D02*
X103338524Y-121674380D01*
X103338524Y-121674380D02*
X103719476Y-121674380D01*
X103719476Y-121674380D02*
X103814714Y-121722000D01*
X103814714Y-121722000D02*
X103862333Y-121769619D01*
X103862333Y-121769619D02*
X103909952Y-121864857D01*
X103909952Y-121864857D02*
X103909952Y-122007714D01*
X103909952Y-122007714D02*
X103862333Y-122102952D01*
X103862333Y-122102952D02*
X103814714Y-122150571D01*
X103814714Y-122150571D02*
X103719476Y-122198190D01*
X103719476Y-122198190D02*
X103338524Y-122198190D01*
X104290905Y-121769619D02*
X104338524Y-121722000D01*
X104338524Y-121722000D02*
X104433762Y-121674380D01*
X104433762Y-121674380D02*
X104671857Y-121674380D01*
X104671857Y-121674380D02*
X104767095Y-121722000D01*
X104767095Y-121722000D02*
X104814714Y-121769619D01*
X104814714Y-121769619D02*
X104862333Y-121864857D01*
X104862333Y-121864857D02*
X104862333Y-121960095D01*
X104862333Y-121960095D02*
X104814714Y-122102952D01*
X104814714Y-122102952D02*
X104243286Y-122674380D01*
X104243286Y-122674380D02*
X104862333Y-122674380D01*
X105481381Y-121674380D02*
X105576619Y-121674380D01*
X105576619Y-121674380D02*
X105671857Y-121722000D01*
X105671857Y-121722000D02*
X105719476Y-121769619D01*
X105719476Y-121769619D02*
X105767095Y-121864857D01*
X105767095Y-121864857D02*
X105814714Y-122055333D01*
X105814714Y-122055333D02*
X105814714Y-122293428D01*
X105814714Y-122293428D02*
X105767095Y-122483904D01*
X105767095Y-122483904D02*
X105719476Y-122579142D01*
X105719476Y-122579142D02*
X105671857Y-122626761D01*
X105671857Y-122626761D02*
X105576619Y-122674380D01*
X105576619Y-122674380D02*
X105481381Y-122674380D01*
X105481381Y-122674380D02*
X105386143Y-122626761D01*
X105386143Y-122626761D02*
X105338524Y-122579142D01*
X105338524Y-122579142D02*
X105290905Y-122483904D01*
X105290905Y-122483904D02*
X105243286Y-122293428D01*
X105243286Y-122293428D02*
X105243286Y-122055333D01*
X105243286Y-122055333D02*
X105290905Y-121864857D01*
X105290905Y-121864857D02*
X105338524Y-121769619D01*
X105338524Y-121769619D02*
X105386143Y-121722000D01*
X105386143Y-121722000D02*
X105481381Y-121674380D01*
X106719476Y-121674380D02*
X106243286Y-121674380D01*
X106243286Y-121674380D02*
X106195667Y-122150571D01*
X106195667Y-122150571D02*
X106243286Y-122102952D01*
X106243286Y-122102952D02*
X106338524Y-122055333D01*
X106338524Y-122055333D02*
X106576619Y-122055333D01*
X106576619Y-122055333D02*
X106671857Y-122102952D01*
X106671857Y-122102952D02*
X106719476Y-122150571D01*
X106719476Y-122150571D02*
X106767095Y-122245809D01*
X106767095Y-122245809D02*
X106767095Y-122483904D01*
X106767095Y-122483904D02*
X106719476Y-122579142D01*
X106719476Y-122579142D02*
X106671857Y-122626761D01*
X106671857Y-122626761D02*
X106576619Y-122674380D01*
X106576619Y-122674380D02*
X106338524Y-122674380D01*
X106338524Y-122674380D02*
X106243286Y-122626761D01*
X106243286Y-122626761D02*
X106195667Y-122579142D01*
X158415333Y-139591142D02*
X158367714Y-139638761D01*
X158367714Y-139638761D02*
X158224857Y-139686380D01*
X158224857Y-139686380D02*
X158129619Y-139686380D01*
X158129619Y-139686380D02*
X157986762Y-139638761D01*
X157986762Y-139638761D02*
X157891524Y-139543523D01*
X157891524Y-139543523D02*
X157843905Y-139448285D01*
X157843905Y-139448285D02*
X157796286Y-139257809D01*
X157796286Y-139257809D02*
X157796286Y-139114952D01*
X157796286Y-139114952D02*
X157843905Y-138924476D01*
X157843905Y-138924476D02*
X157891524Y-138829238D01*
X157891524Y-138829238D02*
X157986762Y-138734000D01*
X157986762Y-138734000D02*
X158129619Y-138686380D01*
X158129619Y-138686380D02*
X158224857Y-138686380D01*
X158224857Y-138686380D02*
X158367714Y-138734000D01*
X158367714Y-138734000D02*
X158415333Y-138781619D01*
X158986762Y-139114952D02*
X158891524Y-139067333D01*
X158891524Y-139067333D02*
X158843905Y-139019714D01*
X158843905Y-139019714D02*
X158796286Y-138924476D01*
X158796286Y-138924476D02*
X158796286Y-138876857D01*
X158796286Y-138876857D02*
X158843905Y-138781619D01*
X158843905Y-138781619D02*
X158891524Y-138734000D01*
X158891524Y-138734000D02*
X158986762Y-138686380D01*
X158986762Y-138686380D02*
X159177238Y-138686380D01*
X159177238Y-138686380D02*
X159272476Y-138734000D01*
X159272476Y-138734000D02*
X159320095Y-138781619D01*
X159320095Y-138781619D02*
X159367714Y-138876857D01*
X159367714Y-138876857D02*
X159367714Y-138924476D01*
X159367714Y-138924476D02*
X159320095Y-139019714D01*
X159320095Y-139019714D02*
X159272476Y-139067333D01*
X159272476Y-139067333D02*
X159177238Y-139114952D01*
X159177238Y-139114952D02*
X158986762Y-139114952D01*
X158986762Y-139114952D02*
X158891524Y-139162571D01*
X158891524Y-139162571D02*
X158843905Y-139210190D01*
X158843905Y-139210190D02*
X158796286Y-139305428D01*
X158796286Y-139305428D02*
X158796286Y-139495904D01*
X158796286Y-139495904D02*
X158843905Y-139591142D01*
X158843905Y-139591142D02*
X158891524Y-139638761D01*
X158891524Y-139638761D02*
X158986762Y-139686380D01*
X158986762Y-139686380D02*
X159177238Y-139686380D01*
X159177238Y-139686380D02*
X159272476Y-139638761D01*
X159272476Y-139638761D02*
X159320095Y-139591142D01*
X159320095Y-139591142D02*
X159367714Y-139495904D01*
X159367714Y-139495904D02*
X159367714Y-139305428D01*
X159367714Y-139305428D02*
X159320095Y-139210190D01*
X159320095Y-139210190D02*
X159272476Y-139162571D01*
X159272476Y-139162571D02*
X159177238Y-139114952D01*
X124065380Y-137484857D02*
X123589190Y-137818190D01*
X124065380Y-138056285D02*
X123065380Y-138056285D01*
X123065380Y-138056285D02*
X123065380Y-137675333D01*
X123065380Y-137675333D02*
X123113000Y-137580095D01*
X123113000Y-137580095D02*
X123160619Y-137532476D01*
X123160619Y-137532476D02*
X123255857Y-137484857D01*
X123255857Y-137484857D02*
X123398714Y-137484857D01*
X123398714Y-137484857D02*
X123493952Y-137532476D01*
X123493952Y-137532476D02*
X123541571Y-137580095D01*
X123541571Y-137580095D02*
X123589190Y-137675333D01*
X123589190Y-137675333D02*
X123589190Y-138056285D01*
X124065380Y-136532476D02*
X124065380Y-137103904D01*
X124065380Y-136818190D02*
X123065380Y-136818190D01*
X123065380Y-136818190D02*
X123208238Y-136913428D01*
X123208238Y-136913428D02*
X123303476Y-137008666D01*
X123303476Y-137008666D02*
X123351095Y-137103904D01*
X124065380Y-135580095D02*
X124065380Y-136151523D01*
X124065380Y-135865809D02*
X123065380Y-135865809D01*
X123065380Y-135865809D02*
X123208238Y-135961047D01*
X123208238Y-135961047D02*
X123303476Y-136056285D01*
X123303476Y-136056285D02*
X123351095Y-136151523D01*
D12*
X96986573Y-93834857D02*
X95716573Y-93834857D01*
X95716573Y-93834857D02*
X95716573Y-93351047D01*
X95716573Y-93351047D02*
X95777050Y-93230095D01*
X95777050Y-93230095D02*
X95837526Y-93169618D01*
X95837526Y-93169618D02*
X95958478Y-93109142D01*
X95958478Y-93109142D02*
X96139907Y-93109142D01*
X96139907Y-93109142D02*
X96260859Y-93169618D01*
X96260859Y-93169618D02*
X96321335Y-93230095D01*
X96321335Y-93230095D02*
X96381811Y-93351047D01*
X96381811Y-93351047D02*
X96381811Y-93834857D01*
X95716573Y-92685809D02*
X96986573Y-92383428D01*
X96986573Y-92383428D02*
X96079430Y-92141523D01*
X96079430Y-92141523D02*
X96986573Y-91899618D01*
X96986573Y-91899618D02*
X95716573Y-91597238D01*
X96986573Y-90387713D02*
X96381811Y-90811047D01*
X96986573Y-91113428D02*
X95716573Y-91113428D01*
X95716573Y-91113428D02*
X95716573Y-90629618D01*
X95716573Y-90629618D02*
X95777050Y-90508666D01*
X95777050Y-90508666D02*
X95837526Y-90448189D01*
X95837526Y-90448189D02*
X95958478Y-90387713D01*
X95958478Y-90387713D02*
X96139907Y-90387713D01*
X96139907Y-90387713D02*
X96260859Y-90448189D01*
X96260859Y-90448189D02*
X96321335Y-90508666D01*
X96321335Y-90508666D02*
X96381811Y-90629618D01*
X96381811Y-90629618D02*
X96381811Y-91113428D01*
X96986573Y-89178189D02*
X96986573Y-89903904D01*
X96986573Y-89541047D02*
X95716573Y-89541047D01*
X95716573Y-89541047D02*
X95898002Y-89661999D01*
X95898002Y-89661999D02*
X96018954Y-89782951D01*
X96018954Y-89782951D02*
X96079430Y-89903904D01*
X95716573Y-88391999D02*
X95716573Y-88271046D01*
X95716573Y-88271046D02*
X95777050Y-88150094D01*
X95777050Y-88150094D02*
X95837526Y-88089618D01*
X95837526Y-88089618D02*
X95958478Y-88029142D01*
X95958478Y-88029142D02*
X96200383Y-87968665D01*
X96200383Y-87968665D02*
X96502764Y-87968665D01*
X96502764Y-87968665D02*
X96744669Y-88029142D01*
X96744669Y-88029142D02*
X96865621Y-88089618D01*
X96865621Y-88089618D02*
X96926097Y-88150094D01*
X96926097Y-88150094D02*
X96986573Y-88271046D01*
X96986573Y-88271046D02*
X96986573Y-88391999D01*
X96986573Y-88391999D02*
X96926097Y-88512951D01*
X96926097Y-88512951D02*
X96865621Y-88573427D01*
X96865621Y-88573427D02*
X96744669Y-88633904D01*
X96744669Y-88633904D02*
X96502764Y-88694380D01*
X96502764Y-88694380D02*
X96200383Y-88694380D01*
X96200383Y-88694380D02*
X95958478Y-88633904D01*
X95958478Y-88633904D02*
X95837526Y-88573427D01*
X95837526Y-88573427D02*
X95777050Y-88512951D01*
X95777050Y-88512951D02*
X95716573Y-88391999D01*
X163915573Y-65447332D02*
X164822716Y-65447332D01*
X164822716Y-65447332D02*
X165004145Y-65507809D01*
X165004145Y-65507809D02*
X165125097Y-65628761D01*
X165125097Y-65628761D02*
X165185573Y-65810190D01*
X165185573Y-65810190D02*
X165185573Y-65931142D01*
X163915573Y-64237809D02*
X163915573Y-64842571D01*
X163915573Y-64842571D02*
X164520335Y-64903047D01*
X164520335Y-64903047D02*
X164459859Y-64842571D01*
X164459859Y-64842571D02*
X164399383Y-64721618D01*
X164399383Y-64721618D02*
X164399383Y-64419237D01*
X164399383Y-64419237D02*
X164459859Y-64298285D01*
X164459859Y-64298285D02*
X164520335Y-64237809D01*
X164520335Y-64237809D02*
X164641288Y-64177332D01*
X164641288Y-64177332D02*
X164943669Y-64177332D01*
X164943669Y-64177332D02*
X165064621Y-64237809D01*
X165064621Y-64237809D02*
X165125097Y-64298285D01*
X165125097Y-64298285D02*
X165185573Y-64419237D01*
X165185573Y-64419237D02*
X165185573Y-64721618D01*
X165185573Y-64721618D02*
X165125097Y-64842571D01*
X165125097Y-64842571D02*
X165064621Y-64903047D01*
D11*
X160126142Y-111778142D02*
X160078523Y-111825761D01*
X160078523Y-111825761D02*
X159935666Y-111873380D01*
X159935666Y-111873380D02*
X159840428Y-111873380D01*
X159840428Y-111873380D02*
X159697571Y-111825761D01*
X159697571Y-111825761D02*
X159602333Y-111730523D01*
X159602333Y-111730523D02*
X159554714Y-111635285D01*
X159554714Y-111635285D02*
X159507095Y-111444809D01*
X159507095Y-111444809D02*
X159507095Y-111301952D01*
X159507095Y-111301952D02*
X159554714Y-111111476D01*
X159554714Y-111111476D02*
X159602333Y-111016238D01*
X159602333Y-111016238D02*
X159697571Y-110921000D01*
X159697571Y-110921000D02*
X159840428Y-110873380D01*
X159840428Y-110873380D02*
X159935666Y-110873380D01*
X159935666Y-110873380D02*
X160078523Y-110921000D01*
X160078523Y-110921000D02*
X160126142Y-110968619D01*
X161078523Y-111873380D02*
X160507095Y-111873380D01*
X160792809Y-111873380D02*
X160792809Y-110873380D01*
X160792809Y-110873380D02*
X160697571Y-111016238D01*
X160697571Y-111016238D02*
X160602333Y-111111476D01*
X160602333Y-111111476D02*
X160507095Y-111159095D01*
X162030904Y-111873380D02*
X161459476Y-111873380D01*
X161745190Y-111873380D02*
X161745190Y-110873380D01*
X161745190Y-110873380D02*
X161649952Y-111016238D01*
X161649952Y-111016238D02*
X161554714Y-111111476D01*
X161554714Y-111111476D02*
X161459476Y-111159095D01*
X121666095Y-118747380D02*
X121666095Y-119556904D01*
X121666095Y-119556904D02*
X121713714Y-119652142D01*
X121713714Y-119652142D02*
X121761333Y-119699761D01*
X121761333Y-119699761D02*
X121856571Y-119747380D01*
X121856571Y-119747380D02*
X122047047Y-119747380D01*
X122047047Y-119747380D02*
X122142285Y-119699761D01*
X122142285Y-119699761D02*
X122189904Y-119652142D01*
X122189904Y-119652142D02*
X122237523Y-119556904D01*
X122237523Y-119556904D02*
X122237523Y-118747380D01*
X123142285Y-118747380D02*
X122951809Y-118747380D01*
X122951809Y-118747380D02*
X122856571Y-118795000D01*
X122856571Y-118795000D02*
X122808952Y-118842619D01*
X122808952Y-118842619D02*
X122713714Y-118985476D01*
X122713714Y-118985476D02*
X122666095Y-119175952D01*
X122666095Y-119175952D02*
X122666095Y-119556904D01*
X122666095Y-119556904D02*
X122713714Y-119652142D01*
X122713714Y-119652142D02*
X122761333Y-119699761D01*
X122761333Y-119699761D02*
X122856571Y-119747380D01*
X122856571Y-119747380D02*
X123047047Y-119747380D01*
X123047047Y-119747380D02*
X123142285Y-119699761D01*
X123142285Y-119699761D02*
X123189904Y-119652142D01*
X123189904Y-119652142D02*
X123237523Y-119556904D01*
X123237523Y-119556904D02*
X123237523Y-119318809D01*
X123237523Y-119318809D02*
X123189904Y-119223571D01*
X123189904Y-119223571D02*
X123142285Y-119175952D01*
X123142285Y-119175952D02*
X123047047Y-119128333D01*
X123047047Y-119128333D02*
X122856571Y-119128333D01*
X122856571Y-119128333D02*
X122761333Y-119175952D01*
X122761333Y-119175952D02*
X122713714Y-119223571D01*
X122713714Y-119223571D02*
X122666095Y-119318809D01*
X159980333Y-119525142D02*
X159932714Y-119572761D01*
X159932714Y-119572761D02*
X159789857Y-119620380D01*
X159789857Y-119620380D02*
X159694619Y-119620380D01*
X159694619Y-119620380D02*
X159551762Y-119572761D01*
X159551762Y-119572761D02*
X159456524Y-119477523D01*
X159456524Y-119477523D02*
X159408905Y-119382285D01*
X159408905Y-119382285D02*
X159361286Y-119191809D01*
X159361286Y-119191809D02*
X159361286Y-119048952D01*
X159361286Y-119048952D02*
X159408905Y-118858476D01*
X159408905Y-118858476D02*
X159456524Y-118763238D01*
X159456524Y-118763238D02*
X159551762Y-118668000D01*
X159551762Y-118668000D02*
X159694619Y-118620380D01*
X159694619Y-118620380D02*
X159789857Y-118620380D01*
X159789857Y-118620380D02*
X159932714Y-118668000D01*
X159932714Y-118668000D02*
X159980333Y-118715619D01*
X160361286Y-118715619D02*
X160408905Y-118668000D01*
X160408905Y-118668000D02*
X160504143Y-118620380D01*
X160504143Y-118620380D02*
X160742238Y-118620380D01*
X160742238Y-118620380D02*
X160837476Y-118668000D01*
X160837476Y-118668000D02*
X160885095Y-118715619D01*
X160885095Y-118715619D02*
X160932714Y-118810857D01*
X160932714Y-118810857D02*
X160932714Y-118906095D01*
X160932714Y-118906095D02*
X160885095Y-119048952D01*
X160885095Y-119048952D02*
X160313667Y-119620380D01*
X160313667Y-119620380D02*
X160932714Y-119620380D01*
X160266142Y-128510380D02*
X159932809Y-128034190D01*
X159694714Y-128510380D02*
X159694714Y-127510380D01*
X159694714Y-127510380D02*
X160075666Y-127510380D01*
X160075666Y-127510380D02*
X160170904Y-127558000D01*
X160170904Y-127558000D02*
X160218523Y-127605619D01*
X160218523Y-127605619D02*
X160266142Y-127700857D01*
X160266142Y-127700857D02*
X160266142Y-127843714D01*
X160266142Y-127843714D02*
X160218523Y-127938952D01*
X160218523Y-127938952D02*
X160170904Y-127986571D01*
X160170904Y-127986571D02*
X160075666Y-128034190D01*
X160075666Y-128034190D02*
X159694714Y-128034190D01*
X160647095Y-127605619D02*
X160694714Y-127558000D01*
X160694714Y-127558000D02*
X160789952Y-127510380D01*
X160789952Y-127510380D02*
X161028047Y-127510380D01*
X161028047Y-127510380D02*
X161123285Y-127558000D01*
X161123285Y-127558000D02*
X161170904Y-127605619D01*
X161170904Y-127605619D02*
X161218523Y-127700857D01*
X161218523Y-127700857D02*
X161218523Y-127796095D01*
X161218523Y-127796095D02*
X161170904Y-127938952D01*
X161170904Y-127938952D02*
X160599476Y-128510380D01*
X160599476Y-128510380D02*
X161218523Y-128510380D01*
X162075666Y-127510380D02*
X161885190Y-127510380D01*
X161885190Y-127510380D02*
X161789952Y-127558000D01*
X161789952Y-127558000D02*
X161742333Y-127605619D01*
X161742333Y-127605619D02*
X161647095Y-127748476D01*
X161647095Y-127748476D02*
X161599476Y-127938952D01*
X161599476Y-127938952D02*
X161599476Y-128319904D01*
X161599476Y-128319904D02*
X161647095Y-128415142D01*
X161647095Y-128415142D02*
X161694714Y-128462761D01*
X161694714Y-128462761D02*
X161789952Y-128510380D01*
X161789952Y-128510380D02*
X161980428Y-128510380D01*
X161980428Y-128510380D02*
X162075666Y-128462761D01*
X162075666Y-128462761D02*
X162123285Y-128415142D01*
X162123285Y-128415142D02*
X162170904Y-128319904D01*
X162170904Y-128319904D02*
X162170904Y-128081809D01*
X162170904Y-128081809D02*
X162123285Y-127986571D01*
X162123285Y-127986571D02*
X162075666Y-127938952D01*
X162075666Y-127938952D02*
X161980428Y-127891333D01*
X161980428Y-127891333D02*
X161789952Y-127891333D01*
X161789952Y-127891333D02*
X161694714Y-127938952D01*
X161694714Y-127938952D02*
X161647095Y-127986571D01*
X161647095Y-127986571D02*
X161599476Y-128081809D01*
X151122380Y-116204904D02*
X151931904Y-116204904D01*
X151931904Y-116204904D02*
X152027142Y-116157285D01*
X152027142Y-116157285D02*
X152074761Y-116109666D01*
X152074761Y-116109666D02*
X152122380Y-116014428D01*
X152122380Y-116014428D02*
X152122380Y-115823952D01*
X152122380Y-115823952D02*
X152074761Y-115728714D01*
X152074761Y-115728714D02*
X152027142Y-115681095D01*
X152027142Y-115681095D02*
X151931904Y-115633476D01*
X151931904Y-115633476D02*
X151122380Y-115633476D01*
X151455714Y-114728714D02*
X152122380Y-114728714D01*
X151074761Y-114966809D02*
X151789047Y-115204904D01*
X151789047Y-115204904D02*
X151789047Y-114585857D01*
X103782952Y-110730380D02*
X103449619Y-110254190D01*
X103211524Y-110730380D02*
X103211524Y-109730380D01*
X103211524Y-109730380D02*
X103592476Y-109730380D01*
X103592476Y-109730380D02*
X103687714Y-109778000D01*
X103687714Y-109778000D02*
X103735333Y-109825619D01*
X103735333Y-109825619D02*
X103782952Y-109920857D01*
X103782952Y-109920857D02*
X103782952Y-110063714D01*
X103782952Y-110063714D02*
X103735333Y-110158952D01*
X103735333Y-110158952D02*
X103687714Y-110206571D01*
X103687714Y-110206571D02*
X103592476Y-110254190D01*
X103592476Y-110254190D02*
X103211524Y-110254190D01*
X104163905Y-109825619D02*
X104211524Y-109778000D01*
X104211524Y-109778000D02*
X104306762Y-109730380D01*
X104306762Y-109730380D02*
X104544857Y-109730380D01*
X104544857Y-109730380D02*
X104640095Y-109778000D01*
X104640095Y-109778000D02*
X104687714Y-109825619D01*
X104687714Y-109825619D02*
X104735333Y-109920857D01*
X104735333Y-109920857D02*
X104735333Y-110016095D01*
X104735333Y-110016095D02*
X104687714Y-110158952D01*
X104687714Y-110158952D02*
X104116286Y-110730380D01*
X104116286Y-110730380D02*
X104735333Y-110730380D01*
X105354381Y-109730380D02*
X105449619Y-109730380D01*
X105449619Y-109730380D02*
X105544857Y-109778000D01*
X105544857Y-109778000D02*
X105592476Y-109825619D01*
X105592476Y-109825619D02*
X105640095Y-109920857D01*
X105640095Y-109920857D02*
X105687714Y-110111333D01*
X105687714Y-110111333D02*
X105687714Y-110349428D01*
X105687714Y-110349428D02*
X105640095Y-110539904D01*
X105640095Y-110539904D02*
X105592476Y-110635142D01*
X105592476Y-110635142D02*
X105544857Y-110682761D01*
X105544857Y-110682761D02*
X105449619Y-110730380D01*
X105449619Y-110730380D02*
X105354381Y-110730380D01*
X105354381Y-110730380D02*
X105259143Y-110682761D01*
X105259143Y-110682761D02*
X105211524Y-110635142D01*
X105211524Y-110635142D02*
X105163905Y-110539904D01*
X105163905Y-110539904D02*
X105116286Y-110349428D01*
X105116286Y-110349428D02*
X105116286Y-110111333D01*
X105116286Y-110111333D02*
X105163905Y-109920857D01*
X105163905Y-109920857D02*
X105211524Y-109825619D01*
X105211524Y-109825619D02*
X105259143Y-109778000D01*
X105259143Y-109778000D02*
X105354381Y-109730380D01*
X106640095Y-110730380D02*
X106068667Y-110730380D01*
X106354381Y-110730380D02*
X106354381Y-109730380D01*
X106354381Y-109730380D02*
X106259143Y-109873238D01*
X106259143Y-109873238D02*
X106163905Y-109968476D01*
X106163905Y-109968476D02*
X106068667Y-110016095D01*
D12*
X98891573Y-74972332D02*
X99798716Y-74972332D01*
X99798716Y-74972332D02*
X99980145Y-75032809D01*
X99980145Y-75032809D02*
X100101097Y-75153761D01*
X100101097Y-75153761D02*
X100161573Y-75335190D01*
X100161573Y-75335190D02*
X100161573Y-75456142D01*
X98891573Y-74488523D02*
X98891573Y-73702332D01*
X98891573Y-73702332D02*
X99375383Y-74125666D01*
X99375383Y-74125666D02*
X99375383Y-73944237D01*
X99375383Y-73944237D02*
X99435859Y-73823285D01*
X99435859Y-73823285D02*
X99496335Y-73762809D01*
X99496335Y-73762809D02*
X99617288Y-73702332D01*
X99617288Y-73702332D02*
X99919669Y-73702332D01*
X99919669Y-73702332D02*
X100040621Y-73762809D01*
X100040621Y-73762809D02*
X100101097Y-73823285D01*
X100101097Y-73823285D02*
X100161573Y-73944237D01*
X100161573Y-73944237D02*
X100161573Y-74307094D01*
X100161573Y-74307094D02*
X100101097Y-74428047D01*
X100101097Y-74428047D02*
X100040621Y-74488523D01*
D11*
X150005142Y-104941666D02*
X150052761Y-104989285D01*
X150052761Y-104989285D02*
X150100380Y-105132142D01*
X150100380Y-105132142D02*
X150100380Y-105227380D01*
X150100380Y-105227380D02*
X150052761Y-105370237D01*
X150052761Y-105370237D02*
X149957523Y-105465475D01*
X149957523Y-105465475D02*
X149862285Y-105513094D01*
X149862285Y-105513094D02*
X149671809Y-105560713D01*
X149671809Y-105560713D02*
X149528952Y-105560713D01*
X149528952Y-105560713D02*
X149338476Y-105513094D01*
X149338476Y-105513094D02*
X149243238Y-105465475D01*
X149243238Y-105465475D02*
X149148000Y-105370237D01*
X149148000Y-105370237D02*
X149100380Y-105227380D01*
X149100380Y-105227380D02*
X149100380Y-105132142D01*
X149100380Y-105132142D02*
X149148000Y-104989285D01*
X149148000Y-104989285D02*
X149195619Y-104941666D01*
X149100380Y-104608332D02*
X149100380Y-103989285D01*
X149100380Y-103989285D02*
X149481333Y-104322618D01*
X149481333Y-104322618D02*
X149481333Y-104179761D01*
X149481333Y-104179761D02*
X149528952Y-104084523D01*
X149528952Y-104084523D02*
X149576571Y-104036904D01*
X149576571Y-104036904D02*
X149671809Y-103989285D01*
X149671809Y-103989285D02*
X149909904Y-103989285D01*
X149909904Y-103989285D02*
X150005142Y-104036904D01*
X150005142Y-104036904D02*
X150052761Y-104084523D01*
X150052761Y-104084523D02*
X150100380Y-104179761D01*
X150100380Y-104179761D02*
X150100380Y-104465475D01*
X150100380Y-104465475D02*
X150052761Y-104560713D01*
X150052761Y-104560713D02*
X150005142Y-104608332D01*
X130923380Y-117176523D02*
X129923380Y-117176523D01*
X129923380Y-117176523D02*
X129923380Y-116795571D01*
X129923380Y-116795571D02*
X129971000Y-116700333D01*
X129971000Y-116700333D02*
X130018619Y-116652714D01*
X130018619Y-116652714D02*
X130113857Y-116605095D01*
X130113857Y-116605095D02*
X130256714Y-116605095D01*
X130256714Y-116605095D02*
X130351952Y-116652714D01*
X130351952Y-116652714D02*
X130399571Y-116700333D01*
X130399571Y-116700333D02*
X130447190Y-116795571D01*
X130447190Y-116795571D02*
X130447190Y-117176523D01*
X129923380Y-116271761D02*
X130923380Y-116033666D01*
X130923380Y-116033666D02*
X130209095Y-115843190D01*
X130209095Y-115843190D02*
X130923380Y-115652714D01*
X130923380Y-115652714D02*
X129923380Y-115414619D01*
X130923380Y-114462238D02*
X130447190Y-114795571D01*
X130923380Y-115033666D02*
X129923380Y-115033666D01*
X129923380Y-115033666D02*
X129923380Y-114652714D01*
X129923380Y-114652714D02*
X129971000Y-114557476D01*
X129971000Y-114557476D02*
X130018619Y-114509857D01*
X130018619Y-114509857D02*
X130113857Y-114462238D01*
X130113857Y-114462238D02*
X130256714Y-114462238D01*
X130256714Y-114462238D02*
X130351952Y-114509857D01*
X130351952Y-114509857D02*
X130399571Y-114557476D01*
X130399571Y-114557476D02*
X130447190Y-114652714D01*
X130447190Y-114652714D02*
X130447190Y-115033666D01*
X130923380Y-113509857D02*
X130923380Y-114081285D01*
X130923380Y-113795571D02*
X129923380Y-113795571D01*
X129923380Y-113795571D02*
X130066238Y-113890809D01*
X130066238Y-113890809D02*
X130161476Y-113986047D01*
X130161476Y-113986047D02*
X130209095Y-114081285D01*
X93855380Y-146351523D02*
X94569666Y-146351523D01*
X94569666Y-146351523D02*
X94712523Y-146399142D01*
X94712523Y-146399142D02*
X94807761Y-146494380D01*
X94807761Y-146494380D02*
X94855380Y-146637237D01*
X94855380Y-146637237D02*
X94855380Y-146732475D01*
X94855380Y-145351523D02*
X94855380Y-145922951D01*
X94855380Y-145637237D02*
X93855380Y-145637237D01*
X93855380Y-145637237D02*
X93998238Y-145732475D01*
X93998238Y-145732475D02*
X94093476Y-145827713D01*
X94093476Y-145827713D02*
X94141095Y-145922951D01*
X93855380Y-144732475D02*
X93855380Y-144637237D01*
X93855380Y-144637237D02*
X93903000Y-144541999D01*
X93903000Y-144541999D02*
X93950619Y-144494380D01*
X93950619Y-144494380D02*
X94045857Y-144446761D01*
X94045857Y-144446761D02*
X94236333Y-144399142D01*
X94236333Y-144399142D02*
X94474428Y-144399142D01*
X94474428Y-144399142D02*
X94664904Y-144446761D01*
X94664904Y-144446761D02*
X94760142Y-144494380D01*
X94760142Y-144494380D02*
X94807761Y-144541999D01*
X94807761Y-144541999D02*
X94855380Y-144637237D01*
X94855380Y-144637237D02*
X94855380Y-144732475D01*
X94855380Y-144732475D02*
X94807761Y-144827713D01*
X94807761Y-144827713D02*
X94760142Y-144875332D01*
X94760142Y-144875332D02*
X94664904Y-144922951D01*
X94664904Y-144922951D02*
X94474428Y-144970570D01*
X94474428Y-144970570D02*
X94236333Y-144970570D01*
X94236333Y-144970570D02*
X94045857Y-144922951D01*
X94045857Y-144922951D02*
X93950619Y-144875332D01*
X93950619Y-144875332D02*
X93903000Y-144827713D01*
X93903000Y-144827713D02*
X93855380Y-144732475D01*
X121666095Y-130558380D02*
X121666095Y-131367904D01*
X121666095Y-131367904D02*
X121713714Y-131463142D01*
X121713714Y-131463142D02*
X121761333Y-131510761D01*
X121761333Y-131510761D02*
X121856571Y-131558380D01*
X121856571Y-131558380D02*
X122047047Y-131558380D01*
X122047047Y-131558380D02*
X122142285Y-131510761D01*
X122142285Y-131510761D02*
X122189904Y-131463142D01*
X122189904Y-131463142D02*
X122237523Y-131367904D01*
X122237523Y-131367904D02*
X122237523Y-130558380D01*
X122856571Y-130986952D02*
X122761333Y-130939333D01*
X122761333Y-130939333D02*
X122713714Y-130891714D01*
X122713714Y-130891714D02*
X122666095Y-130796476D01*
X122666095Y-130796476D02*
X122666095Y-130748857D01*
X122666095Y-130748857D02*
X122713714Y-130653619D01*
X122713714Y-130653619D02*
X122761333Y-130606000D01*
X122761333Y-130606000D02*
X122856571Y-130558380D01*
X122856571Y-130558380D02*
X123047047Y-130558380D01*
X123047047Y-130558380D02*
X123142285Y-130606000D01*
X123142285Y-130606000D02*
X123189904Y-130653619D01*
X123189904Y-130653619D02*
X123237523Y-130748857D01*
X123237523Y-130748857D02*
X123237523Y-130796476D01*
X123237523Y-130796476D02*
X123189904Y-130891714D01*
X123189904Y-130891714D02*
X123142285Y-130939333D01*
X123142285Y-130939333D02*
X123047047Y-130986952D01*
X123047047Y-130986952D02*
X122856571Y-130986952D01*
X122856571Y-130986952D02*
X122761333Y-131034571D01*
X122761333Y-131034571D02*
X122713714Y-131082190D01*
X122713714Y-131082190D02*
X122666095Y-131177428D01*
X122666095Y-131177428D02*
X122666095Y-131367904D01*
X122666095Y-131367904D02*
X122713714Y-131463142D01*
X122713714Y-131463142D02*
X122761333Y-131510761D01*
X122761333Y-131510761D02*
X122856571Y-131558380D01*
X122856571Y-131558380D02*
X123047047Y-131558380D01*
X123047047Y-131558380D02*
X123142285Y-131510761D01*
X123142285Y-131510761D02*
X123189904Y-131463142D01*
X123189904Y-131463142D02*
X123237523Y-131367904D01*
X123237523Y-131367904D02*
X123237523Y-131177428D01*
X123237523Y-131177428D02*
X123189904Y-131082190D01*
X123189904Y-131082190D02*
X123142285Y-131034571D01*
X123142285Y-131034571D02*
X123047047Y-130986952D01*
X103782952Y-116705380D02*
X103449619Y-116229190D01*
X103211524Y-116705380D02*
X103211524Y-115705380D01*
X103211524Y-115705380D02*
X103592476Y-115705380D01*
X103592476Y-115705380D02*
X103687714Y-115753000D01*
X103687714Y-115753000D02*
X103735333Y-115800619D01*
X103735333Y-115800619D02*
X103782952Y-115895857D01*
X103782952Y-115895857D02*
X103782952Y-116038714D01*
X103782952Y-116038714D02*
X103735333Y-116133952D01*
X103735333Y-116133952D02*
X103687714Y-116181571D01*
X103687714Y-116181571D02*
X103592476Y-116229190D01*
X103592476Y-116229190D02*
X103211524Y-116229190D01*
X104163905Y-115800619D02*
X104211524Y-115753000D01*
X104211524Y-115753000D02*
X104306762Y-115705380D01*
X104306762Y-115705380D02*
X104544857Y-115705380D01*
X104544857Y-115705380D02*
X104640095Y-115753000D01*
X104640095Y-115753000D02*
X104687714Y-115800619D01*
X104687714Y-115800619D02*
X104735333Y-115895857D01*
X104735333Y-115895857D02*
X104735333Y-115991095D01*
X104735333Y-115991095D02*
X104687714Y-116133952D01*
X104687714Y-116133952D02*
X104116286Y-116705380D01*
X104116286Y-116705380D02*
X104735333Y-116705380D01*
X105354381Y-115705380D02*
X105449619Y-115705380D01*
X105449619Y-115705380D02*
X105544857Y-115753000D01*
X105544857Y-115753000D02*
X105592476Y-115800619D01*
X105592476Y-115800619D02*
X105640095Y-115895857D01*
X105640095Y-115895857D02*
X105687714Y-116086333D01*
X105687714Y-116086333D02*
X105687714Y-116324428D01*
X105687714Y-116324428D02*
X105640095Y-116514904D01*
X105640095Y-116514904D02*
X105592476Y-116610142D01*
X105592476Y-116610142D02*
X105544857Y-116657761D01*
X105544857Y-116657761D02*
X105449619Y-116705380D01*
X105449619Y-116705380D02*
X105354381Y-116705380D01*
X105354381Y-116705380D02*
X105259143Y-116657761D01*
X105259143Y-116657761D02*
X105211524Y-116610142D01*
X105211524Y-116610142D02*
X105163905Y-116514904D01*
X105163905Y-116514904D02*
X105116286Y-116324428D01*
X105116286Y-116324428D02*
X105116286Y-116086333D01*
X105116286Y-116086333D02*
X105163905Y-115895857D01*
X105163905Y-115895857D02*
X105211524Y-115800619D01*
X105211524Y-115800619D02*
X105259143Y-115753000D01*
X105259143Y-115753000D02*
X105354381Y-115705380D01*
X106021048Y-115705380D02*
X106640095Y-115705380D01*
X106640095Y-115705380D02*
X106306762Y-116086333D01*
X106306762Y-116086333D02*
X106449619Y-116086333D01*
X106449619Y-116086333D02*
X106544857Y-116133952D01*
X106544857Y-116133952D02*
X106592476Y-116181571D01*
X106592476Y-116181571D02*
X106640095Y-116276809D01*
X106640095Y-116276809D02*
X106640095Y-116514904D01*
X106640095Y-116514904D02*
X106592476Y-116610142D01*
X106592476Y-116610142D02*
X106544857Y-116657761D01*
X106544857Y-116657761D02*
X106449619Y-116705380D01*
X106449619Y-116705380D02*
X106163905Y-116705380D01*
X106163905Y-116705380D02*
X106068667Y-116657761D01*
X106068667Y-116657761D02*
X106021048Y-116610142D01*
X128637380Y-143231904D02*
X127637380Y-143231904D01*
X127637380Y-143231904D02*
X127637380Y-142850952D01*
X127637380Y-142850952D02*
X127685000Y-142755714D01*
X127685000Y-142755714D02*
X127732619Y-142708095D01*
X127732619Y-142708095D02*
X127827857Y-142660476D01*
X127827857Y-142660476D02*
X127970714Y-142660476D01*
X127970714Y-142660476D02*
X128065952Y-142708095D01*
X128065952Y-142708095D02*
X128113571Y-142755714D01*
X128113571Y-142755714D02*
X128161190Y-142850952D01*
X128161190Y-142850952D02*
X128161190Y-143231904D01*
X128637380Y-141660476D02*
X128161190Y-141993809D01*
X128637380Y-142231904D02*
X127637380Y-142231904D01*
X127637380Y-142231904D02*
X127637380Y-141850952D01*
X127637380Y-141850952D02*
X127685000Y-141755714D01*
X127685000Y-141755714D02*
X127732619Y-141708095D01*
X127732619Y-141708095D02*
X127827857Y-141660476D01*
X127827857Y-141660476D02*
X127970714Y-141660476D01*
X127970714Y-141660476D02*
X128065952Y-141708095D01*
X128065952Y-141708095D02*
X128113571Y-141755714D01*
X128113571Y-141755714D02*
X128161190Y-141850952D01*
X128161190Y-141850952D02*
X128161190Y-142231904D01*
X127637380Y-141041428D02*
X127637380Y-140850952D01*
X127637380Y-140850952D02*
X127685000Y-140755714D01*
X127685000Y-140755714D02*
X127780238Y-140660476D01*
X127780238Y-140660476D02*
X127970714Y-140612857D01*
X127970714Y-140612857D02*
X128304047Y-140612857D01*
X128304047Y-140612857D02*
X128494523Y-140660476D01*
X128494523Y-140660476D02*
X128589761Y-140755714D01*
X128589761Y-140755714D02*
X128637380Y-140850952D01*
X128637380Y-140850952D02*
X128637380Y-141041428D01*
X128637380Y-141041428D02*
X128589761Y-141136666D01*
X128589761Y-141136666D02*
X128494523Y-141231904D01*
X128494523Y-141231904D02*
X128304047Y-141279523D01*
X128304047Y-141279523D02*
X127970714Y-141279523D01*
X127970714Y-141279523D02*
X127780238Y-141231904D01*
X127780238Y-141231904D02*
X127685000Y-141136666D01*
X127685000Y-141136666D02*
X127637380Y-141041428D01*
X127685000Y-139660476D02*
X127637380Y-139755714D01*
X127637380Y-139755714D02*
X127637380Y-139898571D01*
X127637380Y-139898571D02*
X127685000Y-140041428D01*
X127685000Y-140041428D02*
X127780238Y-140136666D01*
X127780238Y-140136666D02*
X127875476Y-140184285D01*
X127875476Y-140184285D02*
X128065952Y-140231904D01*
X128065952Y-140231904D02*
X128208809Y-140231904D01*
X128208809Y-140231904D02*
X128399285Y-140184285D01*
X128399285Y-140184285D02*
X128494523Y-140136666D01*
X128494523Y-140136666D02*
X128589761Y-140041428D01*
X128589761Y-140041428D02*
X128637380Y-139898571D01*
X128637380Y-139898571D02*
X128637380Y-139803333D01*
X128637380Y-139803333D02*
X128589761Y-139660476D01*
X128589761Y-139660476D02*
X128542142Y-139612857D01*
X128542142Y-139612857D02*
X128208809Y-139612857D01*
X128208809Y-139612857D02*
X128208809Y-139803333D01*
X128637380Y-138660476D02*
X128637380Y-139231904D01*
X128637380Y-138946190D02*
X127637380Y-138946190D01*
X127637380Y-138946190D02*
X127780238Y-139041428D01*
X127780238Y-139041428D02*
X127875476Y-139136666D01*
X127875476Y-139136666D02*
X127923095Y-139231904D01*
X160266142Y-125462380D02*
X159932809Y-124986190D01*
X159694714Y-125462380D02*
X159694714Y-124462380D01*
X159694714Y-124462380D02*
X160075666Y-124462380D01*
X160075666Y-124462380D02*
X160170904Y-124510000D01*
X160170904Y-124510000D02*
X160218523Y-124557619D01*
X160218523Y-124557619D02*
X160266142Y-124652857D01*
X160266142Y-124652857D02*
X160266142Y-124795714D01*
X160266142Y-124795714D02*
X160218523Y-124890952D01*
X160218523Y-124890952D02*
X160170904Y-124938571D01*
X160170904Y-124938571D02*
X160075666Y-124986190D01*
X160075666Y-124986190D02*
X159694714Y-124986190D01*
X160647095Y-124557619D02*
X160694714Y-124510000D01*
X160694714Y-124510000D02*
X160789952Y-124462380D01*
X160789952Y-124462380D02*
X161028047Y-124462380D01*
X161028047Y-124462380D02*
X161123285Y-124510000D01*
X161123285Y-124510000D02*
X161170904Y-124557619D01*
X161170904Y-124557619D02*
X161218523Y-124652857D01*
X161218523Y-124652857D02*
X161218523Y-124748095D01*
X161218523Y-124748095D02*
X161170904Y-124890952D01*
X161170904Y-124890952D02*
X160599476Y-125462380D01*
X160599476Y-125462380D02*
X161218523Y-125462380D01*
X161789952Y-124890952D02*
X161694714Y-124843333D01*
X161694714Y-124843333D02*
X161647095Y-124795714D01*
X161647095Y-124795714D02*
X161599476Y-124700476D01*
X161599476Y-124700476D02*
X161599476Y-124652857D01*
X161599476Y-124652857D02*
X161647095Y-124557619D01*
X161647095Y-124557619D02*
X161694714Y-124510000D01*
X161694714Y-124510000D02*
X161789952Y-124462380D01*
X161789952Y-124462380D02*
X161980428Y-124462380D01*
X161980428Y-124462380D02*
X162075666Y-124510000D01*
X162075666Y-124510000D02*
X162123285Y-124557619D01*
X162123285Y-124557619D02*
X162170904Y-124652857D01*
X162170904Y-124652857D02*
X162170904Y-124700476D01*
X162170904Y-124700476D02*
X162123285Y-124795714D01*
X162123285Y-124795714D02*
X162075666Y-124843333D01*
X162075666Y-124843333D02*
X161980428Y-124890952D01*
X161980428Y-124890952D02*
X161789952Y-124890952D01*
X161789952Y-124890952D02*
X161694714Y-124938571D01*
X161694714Y-124938571D02*
X161647095Y-124986190D01*
X161647095Y-124986190D02*
X161599476Y-125081428D01*
X161599476Y-125081428D02*
X161599476Y-125271904D01*
X161599476Y-125271904D02*
X161647095Y-125367142D01*
X161647095Y-125367142D02*
X161694714Y-125414761D01*
X161694714Y-125414761D02*
X161789952Y-125462380D01*
X161789952Y-125462380D02*
X161980428Y-125462380D01*
X161980428Y-125462380D02*
X162075666Y-125414761D01*
X162075666Y-125414761D02*
X162123285Y-125367142D01*
X162123285Y-125367142D02*
X162170904Y-125271904D01*
X162170904Y-125271904D02*
X162170904Y-125081428D01*
X162170904Y-125081428D02*
X162123285Y-124986190D01*
X162123285Y-124986190D02*
X162075666Y-124938571D01*
X162075666Y-124938571D02*
X161980428Y-124890952D01*
X126635214Y-81983380D02*
X126635214Y-80983380D01*
X126635214Y-80983380D02*
X127016166Y-80983380D01*
X127016166Y-80983380D02*
X127111404Y-81031000D01*
X127111404Y-81031000D02*
X127159023Y-81078619D01*
X127159023Y-81078619D02*
X127206642Y-81173857D01*
X127206642Y-81173857D02*
X127206642Y-81316714D01*
X127206642Y-81316714D02*
X127159023Y-81411952D01*
X127159023Y-81411952D02*
X127111404Y-81459571D01*
X127111404Y-81459571D02*
X127016166Y-81507190D01*
X127016166Y-81507190D02*
X126635214Y-81507190D01*
X127587595Y-81935761D02*
X127730452Y-81983380D01*
X127730452Y-81983380D02*
X127968547Y-81983380D01*
X127968547Y-81983380D02*
X128063785Y-81935761D01*
X128063785Y-81935761D02*
X128111404Y-81888142D01*
X128111404Y-81888142D02*
X128159023Y-81792904D01*
X128159023Y-81792904D02*
X128159023Y-81697666D01*
X128159023Y-81697666D02*
X128111404Y-81602428D01*
X128111404Y-81602428D02*
X128063785Y-81554809D01*
X128063785Y-81554809D02*
X127968547Y-81507190D01*
X127968547Y-81507190D02*
X127778071Y-81459571D01*
X127778071Y-81459571D02*
X127682833Y-81411952D01*
X127682833Y-81411952D02*
X127635214Y-81364333D01*
X127635214Y-81364333D02*
X127587595Y-81269095D01*
X127587595Y-81269095D02*
X127587595Y-81173857D01*
X127587595Y-81173857D02*
X127635214Y-81078619D01*
X127635214Y-81078619D02*
X127682833Y-81031000D01*
X127682833Y-81031000D02*
X127778071Y-80983380D01*
X127778071Y-80983380D02*
X128016166Y-80983380D01*
X128016166Y-80983380D02*
X128159023Y-81031000D01*
X129111404Y-81983380D02*
X128539976Y-81983380D01*
X128825690Y-81983380D02*
X128825690Y-80983380D01*
X128825690Y-80983380D02*
X128730452Y-81126238D01*
X128730452Y-81126238D02*
X128635214Y-81221476D01*
X128635214Y-81221476D02*
X128539976Y-81269095D01*
X123970142Y-143612666D02*
X124017761Y-143660285D01*
X124017761Y-143660285D02*
X124065380Y-143803142D01*
X124065380Y-143803142D02*
X124065380Y-143898380D01*
X124065380Y-143898380D02*
X124017761Y-144041237D01*
X124017761Y-144041237D02*
X123922523Y-144136475D01*
X123922523Y-144136475D02*
X123827285Y-144184094D01*
X123827285Y-144184094D02*
X123636809Y-144231713D01*
X123636809Y-144231713D02*
X123493952Y-144231713D01*
X123493952Y-144231713D02*
X123303476Y-144184094D01*
X123303476Y-144184094D02*
X123208238Y-144136475D01*
X123208238Y-144136475D02*
X123113000Y-144041237D01*
X123113000Y-144041237D02*
X123065380Y-143898380D01*
X123065380Y-143898380D02*
X123065380Y-143803142D01*
X123065380Y-143803142D02*
X123113000Y-143660285D01*
X123113000Y-143660285D02*
X123160619Y-143612666D01*
X123065380Y-142755523D02*
X123065380Y-142945999D01*
X123065380Y-142945999D02*
X123113000Y-143041237D01*
X123113000Y-143041237D02*
X123160619Y-143088856D01*
X123160619Y-143088856D02*
X123303476Y-143184094D01*
X123303476Y-143184094D02*
X123493952Y-143231713D01*
X123493952Y-143231713D02*
X123874904Y-143231713D01*
X123874904Y-143231713D02*
X123970142Y-143184094D01*
X123970142Y-143184094D02*
X124017761Y-143136475D01*
X124017761Y-143136475D02*
X124065380Y-143041237D01*
X124065380Y-143041237D02*
X124065380Y-142850761D01*
X124065380Y-142850761D02*
X124017761Y-142755523D01*
X124017761Y-142755523D02*
X123970142Y-142707904D01*
X123970142Y-142707904D02*
X123874904Y-142660285D01*
X123874904Y-142660285D02*
X123636809Y-142660285D01*
X123636809Y-142660285D02*
X123541571Y-142707904D01*
X123541571Y-142707904D02*
X123493952Y-142755523D01*
X123493952Y-142755523D02*
X123446333Y-142850761D01*
X123446333Y-142850761D02*
X123446333Y-143041237D01*
X123446333Y-143041237D02*
X123493952Y-143136475D01*
X123493952Y-143136475D02*
X123541571Y-143184094D01*
X123541571Y-143184094D02*
X123636809Y-143231713D01*
X121666095Y-124589380D02*
X121666095Y-125398904D01*
X121666095Y-125398904D02*
X121713714Y-125494142D01*
X121713714Y-125494142D02*
X121761333Y-125541761D01*
X121761333Y-125541761D02*
X121856571Y-125589380D01*
X121856571Y-125589380D02*
X122047047Y-125589380D01*
X122047047Y-125589380D02*
X122142285Y-125541761D01*
X122142285Y-125541761D02*
X122189904Y-125494142D01*
X122189904Y-125494142D02*
X122237523Y-125398904D01*
X122237523Y-125398904D02*
X122237523Y-124589380D01*
X122618476Y-124589380D02*
X123285142Y-124589380D01*
X123285142Y-124589380D02*
X122856571Y-125589380D01*
D12*
X163915573Y-76242332D02*
X164822716Y-76242332D01*
X164822716Y-76242332D02*
X165004145Y-76302809D01*
X165004145Y-76302809D02*
X165125097Y-76423761D01*
X165125097Y-76423761D02*
X165185573Y-76605190D01*
X165185573Y-76605190D02*
X165185573Y-76726142D01*
X163915573Y-75093285D02*
X163915573Y-75335190D01*
X163915573Y-75335190D02*
X163976050Y-75456142D01*
X163976050Y-75456142D02*
X164036526Y-75516618D01*
X164036526Y-75516618D02*
X164217954Y-75637571D01*
X164217954Y-75637571D02*
X164459859Y-75698047D01*
X164459859Y-75698047D02*
X164943669Y-75698047D01*
X164943669Y-75698047D02*
X165064621Y-75637571D01*
X165064621Y-75637571D02*
X165125097Y-75577094D01*
X165125097Y-75577094D02*
X165185573Y-75456142D01*
X165185573Y-75456142D02*
X165185573Y-75214237D01*
X165185573Y-75214237D02*
X165125097Y-75093285D01*
X165125097Y-75093285D02*
X165064621Y-75032809D01*
X165064621Y-75032809D02*
X164943669Y-74972332D01*
X164943669Y-74972332D02*
X164641288Y-74972332D01*
X164641288Y-74972332D02*
X164520335Y-75032809D01*
X164520335Y-75032809D02*
X164459859Y-75093285D01*
X164459859Y-75093285D02*
X164399383Y-75214237D01*
X164399383Y-75214237D02*
X164399383Y-75456142D01*
X164399383Y-75456142D02*
X164459859Y-75577094D01*
X164459859Y-75577094D02*
X164520335Y-75637571D01*
X164520335Y-75637571D02*
X164641288Y-75698047D01*
D11*
X157355380Y-106425904D02*
X158164904Y-106425904D01*
X158164904Y-106425904D02*
X158260142Y-106378285D01*
X158260142Y-106378285D02*
X158307761Y-106330666D01*
X158307761Y-106330666D02*
X158355380Y-106235428D01*
X158355380Y-106235428D02*
X158355380Y-106044952D01*
X158355380Y-106044952D02*
X158307761Y-105949714D01*
X158307761Y-105949714D02*
X158260142Y-105902095D01*
X158260142Y-105902095D02*
X158164904Y-105854476D01*
X158164904Y-105854476D02*
X157355380Y-105854476D01*
X158355380Y-104854476D02*
X158355380Y-105425904D01*
X158355380Y-105140190D02*
X157355380Y-105140190D01*
X157355380Y-105140190D02*
X157498238Y-105235428D01*
X157498238Y-105235428D02*
X157593476Y-105330666D01*
X157593476Y-105330666D02*
X157641095Y-105425904D01*
X134827380Y-119635166D02*
X134351190Y-119968499D01*
X134827380Y-120206594D02*
X133827380Y-120206594D01*
X133827380Y-120206594D02*
X133827380Y-119825642D01*
X133827380Y-119825642D02*
X133875000Y-119730404D01*
X133875000Y-119730404D02*
X133922619Y-119682785D01*
X133922619Y-119682785D02*
X134017857Y-119635166D01*
X134017857Y-119635166D02*
X134160714Y-119635166D01*
X134160714Y-119635166D02*
X134255952Y-119682785D01*
X134255952Y-119682785D02*
X134303571Y-119730404D01*
X134303571Y-119730404D02*
X134351190Y-119825642D01*
X134351190Y-119825642D02*
X134351190Y-120206594D01*
X134255952Y-119063737D02*
X134208333Y-119158975D01*
X134208333Y-119158975D02*
X134160714Y-119206594D01*
X134160714Y-119206594D02*
X134065476Y-119254213D01*
X134065476Y-119254213D02*
X134017857Y-119254213D01*
X134017857Y-119254213D02*
X133922619Y-119206594D01*
X133922619Y-119206594D02*
X133875000Y-119158975D01*
X133875000Y-119158975D02*
X133827380Y-119063737D01*
X133827380Y-119063737D02*
X133827380Y-118873261D01*
X133827380Y-118873261D02*
X133875000Y-118778023D01*
X133875000Y-118778023D02*
X133922619Y-118730404D01*
X133922619Y-118730404D02*
X134017857Y-118682785D01*
X134017857Y-118682785D02*
X134065476Y-118682785D01*
X134065476Y-118682785D02*
X134160714Y-118730404D01*
X134160714Y-118730404D02*
X134208333Y-118778023D01*
X134208333Y-118778023D02*
X134255952Y-118873261D01*
X134255952Y-118873261D02*
X134255952Y-119063737D01*
X134255952Y-119063737D02*
X134303571Y-119158975D01*
X134303571Y-119158975D02*
X134351190Y-119206594D01*
X134351190Y-119206594D02*
X134446428Y-119254213D01*
X134446428Y-119254213D02*
X134636904Y-119254213D01*
X134636904Y-119254213D02*
X134732142Y-119206594D01*
X134732142Y-119206594D02*
X134779761Y-119158975D01*
X134779761Y-119158975D02*
X134827380Y-119063737D01*
X134827380Y-119063737D02*
X134827380Y-118873261D01*
X134827380Y-118873261D02*
X134779761Y-118778023D01*
X134779761Y-118778023D02*
X134732142Y-118730404D01*
X134732142Y-118730404D02*
X134636904Y-118682785D01*
X134636904Y-118682785D02*
X134446428Y-118682785D01*
X134446428Y-118682785D02*
X134351190Y-118730404D01*
X134351190Y-118730404D02*
X134303571Y-118778023D01*
X134303571Y-118778023D02*
X134255952Y-118873261D01*
X158415333Y-138067142D02*
X158367714Y-138114761D01*
X158367714Y-138114761D02*
X158224857Y-138162380D01*
X158224857Y-138162380D02*
X158129619Y-138162380D01*
X158129619Y-138162380D02*
X157986762Y-138114761D01*
X157986762Y-138114761D02*
X157891524Y-138019523D01*
X157891524Y-138019523D02*
X157843905Y-137924285D01*
X157843905Y-137924285D02*
X157796286Y-137733809D01*
X157796286Y-137733809D02*
X157796286Y-137590952D01*
X157796286Y-137590952D02*
X157843905Y-137400476D01*
X157843905Y-137400476D02*
X157891524Y-137305238D01*
X157891524Y-137305238D02*
X157986762Y-137210000D01*
X157986762Y-137210000D02*
X158129619Y-137162380D01*
X158129619Y-137162380D02*
X158224857Y-137162380D01*
X158224857Y-137162380D02*
X158367714Y-137210000D01*
X158367714Y-137210000D02*
X158415333Y-137257619D01*
X158891524Y-138162380D02*
X159082000Y-138162380D01*
X159082000Y-138162380D02*
X159177238Y-138114761D01*
X159177238Y-138114761D02*
X159224857Y-138067142D01*
X159224857Y-138067142D02*
X159320095Y-137924285D01*
X159320095Y-137924285D02*
X159367714Y-137733809D01*
X159367714Y-137733809D02*
X159367714Y-137352857D01*
X159367714Y-137352857D02*
X159320095Y-137257619D01*
X159320095Y-137257619D02*
X159272476Y-137210000D01*
X159272476Y-137210000D02*
X159177238Y-137162380D01*
X159177238Y-137162380D02*
X158986762Y-137162380D01*
X158986762Y-137162380D02*
X158891524Y-137210000D01*
X158891524Y-137210000D02*
X158843905Y-137257619D01*
X158843905Y-137257619D02*
X158796286Y-137352857D01*
X158796286Y-137352857D02*
X158796286Y-137590952D01*
X158796286Y-137590952D02*
X158843905Y-137686190D01*
X158843905Y-137686190D02*
X158891524Y-137733809D01*
X158891524Y-137733809D02*
X158986762Y-137781428D01*
X158986762Y-137781428D02*
X159177238Y-137781428D01*
X159177238Y-137781428D02*
X159272476Y-137733809D01*
X159272476Y-137733809D02*
X159320095Y-137686190D01*
X159320095Y-137686190D02*
X159367714Y-137590952D01*
X153568380Y-126296904D02*
X154377904Y-126296904D01*
X154377904Y-126296904D02*
X154473142Y-126249285D01*
X154473142Y-126249285D02*
X154520761Y-126201666D01*
X154520761Y-126201666D02*
X154568380Y-126106428D01*
X154568380Y-126106428D02*
X154568380Y-125915952D01*
X154568380Y-125915952D02*
X154520761Y-125820714D01*
X154520761Y-125820714D02*
X154473142Y-125773095D01*
X154473142Y-125773095D02*
X154377904Y-125725476D01*
X154377904Y-125725476D02*
X153568380Y-125725476D01*
X153568380Y-125344523D02*
X153568380Y-124725476D01*
X153568380Y-124725476D02*
X153949333Y-125058809D01*
X153949333Y-125058809D02*
X153949333Y-124915952D01*
X153949333Y-124915952D02*
X153996952Y-124820714D01*
X153996952Y-124820714D02*
X154044571Y-124773095D01*
X154044571Y-124773095D02*
X154139809Y-124725476D01*
X154139809Y-124725476D02*
X154377904Y-124725476D01*
X154377904Y-124725476D02*
X154473142Y-124773095D01*
X154473142Y-124773095D02*
X154520761Y-124820714D01*
X154520761Y-124820714D02*
X154568380Y-124915952D01*
X154568380Y-124915952D02*
X154568380Y-125201666D01*
X154568380Y-125201666D02*
X154520761Y-125296904D01*
X154520761Y-125296904D02*
X154473142Y-125344523D01*
X116101905Y-75170380D02*
X116101905Y-74170380D01*
X116673333Y-75170380D02*
X116244762Y-74598952D01*
X116673333Y-74170380D02*
X116101905Y-74741809D01*
X117054286Y-74265619D02*
X117101905Y-74218000D01*
X117101905Y-74218000D02*
X117197143Y-74170380D01*
X117197143Y-74170380D02*
X117435238Y-74170380D01*
X117435238Y-74170380D02*
X117530476Y-74218000D01*
X117530476Y-74218000D02*
X117578095Y-74265619D01*
X117578095Y-74265619D02*
X117625714Y-74360857D01*
X117625714Y-74360857D02*
X117625714Y-74456095D01*
X117625714Y-74456095D02*
X117578095Y-74598952D01*
X117578095Y-74598952D02*
X117006667Y-75170380D01*
X117006667Y-75170380D02*
X117625714Y-75170380D01*
X124065380Y-140786857D02*
X123589190Y-141120190D01*
X124065380Y-141358285D02*
X123065380Y-141358285D01*
X123065380Y-141358285D02*
X123065380Y-140977333D01*
X123065380Y-140977333D02*
X123113000Y-140882095D01*
X123113000Y-140882095D02*
X123160619Y-140834476D01*
X123160619Y-140834476D02*
X123255857Y-140786857D01*
X123255857Y-140786857D02*
X123398714Y-140786857D01*
X123398714Y-140786857D02*
X123493952Y-140834476D01*
X123493952Y-140834476D02*
X123541571Y-140882095D01*
X123541571Y-140882095D02*
X123589190Y-140977333D01*
X123589190Y-140977333D02*
X123589190Y-141358285D01*
X124065380Y-139834476D02*
X124065380Y-140405904D01*
X124065380Y-140120190D02*
X123065380Y-140120190D01*
X123065380Y-140120190D02*
X123208238Y-140215428D01*
X123208238Y-140215428D02*
X123303476Y-140310666D01*
X123303476Y-140310666D02*
X123351095Y-140405904D01*
X123065380Y-139215428D02*
X123065380Y-139120190D01*
X123065380Y-139120190D02*
X123113000Y-139024952D01*
X123113000Y-139024952D02*
X123160619Y-138977333D01*
X123160619Y-138977333D02*
X123255857Y-138929714D01*
X123255857Y-138929714D02*
X123446333Y-138882095D01*
X123446333Y-138882095D02*
X123684428Y-138882095D01*
X123684428Y-138882095D02*
X123874904Y-138929714D01*
X123874904Y-138929714D02*
X123970142Y-138977333D01*
X123970142Y-138977333D02*
X124017761Y-139024952D01*
X124017761Y-139024952D02*
X124065380Y-139120190D01*
X124065380Y-139120190D02*
X124065380Y-139215428D01*
X124065380Y-139215428D02*
X124017761Y-139310666D01*
X124017761Y-139310666D02*
X123970142Y-139358285D01*
X123970142Y-139358285D02*
X123874904Y-139405904D01*
X123874904Y-139405904D02*
X123684428Y-139453523D01*
X123684428Y-139453523D02*
X123446333Y-139453523D01*
X123446333Y-139453523D02*
X123255857Y-139405904D01*
X123255857Y-139405904D02*
X123160619Y-139358285D01*
X123160619Y-139358285D02*
X123113000Y-139310666D01*
X123113000Y-139310666D02*
X123065380Y-139215428D01*
X150259142Y-97829666D02*
X150306761Y-97877285D01*
X150306761Y-97877285D02*
X150354380Y-98020142D01*
X150354380Y-98020142D02*
X150354380Y-98115380D01*
X150354380Y-98115380D02*
X150306761Y-98258237D01*
X150306761Y-98258237D02*
X150211523Y-98353475D01*
X150211523Y-98353475D02*
X150116285Y-98401094D01*
X150116285Y-98401094D02*
X149925809Y-98448713D01*
X149925809Y-98448713D02*
X149782952Y-98448713D01*
X149782952Y-98448713D02*
X149592476Y-98401094D01*
X149592476Y-98401094D02*
X149497238Y-98353475D01*
X149497238Y-98353475D02*
X149402000Y-98258237D01*
X149402000Y-98258237D02*
X149354380Y-98115380D01*
X149354380Y-98115380D02*
X149354380Y-98020142D01*
X149354380Y-98020142D02*
X149402000Y-97877285D01*
X149402000Y-97877285D02*
X149449619Y-97829666D01*
X149687714Y-96972523D02*
X150354380Y-96972523D01*
X149306761Y-97210618D02*
X150021047Y-97448713D01*
X150021047Y-97448713D02*
X150021047Y-96829666D01*
D12*
X98764573Y-55287332D02*
X99671716Y-55287332D01*
X99671716Y-55287332D02*
X99853145Y-55347809D01*
X99853145Y-55347809D02*
X99974097Y-55468761D01*
X99974097Y-55468761D02*
X100034573Y-55650190D01*
X100034573Y-55650190D02*
X100034573Y-55771142D01*
X100034573Y-54017332D02*
X100034573Y-54743047D01*
X100034573Y-54380190D02*
X98764573Y-54380190D01*
X98764573Y-54380190D02*
X98946002Y-54501142D01*
X98946002Y-54501142D02*
X99066954Y-54622094D01*
X99066954Y-54622094D02*
X99127430Y-54743047D01*
D11*
X159967333Y-120922142D02*
X159919714Y-120969761D01*
X159919714Y-120969761D02*
X159776857Y-121017380D01*
X159776857Y-121017380D02*
X159681619Y-121017380D01*
X159681619Y-121017380D02*
X159538762Y-120969761D01*
X159538762Y-120969761D02*
X159443524Y-120874523D01*
X159443524Y-120874523D02*
X159395905Y-120779285D01*
X159395905Y-120779285D02*
X159348286Y-120588809D01*
X159348286Y-120588809D02*
X159348286Y-120445952D01*
X159348286Y-120445952D02*
X159395905Y-120255476D01*
X159395905Y-120255476D02*
X159443524Y-120160238D01*
X159443524Y-120160238D02*
X159538762Y-120065000D01*
X159538762Y-120065000D02*
X159681619Y-120017380D01*
X159681619Y-120017380D02*
X159776857Y-120017380D01*
X159776857Y-120017380D02*
X159919714Y-120065000D01*
X159919714Y-120065000D02*
X159967333Y-120112619D01*
X160919714Y-121017380D02*
X160348286Y-121017380D01*
X160634000Y-121017380D02*
X160634000Y-120017380D01*
X160634000Y-120017380D02*
X160538762Y-120160238D01*
X160538762Y-120160238D02*
X160443524Y-120255476D01*
X160443524Y-120255476D02*
X160348286Y-120303095D01*
D13*
X168308000Y-134864000D02*
X170408000Y-134864000D01*
X168308000Y-134864000D02*
X168308000Y-127264000D01*
X170408000Y-134864000D02*
X173608000Y-134864000D01*
X170408000Y-134864000D02*
X170408000Y-127264000D01*
X173608000Y-134864000D02*
X174608000Y-134864000D01*
X173608000Y-134864000D02*
X173608000Y-127264000D01*
X174608000Y-134864000D02*
X175608000Y-134864000D01*
X174608000Y-134864000D02*
X174608000Y-127264000D01*
X175608000Y-134864000D02*
X175608000Y-127264000D01*
X175425500Y-133599000D02*
X174790500Y-133281500D01*
X175425500Y-133599000D02*
X174473000Y-132964000D01*
X175425500Y-133599000D02*
X175108000Y-132964000D01*
X174790500Y-133281500D02*
X174155500Y-132964000D01*
X174790500Y-133281500D02*
X174790500Y-132964000D01*
X174790500Y-133281500D02*
X175108000Y-132964000D01*
X175108000Y-133281500D02*
X175425500Y-133599000D01*
X175108000Y-133281500D02*
X174790500Y-133281500D01*
X175108000Y-133281500D02*
X175425500Y-133281500D01*
X175108000Y-133281500D02*
X174790500Y-132964000D01*
X175425500Y-133281500D02*
X175425500Y-133599000D01*
X175425500Y-133281500D02*
X175108000Y-132964000D01*
X174155500Y-132964000D02*
X174473000Y-132964000D01*
X174155500Y-132964000D02*
X174790500Y-132646500D01*
X174473000Y-132964000D02*
X174155500Y-132964000D01*
X174473000Y-132964000D02*
X174790500Y-132964000D01*
X174473000Y-132964000D02*
X175108000Y-132964000D01*
X174473000Y-132964000D02*
X175425500Y-132329000D01*
X174790500Y-132964000D02*
X174790500Y-133281500D01*
X174790500Y-132964000D02*
X175108000Y-133281500D01*
X174790500Y-132964000D02*
X175108000Y-133281500D01*
X174790500Y-132964000D02*
X174473000Y-132964000D01*
X174790500Y-132964000D02*
X174790500Y-132646500D01*
X175108000Y-132964000D02*
X175108000Y-133281500D01*
X175108000Y-132964000D02*
X174790500Y-132964000D01*
X175108000Y-132964000D02*
X175425500Y-132964000D01*
X175108000Y-132964000D02*
X174790500Y-132646500D01*
X175108000Y-132964000D02*
X175108000Y-132646500D01*
X175108000Y-132964000D02*
X175425500Y-132329000D01*
X175425500Y-132964000D02*
X175108000Y-133281500D01*
X175425500Y-132964000D02*
X175425500Y-133281500D01*
X175425500Y-132964000D02*
X175425500Y-132646500D01*
X174790500Y-132646500D02*
X174473000Y-132964000D01*
X174790500Y-132646500D02*
X175108000Y-132964000D01*
X174790500Y-132646500D02*
X175425500Y-132329000D01*
X175108000Y-132646500D02*
X174790500Y-132964000D01*
X175108000Y-132646500D02*
X175108000Y-132964000D01*
X175108000Y-132646500D02*
X175425500Y-132964000D01*
X175425500Y-132646500D02*
X175108000Y-132964000D01*
X175425500Y-132646500D02*
X175425500Y-132964000D01*
D14*
X171055500Y-132329000D02*
X172643000Y-133916500D01*
D13*
X175425500Y-132329000D02*
X175108000Y-132646500D01*
X175425500Y-132329000D02*
X175108000Y-132646500D01*
X175425500Y-132329000D02*
X175425500Y-132646500D01*
D14*
X171373000Y-132011500D02*
X172960500Y-133599000D01*
X171055500Y-128519000D02*
X172643000Y-130106500D01*
X171373000Y-128201500D02*
X172960500Y-129789000D01*
D13*
X168308000Y-127264000D02*
X170408000Y-127264000D01*
X170308000Y-127264000D02*
X173508000Y-127264000D01*
X173608000Y-127264000D02*
X174608000Y-127264000D01*
X174608000Y-127264000D02*
X175608000Y-127264000D01*
D14*
X173228000Y-132964000D02*
G75*
G03*
X173228000Y-132964000I-1220000J0D01*
G01*
X173258000Y-129154000D02*
G75*
G03*
X173258000Y-129154000I-1250000J0D01*
G01*
D15*
X96520000Y-58835000D02*
X96520000Y-59089000D01*
X95250000Y-58835000D02*
X96520000Y-58835000D01*
X90424000Y-58835000D02*
X90424000Y-59089000D01*
X89154000Y-58835000D02*
X90424000Y-58835000D01*
X96520000Y-59089000D02*
X96266000Y-59343000D01*
X95250000Y-59089000D02*
X95250000Y-58835000D01*
X90424000Y-59089000D02*
X90170000Y-59343000D01*
X89154000Y-59089000D02*
X89154000Y-58835000D01*
X96266000Y-59343000D02*
X96266000Y-59724000D01*
X95504000Y-59343000D02*
X95250000Y-59089000D01*
X90170000Y-59343000D02*
X90170000Y-59724000D01*
X89408000Y-59343000D02*
X89154000Y-59089000D01*
X95504000Y-59724000D02*
X95504000Y-59343000D01*
X89408000Y-59724000D02*
X89408000Y-59343000D01*
D14*
X97460000Y-59764000D02*
X97460000Y-69764000D01*
X87960000Y-59764000D02*
X97460000Y-59764000D01*
D15*
X88900000Y-60994000D02*
X88900000Y-63534000D01*
X88011000Y-60994000D02*
X88900000Y-60994000D01*
X88900000Y-63534000D02*
X88011000Y-63534000D01*
X88900000Y-66074000D02*
X88900000Y-68614000D01*
X88011000Y-66074000D02*
X88900000Y-66074000D01*
X88900000Y-68614000D02*
X88011000Y-68614000D01*
X96520000Y-68868000D02*
X96520000Y-69122000D01*
X95250000Y-68868000D02*
X96520000Y-68868000D01*
X90424000Y-68868000D02*
X90424000Y-69122000D01*
X89154000Y-68868000D02*
X90424000Y-68868000D01*
X96520000Y-69122000D02*
X96266000Y-69376000D01*
X95250000Y-69122000D02*
X95250000Y-68868000D01*
X90424000Y-69122000D02*
X90170000Y-69376000D01*
X89154000Y-69122000D02*
X89154000Y-68868000D01*
X96266000Y-69376000D02*
X96266000Y-69757000D01*
X95504000Y-69376000D02*
X95250000Y-69122000D01*
X90170000Y-69376000D02*
X90170000Y-69757000D01*
X89408000Y-69376000D02*
X89154000Y-69122000D01*
X95504000Y-69757000D02*
X95504000Y-69376000D01*
X89408000Y-69757000D02*
X89408000Y-69376000D01*
D14*
X97460000Y-69764000D02*
X87960000Y-69764000D01*
X87960000Y-69764000D02*
X87960000Y-59764000D01*
D10*
X92760000Y-58914000D02*
G75*
G03*
X92760000Y-58914000I-50000J0D01*
G01*
D15*
X103501936Y-128942000D02*
X106556064Y-128942000D01*
X103501936Y-131662000D02*
X106556064Y-131662000D01*
X150257742Y-110348500D02*
X150732258Y-110348500D01*
X150257742Y-111393500D02*
X150732258Y-111393500D01*
X157593420Y-109472000D02*
X157874580Y-109472000D01*
X157593420Y-110492000D02*
X157874580Y-110492000D01*
X130873000Y-52727000D02*
X130873000Y-51227000D01*
X130873000Y-51227000D02*
X129373000Y-51227000D01*
X130673000Y-64527000D02*
X130673000Y-51427000D01*
X130673000Y-51427000D02*
X101273000Y-51427000D01*
X125583000Y-60577000D02*
X125583000Y-55497000D01*
D14*
X125583000Y-56767000D02*
X123043000Y-58037000D01*
D15*
X125583000Y-55497000D02*
X124313000Y-55497000D01*
X125583000Y-54227000D02*
X124313000Y-54227000D01*
X124313000Y-61847000D02*
X125583000Y-61847000D01*
X124313000Y-60577000D02*
X124313000Y-61847000D01*
X124313000Y-55497000D02*
X123043000Y-55497000D01*
X124313000Y-54227000D02*
X124313000Y-55497000D01*
X123043000Y-60577000D02*
X125583000Y-60577000D01*
X123043000Y-55497000D02*
X123043000Y-60577000D01*
X101273000Y-64527000D02*
X130673000Y-64527000D01*
X101273000Y-51427000D02*
X101273000Y-64527000D01*
X157971258Y-108980500D02*
X157496742Y-108980500D01*
X157971258Y-107935500D02*
X157496742Y-107935500D01*
X157593420Y-115585000D02*
X157874580Y-115585000D01*
X157593420Y-116605000D02*
X157874580Y-116605000D01*
X137145500Y-119705758D02*
X137145500Y-119231242D01*
X138190500Y-119705758D02*
X138190500Y-119231242D01*
X157593420Y-114044000D02*
X157874580Y-114044000D01*
X157593420Y-115064000D02*
X157874580Y-115064000D01*
X152766500Y-120379258D02*
X152766500Y-119904742D01*
X153811500Y-120379258D02*
X153811500Y-119904742D01*
X167767000Y-61214000D02*
X167767000Y-60960000D01*
X169037000Y-61214000D02*
X167767000Y-61214000D01*
X173863000Y-61214000D02*
X173863000Y-60960000D01*
X175133000Y-61214000D02*
X173863000Y-61214000D01*
X167767000Y-60960000D02*
X168021000Y-60706000D01*
X169037000Y-60960000D02*
X169037000Y-61214000D01*
X173863000Y-60960000D02*
X174117000Y-60706000D01*
X175133000Y-60960000D02*
X175133000Y-61214000D01*
X168021000Y-60706000D02*
X168021000Y-60325000D01*
X168783000Y-60706000D02*
X169037000Y-60960000D01*
X174117000Y-60706000D02*
X174117000Y-60325000D01*
X174879000Y-60706000D02*
X175133000Y-60960000D01*
X168783000Y-60325000D02*
X168783000Y-60706000D01*
X174879000Y-60325000D02*
X174879000Y-60706000D01*
D14*
X166827000Y-60285000D02*
X166827000Y-50285000D01*
X176327000Y-60285000D02*
X166827000Y-60285000D01*
D15*
X175387000Y-59055000D02*
X175387000Y-56515000D01*
X176276000Y-59055000D02*
X175387000Y-59055000D01*
X175387000Y-56515000D02*
X176276000Y-56515000D01*
X175387000Y-53975000D02*
X175387000Y-51435000D01*
X176276000Y-53975000D02*
X175387000Y-53975000D01*
X175387000Y-51435000D02*
X176276000Y-51435000D01*
X167767000Y-51181000D02*
X167767000Y-50927000D01*
X169037000Y-51181000D02*
X167767000Y-51181000D01*
X173863000Y-51181000D02*
X173863000Y-50927000D01*
X175133000Y-51181000D02*
X173863000Y-51181000D01*
X167767000Y-50927000D02*
X168021000Y-50673000D01*
X169037000Y-50927000D02*
X169037000Y-51181000D01*
X173863000Y-50927000D02*
X174117000Y-50673000D01*
X175133000Y-50927000D02*
X175133000Y-51181000D01*
X168021000Y-50673000D02*
X168021000Y-50292000D01*
X168783000Y-50673000D02*
X169037000Y-50927000D01*
X174117000Y-50673000D02*
X174117000Y-50292000D01*
X174879000Y-50673000D02*
X175133000Y-50927000D01*
X168783000Y-50292000D02*
X168783000Y-50673000D01*
X174879000Y-50292000D02*
X174879000Y-50673000D01*
D14*
X166827000Y-50285000D02*
X176327000Y-50285000D01*
X176327000Y-50285000D02*
X176327000Y-60285000D01*
D10*
X171627000Y-61135000D02*
G75*
G03*
X171627000Y-61135000I-50000J0D01*
G01*
D15*
X96520000Y-104047000D02*
X96520000Y-104301000D01*
X95250000Y-104047000D02*
X96520000Y-104047000D01*
X90424000Y-104047000D02*
X90424000Y-104301000D01*
X89154000Y-104047000D02*
X90424000Y-104047000D01*
X96520000Y-104301000D02*
X96266000Y-104555000D01*
X95250000Y-104301000D02*
X95250000Y-104047000D01*
X90424000Y-104301000D02*
X90170000Y-104555000D01*
X89154000Y-104301000D02*
X89154000Y-104047000D01*
X96266000Y-104555000D02*
X96266000Y-104936000D01*
X95504000Y-104555000D02*
X95250000Y-104301000D01*
X90170000Y-104555000D02*
X90170000Y-104936000D01*
X89408000Y-104555000D02*
X89154000Y-104301000D01*
X95504000Y-104936000D02*
X95504000Y-104555000D01*
X89408000Y-104936000D02*
X89408000Y-104555000D01*
D14*
X97460000Y-104976000D02*
X97460000Y-114976000D01*
X87960000Y-104976000D02*
X97460000Y-104976000D01*
D15*
X88900000Y-106206000D02*
X88900000Y-108746000D01*
X88011000Y-106206000D02*
X88900000Y-106206000D01*
X88900000Y-108746000D02*
X88011000Y-108746000D01*
X88900000Y-111286000D02*
X88900000Y-113826000D01*
X88011000Y-111286000D02*
X88900000Y-111286000D01*
X88900000Y-113826000D02*
X88011000Y-113826000D01*
X96520000Y-114080000D02*
X96520000Y-114334000D01*
X95250000Y-114080000D02*
X96520000Y-114080000D01*
X90424000Y-114080000D02*
X90424000Y-114334000D01*
X89154000Y-114080000D02*
X90424000Y-114080000D01*
X96520000Y-114334000D02*
X96266000Y-114588000D01*
X95250000Y-114334000D02*
X95250000Y-114080000D01*
X90424000Y-114334000D02*
X90170000Y-114588000D01*
X89154000Y-114334000D02*
X89154000Y-114080000D01*
X96266000Y-114588000D02*
X96266000Y-114969000D01*
X95504000Y-114588000D02*
X95250000Y-114334000D01*
X90170000Y-114588000D02*
X90170000Y-114969000D01*
X89408000Y-114588000D02*
X89154000Y-114334000D01*
X95504000Y-114969000D02*
X95504000Y-114588000D01*
X89408000Y-114969000D02*
X89408000Y-114588000D01*
D14*
X97460000Y-114976000D02*
X87960000Y-114976000D01*
X87960000Y-114976000D02*
X87960000Y-104976000D01*
D10*
X92760000Y-104126000D02*
G75*
G03*
X92760000Y-104126000I-50000J0D01*
G01*
D15*
X133309000Y-63162000D02*
X133309000Y-64662000D01*
X133309000Y-64662000D02*
X134809000Y-64662000D01*
X133509000Y-51362000D02*
X133509000Y-64462000D01*
X133509000Y-64462000D02*
X162909000Y-64462000D01*
X138599000Y-55312000D02*
X138599000Y-60392000D01*
D14*
X138599000Y-59122000D02*
X141139000Y-57852000D01*
D15*
X138599000Y-60392000D02*
X139869000Y-60392000D01*
X138599000Y-61662000D02*
X139869000Y-61662000D01*
X139869000Y-54042000D02*
X138599000Y-54042000D01*
X139869000Y-55312000D02*
X139869000Y-54042000D01*
X139869000Y-60392000D02*
X141139000Y-60392000D01*
X139869000Y-61662000D02*
X139869000Y-60392000D01*
X141139000Y-55312000D02*
X138599000Y-55312000D01*
X141139000Y-60392000D02*
X141139000Y-55312000D01*
X162909000Y-51362000D02*
X133509000Y-51362000D01*
X162909000Y-64462000D02*
X162909000Y-51362000D01*
X138403000Y-114618500D02*
X136933000Y-114618500D01*
X136933000Y-114618500D02*
X136933000Y-116903500D01*
X138403000Y-116903500D02*
X138403000Y-114618500D01*
X112335000Y-108652000D02*
X112335000Y-113852000D01*
X112335000Y-113852000D02*
X118805000Y-113852000D01*
X114570000Y-108652000D02*
X112335000Y-108652000D01*
X118805000Y-108652000D02*
X116570000Y-108652000D01*
X118805000Y-113852000D02*
X118805000Y-108652000D01*
X114570000Y-108652000D02*
G75*
G03*
X116570000Y-108652000I1000000J0D01*
G01*
X157971258Y-130316500D02*
X157496742Y-130316500D01*
X157971258Y-129271500D02*
X157496742Y-129271500D01*
X157971258Y-122823500D02*
X157496742Y-122823500D01*
X157971258Y-121778500D02*
X157496742Y-121778500D01*
X150257742Y-111872500D02*
X150732258Y-111872500D01*
X150257742Y-112917500D02*
X150732258Y-112917500D01*
X141952000Y-113585500D02*
X141796000Y-113585500D01*
X139636000Y-113585500D02*
X139480000Y-113585500D01*
X141794608Y-116817834D02*
G75*
G03*
X141951515Y-113585501I-1078608J1672334D01*
G01*
X141795836Y-116186629D02*
G75*
G03*
X141795999Y-114104540I-1079836J1041129D01*
G01*
X139636001Y-114104540D02*
G75*
G03*
X139636164Y-116186629I1079999J-1040960D01*
G01*
X139480485Y-113585501D02*
G75*
G03*
X139637392Y-116817834I1235515J-1559999D01*
G01*
X133309000Y-79799000D02*
X133309000Y-81299000D01*
X133309000Y-81299000D02*
X134809000Y-81299000D01*
X133509000Y-67999000D02*
X133509000Y-81099000D01*
X133509000Y-81099000D02*
X162909000Y-81099000D01*
X138599000Y-71949000D02*
X138599000Y-77029000D01*
D14*
X138599000Y-75759000D02*
X141139000Y-74489000D01*
D15*
X138599000Y-77029000D02*
X139869000Y-77029000D01*
X138599000Y-78299000D02*
X139869000Y-78299000D01*
X139869000Y-70679000D02*
X138599000Y-70679000D01*
X139869000Y-71949000D02*
X139869000Y-70679000D01*
X139869000Y-77029000D02*
X141139000Y-77029000D01*
X139869000Y-78299000D02*
X139869000Y-77029000D01*
X141139000Y-71949000D02*
X138599000Y-71949000D01*
X141139000Y-77029000D02*
X141139000Y-71949000D01*
X162909000Y-67999000D02*
X133509000Y-67999000D01*
X162909000Y-81099000D02*
X162909000Y-67999000D01*
X96520000Y-114046000D02*
X96520000Y-114300000D01*
X95250000Y-114046000D02*
X96520000Y-114046000D01*
X90424000Y-114046000D02*
X90424000Y-114300000D01*
X89154000Y-114046000D02*
X90424000Y-114046000D01*
X96520000Y-114300000D02*
X96266000Y-114554000D01*
X95250000Y-114300000D02*
X95250000Y-114046000D01*
X90424000Y-114300000D02*
X90170000Y-114554000D01*
X89154000Y-114300000D02*
X89154000Y-114046000D01*
X96266000Y-114554000D02*
X96266000Y-114935000D01*
X95504000Y-114554000D02*
X95250000Y-114300000D01*
X90170000Y-114554000D02*
X90170000Y-114935000D01*
X89408000Y-114554000D02*
X89154000Y-114300000D01*
X95504000Y-114935000D02*
X95504000Y-114554000D01*
X89408000Y-114935000D02*
X89408000Y-114554000D01*
D14*
X97460000Y-114975000D02*
X97460000Y-124975000D01*
X87960000Y-114975000D02*
X97460000Y-114975000D01*
D15*
X88900000Y-116205000D02*
X88900000Y-118745000D01*
X88011000Y-116205000D02*
X88900000Y-116205000D01*
X88900000Y-118745000D02*
X88011000Y-118745000D01*
X88900000Y-121285000D02*
X88900000Y-123825000D01*
X88011000Y-121285000D02*
X88900000Y-121285000D01*
X88900000Y-123825000D02*
X88011000Y-123825000D01*
X96520000Y-124079000D02*
X96520000Y-124333000D01*
X95250000Y-124079000D02*
X96520000Y-124079000D01*
X90424000Y-124079000D02*
X90424000Y-124333000D01*
X89154000Y-124079000D02*
X90424000Y-124079000D01*
X96520000Y-124333000D02*
X96266000Y-124587000D01*
X95250000Y-124333000D02*
X95250000Y-124079000D01*
X90424000Y-124333000D02*
X90170000Y-124587000D01*
X89154000Y-124333000D02*
X89154000Y-124079000D01*
X96266000Y-124587000D02*
X96266000Y-124968000D01*
X95504000Y-124587000D02*
X95250000Y-124333000D01*
X90170000Y-124587000D02*
X90170000Y-124968000D01*
X89408000Y-124587000D02*
X89154000Y-124333000D01*
X95504000Y-124968000D02*
X95504000Y-124587000D01*
X89408000Y-124968000D02*
X89408000Y-124587000D01*
D14*
X97460000Y-124975000D02*
X87960000Y-124975000D01*
X87960000Y-124975000D02*
X87960000Y-114975000D01*
D10*
X92760000Y-114125000D02*
G75*
G03*
X92760000Y-114125000I-50000J0D01*
G01*
D15*
X157971258Y-127268500D02*
X157496742Y-127268500D01*
X157971258Y-126223500D02*
X157496742Y-126223500D01*
X157971258Y-118251500D02*
X157496742Y-118251500D01*
X157971258Y-117206500D02*
X157496742Y-117206500D01*
D13*
X168308000Y-127244000D02*
X170408000Y-127244000D01*
X168308000Y-127244000D02*
X168308000Y-119644000D01*
X170408000Y-127244000D02*
X173608000Y-127244000D01*
X170408000Y-127244000D02*
X170408000Y-119644000D01*
X173608000Y-127244000D02*
X174608000Y-127244000D01*
X173608000Y-127244000D02*
X173608000Y-119644000D01*
X174608000Y-127244000D02*
X175608000Y-127244000D01*
X174608000Y-127244000D02*
X174608000Y-119644000D01*
X175608000Y-127244000D02*
X175608000Y-119644000D01*
X175425500Y-125979000D02*
X174790500Y-125661500D01*
X175425500Y-125979000D02*
X174473000Y-125344000D01*
X175425500Y-125979000D02*
X175108000Y-125344000D01*
X174790500Y-125661500D02*
X174155500Y-125344000D01*
X174790500Y-125661500D02*
X174790500Y-125344000D01*
X174790500Y-125661500D02*
X175108000Y-125344000D01*
X175108000Y-125661500D02*
X175425500Y-125979000D01*
X175108000Y-125661500D02*
X174790500Y-125661500D01*
X175108000Y-125661500D02*
X175425500Y-125661500D01*
X175108000Y-125661500D02*
X174790500Y-125344000D01*
X175425500Y-125661500D02*
X175425500Y-125979000D01*
X175425500Y-125661500D02*
X175108000Y-125344000D01*
X174155500Y-125344000D02*
X174473000Y-125344000D01*
X174155500Y-125344000D02*
X174790500Y-125026500D01*
X174473000Y-125344000D02*
X174155500Y-125344000D01*
X174473000Y-125344000D02*
X174790500Y-125344000D01*
X174473000Y-125344000D02*
X175108000Y-125344000D01*
X174473000Y-125344000D02*
X175425500Y-124709000D01*
X174790500Y-125344000D02*
X174790500Y-125661500D01*
X174790500Y-125344000D02*
X175108000Y-125661500D01*
X174790500Y-125344000D02*
X175108000Y-125661500D01*
X174790500Y-125344000D02*
X174473000Y-125344000D01*
X174790500Y-125344000D02*
X174790500Y-125026500D01*
X175108000Y-125344000D02*
X175108000Y-125661500D01*
X175108000Y-125344000D02*
X174790500Y-125344000D01*
X175108000Y-125344000D02*
X175425500Y-125344000D01*
X175108000Y-125344000D02*
X174790500Y-125026500D01*
X175108000Y-125344000D02*
X175108000Y-125026500D01*
X175108000Y-125344000D02*
X175425500Y-124709000D01*
X175425500Y-125344000D02*
X175108000Y-125661500D01*
X175425500Y-125344000D02*
X175425500Y-125661500D01*
X175425500Y-125344000D02*
X175425500Y-125026500D01*
X174790500Y-125026500D02*
X174473000Y-125344000D01*
X174790500Y-125026500D02*
X175108000Y-125344000D01*
X174790500Y-125026500D02*
X175425500Y-124709000D01*
X175108000Y-125026500D02*
X174790500Y-125344000D01*
X175108000Y-125026500D02*
X175108000Y-125344000D01*
X175108000Y-125026500D02*
X175425500Y-125344000D01*
X175425500Y-125026500D02*
X175108000Y-125344000D01*
X175425500Y-125026500D02*
X175425500Y-125344000D01*
D14*
X171055500Y-124709000D02*
X172643000Y-126296500D01*
D13*
X175425500Y-124709000D02*
X175108000Y-125026500D01*
X175425500Y-124709000D02*
X175108000Y-125026500D01*
X175425500Y-124709000D02*
X175425500Y-125026500D01*
D14*
X171373000Y-124391500D02*
X172960500Y-125979000D01*
X171055500Y-120899000D02*
X172643000Y-122486500D01*
X171373000Y-120581500D02*
X172960500Y-122169000D01*
D13*
X168308000Y-119644000D02*
X170408000Y-119644000D01*
X170308000Y-119644000D02*
X173508000Y-119644000D01*
X173608000Y-119644000D02*
X174608000Y-119644000D01*
X174608000Y-119644000D02*
X175608000Y-119644000D01*
D14*
X173228000Y-125344000D02*
G75*
G03*
X173228000Y-125344000I-1220000J0D01*
G01*
X173258000Y-121534000D02*
G75*
G03*
X173258000Y-121534000I-1250000J0D01*
G01*
D15*
X157971258Y-113552500D02*
X157496742Y-113552500D01*
X157971258Y-112507500D02*
X157496742Y-112507500D01*
X155901420Y-140333000D02*
X156182580Y-140333000D01*
X155901420Y-141353000D02*
X156182580Y-141353000D01*
X155914420Y-135761000D02*
X156195580Y-135761000D01*
X155914420Y-136781000D02*
X156195580Y-136781000D01*
X103011500Y-144606742D02*
X103011500Y-145081258D01*
X101966500Y-144606742D02*
X101966500Y-145081258D01*
D13*
X168308000Y-110231000D02*
X170408000Y-110231000D01*
X168308000Y-110231000D02*
X168308000Y-102631000D01*
X170408000Y-110231000D02*
X173608000Y-110231000D01*
X170408000Y-110231000D02*
X170408000Y-102631000D01*
X173608000Y-110231000D02*
X174608000Y-110231000D01*
X173608000Y-110231000D02*
X173608000Y-102631000D01*
X174608000Y-110231000D02*
X175608000Y-110231000D01*
X174608000Y-110231000D02*
X174608000Y-102631000D01*
X175608000Y-110231000D02*
X175608000Y-102631000D01*
X175425500Y-108966000D02*
X174790500Y-108648500D01*
X175425500Y-108966000D02*
X174473000Y-108331000D01*
X175425500Y-108966000D02*
X175108000Y-108331000D01*
X174790500Y-108648500D02*
X174155500Y-108331000D01*
X174790500Y-108648500D02*
X174790500Y-108331000D01*
X174790500Y-108648500D02*
X175108000Y-108331000D01*
X175108000Y-108648500D02*
X175425500Y-108966000D01*
X175108000Y-108648500D02*
X174790500Y-108648500D01*
X175108000Y-108648500D02*
X175425500Y-108648500D01*
X175108000Y-108648500D02*
X174790500Y-108331000D01*
X175425500Y-108648500D02*
X175425500Y-108966000D01*
X175425500Y-108648500D02*
X175108000Y-108331000D01*
X174155500Y-108331000D02*
X174473000Y-108331000D01*
X174155500Y-108331000D02*
X174790500Y-108013500D01*
X174473000Y-108331000D02*
X174155500Y-108331000D01*
X174473000Y-108331000D02*
X174790500Y-108331000D01*
X174473000Y-108331000D02*
X175108000Y-108331000D01*
X174473000Y-108331000D02*
X175425500Y-107696000D01*
X174790500Y-108331000D02*
X174790500Y-108648500D01*
X174790500Y-108331000D02*
X175108000Y-108648500D01*
X174790500Y-108331000D02*
X175108000Y-108648500D01*
X174790500Y-108331000D02*
X174473000Y-108331000D01*
X174790500Y-108331000D02*
X174790500Y-108013500D01*
X175108000Y-108331000D02*
X175108000Y-108648500D01*
X175108000Y-108331000D02*
X174790500Y-108331000D01*
X175108000Y-108331000D02*
X175425500Y-108331000D01*
X175108000Y-108331000D02*
X174790500Y-108013500D01*
X175108000Y-108331000D02*
X175108000Y-108013500D01*
X175108000Y-108331000D02*
X175425500Y-107696000D01*
X175425500Y-108331000D02*
X175108000Y-108648500D01*
X175425500Y-108331000D02*
X175425500Y-108648500D01*
X175425500Y-108331000D02*
X175425500Y-108013500D01*
X174790500Y-108013500D02*
X174473000Y-108331000D01*
X174790500Y-108013500D02*
X175108000Y-108331000D01*
X174790500Y-108013500D02*
X175425500Y-107696000D01*
X175108000Y-108013500D02*
X174790500Y-108331000D01*
X175108000Y-108013500D02*
X175108000Y-108331000D01*
X175108000Y-108013500D02*
X175425500Y-108331000D01*
X175425500Y-108013500D02*
X175108000Y-108331000D01*
X175425500Y-108013500D02*
X175425500Y-108331000D01*
D14*
X171055500Y-107696000D02*
X172643000Y-109283500D01*
D13*
X175425500Y-107696000D02*
X175108000Y-108013500D01*
X175425500Y-107696000D02*
X175108000Y-108013500D01*
X175425500Y-107696000D02*
X175425500Y-108013500D01*
D14*
X171373000Y-107378500D02*
X172960500Y-108966000D01*
X171055500Y-103886000D02*
X172643000Y-105473500D01*
X171373000Y-103568500D02*
X172960500Y-105156000D01*
D13*
X168308000Y-102631000D02*
X170408000Y-102631000D01*
X170308000Y-102631000D02*
X173508000Y-102631000D01*
X173608000Y-102631000D02*
X174608000Y-102631000D01*
X174608000Y-102631000D02*
X175608000Y-102631000D01*
D14*
X173228000Y-108331000D02*
G75*
G03*
X173228000Y-108331000I-1220000J0D01*
G01*
X173258000Y-104521000D02*
G75*
G03*
X173258000Y-104521000I-1250000J0D01*
G01*
D13*
X168308000Y-117846000D02*
X170408000Y-117846000D01*
X168308000Y-117846000D02*
X168308000Y-110246000D01*
X170408000Y-117846000D02*
X173608000Y-117846000D01*
X170408000Y-117846000D02*
X170408000Y-110246000D01*
X173608000Y-117846000D02*
X174608000Y-117846000D01*
X173608000Y-117846000D02*
X173608000Y-110246000D01*
X174608000Y-117846000D02*
X175608000Y-117846000D01*
X174608000Y-117846000D02*
X174608000Y-110246000D01*
X175608000Y-117846000D02*
X175608000Y-110246000D01*
X175425500Y-116581000D02*
X174790500Y-116263500D01*
X175425500Y-116581000D02*
X174473000Y-115946000D01*
X175425500Y-116581000D02*
X175108000Y-115946000D01*
X174790500Y-116263500D02*
X174155500Y-115946000D01*
X174790500Y-116263500D02*
X174790500Y-115946000D01*
X174790500Y-116263500D02*
X175108000Y-115946000D01*
X175108000Y-116263500D02*
X175425500Y-116581000D01*
X175108000Y-116263500D02*
X174790500Y-116263500D01*
X175108000Y-116263500D02*
X175425500Y-116263500D01*
X175108000Y-116263500D02*
X174790500Y-115946000D01*
X175425500Y-116263500D02*
X175425500Y-116581000D01*
X175425500Y-116263500D02*
X175108000Y-115946000D01*
X174155500Y-115946000D02*
X174473000Y-115946000D01*
X174155500Y-115946000D02*
X174790500Y-115628500D01*
X174473000Y-115946000D02*
X174155500Y-115946000D01*
X174473000Y-115946000D02*
X174790500Y-115946000D01*
X174473000Y-115946000D02*
X175108000Y-115946000D01*
X174473000Y-115946000D02*
X175425500Y-115311000D01*
X174790500Y-115946000D02*
X174790500Y-116263500D01*
X174790500Y-115946000D02*
X175108000Y-116263500D01*
X174790500Y-115946000D02*
X175108000Y-116263500D01*
X174790500Y-115946000D02*
X174473000Y-115946000D01*
X174790500Y-115946000D02*
X174790500Y-115628500D01*
X175108000Y-115946000D02*
X175108000Y-116263500D01*
X175108000Y-115946000D02*
X174790500Y-115946000D01*
X175108000Y-115946000D02*
X175425500Y-115946000D01*
X175108000Y-115946000D02*
X174790500Y-115628500D01*
X175108000Y-115946000D02*
X175108000Y-115628500D01*
X175108000Y-115946000D02*
X175425500Y-115311000D01*
X175425500Y-115946000D02*
X175108000Y-116263500D01*
X175425500Y-115946000D02*
X175425500Y-116263500D01*
X175425500Y-115946000D02*
X175425500Y-115628500D01*
X174790500Y-115628500D02*
X174473000Y-115946000D01*
X174790500Y-115628500D02*
X175108000Y-115946000D01*
X174790500Y-115628500D02*
X175425500Y-115311000D01*
X175108000Y-115628500D02*
X174790500Y-115946000D01*
X175108000Y-115628500D02*
X175108000Y-115946000D01*
X175108000Y-115628500D02*
X175425500Y-115946000D01*
X175425500Y-115628500D02*
X175108000Y-115946000D01*
X175425500Y-115628500D02*
X175425500Y-115946000D01*
D14*
X171055500Y-115311000D02*
X172643000Y-116898500D01*
D13*
X175425500Y-115311000D02*
X175108000Y-115628500D01*
X175425500Y-115311000D02*
X175108000Y-115628500D01*
X175425500Y-115311000D02*
X175425500Y-115628500D01*
D14*
X171373000Y-114993500D02*
X172960500Y-116581000D01*
X171055500Y-111501000D02*
X172643000Y-113088500D01*
X171373000Y-111183500D02*
X172960500Y-112771000D01*
D13*
X168308000Y-110246000D02*
X170408000Y-110246000D01*
X170308000Y-110246000D02*
X173508000Y-110246000D01*
X173608000Y-110246000D02*
X174608000Y-110246000D01*
X174608000Y-110246000D02*
X175608000Y-110246000D01*
D14*
X173228000Y-115946000D02*
G75*
G03*
X173228000Y-115946000I-1220000J0D01*
G01*
X173258000Y-112136000D02*
G75*
G03*
X173258000Y-112136000I-1250000J0D01*
G01*
D15*
X103501936Y-123227000D02*
X106556064Y-123227000D01*
X103501936Y-125947000D02*
X106556064Y-125947000D01*
X155901420Y-138809000D02*
X156182580Y-138809000D01*
X155901420Y-139829000D02*
X156182580Y-139829000D01*
X121651500Y-137079258D02*
X121651500Y-136604742D01*
X122696500Y-137079258D02*
X122696500Y-136604742D01*
X96520000Y-85124000D02*
X96520000Y-85378000D01*
X95250000Y-85124000D02*
X96520000Y-85124000D01*
X90424000Y-85124000D02*
X90424000Y-85378000D01*
X89154000Y-85124000D02*
X90424000Y-85124000D01*
X96520000Y-85378000D02*
X96266000Y-85632000D01*
X95250000Y-85378000D02*
X95250000Y-85124000D01*
X90424000Y-85378000D02*
X90170000Y-85632000D01*
X89154000Y-85378000D02*
X89154000Y-85124000D01*
X96266000Y-85632000D02*
X96266000Y-86013000D01*
X95504000Y-85632000D02*
X95250000Y-85378000D01*
X90170000Y-85632000D02*
X90170000Y-86013000D01*
X89408000Y-85632000D02*
X89154000Y-85378000D01*
X95504000Y-86013000D02*
X95504000Y-85632000D01*
X89408000Y-86013000D02*
X89408000Y-85632000D01*
D14*
X97460000Y-86053000D02*
X97460000Y-96053000D01*
X87960000Y-86053000D02*
X97460000Y-86053000D01*
D15*
X88900000Y-87283000D02*
X88900000Y-89823000D01*
X88011000Y-87283000D02*
X88900000Y-87283000D01*
X88900000Y-89823000D02*
X88011000Y-89823000D01*
X88900000Y-92363000D02*
X88900000Y-94903000D01*
X88011000Y-92363000D02*
X88900000Y-92363000D01*
X88900000Y-94903000D02*
X88011000Y-94903000D01*
X96520000Y-95157000D02*
X96520000Y-95411000D01*
X95250000Y-95157000D02*
X96520000Y-95157000D01*
X90424000Y-95157000D02*
X90424000Y-95411000D01*
X89154000Y-95157000D02*
X90424000Y-95157000D01*
X96520000Y-95411000D02*
X96266000Y-95665000D01*
X95250000Y-95411000D02*
X95250000Y-95157000D01*
X90424000Y-95411000D02*
X90170000Y-95665000D01*
X89154000Y-95411000D02*
X89154000Y-95157000D01*
X96266000Y-95665000D02*
X96266000Y-96046000D01*
X95504000Y-95665000D02*
X95250000Y-95411000D01*
X90170000Y-95665000D02*
X90170000Y-96046000D01*
X89408000Y-95665000D02*
X89154000Y-95411000D01*
X95504000Y-96046000D02*
X95504000Y-95665000D01*
X89408000Y-96046000D02*
X89408000Y-95665000D01*
D14*
X97460000Y-96053000D02*
X87960000Y-96053000D01*
X87960000Y-96053000D02*
X87960000Y-86053000D01*
D10*
X92760000Y-85203000D02*
G75*
G03*
X92760000Y-85203000I-50000J0D01*
G01*
D15*
X167767000Y-71213000D02*
X167767000Y-70959000D01*
X169037000Y-71213000D02*
X167767000Y-71213000D01*
X173863000Y-71213000D02*
X173863000Y-70959000D01*
X175133000Y-71213000D02*
X173863000Y-71213000D01*
X167767000Y-70959000D02*
X168021000Y-70705000D01*
X169037000Y-70959000D02*
X169037000Y-71213000D01*
X173863000Y-70959000D02*
X174117000Y-70705000D01*
X175133000Y-70959000D02*
X175133000Y-71213000D01*
X168021000Y-70705000D02*
X168021000Y-70324000D01*
X168783000Y-70705000D02*
X169037000Y-70959000D01*
X174117000Y-70705000D02*
X174117000Y-70324000D01*
X174879000Y-70705000D02*
X175133000Y-70959000D01*
X168783000Y-70324000D02*
X168783000Y-70705000D01*
X174879000Y-70324000D02*
X174879000Y-70705000D01*
D14*
X166827000Y-70284000D02*
X166827000Y-60284000D01*
X176327000Y-70284000D02*
X166827000Y-70284000D01*
D15*
X175387000Y-69054000D02*
X175387000Y-66514000D01*
X176276000Y-69054000D02*
X175387000Y-69054000D01*
X175387000Y-66514000D02*
X176276000Y-66514000D01*
X175387000Y-63974000D02*
X175387000Y-61434000D01*
X176276000Y-63974000D02*
X175387000Y-63974000D01*
X175387000Y-61434000D02*
X176276000Y-61434000D01*
X167767000Y-61180000D02*
X167767000Y-60926000D01*
X169037000Y-61180000D02*
X167767000Y-61180000D01*
X173863000Y-61180000D02*
X173863000Y-60926000D01*
X175133000Y-61180000D02*
X173863000Y-61180000D01*
X167767000Y-60926000D02*
X168021000Y-60672000D01*
X169037000Y-60926000D02*
X169037000Y-61180000D01*
X173863000Y-60926000D02*
X174117000Y-60672000D01*
X175133000Y-60926000D02*
X175133000Y-61180000D01*
X168021000Y-60672000D02*
X168021000Y-60291000D01*
X168783000Y-60672000D02*
X169037000Y-60926000D01*
X174117000Y-60672000D02*
X174117000Y-60291000D01*
X174879000Y-60672000D02*
X175133000Y-60926000D01*
X168783000Y-60291000D02*
X168783000Y-60672000D01*
X174879000Y-60291000D02*
X174879000Y-60672000D01*
D14*
X166827000Y-60284000D02*
X176327000Y-60284000D01*
X176327000Y-60284000D02*
X176327000Y-70284000D01*
D10*
X171627000Y-71134000D02*
G75*
G03*
X171627000Y-71134000I-50000J0D01*
G01*
D15*
X157593420Y-110996000D02*
X157874580Y-110996000D01*
X157593420Y-112016000D02*
X157874580Y-112016000D01*
X112335000Y-114621000D02*
X112335000Y-119821000D01*
X112335000Y-119821000D02*
X118805000Y-119821000D01*
X114570000Y-114621000D02*
X112335000Y-114621000D01*
X118805000Y-114621000D02*
X116570000Y-114621000D01*
X118805000Y-119821000D02*
X118805000Y-114621000D01*
X114570000Y-114621000D02*
G75*
G03*
X116570000Y-114621000I1000000J0D01*
G01*
X157593420Y-118743000D02*
X157874580Y-118743000D01*
X157593420Y-119763000D02*
X157874580Y-119763000D01*
X157971258Y-128792500D02*
X157496742Y-128792500D01*
X157971258Y-127747500D02*
X157496742Y-127747500D01*
D11*
X152680000Y-117068000D02*
X152855000Y-117068000D01*
X152680000Y-117068000D02*
X152680000Y-113818000D01*
X152855000Y-117068000D02*
X152855000Y-118143000D01*
X155930000Y-117068000D02*
X155655000Y-117068000D01*
X155930000Y-117068000D02*
X155930000Y-113818000D01*
X152680000Y-113818000D02*
X152955000Y-113818000D01*
X155930000Y-113818000D02*
X155655000Y-113818000D01*
D15*
X103374936Y-111162000D02*
X106429064Y-111162000D01*
X103374936Y-113882000D02*
X106429064Y-113882000D01*
X96520000Y-68868000D02*
X96520000Y-69122000D01*
X95250000Y-68868000D02*
X96520000Y-68868000D01*
X90424000Y-68868000D02*
X90424000Y-69122000D01*
X89154000Y-68868000D02*
X90424000Y-68868000D01*
X96520000Y-69122000D02*
X96266000Y-69376000D01*
X95250000Y-69122000D02*
X95250000Y-68868000D01*
X90424000Y-69122000D02*
X90170000Y-69376000D01*
X89154000Y-69122000D02*
X89154000Y-68868000D01*
X96266000Y-69376000D02*
X96266000Y-69757000D01*
X95504000Y-69376000D02*
X95250000Y-69122000D01*
X90170000Y-69376000D02*
X90170000Y-69757000D01*
X89408000Y-69376000D02*
X89154000Y-69122000D01*
X95504000Y-69757000D02*
X95504000Y-69376000D01*
X89408000Y-69757000D02*
X89408000Y-69376000D01*
D14*
X97460000Y-69797000D02*
X97460000Y-79797000D01*
X87960000Y-69797000D02*
X97460000Y-69797000D01*
D15*
X88900000Y-71027000D02*
X88900000Y-73567000D01*
X88011000Y-71027000D02*
X88900000Y-71027000D01*
X88900000Y-73567000D02*
X88011000Y-73567000D01*
X88900000Y-76107000D02*
X88900000Y-78647000D01*
X88011000Y-76107000D02*
X88900000Y-76107000D01*
X88900000Y-78647000D02*
X88011000Y-78647000D01*
X96520000Y-78901000D02*
X96520000Y-79155000D01*
X95250000Y-78901000D02*
X96520000Y-78901000D01*
X90424000Y-78901000D02*
X90424000Y-79155000D01*
X89154000Y-78901000D02*
X90424000Y-78901000D01*
X96520000Y-79155000D02*
X96266000Y-79409000D01*
X95250000Y-79155000D02*
X95250000Y-78901000D01*
X90424000Y-79155000D02*
X90170000Y-79409000D01*
X89154000Y-79155000D02*
X89154000Y-78901000D01*
X96266000Y-79409000D02*
X96266000Y-79790000D01*
X95504000Y-79409000D02*
X95250000Y-79155000D01*
X90170000Y-79409000D02*
X90170000Y-79790000D01*
X89408000Y-79409000D02*
X89154000Y-79155000D01*
X95504000Y-79790000D02*
X95504000Y-79409000D01*
X89408000Y-79790000D02*
X89408000Y-79409000D01*
D14*
X97460000Y-79797000D02*
X87960000Y-79797000D01*
X87960000Y-79797000D02*
X87960000Y-69797000D01*
D10*
X92760000Y-68947000D02*
G75*
G03*
X92760000Y-68947000I-50000J0D01*
G01*
D15*
X150493000Y-103137580D02*
X150493000Y-102856420D01*
X151513000Y-103137580D02*
X151513000Y-102856420D01*
X136625000Y-114618500D02*
X135155000Y-114618500D01*
X135155000Y-114618500D02*
X135155000Y-116903500D01*
X136625000Y-116903500D02*
X136625000Y-114618500D01*
D13*
X88093150Y-140952500D02*
X88728150Y-141270000D01*
X88093150Y-140952500D02*
X89045650Y-141587500D01*
X88093150Y-140952500D02*
X88410650Y-141587500D01*
X88728150Y-141270000D02*
X89363150Y-141587500D01*
X88728150Y-141270000D02*
X88728150Y-141587500D01*
X88728150Y-141270000D02*
X88410650Y-141587500D01*
X88410650Y-141270000D02*
X88093150Y-140952500D01*
X88410650Y-141270000D02*
X88728150Y-141270000D01*
X88410650Y-141270000D02*
X88093150Y-141270000D01*
X88410650Y-141270000D02*
X88728150Y-141587500D01*
X88093150Y-141270000D02*
X88093150Y-140952500D01*
X88093150Y-141270000D02*
X88410650Y-141587500D01*
X89363150Y-141587500D02*
X89045650Y-141587500D01*
X89363150Y-141587500D02*
X88728150Y-141905000D01*
X89045650Y-141587500D02*
X89363150Y-141587500D01*
X89045650Y-141587500D02*
X88728150Y-141587500D01*
X89045650Y-141587500D02*
X88410650Y-141587500D01*
X89045650Y-141587500D02*
X88093150Y-142222500D01*
X88728150Y-141587500D02*
X88728150Y-141270000D01*
X88728150Y-141587500D02*
X88410650Y-141270000D01*
X88728150Y-141587500D02*
X88410650Y-141270000D01*
X88728150Y-141587500D02*
X89045650Y-141587500D01*
X88728150Y-141587500D02*
X88728150Y-141905000D01*
X88410650Y-141587500D02*
X88410650Y-141270000D01*
X88410650Y-141587500D02*
X88728150Y-141587500D01*
X88410650Y-141587500D02*
X88093150Y-141587500D01*
X88410650Y-141587500D02*
X88728150Y-141905000D01*
X88410650Y-141587500D02*
X88410650Y-141905000D01*
X88410650Y-141587500D02*
X88093150Y-142222500D01*
X88093150Y-141587500D02*
X88410650Y-141270000D01*
X88093150Y-141587500D02*
X88093150Y-141270000D01*
X88093150Y-141587500D02*
X88093150Y-141905000D01*
X88728150Y-141905000D02*
X89045650Y-141587500D01*
X88728150Y-141905000D02*
X88410650Y-141587500D01*
X88728150Y-141905000D02*
X88093150Y-142222500D01*
X88410650Y-141905000D02*
X88728150Y-141587500D01*
X88410650Y-141905000D02*
X88410650Y-141587500D01*
X88410650Y-141905000D02*
X88093150Y-141587500D01*
X88093150Y-141905000D02*
X88410650Y-141587500D01*
X88093150Y-141905000D02*
X88093150Y-141587500D01*
X88093150Y-142222500D02*
X88410650Y-141905000D01*
X88093150Y-142222500D02*
X88410650Y-141905000D01*
X88093150Y-142222500D02*
X88093150Y-141905000D01*
D14*
X92463150Y-142240000D02*
X90875650Y-140652500D01*
X92145650Y-142557500D02*
X90558150Y-140970000D01*
X92463150Y-146050000D02*
X90875650Y-144462500D01*
X92145650Y-146367500D02*
X90558150Y-144780000D01*
X92475850Y-149860000D02*
X90888350Y-148272500D01*
X92158350Y-150177500D02*
X90570850Y-148590000D01*
D15*
X95210650Y-139705000D02*
X87923350Y-139705000D01*
X87923350Y-139705000D02*
X87923350Y-151125000D01*
X87923350Y-151125000D02*
X95210650Y-151125000D01*
X95210650Y-151125000D02*
X95210650Y-139705000D01*
X89910650Y-139705000D02*
X88851850Y-139705000D01*
X88851850Y-139705000D02*
X88851850Y-151112800D01*
X88851850Y-151112800D02*
X89910650Y-151112800D01*
X89910650Y-151112800D02*
X89910650Y-139705000D01*
D14*
X92730650Y-141605000D02*
G75*
G03*
X92730650Y-141605000I-1220000J0D01*
G01*
X92760650Y-145415000D02*
G75*
G03*
X92760650Y-145415000I-1250000J0D01*
G01*
X92773350Y-149225000D02*
G75*
G03*
X92773350Y-149225000I-1250000J0D01*
G01*
D15*
X112335000Y-126432000D02*
X112335000Y-131632000D01*
X112335000Y-131632000D02*
X118805000Y-131632000D01*
X114570000Y-126432000D02*
X112335000Y-126432000D01*
X118805000Y-126432000D02*
X116570000Y-126432000D01*
X118805000Y-131632000D02*
X118805000Y-126432000D01*
X114570000Y-126432000D02*
G75*
G03*
X116570000Y-126432000I1000000J0D01*
G01*
X103374936Y-117258000D02*
X106429064Y-117258000D01*
X103374936Y-119978000D02*
X106429064Y-119978000D01*
X127314000Y-148904000D02*
X125984000Y-148904000D01*
X127314000Y-147574000D02*
X127314000Y-148904000D01*
X127314000Y-146304000D02*
X127314000Y-133544000D01*
X127314000Y-146304000D02*
X124654000Y-146304000D01*
X127314000Y-133544000D02*
X124654000Y-133544000D01*
X124654000Y-146304000D02*
X124654000Y-133544000D01*
X157971258Y-125744500D02*
X157496742Y-125744500D01*
X157971258Y-124699500D02*
X157496742Y-124699500D01*
X101429500Y-92496000D02*
X101429500Y-94496000D01*
X101729500Y-82196000D02*
X101729500Y-107796000D01*
X101729500Y-82196000D02*
X147629500Y-82196000D01*
X101729500Y-107796000D02*
X147629500Y-107796000D01*
X147629500Y-82196000D02*
X147629500Y-107796000D01*
X122684000Y-143305420D02*
X122684000Y-143586580D01*
X121664000Y-143305420D02*
X121664000Y-143586580D01*
X112208000Y-120590000D02*
X112208000Y-125790000D01*
X112208000Y-125790000D02*
X118678000Y-125790000D01*
X114443000Y-120590000D02*
X112208000Y-120590000D01*
X118678000Y-120590000D02*
X116443000Y-120590000D01*
X118678000Y-125790000D02*
X118678000Y-120590000D01*
X114443000Y-120590000D02*
G75*
G03*
X116443000Y-120590000I1000000J0D01*
G01*
X167767000Y-81246000D02*
X167767000Y-80992000D01*
X169037000Y-81246000D02*
X167767000Y-81246000D01*
X173863000Y-81246000D02*
X173863000Y-80992000D01*
X175133000Y-81246000D02*
X173863000Y-81246000D01*
X167767000Y-80992000D02*
X168021000Y-80738000D01*
X169037000Y-80992000D02*
X169037000Y-81246000D01*
X173863000Y-80992000D02*
X174117000Y-80738000D01*
X175133000Y-80992000D02*
X175133000Y-81246000D01*
X168021000Y-80738000D02*
X168021000Y-80357000D01*
X168783000Y-80738000D02*
X169037000Y-80992000D01*
X174117000Y-80738000D02*
X174117000Y-80357000D01*
X174879000Y-80738000D02*
X175133000Y-80992000D01*
X168783000Y-80357000D02*
X168783000Y-80738000D01*
X174879000Y-80357000D02*
X174879000Y-80738000D01*
D14*
X166827000Y-80317000D02*
X166827000Y-70317000D01*
X176327000Y-80317000D02*
X166827000Y-80317000D01*
D15*
X175387000Y-79087000D02*
X175387000Y-76547000D01*
X176276000Y-79087000D02*
X175387000Y-79087000D01*
X175387000Y-76547000D02*
X176276000Y-76547000D01*
X175387000Y-74007000D02*
X175387000Y-71467000D01*
X176276000Y-74007000D02*
X175387000Y-74007000D01*
X175387000Y-71467000D02*
X176276000Y-71467000D01*
X167767000Y-71213000D02*
X167767000Y-70959000D01*
X169037000Y-71213000D02*
X167767000Y-71213000D01*
X173863000Y-71213000D02*
X173863000Y-70959000D01*
X175133000Y-71213000D02*
X173863000Y-71213000D01*
X167767000Y-70959000D02*
X168021000Y-70705000D01*
X169037000Y-70959000D02*
X169037000Y-71213000D01*
X173863000Y-70959000D02*
X174117000Y-70705000D01*
X175133000Y-70959000D02*
X175133000Y-71213000D01*
X168021000Y-70705000D02*
X168021000Y-70324000D01*
X168783000Y-70705000D02*
X169037000Y-70959000D01*
X174117000Y-70705000D02*
X174117000Y-70324000D01*
X174879000Y-70705000D02*
X175133000Y-70959000D01*
X168783000Y-70324000D02*
X168783000Y-70705000D01*
X174879000Y-70324000D02*
X174879000Y-70705000D01*
D14*
X166827000Y-70317000D02*
X176327000Y-70317000D01*
X176327000Y-70317000D02*
X176327000Y-80317000D01*
D10*
X171627000Y-81167000D02*
G75*
G03*
X171627000Y-81167000I-50000J0D01*
G01*
D15*
X152491000Y-97936000D02*
X158501000Y-97936000D01*
X154741000Y-104756000D02*
X158501000Y-104756000D01*
X158501000Y-97936000D02*
X158501000Y-99196000D01*
X158501000Y-104756000D02*
X158501000Y-103496000D01*
X135367500Y-119705758D02*
X135367500Y-119231242D01*
X136412500Y-119705758D02*
X136412500Y-119231242D01*
X155901420Y-137285000D02*
X156182580Y-137285000D01*
X155901420Y-138305000D02*
X156182580Y-138305000D01*
X152711000Y-149825000D02*
X152711000Y-143410000D01*
X152711000Y-149825000D02*
X134471000Y-149825000D01*
X152711000Y-143410000D02*
X153091000Y-143410000D01*
X152711000Y-124865000D02*
X152711000Y-124085000D01*
X152711000Y-124085000D02*
X151711000Y-124085000D01*
X134471000Y-149825000D02*
X134471000Y-143410000D01*
X134471000Y-124865000D02*
X134471000Y-124085000D01*
X134471000Y-124085000D02*
X135471000Y-124085000D01*
X131065000Y-69299000D02*
X131065000Y-67799000D01*
X131065000Y-67799000D02*
X129565000Y-67799000D01*
X130865000Y-81099000D02*
X130865000Y-67999000D01*
X130865000Y-67999000D02*
X101465000Y-67999000D01*
X125775000Y-77149000D02*
X125775000Y-72069000D01*
D14*
X125775000Y-73339000D02*
X123235000Y-74609000D01*
D15*
X125775000Y-72069000D02*
X124505000Y-72069000D01*
X125775000Y-70799000D02*
X124505000Y-70799000D01*
X124505000Y-78419000D02*
X125775000Y-78419000D01*
X124505000Y-77149000D02*
X124505000Y-78419000D01*
X124505000Y-72069000D02*
X123235000Y-72069000D01*
X124505000Y-70799000D02*
X124505000Y-72069000D01*
X123235000Y-77149000D02*
X125775000Y-77149000D01*
X123235000Y-72069000D02*
X123235000Y-77149000D01*
X101465000Y-81099000D02*
X130865000Y-81099000D01*
X101465000Y-67999000D02*
X101465000Y-81099000D01*
X122696500Y-139906742D02*
X122696500Y-140381258D01*
X121651500Y-139906742D02*
X121651500Y-140381258D01*
X134078000Y-113585500D02*
X133922000Y-113585500D01*
X131762000Y-113585500D02*
X131606000Y-113585500D01*
X133920608Y-116817834D02*
G75*
G03*
X134077515Y-113585501I-1078608J1672334D01*
G01*
X133921836Y-116186629D02*
G75*
G03*
X133921999Y-114104540I-1079836J1041129D01*
G01*
X131762001Y-114104540D02*
G75*
G03*
X131762164Y-116186629I1079999J-1040960D01*
G01*
X131606485Y-113585501D02*
G75*
G03*
X131763392Y-116817834I1235515J-1559999D01*
G01*
X151513000Y-99554420D02*
X151513000Y-99835580D01*
X150493000Y-99554420D02*
X150493000Y-99835580D01*
X96520000Y-48802000D02*
X96520000Y-49056000D01*
X95250000Y-48802000D02*
X96520000Y-48802000D01*
X90424000Y-48802000D02*
X90424000Y-49056000D01*
X89154000Y-48802000D02*
X90424000Y-48802000D01*
X96520000Y-49056000D02*
X96266000Y-49310000D01*
X95250000Y-49056000D02*
X95250000Y-48802000D01*
X90424000Y-49056000D02*
X90170000Y-49310000D01*
X89154000Y-49056000D02*
X89154000Y-48802000D01*
X96266000Y-49310000D02*
X96266000Y-49691000D01*
X95504000Y-49310000D02*
X95250000Y-49056000D01*
X90170000Y-49310000D02*
X90170000Y-49691000D01*
X89408000Y-49310000D02*
X89154000Y-49056000D01*
X95504000Y-49691000D02*
X95504000Y-49310000D01*
X89408000Y-49691000D02*
X89408000Y-49310000D01*
D14*
X97460000Y-49731000D02*
X97460000Y-59731000D01*
X87960000Y-49731000D02*
X97460000Y-49731000D01*
D15*
X88900000Y-50961000D02*
X88900000Y-53501000D01*
X88011000Y-50961000D02*
X88900000Y-50961000D01*
X88900000Y-53501000D02*
X88011000Y-53501000D01*
X88900000Y-56041000D02*
X88900000Y-58581000D01*
X88011000Y-56041000D02*
X88900000Y-56041000D01*
X88900000Y-58581000D02*
X88011000Y-58581000D01*
X96520000Y-58835000D02*
X96520000Y-59089000D01*
X95250000Y-58835000D02*
X96520000Y-58835000D01*
X90424000Y-58835000D02*
X90424000Y-59089000D01*
X89154000Y-58835000D02*
X90424000Y-58835000D01*
X96520000Y-59089000D02*
X96266000Y-59343000D01*
X95250000Y-59089000D02*
X95250000Y-58835000D01*
X90424000Y-59089000D02*
X90170000Y-59343000D01*
X89154000Y-59089000D02*
X89154000Y-58835000D01*
X96266000Y-59343000D02*
X96266000Y-59724000D01*
X95504000Y-59343000D02*
X95250000Y-59089000D01*
X90170000Y-59343000D02*
X90170000Y-59724000D01*
X89408000Y-59343000D02*
X89154000Y-59089000D01*
X95504000Y-59724000D02*
X95504000Y-59343000D01*
X89408000Y-59724000D02*
X89408000Y-59343000D01*
D14*
X97460000Y-59731000D02*
X87960000Y-59731000D01*
X87960000Y-59731000D02*
X87960000Y-49731000D01*
D10*
X92760000Y-48881000D02*
G75*
G03*
X92760000Y-48881000I-50000J0D01*
G01*
D15*
X157593420Y-120267000D02*
X157874580Y-120267000D01*
X157593420Y-121287000D02*
X157874580Y-121287000D01*
%LPC*%
D16*
X172007999Y-132963999D03*
X172007999Y-129153999D03*
D17*
X92709999Y-62263999D03*
D18*
X92710000Y-67264000D03*
D19*
X102629000Y-130302000D03*
X107429000Y-130302000D03*
D20*
X149670000Y-110871000D03*
X151320000Y-110871000D03*
D21*
X156959000Y-109982000D03*
X158509000Y-109982000D03*
D22*
X107822999Y-61726999D03*
X107822999Y-54226999D03*
X112862999Y-61726999D03*
X112862999Y-54226999D03*
X102782999Y-61726999D03*
X102782999Y-54226999D03*
D23*
X128122999Y-54226999D03*
D24*
X128122999Y-61726999D03*
D25*
X158559000Y-108458000D03*
X156909000Y-108458000D03*
D21*
X156959000Y-116095000D03*
X158509000Y-116095000D03*
D26*
X137668000Y-120293500D03*
X137668000Y-118643500D03*
D21*
X156959000Y-114554000D03*
X158509000Y-114554000D03*
D26*
X153289000Y-120967000D03*
X153289000Y-119317000D03*
D17*
X171576999Y-57784999D03*
D18*
X171577000Y-52785000D03*
D17*
X92709999Y-107475999D03*
D18*
X92710000Y-112476000D03*
D22*
X156358999Y-54161999D03*
X156358999Y-61661999D03*
X151318999Y-54161999D03*
X151318999Y-61661999D03*
X161398999Y-54161999D03*
X161398999Y-61661999D03*
D23*
X136058999Y-61661999D03*
D24*
X136058999Y-54161999D03*
D27*
X137668000Y-115316000D03*
X137668000Y-116891000D03*
D28*
X110804999Y-109981999D03*
X110804999Y-112521999D03*
X120334999Y-112521999D03*
X120334999Y-109981999D03*
D25*
X158559000Y-129794000D03*
X156909000Y-129794000D03*
X158559000Y-122301000D03*
X156909000Y-122301000D03*
D20*
X149670000Y-112395000D03*
X151320000Y-112395000D03*
D29*
X140715999Y-113875499D03*
D30*
X140716000Y-116415500D03*
D22*
X156358999Y-70798999D03*
X156358999Y-78298999D03*
X151318999Y-70798999D03*
X151318999Y-78298999D03*
X161398999Y-70798999D03*
X161398999Y-78298999D03*
D23*
X136058999Y-78298999D03*
D24*
X136058999Y-70798999D03*
D17*
X92709999Y-117474999D03*
D18*
X92710000Y-122475000D03*
D25*
X158559000Y-126746000D03*
X156909000Y-126746000D03*
X158559000Y-117729000D03*
X156909000Y-117729000D03*
D16*
X172007999Y-125343999D03*
X172007999Y-121533999D03*
D25*
X158559000Y-113030000D03*
X156909000Y-113030000D03*
D21*
X155267000Y-140843000D03*
X156817000Y-140843000D03*
X155280000Y-136271000D03*
X156830000Y-136271000D03*
D31*
X102489000Y-144019000D03*
X102489000Y-145669000D03*
D16*
X172007999Y-108330999D03*
X172007999Y-104520999D03*
X172007999Y-115945999D03*
X172007999Y-112135999D03*
D19*
X102629000Y-124587000D03*
X107429000Y-124587000D03*
D21*
X155267000Y-139319000D03*
X156817000Y-139319000D03*
D26*
X122174000Y-137667000D03*
X122174000Y-136017000D03*
D17*
X92709999Y-88552999D03*
D18*
X92710000Y-93553000D03*
D17*
X171576999Y-67783999D03*
D18*
X171577000Y-62784000D03*
D21*
X156959000Y-111506000D03*
X158509000Y-111506000D03*
D28*
X110804999Y-115950999D03*
X110804999Y-118490999D03*
X120334999Y-118490999D03*
X120334999Y-115950999D03*
D21*
X156959000Y-119253000D03*
X158509000Y-119253000D03*
D25*
X158559000Y-128270000D03*
X156909000Y-128270000D03*
D32*
X153304999Y-117592999D03*
X153804999Y-117592999D03*
X154304999Y-117592999D03*
X154804999Y-117592999D03*
X155304999Y-117592999D03*
X155304999Y-113292999D03*
X154804999Y-113292999D03*
X154304999Y-113292999D03*
X153804999Y-113292999D03*
X153304999Y-113292999D03*
D19*
X102502000Y-112522000D03*
X107302000Y-112522000D03*
D17*
X92709999Y-72296999D03*
D18*
X92710000Y-77297000D03*
D33*
X151003000Y-103772000D03*
X151003000Y-102222000D03*
D27*
X135890000Y-115316000D03*
X135890000Y-116891000D03*
D16*
X91510649Y-141604999D03*
X91510649Y-145414999D03*
X91523349Y-149224999D03*
D28*
X110804999Y-127761999D03*
X110804999Y-130301999D03*
X120334999Y-130301999D03*
X120334999Y-127761999D03*
D19*
X102502000Y-118618000D03*
X107302000Y-118618000D03*
D34*
X125983999Y-147573999D03*
D35*
X125983999Y-145033999D03*
X125983999Y-142493999D03*
X125983999Y-139953999D03*
X125983999Y-137413999D03*
X125983999Y-134873999D03*
D25*
X158559000Y-125222000D03*
X156909000Y-125222000D03*
D36*
X105429499Y-93495999D03*
D37*
X105429500Y-104246000D03*
X143929500Y-104246000D03*
X143929500Y-96246000D03*
D38*
X122174000Y-142671000D03*
X122174000Y-144221000D03*
D28*
X110677999Y-121919999D03*
X110677999Y-124459999D03*
X120207999Y-124459999D03*
X120207999Y-121919999D03*
D17*
X171576999Y-77816999D03*
D18*
X171577000Y-72817000D03*
D39*
X153440999Y-99045999D03*
X153440999Y-101345999D03*
D40*
X159740999Y-101345999D03*
D39*
X153440999Y-103645999D03*
D26*
X135890000Y-120293500D03*
X135890000Y-118643500D03*
D21*
X155267000Y-137795000D03*
X156817000Y-137795000D03*
D41*
X152340999Y-142214999D03*
X152340999Y-140944999D03*
X152340999Y-139674999D03*
X152340999Y-138404999D03*
X152340999Y-137134999D03*
X152340999Y-135864999D03*
X152340999Y-134594999D03*
X152340999Y-133324999D03*
X152340999Y-132054999D03*
X152340999Y-130784999D03*
X152340999Y-129514999D03*
X152340999Y-128244999D03*
X152340999Y-126974999D03*
X152340999Y-125704999D03*
D42*
X149300999Y-124454999D03*
X148030999Y-124454999D03*
X146760999Y-124454999D03*
X145490999Y-124454999D03*
X144220999Y-124454999D03*
X142950999Y-124454999D03*
X141680999Y-124454999D03*
X140410999Y-124454999D03*
X139140999Y-124454999D03*
X137870999Y-124454999D03*
D41*
X134840999Y-125704999D03*
X134840999Y-126974999D03*
X134840999Y-128244999D03*
X134840999Y-129514999D03*
X134840999Y-130784999D03*
X134840999Y-132054999D03*
X134840999Y-133324999D03*
X134840999Y-134594999D03*
X134840999Y-135864999D03*
X134840999Y-137134999D03*
X134840999Y-138404999D03*
X134840999Y-139674999D03*
X134840999Y-140944999D03*
X134840999Y-142214999D03*
D43*
X145796000Y-135637500D03*
X145796000Y-134112500D03*
X145033500Y-136400000D03*
X145033500Y-134875000D03*
X145033500Y-133350000D03*
X144271000Y-135637500D03*
D44*
X144270999Y-134874999D03*
D43*
X144271000Y-134112500D03*
X143508500Y-136400000D03*
X143508500Y-134875000D03*
X143508500Y-133350000D03*
X142746000Y-135637500D03*
X142746000Y-134112500D03*
D22*
X108014999Y-78298999D03*
X108014999Y-70798999D03*
X113054999Y-78298999D03*
X113054999Y-70798999D03*
X102974999Y-78298999D03*
X102974999Y-70798999D03*
D23*
X128314999Y-70798999D03*
D24*
X128314999Y-78298999D03*
D31*
X122174000Y-139319000D03*
X122174000Y-140969000D03*
D29*
X132841999Y-113875499D03*
D30*
X132842000Y-116415500D03*
D38*
X151003000Y-98920000D03*
X151003000Y-100470000D03*
D17*
X92709999Y-52230999D03*
D18*
X92710000Y-57231000D03*
D21*
X156959000Y-120777000D03*
X158509000Y-120777000D03*
D45*
X164505000Y-99314000D02*
G75*
G03*
X164505000Y-101854000I0J-1270000D01*
G01*
D46*
X109900000Y-152400000D02*
X109907300Y-152353700D01*
X154299943Y-152400003D02*
G75*
G03*
X153315200Y-151597600I-859943J-49897D01*
G01*
X153200000Y-49567999D02*
G75*
G03*
X154195099Y-48811901I119500J875599D01*
G01*
D45*
X88900000Y-102997000D02*
G75*
G03*
X90043000Y-101854000I0J1143000D01*
G01*
X174157000Y-99314000D02*
X164505000Y-99314000D01*
D46*
X88900000Y-48768000D02*
X88900000Y-98171000D01*
D45*
X90043000Y-99314000D02*
G75*
G03*
X88900000Y-98171000I-1143000J0D01*
G01*
D46*
X88900000Y-152400000D02*
X109900000Y-152400000D01*
X110000000Y-48768000D02*
X88900000Y-48768000D01*
D45*
X90043000Y-101854000D02*
X99695000Y-101854000D01*
D46*
X153200000Y-151600000D02*
X153315200Y-151597600D01*
X154300000Y-152400000D02*
X175300000Y-152400000D01*
X110000000Y-48768000D02*
G75*
G03*
X110856099Y-49572900I830500J25600D01*
G01*
X111000000Y-151600000D02*
X153200000Y-151600000D01*
D45*
X174157000Y-101854000D02*
G75*
G03*
X175300000Y-102997000I1143000J0D01*
G01*
D46*
X153200000Y-49568000D02*
X111000000Y-49568000D01*
D45*
X90043000Y-99314000D02*
X99695000Y-99314000D01*
X174157000Y-101854000D02*
X164505000Y-101854000D01*
D46*
X88900000Y-102997000D02*
X88900000Y-152400000D01*
D45*
X99695000Y-101854000D02*
G75*
G03*
X99695000Y-99314000I0J1270000D01*
G01*
D46*
X111000000Y-151600000D02*
G75*
G03*
X109907301Y-152353698I-169500J-923200D01*
G01*
X175300000Y-48768000D02*
X154200000Y-48768000D01*
X175300000Y-102997000D02*
X175300000Y-152400000D01*
X154200000Y-48768000D02*
X154195100Y-48811900D01*
X111000000Y-49568000D02*
X110856100Y-49572900D01*
X175300000Y-48768000D02*
X175300000Y-98171000D01*
D45*
X175300000Y-98171000D02*
G75*
G03*
X174157000Y-99314000I0J-1143000D01*
G01*
M02*
